<svg id="Capa_1" enable-background="new 0 0 512 512" height="512" viewBox="0 0 512 512" width="512" xmlns="http://www.w3.org/2000/svg"><g><g><path d="m306 166c-8.284 0-15-6.716-15-15v-30c0-8.271-6.729-15-15-15h-40c-8.271 0-15 6.729-15 15v30c0 8.284-6.716 15-15 15s-15-6.716-15-15v-30c0-24.813 20.187-45 45-45h40c24.813 0 45 20.187 45 45v30c0 8.284-6.716 15-15 15z" fill="#9e5015"/><path d="m276 76h-20v30h20c8.271 0 15 6.729 15 15v30c0 8.284 6.716 15 15 15s15-6.716 15-15v-30c0-24.813-20.187-45-45-45z" fill="#754727"/><path d="m376 376h-240c-8.284 0-15-6.716-15-15v-120c0-8.284 6.716-15 15-15h240c8.284 0 15 6.716 15 15v120c0 8.284-6.716 15-15 15z" fill="#9e5015"/><path d="m376 226h-120v150h120c8.284 0 15-6.716 15-15v-120c0-8.284-6.716-15-15-15z" fill="#754727"/><path d="m396 256h-280c-8.284 0-15-6.716-15-15v-60c0-24.813 20.187-45 45-45h220c24.813 0 45 20.187 45 45v60c0 8.284-6.716 15-15 15z" fill="#cb671b"/><path d="m366 136h-110v120h140c8.284 0 15-6.716 15-15v-60c0-24.813-20.187-45-45-45z" fill="#9e5015"/><path d="m196 281c-8.284 0-15-6.716-15-15v-50c0-8.284 6.716-15 15-15s15 6.716 15 15v50c0 8.284-6.716 15-15 15z" fill="#fff47d"/><path d="m316 281c-8.284 0-15-6.716-15-15v-50c0-8.284 6.716-15 15-15s15 6.716 15 15v50c0 8.284-6.716 15-15 15z" fill="#ffd422"/></g><g><path d="m476.678 385.773c23.108-39.178 35.322-84.052 35.322-129.773 0-68.38-26.629-132.667-74.98-181.02-48.353-48.351-112.64-74.98-181.02-74.98-19.516 0-39.17 2.279-58.417 6.775-8.067 1.884-13.08 9.951-11.195 18.019 1.884 8.066 9.946 13.081 18.019 11.195 17.013-3.974 34.371-5.989 51.593-5.989 124.617 0 226 101.383 226 226 0 68.764-31.706 133.584-84.525 176.138l2.392-13.567c1.439-8.158-4.009-15.938-12.167-17.377-8.158-1.439-15.938 4.009-17.377 12.167l-8.596 48.746c-1.439 8.158 4.009 15.938 12.167 17.377l48.746 8.595c8.158 1.439 15.938-4.009 17.377-12.167 1.439-8.158-4.009-15.938-12.167-17.377l-12.595-2.221c24.528-19.521 45.435-43.434 61.423-70.541z" fill="#51489a"/><path d="m256 0v30c124.617 0 226 101.383 226 226 0 68.764-31.706 133.584-84.525 176.138l2.392-13.567c1.439-8.158-4.009-15.938-12.167-17.377s-15.938 4.009-17.377 12.167l-8.596 48.746c-1.439 8.158 4.009 15.938 12.167 17.377l48.746 8.595c8.158 1.439 15.938-4.009 17.377-12.167 1.439-8.158-4.009-15.938-12.167-17.377l-12.595-2.221c24.527-19.522 45.434-43.435 61.422-70.542 23.109-39.177 35.323-84.051 35.323-129.772 0-68.38-26.629-132.667-74.98-181.02-48.353-48.351-112.64-74.98-181.02-74.98z" fill="#39326c"/><path d="m325.612 487.207c-1.884-8.066-9.947-13.081-18.019-11.195-17.013 3.973-34.371 5.988-51.593 5.988-124.617 0-226-101.383-226-226 0-68.764 31.706-133.585 84.525-176.139l-2.392 13.567c-1.439 8.158 4.009 15.938 12.167 17.377 8.158 1.439 15.938-4.009 17.377-12.167l8.596-48.746c1.439-8.158-4.009-15.938-12.167-17.377l-48.746-8.595c-8.16-1.438-15.94 4.01-17.379 12.168-1.438 8.158 4.009 15.938 12.167 17.376l12.595 2.221c-24.527 19.523-45.433 43.436-61.421 70.542-23.108 39.178-35.322 84.053-35.322 129.773 0 68.38 26.629 132.667 74.98 181.019 48.353 48.353 112.64 74.981 181.02 74.981 19.516 0 39.17-2.279 58.417-6.775 8.067-1.884 13.08-9.951 11.195-18.018z" fill="#51489a"/><path d="m314.417 505.225c8.067-1.884 13.08-9.951 11.195-18.019-1.884-8.066-9.947-13.081-18.019-11.195-17.013 3.974-34.371 5.989-51.593 5.989v30c19.516 0 39.17-2.279 58.417-6.775z" fill="#39326c"/></g></g></svg>