<?xml version="1.0" encoding="UTF-8"?>
<svg id="Layer_1" data-name="Layer 1" xmlns="http://www.w3.org/2000/svg" viewBox="0 0 47 46">
  <defs>
    <style>
      .cls-1 {
        opacity: .28;
      }

      .cls-1, .cls-2 {
        fill: var(--uniprep-primary);
      }

      .cls-3 {
        isolation: isolate;
      }

      .cls-4 {
        stroke: #fff;
      }

      .cls-4, .cls-5 {
        fill: none;
      }

      .cls-6 {
        fill: #273341;
      }
    </style>
  </defs>
  <g>
    <rect id="Rectangle_693" data-name="Rectangle 693" class="cls-1" x=".82" y=".5" width="45" height="45" rx="11" ry="11"/>
    <rect class="cls-5" x="11.63" y="12.5" width="23.38" height="21"/>
    <g id="Group_2307" data-name="Group 2307" class="cls-3">
      <path id="Path_8500" data-name="Path 8500" class="cls-6" d="m20.13,18.87c.07.02.14.03.21.05,1.08.09,2.14.37,3.11.83.1.04.22.06.33.05h3.74c1.1,0,2.21,0,3.31.01.18,0,.34.1.45.24.06.15.05.33-.04.47-.13.12-.31.18-.48.18-1.81.01-3.62,0-5.42,0h-.39c1.4,1.12,2.3,2.76,2.48,4.55.13.01.26.01.38,0,.71-.14,1.42-.26,2.12-.45.28-.13.61-.05.82.18.43.45.97.79,1.56.99.1.03.2.05.3.08-.13-.38-.23-.76-.3-1.15-.15-.74.03-1.52.51-2.11,1.82-2.02,1.74-5.12-.19-7.03-2.81-2.9-7.38-3.16-10.5-.6-1.12.93-1.83,2.27-1.98,3.72m-6.03,13.55s.09-.01.14-.03c.66-.2,1.25-.57,1.72-1.07.15-.17.38-.24.6-.17.62.18,1.26.33,1.9.44,1.98.34,4.01-.14,5.63-1.33,1.36-.92,2.24-2.4,2.39-4.03.2-2.03-.76-3.99-2.48-5.08-2.87-1.96-6.69-1.79-9.37.42-2.31,1.71-2.8,4.96-1.09,7.27.1.13.2.26.31.38.38.4.57.95.53,1.5-.04.57-.17,1.13-.27,1.7m13.3-6.16c-.11,1.16-.54,2.26-1.23,3.19-1.24,1.65-3.1,2.74-5.15,3.02-1.43.21-2.89.11-4.27-.31-.16-.07-.34-.03-.46.09-.88.77-1.99,1.21-3.15,1.24-.22.04-.44-.06-.54-.26-.09-.2-.03-.44.14-.58.6-.62.87-1.49.71-2.34-.02-.13-.08-.25-.16-.35-1.05-1.14-1.63-2.63-1.65-4.17-.03-1.41.47-2.79,1.39-3.86,1.44-1.72,3.51-2.8,5.74-2.99.44-.05.43-.04.52-.53.35-2.09,1.67-3.9,3.56-4.86,3.49-1.88,7.81-1.19,10.53,1.69,2.11,2.25,2.18,5.74.16,8.08-.35.43-.48,1-.35,1.54.08.53.33,1.02.7,1.4.17.14.23.37.15.58-.1.22-.29.26-.51.25-1.17-.02-2.31-.45-3.19-1.22-.08-.08-.19-.13-.31-.13-.86.16-1.71.34-2.63.53"/>
      <path id="Path_8501" data-name="Path 8501" class="cls-6" d="m19.53,28h-3.68c-.37,0-.57-.16-.57-.44s.2-.46.57-.46h7.32c.4,0,.64.22.58.53-.04.24-.27.41-.52.37h-3.71Z"/>
      <path id="Path_8502" data-name="Path 8502" class="cls-6" d="m20.45,25.25h-2.81c-.34,0-.51-.14-.52-.42s.17-.45.53-.45c1.87,0,3.73,0,5.6,0,.21,0,.41.03.47.25.04.15.02.31-.05.45-.11.11-.27.17-.42.16-.93.02-1.85,0-2.78,0"/>
      <path id="Path_8503" data-name="Path 8503" class="cls-6" d="m15.72,24.39c.24,0,.44.18.44.42s-.18.44-.42.44c-.24.01-.45-.18-.46-.42,0,0,0,0,0,0-.02-.23.16-.43.39-.44.02,0,.03,0,.05,0"/>
      <path id="Path_8504" data-name="Path 8504" class="cls-6" d="m27.98,17.95h-2.75c-.35,0-.53-.16-.53-.45s.18-.44.54-.44h5.54c.39,0,.56.14.56.45s-.18.44-.57.44h-2.78Z"/>
      <path id="Path_8505" data-name="Path 8505" class="cls-6" d="m23.76,17.52c0,.24-.2.43-.44.43,0,0-.01,0-.02,0-.23,0-.42-.18-.43-.41,0-.01,0-.03,0-.04,0-.24.19-.44.43-.44,0,0,.01,0,.02,0,.25,0,.44.21.44.46"/>
    </g>
  </g>
  <g id="Ellipse_198" data-name="Ellipse 198">
    <circle class="cls-2" cx="40.68" cy="7.5" r="5.5"/>
    <circle class="cls-4" cx="40.68" cy="7.5" r="5"/>
  </g>
</svg>