<?xml version="1.0" encoding="UTF-8"?>
<svg id="Layer_1" data-name="Layer 1" xmlns="http://www.w3.org/2000/svg" viewBox="0 0 47 46">
  <defs>
    <style>
      .cls-1 {
        opacity: .28;
      }

      .cls-1, .cls-2 {
        fill: var(--primary-500);
      }

      .cls-3 {
        isolation: isolate;
      }

      .cls-4 {
        fill: none;
        stroke: #fff;
      }

      .cls-5 {
        fill: #273341;
      }
    </style>
  </defs>
  <rect id="Rectangle_694" data-name="Rectangle 694" class="cls-1" x=".4" y=".53" width="45" height="45" rx="11" ry="11"/>
  <g id="Group_1715" data-name="Group 1715" class="cls-3">
    <g id="Group_1708" data-name="Group 1708">
      <path id="Path_8131" data-name="Path 8131" class="cls-5" d="m31.65,22.78c-.23,0-.42-.19-.42-.42,0-2.43-.96-4.77-2.68-6.48-.15-.17-.14-.43.03-.59.16-.14.4-.14.56,0,1.88,1.87,2.94,4.42,2.93,7.07,0,.23-.19.42-.42.42Z"/>
    </g>
    <g id="Group_1709" data-name="Group 1709">
      <path id="Path_8132" data-name="Path 8132" class="cls-5" d="m14.15,22.78c-.23,0-.42-.19-.42-.42,0-2.65,1.05-5.2,2.93-7.07.17-.15.43-.14.59.03.14.16.14.4,0,.56-1.73,1.71-2.69,4.05-2.68,6.48,0,.23-.19.42-.42.42h0Z"/>
    </g>
    <g id="Group_1710" data-name="Group 1710">
      <path id="Path_8133" data-name="Path 8133" class="cls-5" d="m24.15,17.51c-.23,0-.42-.19-.42-.42v-1.4c0-.46-.37-.83-.83-.83s-.83.37-.83.83v1.4c-.01.23-.21.41-.44.4-.21-.01-.39-.18-.4-.4v-1.4c.02-.92.79-1.65,1.71-1.63.89.02,1.6.74,1.63,1.63v1.4c0,.23-.19.42-.41.42,0,0,0,0,0,0Z"/>
    </g>
    <g id="Group_1711" data-name="Group 1711">
      <path id="Path_8134" data-name="Path 8134" class="cls-5" d="m22.9,34.02c-1.61,0-2.91-1.31-2.92-2.92-.01-.23.17-.43.4-.44s.43.17.44.4c0,.01,0,.03,0,.04,0,1.15.93,2.08,2.08,2.08s2.08-.93,2.08-2.08c-.01-.23.17-.43.4-.44s.43.17.44.4c0,.01,0,.03,0,.04,0,1.61-1.31,2.91-2.92,2.92Z"/>
    </g>
    <g id="Group_1712" data-name="Group 1712">
      <path id="Path_8135" data-name="Path 8135" class="cls-5" d="m29.98,31.53h-14.17c-.69,0-1.25-.56-1.25-1.25,0-.37.16-.71.44-.95,1.31-1.1,2.06-2.73,2.06-4.44v-2.53c0-3.22,2.61-5.83,5.83-5.83,3.22,0,5.83,2.61,5.83,5.83v2.53c0,1.71.75,3.33,2.06,4.43.53.44.6,1.23.15,1.76-.24.28-.59.45-.96.45Zm-7.08-14.17c-2.76,0-5,2.24-5,5h0v2.53c0,1.95-.86,3.81-2.35,5.07-.18.15-.2.41-.05.59.08.1.2.15.32.15h14.17c.23,0,.42-.19.42-.42,0-.12-.05-.24-.14-.31-1.49-1.26-2.36-3.11-2.35-5.07v-2.53c0-2.76-2.24-5-5-5Z"/>
    </g>
  </g>
  <g id="Ellipse_198" data-name="Ellipse 198">
    <circle class="cls-2" cx="40.82" cy="8.53" r="5.5"/>
    <circle class="cls-4" cx="40.82" cy="8.53" r="5"/>
  </g>
</svg>