<?xml version="1.0" encoding="UTF-8"?>
<svg id="Layer_1" data-name="Layer 1" xmlns="http://www.w3.org/2000/svg" xmlns:xlink="http://www.w3.org/1999/xlink" viewBox="0 0 100 36">
  <defs>
    <style>
      .cls-1, .cls-2 {
        fill: #fff;
      }

      .cls-3, .cls-2 {
        isolation: isolate;
      }

      .cls-2 {
        font-family: Poppins-Medium, Poppins;
        font-size: 12px;
        font-weight: 500;
      }

      .cls-4 {
        clip-path: url(#clippath);
      }

      .cls-5 {
        fill: none;
      }

      .cls-6 {
        fill: url(#linear-gradient);
      }
    </style>
    <linearGradient id="linear-gradient" x1="-1573.3" y1="4746.96" x2="-1573.3" y2="4745.96" gradientTransform="translate(157379.5 170890.5) scale(100 -36)" gradientUnits="userSpaceOnUse">
      <stop offset="0" stop-color="#f6d166"/>
      <stop offset="1" stop-color="#fe9f84"/>
    </linearGradient>
    <clipPath id="clippath">
      <rect class="cls-5" x="16.5" y="10" width="19.5" height="18.39"/>
    </clipPath>
  </defs>
  <g id="Group_6820" data-name="Group 6820">
    <path id="Path_13335-2" data-name="Path 13335-2" class="cls-6" d="m10,0h80c5.52,0,10,4.13,10,9.23v17.54c0,5.1-4.48,9.23-10,9.23H10c-5.52,0-10-4.13-10-9.23V9.23C0,4.13,4.48,0,10,0Z"/>
    <g id="Group_6659" data-name="Group 6659">
      <g class="cls-4">
        <g id="Group_6658" data-name="Group 6658">
          <path id="Path_13304" data-name="Path 13304" class="cls-1" d="m19.77,14.1c-.04-.18-.08-.36-.12-.54s-.09-.38-.12-.57c-.07-.59.32-1.15.9-1.28.1-.02.2-.03.3-.03h1.99v-.29c0-.19,0-.38.04-.57.12-.48.55-.82,1.04-.81h7.15c.12,0,.23.05.31.13.81.81,1.63,1.63,2.44,2.44l2.19,2.19c.07.06.1.15.1.24v12.29c0,.6-.48,1.08-1.07,1.09,0,0,0,0-.01,0h-11.1c-.55,0-1.01-.41-1.08-.95-.02-.08-.05-.15-.09-.22-.47-.89-.93-1.78-1.4-2.67-.17-.32-.34-.64-.5-.96l-1.36-2.58-1.43-2.71c-.38-.73-.77-1.46-1.15-2.19-.1-.17-.18-.34-.24-.53-.18-.62.18-1.27.8-1.44.04-.01.08-.02.11-.03.08-.01.17-.02.25-.02h2.05m10.86-3.38h-6.79c-.2-.02-.38.14-.4.34,0,.02,0,.05,0,.07v16.17c0,.2.15.37.35.38,0,0,.01,0,.02,0h9.38c.56,0,1.12,0,1.69,0,.22.01.41-.16.42-.38,0-.01,0-.03,0-.04,0-1.34,0-2.68,0-4.02v-7.86h-3.57c-.06,0-.12,0-.18-.01-.54-.09-.93-.56-.91-1.11v-3.53m-7.91,13.3h0v-11.62h-2.02c-.25,0-.46.21-.46.46,0,.04,0,.07.01.11.24,1.08.48,2.16.72,3.24l.67,3.03c.09.42.19.85.28,1.27.12.55.24,1.1.36,1.65.11.49.22.98.33,1.47l.09.39m-.59.71h.01l-2.21-9.91h-2.23c-.13,0-.25.04-.34.14-.15.15-.18.39-.07.57l2.07,3.93,2.11,4.01.67,1.27m9.21-13.5v3.03c-.02.21.14.39.35.41.02,0,.04,0,.06,0h2.97s.03,0,.05,0l-3.43-3.43"/>
          <path id="Path_13305" data-name="Path 13305" class="cls-1" d="m25.72,22.77c-.86.02-1.57-.66-1.58-1.52-.02-.86.66-1.57,1.52-1.58.86-.02,1.57.66,1.58,1.52,0,.01,0,.02,0,.03,0,.85-.67,1.54-1.52,1.55m-.04-.71c.46,0,.84-.37.84-.84s-.37-.84-.84-.84c-.45,0-.82.35-.84.79-.02.47.34.86.81.88,0,0,.02,0,.03,0"/>
          <path id="Path_13306" data-name="Path 13306" class="cls-1" d="m25.68,19c-.86,0-1.55-.7-1.55-1.56,0-.86.7-1.55,1.56-1.55.86,0,1.55.7,1.55,1.56,0,0,0,0,0,0,0,.85-.7,1.54-1.56,1.54m-.84-1.56c0,.46.37.84.83.85.46,0,.84-.37.85-.83,0-.46-.36-.84-.83-.85-.46,0-.84.36-.85.82,0,0,0,0,0,0"/>
          <path id="Path_13307" data-name="Path 13307" class="cls-1" d="m25.67,26.55c-.86,0-1.55-.71-1.54-1.56,0-.86.71-1.55,1.56-1.54.86,0,1.55.7,1.54,1.56,0,.86-.7,1.55-1.56,1.54,0,0,0,0,0,0m0-.72c.46,0,.84-.37.84-.83,0-.46-.37-.84-.83-.84s-.84.37-.84.83c0,0,0,0,0,0,0,.46.37.83.83.84"/>
          <path id="Path_13308" data-name="Path 13308" class="cls-1" d="m30.85,26.28h-2.9c-.18,0-.34-.13-.36-.31-.02-.17.08-.33.24-.38.05-.02.1-.02.15-.02h5.79c.2,0,.36.16.36.35,0,.11-.05.21-.13.28-.07.05-.16.08-.25.08h-2.9"/>
          <path id="Path_13309" data-name="Path 13309" class="cls-1" d="m30.86,16.3h2.9c.18,0,.33.12.36.29.03.16-.05.32-.2.39-.05.02-.11.04-.17.04h-5.8c-.2,0-.36-.15-.36-.35,0-.2.15-.36.35-.36h2.92"/>
          <path id="Path_13310" data-name="Path 13310" class="cls-1" d="m30.85,20.98h-2.9c-.2,0-.36-.16-.36-.36s.16-.36.36-.36h5.82c.17,0,.32.11.35.28.04.16-.04.32-.18.39-.05.03-.11.04-.18.04h-2.91"/>
          <path id="Path_13311" data-name="Path 13311" class="cls-1" d="m30.85,21.59h2.88c.13-.01.25.04.33.15.08.11.1.25.03.37-.06.13-.19.21-.33.2h-5.8c-.2,0-.37-.15-.38-.35,0,0,0,0,0-.01,0-.2.16-.36.36-.36,0,0,.01,0,.02,0h2.9Z"/>
          <path id="Path_13312" data-name="Path 13312" class="cls-1" d="m30.85,24.95h-2.9c-.2,0-.37-.15-.38-.35,0-.2.16-.36.35-.36,0,0,.02,0,.03,0h5.79c.19-.01.36.13.38.32.02.18-.1.34-.27.39-.02,0-.05,0-.07,0h-2.93Z"/>
          <path id="Path_13313" data-name="Path 13313" class="cls-1" d="m30.86,17.62h2.92c.2,0,.36.16.36.35,0,.07-.02.14-.06.2-.06.1-.18.16-.3.16h-5.83c-.2.01-.36-.14-.37-.34s.14-.36.34-.37c.01,0,.03,0,.04,0h2.91"/>
          <path id="Path_13314" data-name="Path 13314" class="cls-1" d="m27.01,13.05h-1.98c-.16,0-.31-.1-.35-.26-.05-.16.02-.32.17-.4.07-.03.14-.05.22-.05h3.95c.2,0,.36.15.36.35,0,.17-.11.32-.28.35-.08.01-.17.02-.25.01h-1.83"/>
          <path id="Path_13315" data-name="Path 13315" class="cls-1" d="m27.01,13.65h1.97c.14-.01.28.07.34.2.09.18.01.39-.16.48-.05.02-.1.04-.16.04h-2.9c-.35,0-.71,0-1.06,0-.2.01-.37-.14-.38-.33-.01-.2.14-.37.33-.38.01,0,.02,0,.04,0h1.99"/>
        </g>
      </g>
    </g>
    <g id="Report" class="cls-3">
      <text class="cls-2" transform="translate(44.07 24)"><tspan x="0" y="0">Report</tspan></text>
    </g>
  </g>
</svg>