<?xml version="1.0" encoding="UTF-8"?>
<svg id="Layer_1" data-name="Layer 1" xmlns="http://www.w3.org/2000/svg" xmlns:xlink="http://www.w3.org/1999/xlink" viewBox="0 0 47.5 48">
  <defs>
    <style>
      .cls-1 {
        fill: url(#linear-gradient-2);
      }

      .cls-2 {
        clip-path: url(#clippath);
      }

      .cls-3 {
        fill: none;
      }

      .cls-4 {
        fill: url(#linear-gradient);
      }
    </style>
    <clipPath id="clippath">
      <rect class="cls-3" x=".57" y="1.08" width="46" height="46"/>
    </clipPath>
    <linearGradient id="linear-gradient" x1="-1452.6" y1="4418.22" x2="-1452.6" y2="4417.22" gradientTransform="translate(51735.87 157259.83) scale(35.6 -35.59)" gradientUnits="userSpaceOnUse">
      <stop offset="0" stop-color="var(--primary-500)"/>
      <stop offset=".09" stop-color="#90b721"/>
      <stop offset=".39" stop-color="#81a616"/>
      <stop offset="1" stop-color="#80a515"/>
    </linearGradient>
    <linearGradient id="linear-gradient-2" x1="-1408.13" y1="4535.14" x2="-1408.13" y2="4534.14" gradientTransform="translate(22607.11 72906.68) scale(16.03 -16.07)" xlink:href="#linear-gradient"/>
  </defs>
  <g class="cls-2">
    <g id="Group_2292" data-name="Group 2292">
      <path id="Path_8495" data-name="Path 8495" class="cls-4" d="m19.26.98c.69.1,1.38.18,2.07.3,9.67,1.78,16.06,11.06,14.28,20.73-.36,1.96-1.05,3.84-2.03,5.57-.12.16-.12.39,0,.55.41.67.44,1.5.09,2.19-.6,1.3-1.53,2.42-2.68,3.26-.63.56-1.42.93-2.25,1.07-.5.09-1.02-.03-1.45-.31-.15-.13-.37-.13-.52-.02-2.79,1.6-5.98,2.38-9.2,2.23-6.6-.12-12.56-3.94-15.42-9.89-1.02-1.99-1.63-4.16-1.78-6.39-.02-.11-.04-.23-.07-.34v-2.33c.1-.71.19-1.43.32-2.14C1.99,8.27,7.63,2.64,14.83,1.29c.7-.12,1.4-.21,2.1-.31h2.33Zm13.96,17.83c0-8.35-6.75-15.12-15.1-15.13-8.35,0-15.12,6.75-15.13,15.1,0,8.35,6.75,15.12,15.1,15.13.03,0,.06,0,.1,0,8.32-.03,15.04-6.78,15.03-15.1"/>
      <path id="Path_8496" data-name="Path 8496" class="cls-1" d="m41.8,47.61c-.37-.25-.71-.53-1.04-.84-3.24-3.54-6.47-7.1-9.69-10.66-.07-.07-.12-.16-.17-.23,1.93-.84,3.45-2.4,4.26-4.35.16.14.35.29.53.45,3.53,3.21,7.07,6.42,10.6,9.64.24.26.46.55.64.85v.78c-.03.07-.06.14-.08.21-.36,1.45-1.28,2.69-2.57,3.44-.53.26-1.07.5-1.62.7h-.86Z"/>
    </g>
  </g>
</svg>