<?xml version="1.0" encoding="UTF-8"?>
<svg id="Layer_1" data-name="Layer 1" xmlns="http://www.w3.org/2000/svg" xmlns:xlink="http://www.w3.org/1999/xlink" viewBox="0 0 121 121">
  <defs>
    <style>
      .cls-1, .cls-2 {
        fill: #fff;
      }

      .cls-3, .cls-2 {
        isolation: isolate;
      }

      .cls-2 {
        font-family: Poppins-Medium, Poppins;
        font-size: 16px;
        font-weight: 500;
      }

      .cls-4 {
        fill: url(#linear-gradient);
      }
    </style>
    <linearGradient id="linear-gradient" x1="-2541.49" y1="3936.39" x2="-2541.49" y2="3935.39" gradientTransform="translate(307581 476303) scale(121 -121)" gradientUnits="userSpaceOnUse">
      <stop offset="0" stop-color="#b5e331"/>
      <stop offset="1" stop-color="var(--primary-500)"/>
    </linearGradient>
  </defs>
  <g id="Group_6768" data-name="Group 6768">
    <rect id="Rectangle_17136-2" data-name="Rectangle 17136-2" class="cls-4" x=".15" y="0" width="121" height="121" rx="10" ry="10"/>
    <g id="Group_6764" data-name="Group 6764">
      <g id="Start_Reading" data-name="Start Reading" class="cls-3">
        <text class="cls-2" transform="translate(40.87 80.35)"><tspan x="0" y="0">Start</tspan></text>
        <text class="cls-2" transform="translate(26.58 96.35)"><tspan x="0" y="0">Reading</tspan></text>
      </g>
      <path id="library_books_FILL0_wght400_GRAD0_opsz48" data-name="library books FILL0 wght400 GRAD0 opsz48" class="cls-1" d="m56.21,34.23h13.79c.68,0,1.24-.55,1.24-1.23,0-.68-.55-1.24-1.23-1.24h-13.79c-.68,0-1.24.55-1.24,1.23,0,.68.55,1.24,1.23,1.24h0Zm0,3.7h6.79c.68,0,1.24-.55,1.24-1.23,0-.68-.55-1.24-1.23-1.24h-6.79c-.68,0-1.24.55-1.24,1.23,0,.68.55,1.24,1.23,1.24h0Zm0-7.41h13.79c.68,0,1.24-.55,1.24-1.24s-.55-1.23-1.24-1.23h-13.79c-.68,0-1.23.55-1.23,1.23s.55,1.24,1.23,1.24Zm-4.65,16.47c-1.35-.03-2.44-1.12-2.47-2.47v-23.05c0-.65.27-1.28.74-1.73.45-.47,1.08-.74,1.73-.74h23.05c.65,0,1.28.27,1.73.74.47.45.74,1.08.74,1.73v23.05c-.03,1.35-1.12,2.44-2.47,2.47h-23.05Zm0-2.47h23.05v-23.05h-23.05v23.05Zm-4.94,7.41c-.65,0-1.28-.27-1.73-.74-.47-.45-.74-1.08-.74-1.73v-24.29c-.02-.66.5-1.22,1.16-1.24.02,0,.05,0,.07,0,.66-.02,1.22.5,1.23,1.16,0,.02,0,.05,0,.07v24.29h24.29c.68,0,1.24.55,1.24,1.24s-.55,1.24-1.24,1.24h-24.29Zm4.94-30.46h0Z"/>
    </g>
  </g>
</svg>