<?xml version="1.0" encoding="UTF-8"?>
<svg id="Layer_1" data-name="Layer 1" xmlns="http://www.w3.org/2000/svg" xmlns:xlink="http://www.w3.org/1999/xlink" viewBox="0 0 121 121">
  <defs>
    <style>
      .cls-1, .cls-2 {
        fill: #fff;
      }

      .cls-3, .cls-2 {
        isolation: isolate;
      }

      .cls-2 {
        font-family: Poppins-Medium, Poppins;
        font-size: 15px;
        font-weight: 500;
      }

      .cls-4 {
        clip-path: url(#clippath);
      }

      .cls-5 {
        fill: none;
      }

      .cls-6 {
        fill: url(#linear-gradient);
      }
    </style>
    <linearGradient id="linear-gradient" x1="-2214.6" y1="4012.35" x2="-2214.6" y2="4011.35" gradientTransform="translate(268026.5 485494) scale(121 -121)" gradientUnits="userSpaceOnUse">
      <stop offset="0" stop-color="#f6d166"/>
      <stop offset="1" stop-color="#fe9f84"/>
    </linearGradient>
    <clipPath id="clippath">
      <rect class="cls-5" x="46" y="22" width="29.04" height="44.78"/>
    </clipPath>
  </defs>
  <g id="Group_6767" data-name="Group 6767">
    <path id="Path_13328-2" data-name="Path 13328-2" class="cls-6" d="m10,0h101c5.52,0,10,4.48,10,10v101c0,5.52-4.48,10-10,10H10c-5.52,0-10-4.48-10-10V10C0,4.48,4.48,0,10,0Z"/>
    <g id="Group_6764" data-name="Group 6764">
      <g id="Start_Quiz" data-name="Start Quiz" class="cls-3">
        <text class="cls-2" transform="translate(24.69 93.12)"><tspan x="0" y="0">Start Quiz</tspan></text>
      </g>
      <g id="Group_6769" data-name="Group 6769">
        <g class="cls-4">
          <g id="Group_4924" data-name="Group 4924">
            <path id="Path_12258" data-name="Path 12258" class="cls-1" d="m65.33,61.03c.28.54.32,1.18.11,1.75-.2.59-.66,1.07-1.24,1.29-.09.03-.16.1-.18.19-.65,1.93-2.74,2.96-4.67,2.31-1.08-.36-1.93-1.21-2.3-2.28-.02-.08-.08-.15-.15-.18-1.15-.37-1.78-1.61-1.4-2.76.02-.06.04-.12.07-.18,0-.03.02-.05.01-.04-.26-.2-.5-.41-.72-.65-.77-.92-.64-2.29.28-3.06.05-.04.1-.08.15-.11.07-.04.11-.13.09-.21-.31-2.03-1.25-3.92-2.7-5.38-3.93-4.08-3.9-10.55.07-14.59,1.85-1.97,4.4-3.11,7.1-3.19,3.13-.16,6.16,1.11,8.23,3.47,1.39,1.5,2.29,3.38,2.58,5.41.49,2.99-.36,6.05-2.32,8.36-.34.42-.73.8-1.08,1.22-1.09,1.3-1.81,2.87-2.08,4.55-.01.08-.03.15.08.21,1.08.54,1.52,1.86.98,2.94-.18.36-.46.67-.8.88-.02.02-.05.03-.08.06m-8.5-4.13s.08,0,.12,0h6.6c.12,0,.13-.05.15-.15.36-2.25,1.4-4.34,3-5.96.8-.82,1.44-1.77,1.89-2.83.85-1.98.95-4.21.29-6.27-1.35-4.21-5.54-6.83-9.92-6.2-1.74.23-3.36.99-4.65,2.17-2.35,2-3.48,5.08-2.99,8.12.26,1.9,1.14,3.65,2.51,5,.95.98,1.71,2.12,2.24,3.38.37.87.62,1.79.76,2.73m3.57,2.93h3.84c.4,0,.73-.31.74-.71,0-.06,0-.12-.02-.18-.08-.36-.42-.6-.79-.57h-7.62c-.26,0-.49.14-.62.36-.21.34-.1.79.24.99.12.07.26.11.4.11h3.82m.07,2.93h2.85c.4.02.75-.28.77-.69s-.28-.75-.69-.77c-.03,0-.05,0-.08,0h-5.71c-.12,0-.24.02-.35.07-.31.14-.48.47-.41.8.07.34.37.59.72.58h2.88m1.94,1.49h-3.78c.65,1.04,2.03,1.35,3.07.7.28-.18.52-.42.7-.7"/>
            <path id="Path_12259" data-name="Path 12259" class="cls-1" d="m59.71,25.89c0-1.05.01-2.1,0-3.15-.01-.41.31-.74.72-.75.13,0,.25.03.37.09.26.12.41.38.39.67v6.38c0,.36-.28.66-.64.69-.36.06-.71-.16-.81-.51-.02-.08-.02-.16-.02-.24v-3.17"/>
            <path id="Path_12260" data-name="Path 12260" class="cls-1" d="m46.77,28.89c.21.01.41.11.55.27.95.96,1.91,1.91,2.86,2.86.52.52,1.05,1.05,1.57,1.57.21.18.3.47.21.73-.09.29-.33.5-.63.55-.23.03-.46-.05-.61-.23-.9-.9-1.8-1.8-2.7-2.7-.59-.6-1.19-1.19-1.78-1.78-.22-.19-.29-.51-.17-.78.12-.29.4-.48.71-.49"/>
            <path id="Path_12261" data-name="Path 12261" class="cls-1" d="m69.05,34.11c.01-.21.11-.4.26-.53,1.01-1.01,2.03-2.03,3.04-3.04.47-.47.93-.93,1.39-1.39.18-.21.47-.3.73-.22.29.08.5.32.55.61.04.24-.04.48-.23.63-.8.8-1.61,1.6-2.41,2.41-.69.69-1.38,1.38-2.07,2.07-.19.22-.51.3-.78.18-.29-.12-.49-.4-.5-.72"/>
            <path id="Path_12262" data-name="Path 12262" class="cls-1" d="m56.97,48.57h6.95v-2.31c-.02-.25.11-.48.33-.59.23-.12.51-.11.73.02.19.11.3.31.29.52,0,1.02,0,2.03,0,3.05,0,.33-.25.62-.58.66-.06,0-.13.01-.19.01h-8.08c-.09,0-.19,0-.28-.02-.28-.06-.49-.3-.52-.59,0-.06,0-.13,0-.19v-8.19c-.06-.39.21-.74.59-.8.07-.01.14-.01.21,0h5.62c.37-.02.7.26.72.63s-.26.7-.63.72c-.03,0-.06,0-.09,0h-5.06v7.07Z"/>
            <path id="Path_12263" data-name="Path 12263" class="cls-1" d="m61.16,45.82l1.08-1.26,2.39-2.81c.17-.27.53-.35.8-.18.01,0,.03.02.04.03.31.21.42.62.24.95-.03.06-.07.11-.12.16-1.3,1.53-2.62,3.06-3.91,4.6-.27.3-.73.32-1.02.05-.02-.02-.05-.04-.07-.07-.9-1.15-1.82-2.27-2.73-3.4-.25-.27-.27-.67-.04-.96.17-.27.53-.36.8-.19.07.04.14.1.18.18.39.48.78.97,1.17,1.45l1.09,1.35s.05.06.09.1"/>
          </g>
        </g>
      </g>
    </g>
  </g>
</svg>