<?xml version="1.0" encoding="UTF-8"?>
<svg id="Layer_1" data-name="Layer 1" xmlns="http://www.w3.org/2000/svg" xmlns:xlink="http://www.w3.org/1999/xlink" viewBox="0 0 122 37">
  <defs>
    <style>
      .cls-1 {
        fill: #fff;
      }

      .cls-2 {
        isolation: isolate;
      }

      .cls-3 {
        fill: url(#linear-gradient);
      }
    </style>
    <linearGradient id="linear-gradient" x1="-1442.78" y1="4744.11" x2="-1442.78" y2="4743.11" gradientTransform="translate(176080.5 175532) scale(122 -37)" gradientUnits="userSpaceOnUse">
      <stop offset="0" stop-color="#b5e331"/>
      <stop offset="1" stop-color="var(--p-primary-500)"/>
    </linearGradient>
  </defs>
  <rect id="Rectangle_17040" data-name="Rectangle 17040" class="cls-3" width="122" height="37" rx="11" ry="11"/>
  <g id="No_worriest_Just_en-3" data-name="No worriest Just en-3" class="cls-2">
    <g class="cls-2">
      <path class="cls-1" d="m9.31,24.31c-2.08,0-3.69-1.14-3.69-2.99h1.83c.08.85.67,1.54,1.86,1.54s1.88-.64,1.88-1.53c0-2.52-5.53-.88-5.53-4.72,0-1.83,1.46-2.97,3.58-2.97,1.99,0,3.4,1.05,3.55,2.83h-1.89c-.06-.71-.68-1.35-1.75-1.38-.99-.03-1.76.45-1.76,1.46,0,2.35,5.52.88,5.52,4.69,0,1.56-1.28,3.06-3.6,3.06Z"/>
      <path class="cls-1" d="m22.42,24.21h-1.71v-.99c-.54.71-1.47,1.11-2.45,1.11-1.93,0-3.4-1.21-3.4-3.53v-4.86h1.7v4.6c0,1.52.82,2.29,2.07,2.29s2.08-.78,2.08-2.29v-4.6h1.71v8.26Z"/>
      <path class="cls-1" d="m29.26,15.81c2.19,0,3.88,1.68,3.88,4.23s-1.71,4.3-3.88,4.3c-1.37,0-2.34-.62-2.88-1.33v1.2h-1.71v-11.1h1.71v4.06c.54-.75,1.57-1.36,2.88-1.36Zm-.38,1.48c-1.28,0-2.5,1-2.5,2.78s1.23,2.79,2.5,2.79,2.52-1.04,2.52-2.82-1.23-2.75-2.52-2.75Z"/>
      <path class="cls-1" d="m37.84,24.34c-1.98,0-3.38-1.17-3.45-2.67h1.77c.06.67.71,1.23,1.65,1.23s1.51-.42,1.51-.99c0-1.62-4.8-.69-4.8-3.72,0-1.32,1.23-2.38,3.18-2.38s3.11,1,3.2,2.65h-1.71c-.06-.72-.62-1.21-1.54-1.21s-1.4.38-1.4.93c0,1.66,4.67.73,4.75,3.72,0,1.39-1.21,2.44-3.16,2.44Z"/>
      <path class="cls-1" d="m46.33,15.81c2.02,0,3.34,1,3.81,2.75h-1.84c-.29-.8-.95-1.31-1.96-1.31-1.38,0-2.29,1.02-2.29,2.82s.92,2.83,2.29,2.83c1.02,0,1.65-.45,1.96-1.31h1.84c-.46,1.62-1.79,2.75-3.81,2.75-2.37,0-4.05-1.68-4.05-4.27s1.68-4.26,4.05-4.26Z"/>
      <path class="cls-1" d="m53.56,24.21h-1.71v-8.26h1.71v1.2c.48-.83,1.3-1.33,2.47-1.33v1.77h-.43c-1.26,0-2.04.53-2.04,2.28v4.35Z"/>
      <path class="cls-1" d="m57.39,13.75c0-.62.48-1.1,1.09-1.1s1.08.48,1.08,1.1-.48,1.09-1.08,1.09-1.09-.48-1.09-1.09Zm.22,2.19h1.71v8.26h-1.71v-8.26Z"/>
      <path class="cls-1" d="m66.16,15.81c2.19,0,3.88,1.68,3.88,4.23s-1.71,4.3-3.88,4.3c-1.37,0-2.34-.62-2.88-1.33v1.2h-1.71v-11.1h1.71v4.06c.54-.75,1.57-1.36,2.88-1.36Zm-.38,1.48c-1.28,0-2.5,1-2.5,2.78s1.23,2.79,2.5,2.79,2.52-1.04,2.52-2.82-1.23-2.75-2.52-2.75Z"/>
      <path class="cls-1" d="m75.29,24.34c-2.37,0-4.12-1.68-4.12-4.27s1.68-4.26,4.12-4.26,4.02,1.63,4.02,4.06c0,.29-.01.55-.06.84h-6.32c.12,1.37,1.1,2.19,2.36,2.19,1.05,0,1.63-.51,1.95-1.16h1.84c-.46,1.44-1.77,2.59-3.79,2.59Zm-2.34-5.01h4.57c-.03-1.27-1.03-2.08-2.31-2.08-1.16,0-2.08.78-2.26,2.08Z"/>
      <path class="cls-1" d="m93.46,13.77v10.44h-1.71l-5.14-7.79v7.79h-1.71v-10.44h1.71l5.14,7.77v-7.77h1.71Z"/>
      <path class="cls-1" d="m99.29,24.34c-2.36,0-4.14-1.68-4.14-4.27s1.86-4.26,4.21-4.26,4.21,1.67,4.21,4.26-1.92,4.27-4.29,4.27Zm0-1.48c1.27,0,2.53-.92,2.53-2.79s-1.21-2.78-2.49-2.78-2.45.9-2.45,2.78,1.11,2.79,2.4,2.79Z"/>
      <path class="cls-1" d="m104.3,15.94h1.74l1.72,6.64,1.75-6.64h1.79l1.68,6.61,1.71-6.61h1.68l-2.56,8.26h-1.8l-1.67-6.1-1.67,6.1h-1.8l-2.58-8.26Z"/>
    </g>
  </g>
</svg>