<?xml version="1.0" encoding="UTF-8"?>
<svg id="Layer_1" data-name="Layer 1" xmlns="http://www.w3.org/2000/svg" viewBox="0 0 47 46">
  <defs>
    <style>
      .cls-1 {
        opacity: .28;
      }

      .cls-1, .cls-2 {
        fill: var(--p-primary-500);
      }

      .cls-3 {
        isolation: isolate;
      }

      .cls-4 {
        stroke: #fff;
      }

      .cls-4, .cls-5 {
        fill: none;
      }

      .cls-6 {
        fill: #273341;
      }
    </style>
  </defs>
  <g>
    <rect id="Rectangle_17005" data-name="Rectangle 17005" class="cls-1" x=".69" y=".5" width="45" height="45" rx="11" ry="11"/>
    <rect class="cls-5" x="16.98" y="12.5" width="12.41" height="21"/>
    <g id="Group_6424" data-name="Group 6424" class="cls-3">
      <path id="Path_13097" data-name="Path 13097" class="cls-6" d="m28.69,20.3v-.97c.34,0,.61-.27.61-.61,0-.34-.27-.61-.61-.61h0v-1.83c0-.34-.27-.61-.61-.61h-9.78c-.34,0-.61.27-.61.61h0v1.83c-.34,0-.61.27-.61.61,0,.34.27.61.61.61h0v.97c-1.57,1.66-2.45,3.86-2.44,6.15v6.24c0,2.06,1.66,3.74,3.72,3.74,0,0,0,0,.01,0h8.41c2.06,0,3.74-1.66,3.74-3.73,0,0,0,0,0-.01v-6.25c0-2.29-.87-4.49-2.44-6.15Zm-9.78-3.41h8.55v1.22h-8.55v-1.22Zm11,15.81c0,1.39-1.13,2.51-2.52,2.52h-8.41c-1.39,0-2.51-1.13-2.52-2.52v-6.24c0-2.05.81-4.02,2.27-5.47.11-.12.18-.27.18-.43v-1.22h8.55v1.22c0,.16.06.32.18.43,1.46,1.45,2.28,3.44,2.27,5.5v6.21Zm-6.72-18.25c1.35,0,2.44-1.09,2.44-2.44,0-1.35-1.09-2.44-2.44-2.44-1.35,0-2.44,1.09-2.44,2.44,0,.65.26,1.27.72,1.73.46.46,1.08.72,1.73.72m0-3.67c.67,0,1.22.55,1.22,1.22s-.55,1.22-1.22,1.22c-.67,0-1.22-.55-1.22-1.22,0-.32.13-.63.36-.86.23-.23.54-.36.86-.36m.12,12.83c-.43.26-.71.72-.73,1.22v.97c-1.18-.48-2.49-.48-3.67,0-.67.2-1.15.79-1.22,1.48v4.89c.07.69.55,1.27,1.22,1.48,1.18.48,2.49.48,3.67,0,.22-.1.42-.22.61-.36.19.14.39.27.61.36.58.24,1.2.36,1.83.35,1.74,0,3.05-.79,3.05-1.83v-7.33c0-1.04-1.31-1.83-3.05-1.83-.82-.03-1.63.18-2.32.61h0Zm-.73,8.55c0,.15-.65.61-1.83.61s-1.83-.46-1.83-.61v-.97c1.18.48,2.49.48,3.67,0v.97Zm0-2.44c0,.15-.65.61-1.83.61s-1.83-.46-1.83-.61v-.97c1.18.48,2.49.48,3.67,0v.97Zm-1.83-1.83c-1.19,0-1.83-.46-1.83-.61s.65-.61,1.83-.61,1.83.46,1.83.61-.65.61-1.83.61m6.72,4.28c0,.15-.65.61-1.83.61s-1.83-.46-1.83-.61v-.97c1.18.48,2.49.48,3.67,0v.97Zm0-2.44c0,.15-.65.61-1.83.61s-1.83-.46-1.83-.61v-.97c1.18.48,2.49.48,3.67,0v.97Zm0-2.44c0,.15-.65.61-1.83.61s-1.83-.46-1.83-.61v-.97c1.18.48,2.49.48,3.67,0v.97Zm0-2.44c0,.15-.65.61-1.83.61s-1.83-.46-1.83-.61.65-.61,1.83-.61,1.83.46,1.83.61h0Z"/>
    </g>
  </g>
  <g id="Ellipse_198" data-name="Ellipse 198">
    <circle class="cls-2" cx="40.81" cy="7.97" r="5.5"/>
    <circle class="cls-4" cx="40.81" cy="7.97" r="5"/>
  </g>
</svg>