<?xml version="1.0" encoding="UTF-8"?>
<svg id="Layer_1" data-name="Layer 1" xmlns="http://www.w3.org/2000/svg" xmlns:xlink="http://www.w3.org/1999/xlink" viewBox="0 0 200 67">
  <defs>
    <style>
      .cls-1 {
        fill: #fff;
      }

      .cls-2 {
        stroke: #fff;
      }

      .cls-2, .cls-3 {
        fill: none;
      }

      .cls-4 {
        fill: url(#linear-gradient);
      }
    </style>
    <linearGradient id="linear-gradient" x1="1987.26" y1="-603.6" x2="1987.26" y2="-604.6" gradientTransform="translate(-132194.97 -40162.11) scale(66.54 -66.54)" gradientUnits="userSpaceOnUse">
      <stop offset="0" stop-color="#b5e331"/>
      <stop offset="1" stop-color="var(--p-primary-500)"/>
    </linearGradient>
  </defs>
  <g id="Group_4729" data-name="Group 4729">
    <path id="Path_12138-2" data-name="Path 12138-2" class="cls-4" d="m33.5.23c18.37,0,33.27,14.9,33.27,33.27s-14.9,33.27-33.27,33.27S.23,51.87.23,33.5C.23,15.13,15.13.23,33.5.23h0Z"/>
    <path id="Path_8498" data-name="Path 8498" class="cls-1" d="m33.28,42.41h-1.06c.07-1.83.34-3.65.82-5.41.7-2.06,1.58-4.06,2.64-5.96.81-1.44,1.49-2.95,2.02-4.51.31-1.02.47-2.09.47-3.15.1-1.92-.52-3.8-1.75-5.27-1.07-1.26-2.65-1.97-4.3-1.95-1.27-.07-2.53.31-3.55,1.06-.77.53-1.25,1.38-1.3,2.31.07.83.33,1.63.78,2.33.42.64.69,1.37.78,2.13.01.57-.2,1.13-.6,1.55-.36.41-.88.64-1.42.64-.81-.02-1.56-.42-2.03-1.08-.63-.86-.94-1.91-.88-2.97.03-2.02.95-3.91,2.52-5.18,1.92-1.58,4.37-2.38,6.86-2.25,3.57,0,6.19,1.04,7.87,3.12,1.19,1.43,1.84,3.23,1.84,5.09-.02,1.34-.3,2.66-.84,3.88-.83,1.72-1.91,3.3-3.21,4.69-1.76,1.83-3.31,3.86-4.61,6.04-.64,1.55-.99,3.21-1.03,4.89Zm2.52,6.13c.01.77-.29,1.5-.84,2.04-.53.55-1.27.86-2.04.84-.78.02-1.52-.29-2.06-.84-.55-.53-.86-1.27-.84-2.04-.02-.78.29-1.52.84-2.06.54-.55,1.29-.86,2.06-.84.77-.01,1.5.29,2.04.84.55.54.86,1.29.84,2.06h0Z"/>
    <g id="Ellipse_985" data-name="Ellipse 985">
      <circle class="cls-3" cx="33.23" cy="33.23" r="30"/>
      <circle class="cls-2" cx="33.23" cy="33.23" r="29.5"/>
    </g>
  </g>
</svg>