<?xml version="1.0" encoding="UTF-8"?>
<svg id="Layer_1" data-name="Layer 1" xmlns="http://www.w3.org/2000/svg" viewBox="0 0 32.5 32.5">
  <defs>
    <style>
      .cls-1 {
        fill: var(--p-primary-500);
      }
    </style>
  </defs>
  <path id="Path_13327" data-name="Path 13327" class="cls-1" d="m7.89,22.9h-.84c.05-1.45.27-2.88.65-4.28.55-1.63,1.25-3.21,2.08-4.71.64-1.14,1.18-2.33,1.6-3.56.24-.81.37-1.65.37-2.49.08-1.51-.41-3-1.38-4.17-.85-.99-2.09-1.56-3.4-1.54-1.01-.06-2,.24-2.81.84-.61.42-.99,1.09-1.03,1.83.05.66.27,1.29.62,1.84.33.51.54,1.08.62,1.68,0,.45-.16.89-.47,1.22-.29.32-.7.5-1.13.5-.64-.02-1.23-.33-1.6-.85-.5-.68-.75-1.51-.7-2.35.02-1.59.75-3.09,1.99-4.09,1.52-1.25,3.45-1.88,5.42-1.78,2.82,0,4.89.82,6.22,2.46.94,1.13,1.46,2.55,1.46,4.02-.01,1.06-.24,2.1-.67,3.07-.65,1.36-1.51,2.61-2.53,3.71-1.39,1.45-2.62,3.05-3.64,4.77-.51,1.23-.78,2.54-.81,3.87Zm1.99,4.84c0,.61-.23,1.19-.67,1.61-.42.43-1.01.68-1.61.67-.61.01-1.2-.23-1.63-.67-.43-.42-.68-1.01-.67-1.61-.01-.61.23-1.2.67-1.63.43-.44,1.02-.68,1.63-.67.61,0,1.19.23,1.61.67.44.43.68,1.02.67,1.63Z"/>
</svg>