<?xml version="1.0" encoding="UTF-8"?>
<svg id="Layer_1" data-name="Layer 1" xmlns="http://www.w3.org/2000/svg" viewBox="0 0 35 33">
  <defs>
    <style>
      .cls-1 {
        fill: var(--uniprep-primary);
      }
    </style>
  </defs>
  <path id="answer-9" class="cls-1" d="m17.7.88C8.3.88.73,7.81.73,16.44c.02,2.69.75,5.32,2.12,7.64.15.28.2.61.14.92l-1.56,4.88c-.19.6.15,1.24.75,1.43.24.08.5.07.74-.02l4.95-1.7c.33-.13.71-.08.99.14,2.72,1.54,5.79,2.34,8.91,2.33,9.4,0,16.97-6.93,16.97-15.55-.14-8.69-7.71-15.62-17.04-15.62Zm8.13,12.09l-8.62,8.48c-.31.33-.75.51-1.2.5-.45,0-.88-.17-1.2-.5l-4.17-4.1c-.31-.26-.36-.72-.1-1.04.03-.03.06-.07.1-.1l1.2-1.13c.3-.33.82-.35,1.15-.05.02.02.03.03.05.05l2.97,2.97,7.42-7.35c.3-.33.82-.35,1.15-.05.02.02.03.03.05.05l1.2,1.13c.28.32.28.81,0,1.13h0Z"/>
</svg>