<?xml version="1.0" encoding="UTF-8"?>
<svg id="Layer_1" data-name="Layer 1" xmlns="http://www.w3.org/2000/svg" viewBox="0 0 32.5 32.5">
  <defs>
    <style>
      .cls-1 {
        fill: var(--primary-500);
      }
    </style>
  </defs>
  <path id="tmall-tips-questions" class="cls-1" d="m18.09,18.41c.04-.49.3-.94.72-1.22.5-.43,1.06-.91,1.68-1.43.63-.53,1.2-1.13,1.72-1.77.52-.65.82-1.44.86-2.27.05-.88-.04-1.76-.29-2.61-.22-.78-.63-1.5-1.18-2.09-.6-.62-1.32-1.09-2.13-1.39-.98-.36-2.01-.54-3.06-.52-1.25-.04-2.5.22-3.63.77-.9.46-1.69,1.09-2.34,1.86-.56.66-.99,1.43-1.25,2.25-.22.63-.32,1.29-.32,1.95-.02.52.2,1.02.59,1.36.34.27.76.43,1.19.45.42.01.84-.11,1.18-.36.36-.25.56-.66.54-1.09.02-.37.11-.72.27-1.05.19-.43.43-.83.73-1.19.32-.39.7-.71,1.13-.96.45-.27.96-.4,1.48-.4.93-.05,1.84.24,2.57.8.62.48.96,1.24.9,2.02,0,.4-.12.8-.36,1.13-.26.37-.57.71-.91,1-.37.32-.76.64-1.18.96-.42.32-.81.66-1.18,1-.36.33-.67.71-.93,1.13-.25.4-.39.85-.41,1.32l.04,1.36c.02.39.2.76.5,1.02.36.33.83.52,1.32.52.49,0,.96-.19,1.31-.54.31-.3.47-.72.45-1.14v-.86h0Zm-1.82,8.79c.58.02,1.15-.21,1.56-.63.41-.4.64-.95.63-1.52.03-1.2-.93-2.2-2.13-2.23-1.2-.03-2.2.93-2.23,2.13,0,.03,0,.06,0,.09-.01.57.22,1.12.63,1.52.41.41.98.64,1.56.62h0Zm-.04-26.96c2.15-.01,4.27.42,6.24,1.27,1.9.82,3.63,1.98,5.1,3.43,1.46,1.45,2.63,3.18,3.43,5.07,1.67,3.99,1.67,8.47,0,12.46-1.63,3.83-4.69,6.89-8.52,8.51-3.99,1.67-8.48,1.67-12.46,0-3.83-1.63-6.88-4.68-8.51-8.51C-.17,18.5-.17,14.02,1.5,10.03c.81-1.9,1.97-3.62,3.43-5.07,1.46-1.45,3.18-2.61,5.07-3.43,1.96-.86,4.08-1.29,6.23-1.28h0Z"/>
</svg>