<?xml version="1.0" encoding="UTF-8"?>
<svg id="Layer_1" data-name="Layer 1" xmlns="http://www.w3.org/2000/svg" viewBox="0 0 32.5 32.5">
  <defs>
    <style>
      .cls-1 {
        fill: var(--primary-500);
      }
    </style>
  </defs>
  <path id="student-12" class="cls-1" d="m33.57,6.64L18.94.77c-.91-.39-.72-.39-1.62,0L2.59,6.59c-.9.38-.9,1.01.01,1.39l3.5,1.39c-1.55,1.75-1.65,3.57-1.67,5.69-.65.33-1.05,1.01-1.02,1.74-.02.67.32,1.3.88,1.67-.33,2.73-1.38,5.32-3.05,7.5.67.68,1.47,1.21,2.36,1.55,2.91-1.46,2.56-5.35,2.33-9.22.43-.38.67-.94.66-1.51.01-.62-.26-1.2-.75-1.58.05-2.07.44-3.92,1.76-5.12.02-.04.06-.07.1-.09l10.06-4.75c.36-.15.77.02.91.38.01.03.02.06.03.09v.04c.17.42,0,.89-.39,1.1l-8.5,3.97,7.61,3.01c.91.39.72.39,1.62,0l14.52-5.83c.9-.38.89-1-.02-1.39Zm-16.15,9.47l-9.21-3.65v2.74c.5.57.77,1.31.75,2.07.01.68-.2,1.35-.59,1.91.07.4.3.76.64.98,5.36,3.46,12.76,3.42,18.72-.35.44-.37.72-.9.78-1.48v-6.04l-9.46,3.8c-.9.39-.72.38-1.63,0h0Z"/>
</svg>