<svg id="Layer_1" height="512" viewBox="0 0 48 48" width="512" xmlns="http://www.w3.org/2000/svg" xmlns:xlink="http://www.w3.org/1999/xlink"><linearGradient id="SVGID_1_" gradientUnits="userSpaceOnUse" x1="28.195" x2="9.402" y1="31.335" y2="9.45"><stop offset="0" stop-color="#c2cffd"/><stop offset="1" stop-color="#fff"/></linearGradient><linearGradient id="lg1"><stop offset="0" stop-color="#5f5f60"/><stop offset="1" stop-color="#282828"/></linearGradient><linearGradient id="SVGID_2_" gradientUnits="userSpaceOnUse" x1="8.206" x2="32.899" xlink:href="#lg1" y1="6" y2="6"/><linearGradient id="SVGID_3_" gradientUnits="userSpaceOnUse" x1="21.128" x2="21.128" xlink:href="#lg1" y1="4.331" y2="8.219"/><linearGradient id="SVGID_4_" gradientUnits="userSpaceOnUse" x1="8.603" x2="33.585" xlink:href="#lg1" y1="42" y2="42"/><linearGradient id="SVGID_5_" gradientUnits="userSpaceOnUse" x1="21.176" x2="21.176" xlink:href="#lg1" y1="40.347" y2="44.418"/><linearGradient id="SVGID_6_" gradientUnits="userSpaceOnUse" x1="21.038" x2="21.038" y1="11.591" y2="34.218"><stop offset="0" stop-color="#ffc200"/><stop offset=".268" stop-color="#fb0"/><stop offset=".659" stop-color="#ffa801"/><stop offset="1" stop-color="#ff9102"/></linearGradient><linearGradient id="SVGID_7_" gradientUnits="userSpaceOnUse" x1="32.462" x2="32.462" y1="28.971" y2="43.129"><stop offset="0" stop-color="#ff7044"/><stop offset="1" stop-color="#f92814"/></linearGradient><g><g><path d="m32.0377 13v-7h-22v7c0 4.4453 2.6421 8.2652 6.4369 10-3.7948 1.7348-6.4369 5.5547-6.4369 10v7h22v-7c0-4.4453-2.6421-8.2652-6.4369-10 3.7948-1.7348 6.4369-5.5547 6.4369-10z" fill="url(#SVGID_1_)"/><g><path d="m32.0377 8h-22c-1.1046 0-2-.8954-2-2 0-1.1046.8954-2 2-2h22c1.1046 0 2 .8954 2 2 0 1.1046-.8955 2-2 2z" fill="url(#SVGID_2_)"/><path d="m32.0377 4h-22c-.8115 0-1.5066.4854-1.8202 1.1798.2508-.1133.5271-.1798.8202-.1798h22c1.1046 0 2 .8954 2 2 0 .2931-.0665.5694-.1798.8202.6944-.3136 1.1798-1.0087 1.1798-1.8202 0-1.1046-.8955-2-2-2z" fill="url(#SVGID_3_)" opacity=".4"/></g><g><path d="m32.0377 44h-22c-1.1046 0-2-.8954-2-2 0-1.1046.8954-2 2-2h22c1.1046 0 2 .8954 2 2 0 1.1046-.8955 2-2 2z" fill="url(#SVGID_4_)"/><path d="m32.0377 40h-.2774c.1718.2952.2774.6339.2774 1 0 1.1046-.8954 2-2 2h-21.7226c.3464.5953.9842 1 1.7226 1h22c1.1046 0 2-.8954 2-2s-.8955-2-2-2z" fill="url(#SVGID_5_)" opacity=".3"/></g><path d="m25.8767 28.2239c-.4354-.1537-3.8843-1.4315-3.8843-3.3519 0-2.0497 3.1354-3.6693 3.1354-3.6693 3.1452-1.4117 5.3379-4.5743 5.3215-8.2435-.0049-1.0872-.9108-1.9592-1.9979-1.9592h-7.3885-.0503-7.3886c-1.0872 0-1.993.872-1.9979 1.9592-.0164 3.6693 2.1763 6.8318 5.3215 8.2435 0 0 3.1354 1.6196 3.1354 3.6693 0 1.9204-3.4489 3.1982-3.8843 3.3519-2.7761 1.6397-4.6014 4.7507-4.5723 8.1746.0075.8978.7841 1.6015 1.6818 1.6015h7.7043.0503 7.7043c.8978 0 1.6743-.7037 1.6819-1.6014.0291-3.424-1.7962-6.535-4.5723-8.1747z" fill="url(#SVGID_6_)"/></g><circle cx="32.462" cy="36.453" fill="url(#SVGID_7_)" r="7.5"/><g fill="#fff9e9"><path d="m32.4623 31.5866c-.7239 0-1.3107.5868-1.3107 1.3108v3.6525c0 .7239.5868 1.3107 1.3107 1.3107s1.3107-.5868 1.3107-1.3107v-3.6525c.0001-.724-.5868-1.3108-1.3107-1.3108z"/><circle cx="32.462" cy="40.017" r="1.303"/></g></g></svg>