<svg id="mastercard" xmlns="http://www.w3.org/2000/svg" width="25.345" height="15.839" viewBox="0 0 25.345 15.839">
  <path id="Path_7" data-name="Path 7" d="M15.835,62.639a7.917,7.917,0,1,1-7.917-7.92A7.917,7.917,0,0,1,15.835,62.639Z" transform="translate(0 -54.719)" fill="#e2574c"/>
  <path id="Path_8" data-name="Path 8" d="M117.351,54.719a7.874,7.874,0,0,0-4.731,1.579h.006a6.785,6.785,0,0,1,.767.717l-1.647.026a8.144,8.144,0,0,0-.715.839h2.9a7.36,7.36,0,0,1,.611.789H110.5a7.893,7.893,0,0,0-.4.79h4.907a6.743,6.743,0,0,1,.341.764h-5.538a7.625,7.625,0,0,0-.22.838h5.99c.059.274.1.527.135.786H109.47c-.026.261-.04.525-.04.792h6.329a6.954,6.954,0,0,1-.048.792H109.47q.04.4.119.792h5.981c-.062.257-.133.515-.223.782H109.79a7.69,7.69,0,0,0,.3.79h4.918a7.214,7.214,0,0,1-.461.789H110.49a7.709,7.709,0,0,0,.528.8l2.918.044a7.707,7.707,0,0,1-.859.74c.016.013-.465,0-1.411-.017a7.918,7.918,0,1,0,5.685-13.427Z" transform="translate(-99.925 -54.719)" fill="#f4b459"/>
</svg>
