<svg id="Layer_1" viewBox="0 0 96 96" xmlns="http://www.w3.org/2000/svg" data-name="Layer 1"><path d="m51.94 90.37a3.94 3.94 0 0 1 -7.88 0 3.58 3.58 0 0 1 .13-1 4 4 0 0 1 .16-.49 3.94 3.94 0 0 1 7.3 0 4 4 0 0 1 .16.49 3.58 3.58 0 0 1 .13 1z" fill="#7190c4"/><ellipse cx="48" cy="88.89" fill="#89a3ce" rx="3.65" ry="2.46"/><path d="m51.94 5.63a3.94 3.94 0 1 1 -7.88 0 3.51 3.51 0 0 1 .13-1 4.16 4.16 0 0 1 .16-.5 3.94 3.94 0 0 1 7.3 0 4.16 4.16 0 0 1 .16.5 3.51 3.51 0 0 1 .13 1z" fill="#7190c4"/><ellipse cx="48" cy="4.15" fill="#89a3ce" rx="3.65" ry="2.46"/><path d="m94.31 48a3.94 3.94 0 0 1 -7.88 0 4.07 4.07 0 0 1 .12-1 3.17 3.17 0 0 1 .17-.49 3.93 3.93 0 0 1 7.29 0 3.17 3.17 0 0 1 .17.49 3.64 3.64 0 0 1 .13 1z" fill="#7190c4"/><ellipse cx="90.37" cy="46.52" fill="#89a3ce" rx="3.65" ry="2.46"/><path d="m9.57 48a3.94 3.94 0 0 1 -7.88 0 3.64 3.64 0 0 1 .13-1 3.17 3.17 0 0 1 .18-.48 3.93 3.93 0 0 1 7.29 0 3.17 3.17 0 0 1 .17.49 4.07 4.07 0 0 1 .11.99z" fill="#7190c4"/><ellipse cx="5.63" cy="46.52" fill="#89a3ce" rx="3.65" ry="2.46"/><path d="m22 78a3.94 3.94 0 1 1 -7.88 0 3.58 3.58 0 0 1 .13-1 3.17 3.17 0 0 1 .17-.49 3.93 3.93 0 0 1 7.29 0 2.34 2.34 0 0 1 .16.49 3.58 3.58 0 0 1 .13 1z" fill="#7190c4"/><ellipse cx="18.04" cy="76.48" fill="#89a3ce" rx="3.65" ry="2.46"/><path d="m81.9 18a3.94 3.94 0 0 1 -7.9 0 3.51 3.51 0 0 1 .13-1 2.24 2.24 0 0 1 .16-.5 3.93 3.93 0 0 1 7.29 0 3 3 0 0 1 .17.5 3.51 3.51 0 0 1 .15 1z" fill="#7190c4"/><ellipse cx="77.96" cy="16.56" fill="#89a3ce" rx="3.65" ry="2.46"/><path d="m81.9 78a3.94 3.94 0 0 1 -7.9 0 3.58 3.58 0 0 1 .13-1 2.34 2.34 0 0 1 .16-.49 3.93 3.93 0 0 1 7.29 0 3.17 3.17 0 0 1 .17.49 3.58 3.58 0 0 1 .15 1z" fill="#7190c4"/><ellipse cx="77.96" cy="76.48" fill="#89a3ce" rx="3.65" ry="2.46"/><path d="m22 18a3.94 3.94 0 0 1 -7.88 0 3.51 3.51 0 0 1 .13-1 3 3 0 0 1 .17-.5 3.93 3.93 0 0 1 7.29 0 2.24 2.24 0 0 1 .16.5 3.51 3.51 0 0 1 .13 1z" fill="#7190c4"/><ellipse cx="18.04" cy="16.56" fill="#89a3ce" rx="3.65" ry="2.46"/><g fill="#f6b756"><path d="m5.82 45.05a1 1 0 0 1 -.7-.28 1 1 0 0 1 -.29-.7 1 1 0 0 1 .29-.7 1 1 0 0 1 1.07-.21 1.15 1.15 0 0 1 .33.21 1 1 0 0 1 .28.7 1 1 0 0 1 -.28.7.94.94 0 0 1 -.33.2.91.91 0 0 1 -.37.08z"/><path d="m6.22 40.85a1 1 0 0 1 -.77-1.17 1 1 0 0 1 1.15-.77 1 1 0 0 1 .79 1.15 1 1 0 0 1 -1 .79h-.2zm.92-4.14a1 1 0 0 1 -.65-1.23 1 1 0 0 1 1.22-.66 1 1 0 0 1 .66 1.23 1 1 0 0 1 -.94.7 1 1 0 0 1 -.29-.04zm1.33-4a1 1 0 0 1 -.53-1.29 1 1 0 0 1 1.29-.53 1 1 0 0 1 .53 1.29 1 1 0 0 1 -.92.61 1.07 1.07 0 0 1 -.37-.1zm1.72-3.86a1 1 0 0 1 -.39-1.34 1 1 0 0 1 1.33-.41 1 1 0 0 1 .4 1.34 1 1 0 0 1 -.86.52 1.16 1.16 0 0 1 -.48-.13zm2.11-3.68a1 1 0 0 1 -.3-1.39 1 1 0 0 1 1.37-.26 1 1 0 0 1 .26 1.37 1 1 0 0 1 -.82.43 1 1 0 0 1 -.51-.17z"/><path d="m15.4 21.93a1 1 0 0 1 -.7-.29 1 1 0 0 1 -.29-.7 1 1 0 0 1 .29-.7 1.16 1.16 0 0 1 .3-.24 1 1 0 0 1 .75 0 1.21 1.21 0 0 1 .33.2 1.07 1.07 0 0 1 .28.7 1 1 0 0 1 -.28.7 1 1 0 0 1 -.33.21 1 1 0 0 1 -.35.12z"/><path d="m51.93 6.8h-.2l-.17-.06a.76.76 0 0 1 -.18-.09 1.58 1.58 0 0 1 -.15-.12.93.93 0 0 1 -.23-.34 1 1 0 0 1 0-.74 1.15 1.15 0 0 1 .21-.33 1.58 1.58 0 0 1 .17-.12.76.76 0 0 1 .18-.09.58.58 0 0 1 .17-.06.9.9 0 0 1 .4 0l.18.06.17.09a1.58 1.58 0 0 1 .15.12 1.15 1.15 0 0 1 .21.33.9.9 0 0 1 0 .74.93.93 0 0 1 -.21.33 1.58 1.58 0 0 1 -.15.12l-.17.09-.18.06z"/><path d="m71.11 13.67a1 1 0 0 1 -.26-1.37 1 1 0 0 1 1.37-.3 1 1 0 0 1 .26 1.37 1 1 0 0 1 -.81.43 1 1 0 0 1 -.56-.13zm-3.53-2.14a1 1 0 0 1 -.41-1.34 1 1 0 0 1 1.34-.39 1 1 0 0 1 .4 1.33 1 1 0 0 1 -.87.52 1 1 0 0 1 -.46-.12zm-3.74-1.77a1 1 0 0 1 -.53-1.29 1 1 0 0 1 1.29-.53 1 1 0 0 1 .53 1.29 1 1 0 0 1 -.91.61 1 1 0 0 1 -.38-.08zm-3.84-1.39a1 1 0 0 1 -.66-1.23 1 1 0 0 1 1.23-.66 1 1 0 0 1 .65 1.23 1 1 0 0 1 -.93.7.92.92 0 0 1 -.29-.04zm-4-1a1 1 0 0 1 -.79-1.17 1 1 0 0 1 1.17-.77 1 1 0 0 1 .77 1.16 1 1 0 0 1 -1 .79h-.19z"/><path d="m75.06 16.38a1 1 0 0 1 -.7-.28 1 1 0 0 1 -.21-.33.83.83 0 0 1 -.08-.37 1 1 0 0 1 .29-.7 1 1 0 0 1 1.4 0 1 1 0 0 1 .28.7 1 1 0 0 1 -.08.37 1.21 1.21 0 0 1 -.2.33 1.09 1.09 0 0 1 -.7.28z"/><path d="m80.6 76a1.07 1.07 0 0 1 -.7-.28 1.38 1.38 0 0 1 -.2-.33.83.83 0 0 1 -.08-.37.84.84 0 0 1 .08-.38 1.16 1.16 0 0 1 .2-.32l.15-.12a.76.76 0 0 1 .18-.09.64.64 0 0 1 .18-.06 1 1 0 0 1 .89.27 1 1 0 0 1 .21 1.07 1.15 1.15 0 0 1 -.21.33 1 1 0 0 1 -.7.28z"/><path d="m82.59 72.48a1 1 0 0 1 -.26-1.37 1 1 0 0 1 1.37-.26 1 1 0 0 1 .3 1.37 1 1 0 0 1 -.81.43 1 1 0 0 1 -.6-.17zm2.27-3.56a1 1 0 0 1 -.39-1.34 1 1 0 0 1 1.33-.4 1 1 0 0 1 .4 1.33 1 1 0 0 1 -.87.53 1 1 0 0 1 -.47-.12zm1.91-3.79a1 1 0 0 1 -.53-1.29 1 1 0 0 1 1.29-.53 1 1 0 0 1 .53 1.29 1 1 0 0 1 -.91.61 1 1 0 0 1 -.38-.08zm1.52-3.95a1 1 0 0 1 -.66-1.18 1 1 0 0 1 1.23-.66 1 1 0 0 1 .65 1.23 1 1 0 0 1 -1 .7.9.9 0 0 1 -.22-.09zm1.11-4.09a1 1 0 0 1 -.79-1.15 1 1 0 0 1 1.17-.78 1 1 0 0 1 .77 1.16 1 1 0 0 1 -1 .79.58.58 0 0 1 -.15-.02z"/><path d="m90.18 52.92a1 1 0 0 1 -.7-.29 1.11 1.11 0 0 1 -.21-.32.84.84 0 0 1 -.08-.38.71.71 0 0 1 0-.2.7.7 0 0 1 .06-.17.56.56 0 0 1 .09-.17 1 1 0 0 1 .12-.16 1 1 0 0 1 1.4 0l.12.16a.56.56 0 0 1 .09.17.7.7 0 0 1 .06.17 1.5 1.5 0 0 1 0 .2 1 1 0 0 1 -.08.38 1.11 1.11 0 0 1 -.21.32 1 1 0 0 1 -.66.29z"/><path d="m20.94 81.59a.83.83 0 0 1 -.37-.08 1.15 1.15 0 0 1 -.33-.21 1 1 0 0 1 -.28-.7 1.09 1.09 0 0 1 .28-.7 1.38 1.38 0 0 1 .33-.2 1 1 0 0 1 1.07.2 1 1 0 0 1 .29.7 1.36 1.36 0 0 1 0 .2.64.64 0 0 1 -.06.18.76.76 0 0 1 -.09.18l-.12.14a1 1 0 0 1 -.72.29z"/><path d="m39.68 90.55a1 1 0 0 1 -.77-1.15 1 1 0 0 1 1.15-.79 1 1 0 0 1 .78 1.17 1 1 0 0 1 -1 .78h-.19zm-4.2-1a1 1 0 0 1 -.66-1.22 1 1 0 0 1 1.23-.66 1 1 0 0 1 .66 1.22 1 1 0 0 1 -1 .71.92.92 0 0 1 -.23-.09zm-4.08-1.49a1 1 0 0 1 -.53-1.29 1 1 0 0 1 1.29-.53 1 1 0 0 1 .53 1.29 1 1 0 0 1 -.92.6.94.94 0 0 1 -.37-.07zm-3.91-1.86a1 1 0 0 1 -.41-1.33 1 1 0 0 1 1.34-.4 1 1 0 0 1 .4 1.33 1 1 0 0 1 -.87.52.93.93 0 0 1 -.46-.12zm-3.71-2.2a1 1 0 0 1 -.26-1.37 1 1 0 0 1 1.37-.26 1 1 0 0 1 .26 1.37 1 1 0 0 1 -.82.43 1 1 0 0 1 -.55-.17z"/><path d="m44.07 91.17a1 1 0 0 1 -.7-.29 1 1 0 0 1 -.29-.7.91.91 0 0 1 .08-.37 1 1 0 0 1 1.61-.33 1 1 0 0 1 .28.7 1.5 1.5 0 0 1 0 .2.49.49 0 0 1 -.06.17.48.48 0 0 1 -.08.18l-.12.15a1.15 1.15 0 0 1 -.33.21 1 1 0 0 1 -.39.08z"/><path d="m5.82 52.92a1 1 0 0 1 -1-1 1 1 0 0 1 .29-.7 1 1 0 0 1 1.08-.22 1.15 1.15 0 0 1 .33.21 1 1 0 0 1 .28.7v.2a1.27 1.27 0 0 1 -.06.18.65.65 0 0 1 -.09.16l-.12.16a1.15 1.15 0 0 1 -.33.21.91.91 0 0 1 -.38.1z"/><path d="m12 72.22a1 1 0 0 1 .26-1.37 1 1 0 0 1 1.37.26 1 1 0 0 1 -.26 1.37 1 1 0 0 1 -.56.17 1 1 0 0 1 -.81-.43zm-2.2-3.71a1 1 0 0 1 .4-1.34 1 1 0 0 1 1.33.41 1 1 0 0 1 -.4 1.34 1 1 0 0 1 -.46.11 1 1 0 0 1 -.87-.52zm-1.86-3.91a1 1 0 0 1 .53-1.29 1 1 0 0 1 1.29.53 1 1 0 0 1 -.53 1.29 1.06 1.06 0 0 1 -.38.07 1 1 0 0 1 -.91-.6zm-1.45-4.08a1 1 0 0 1 .65-1.23 1 1 0 0 1 1.23.71 1 1 0 0 1 -.66 1.23 1.45 1.45 0 0 1 -.28 0 1 1 0 0 1 -.94-.71zm-1-4.2a1 1 0 0 1 .77-1.16 1 1 0 0 1 1.17.78 1 1 0 0 1 -.79 1.15h-.19a1 1 0 0 1 -1-.77z"/><path d="m15.4 76a1 1 0 0 1 -.4 0 1.16 1.16 0 0 1 -.32-.2 1 1 0 0 1 -.29-.7 1 1 0 0 1 .29-.7 1 1 0 0 1 .32-.21 1 1 0 0 1 .75 0 1 1 0 0 1 .33.21 1 1 0 0 1 .28.7 1.07 1.07 0 0 1 -.28.7 1.21 1.21 0 0 1 -.33.2 1 1 0 0 1 -.35 0z"/><path d="m51.93 91.17h-.2a.58.58 0 0 1 -.17-.06.76.76 0 0 1 -.18-.09l-.15-.12a1.15 1.15 0 0 1 -.21-.33 1.11 1.11 0 0 1 -.07-.37 1 1 0 0 1 .28-.7 1 1 0 0 1 .9-.27.64.64 0 0 1 .18.06l.17.09.15.12a1 1 0 0 1 .29.7.91.91 0 0 1 -.08.37 1.15 1.15 0 0 1 -.21.33l-.15.12-.17.09a.64.64 0 0 1 -.18.06z"/><path d="m55.15 89.78a1 1 0 0 1 .79-1.17 1 1 0 0 1 1.15.79 1 1 0 0 1 -.77 1.15h-.2a1 1 0 0 1 -.97-.77zm4.14-.92a1 1 0 0 1 .71-1.23 1 1 0 0 1 1.23.66 1 1 0 0 1 -.67 1.23 1.26 1.26 0 0 1 -.27 0 1 1 0 0 1 -1-.66zm4-1.33a1 1 0 0 1 .53-1.29 1 1 0 0 1 1.29.53 1 1 0 0 1 -.53 1.29 1 1 0 0 1 -.38.07 1 1 0 0 1 -.89-.6zm3.86-1.73a1 1 0 0 1 .41-1.33 1 1 0 0 1 1.33.4 1 1 0 0 1 -.4 1.33 1 1 0 0 1 -.46.12 1 1 0 0 1 -.86-.52zm3.68-2.1a1 1 0 0 1 .26-1.37 1 1 0 0 1 1.37.26 1 1 0 0 1 -.24 1.41 1 1 0 0 1 -.55.17 1 1 0 0 1 -.82-.47z"/><path d="m75.06 81.59a1 1 0 0 1 -1-1 .83.83 0 0 1 .08-.37 1 1 0 0 1 1.61-.33 1.21 1.21 0 0 1 .2.33 1 1 0 0 1 .08.37 1 1 0 0 1 -1 1z"/><path d="m80.6 21.93h-.19l-.18-.06-.18-.09-.15-.12a1 1 0 0 1 -.28-.7 1.09 1.09 0 0 1 .28-.7 1 1 0 0 1 1.69.7 1 1 0 0 1 -1 1z"/><path d="m88.61 40.06a1 1 0 0 1 .78-1.15 1 1 0 0 1 1.16.77 1 1 0 0 1 -.77 1.16h-.2a1 1 0 0 1 -.97-.78zm-1-4a1 1 0 0 1 .66-1.23 1 1 0 0 1 1.22.66 1 1 0 0 1 -.66 1.23.9.9 0 0 1 -.28 0 1 1 0 0 1 -.92-.67zm-1.39-3.89a1 1 0 0 1 .53-1.29 1 1 0 0 1 1.29.53 1 1 0 0 1 -.53 1.29 1.06 1.06 0 0 1 -.38.07 1 1 0 0 1 -.89-.61zm-1.77-3.74a1 1 0 0 1 .4-1.34 1 1 0 0 1 1.33.41 1 1 0 0 1 -.4 1.33 1 1 0 0 1 -.47.11 1 1 0 0 1 -.84-.52zm-2.14-3.53a1 1 0 0 1 .26-1.37 1 1 0 0 1 1.37.26 1 1 0 0 1 -.26 1.37 1.07 1.07 0 0 1 -.55.17 1 1 0 0 1 -.8-.44z"/><path d="m90.18 45.05a1 1 0 0 1 -.7-.28 1.58 1.58 0 0 1 -.12-.15.76.76 0 0 1 -.09-.18.7.7 0 0 1 -.06-.17.68.68 0 0 1 0-.2.84.84 0 0 1 .08-.38 1.26 1.26 0 0 1 .21-.32 1 1 0 0 1 1.4 0 1.26 1.26 0 0 1 .21.32 1 1 0 0 1 .08.38 1.36 1.36 0 0 1 0 .2.7.7 0 0 1 -.06.17.76.76 0 0 1 -.09.18l-.12.15a1 1 0 0 1 -.74.28z"/><path d="m20.94 16.38a1 1 0 0 1 -.37-.08 1.38 1.38 0 0 1 -.33-.2l-.11-.1a.76.76 0 0 1 -.09-.18.64.64 0 0 1 -.06-.18 1.23 1.23 0 0 1 0-.19 1 1 0 0 1 .28-.7 1.15 1.15 0 0 1 .33-.21 1 1 0 0 1 1.07.21l.12.14a.76.76 0 0 1 .09.18.64.64 0 0 1 .06.18 1.5 1.5 0 0 1 0 .2 1.23 1.23 0 0 1 0 .19.64.64 0 0 1 -.06.18.76.76 0 0 1 -.09.18 1.58 1.58 0 0 1 -.12.15 1 1 0 0 1 -.72.23z"/><path d="m23.52 13.41a1 1 0 0 1 .26-1.41 1 1 0 0 1 1.37.26 1 1 0 0 1 -.26 1.37 1 1 0 0 1 -.56.17 1 1 0 0 1 -.81-.39zm3.56-2.28a1 1 0 0 1 .41-1.33 1 1 0 0 1 1.33.4 1 1 0 0 1 -.4 1.33 1 1 0 0 1 -.47.12 1 1 0 0 1 -.87-.52zm3.79-1.9a1 1 0 0 1 .53-1.29 1 1 0 0 1 1.29.53 1 1 0 0 1 -.53 1.29 1.09 1.09 0 0 1 -.39.08 1 1 0 0 1 -.9-.61zm3.95-1.52a1 1 0 0 1 .66-1.22 1 1 0 0 1 1.23.66 1 1 0 0 1 -.66 1.22 1 1 0 0 1 -.29 0 1 1 0 0 1 -.94-.66zm4.09-1.11a1 1 0 0 1 .77-1.15 1 1 0 0 1 1.16.77 1 1 0 0 1 -.78 1.17h-.19a1 1 0 0 1 -.96-.79z"/><path d="m44.07 6.8a1 1 0 0 1 -.7-.28 1 1 0 0 1 -.21-.33.9.9 0 0 1 0-.74 1 1 0 0 1 .21-.33 1 1 0 0 1 1.4 0 1 1 0 0 1 0 1.4 1 1 0 0 1 -.7.28z"/></g><path d="m48 19.43a1 1 0 0 1 -1-1v-8.86a1 1 0 0 1 2 0v8.87a1 1 0 0 1 -1 .99z" fill="#77cacb"/><path d="m48 87.41a1 1 0 0 1 -1-1v-8.85a1 1 0 0 1 2 0v8.87a1 1 0 0 1 -1 .98z" fill="#77cacb"/><path d="m86.43 49h-8.87a1 1 0 1 1 0-2h8.87a1 1 0 0 1 0 2z" fill="#77cacb"/><path d="m18.44 49h-8.87a1 1 0 0 1 0-2h8.87a1 1 0 0 1 0 2z" fill="#77cacb"/><path d="m68.9 28.08a1 1 0 0 1 -.7-1.68l6.27-6.27a1 1 0 1 1 1.4 1.4l-6.27 6.27a1 1 0 0 1 -.7.28z" fill="#77cacb"/><path d="m20.83 76.16a1 1 0 0 1 -.7-1.69l6.27-6.27a1 1 0 0 1 1.4 1.4l-6.27 6.27a1 1 0 0 1 -.7.29z" fill="#77cacb"/><path d="m75.17 76.16a1 1 0 0 1 -.7-.29l-6.27-6.27a1 1 0 0 1 1.4-1.4l6.27 6.27a1 1 0 0 1 -.7 1.69z" fill="#77cacb"/><path d="m27.1 28.08a1 1 0 0 1 -.7-.28l-6.27-6.27a1 1 0 1 1 1.4-1.4l6.27 6.27a1 1 0 0 1 -.7 1.68z" fill="#77cacb"/><path d="m77.56 48a29.56 29.56 0 1 1 -29.56-29.56 29.47 29.47 0 0 1 29.56 29.56z" fill="#7190c4"/><circle cx="48" cy="48" fill="#89a3ce" r="26.6"/><path d="m68.69 50a2 2 0 0 1 -2-2 18.74 18.74 0 0 0 -18.69-18.72 2 2 0 1 1 0-3.94 22.68 22.68 0 0 1 22.66 22.66 2 2 0 0 1 -1.97 2z" fill="#a5b9db"/><path d="m48 70.66a22.68 22.68 0 0 1 -22.66-22.66 2 2 0 0 1 3.94 0 18.74 18.74 0 0 0 18.72 18.72 2 2 0 0 1 0 3.94z" fill="#a5b9db"/><path d="m45.04 47.01h5.91v6.9h-5.91z" fill="#ead4c6"/><path d="m56.87 35.19v3.94a8.87 8.87 0 0 1 -17.74 0v-3.94c0-.33 0-5.59.06-5.91h17.68c.01.08 0 5.83 0 5.91z" fill="#ead4c6"/><path d="m56.86 35.19v3.94c0 4.9-3.3 8.87-7.38 8.87s-7.39-4-7.39-8.87v-3.94c0-.33 0-5.59 0-5.91h14.77c.01.08 0 5.83 0 5.91z" fill="#eedbcd"/><path d="m39.13 35.19h-.49a2.46 2.46 0 0 0 -1.74.72 2.42 2.42 0 0 0 -.72 1.74 2.47 2.47 0 0 0 2.46 2.47h.55" fill="#ead4c6"/><path d="m56.87 35.19h.49a2.47 2.47 0 0 1 0 4.93h-.55" fill="#ead4c6"/><path d="m51 25.34v1a7.89 7.89 0 0 1 -7.89 7.89h-5.95v-4.95a5.92 5.92 0 0 1 5.91-5.91h5.93a2 2 0 0 1 1.86 1.33 1.87 1.87 0 0 1 .14.64z" fill="#5c5f7d"/><path d="m50.85 24.7a7.88 7.88 0 0 1 -7.78 6.55h-3.94a2 2 0 0 1 -2-2 5.91 5.91 0 0 1 5.91-5.91h5.96a2 2 0 0 1 1.85 1.36z" fill="#6a6e86"/><path d="m58.84 29.28v5.91a7.88 7.88 0 0 1 -7.84-7.88v-2a1.84 1.84 0 0 1 0-.31 2 2 0 0 1 1.94-1.64 5.92 5.92 0 0 1 5.91 5.91z" fill="#5c5f7d"/><path d="m58.84 29.28a2.4 2.4 0 0 1 -3.47 2.15 7.86 7.86 0 0 1 -4.37-6.43 2 2 0 0 1 1.94-1.64 5.92 5.92 0 0 1 5.91 5.91z" fill="#6a6e86"/><path d="m65.38 71.89a29.49 29.49 0 0 1 -34.77 0l.78-8.15a13.65 13.65 0 0 1 7.61-11.38 13.47 13.47 0 0 1 3.09-1.08 13.07 13.07 0 0 1 2.91-.28l3 2.95 2.42-2.5.44-.45h.14.9a12.66 12.66 0 0 1 2 .3 13.78 13.78 0 0 1 10.72 12.53z" fill="#dee1e7"/><path d="m65.55 73.62h-20.42a10.84 10.84 0 0 1 -10.79-11.86 13.65 13.65 0 0 1 4.66-9.4 13.47 13.47 0 0 1 3.09-1.08 13.07 13.07 0 0 1 2.91-.28l3 2.95 3-2.95h.9a12.66 12.66 0 0 1 2 .3 13.78 13.78 0 0 1 10.72 12.53z" fill="#f3f4f5"/><path d="m48 53.91-2.66 1.78-3.25 2.16v-6.57a13.07 13.07 0 0 1 2.91-.28z" fill="#dee1e7"/><path d="m53.91 51.3v6.55l-3.25-2.16-2.66-1.78 3-2.91a13.68 13.68 0 0 1 2.91.3z" fill="#dee1e7"/><path d="m50.66 55.69-.52 3.15-.17.98h-3.94l-.69-4.13 1.03-.69 1.63-1.09z" fill="#cf4055"/><path d="m50.66 55.69-.52 3.15a3.69 3.69 0 0 1 -3.64-3.08l-.13-.76 1.63-1.09z" fill="#dc5d6b"/><path d="m51.94 71.65-2.29 1.72-1.65 1.23-3.94-2.95 1.97-11.83h3.94z" fill="#cf4055"/><path d="m51.94 71.65-2.29 1.72a7.43 7.43 0 0 1 -2.88-7.17l1.06-6.38h2.17z" fill="#dc5d6b"/><path d="m65.45 72.84a1 1 0 0 1 -1-.89l-.83-8a12.87 12.87 0 0 0 -9.92-11.69 13.25 13.25 0 0 0 -2.43-.26l-2.56 2.6a1 1 0 0 1 -.7.3 1 1 0 0 1 -.7-.29l-2.67-2.61a11.88 11.88 0 0 0 -2.33.29 12.75 12.75 0 0 0 -9.94 11.51l-.84 8.2a1 1 0 1 1 -2-.2l.84-8.12a14.69 14.69 0 0 1 11.51-13.36 14.3 14.3 0 0 1 3.12-.32 1 1 0 0 1 .7.29l2.3 2.22 2.16-2.24a1 1 0 0 1 .71-.3h.13a14.66 14.66 0 0 1 3.16.37 14.86 14.86 0 0 1 11.45 13.43l.82 8a1 1 0 0 1 -.88 1.08z" fill="#39426a"/><path d="m48 54.9a1 1 0 0 1 -.7-.29l-2.95-3a.94.94 0 0 1 -.29-.69v-3.43a1 1 0 1 1 2 0v3.06l2 2 2-2v-3.06a1 1 0 1 1 2 0v3.51a.94.94 0 0 1 -.29.69l-2.95 3a1 1 0 0 1 -.82.21z" fill="#39426a"/><path d="m42.09 58.84a1 1 0 0 1 -.47-.12 1 1 0 0 1 -.52-.87v-6.57a1 1 0 0 1 .77-1 14.46 14.46 0 0 1 3.13-.28 1 1 0 0 1 .7.29l3 3a1 1 0 0 1 .3.71 1 1 0 0 1 -.43.72l-5.92 3.94a1 1 0 0 1 -.56.18zm1-6.75v3.91l3.38-2.25-1.83-1.75a11.74 11.74 0 0 0 -1.57.09z" fill="#39426a"/><path d="m53.91 58.84a1 1 0 0 1 -.54-.17l-5.92-3.94a1 1 0 0 1 -.45-.73 1 1 0 0 1 .28-.79l3-3a1 1 0 0 1 .72-.21 14.66 14.66 0 0 1 3.16.37 1 1 0 0 1 .77 1v6.55a1 1 0 0 1 -.52.87 1 1 0 0 1 -.5.05zm-4.36-5.08 3.38 2.24v-3.9a13.86 13.86 0 0 0 -1.58-.1z" fill="#39426a"/><path d="m50 60.81h-4a1 1 0 0 1 -1-.82l-.69-4.14a1 1 0 0 1 .42-1l2.66-1.78a1 1 0 0 1 1.1 0l2.66 1.78a1 1 0 0 1 .42 1l-.63 4.15a1 1 0 0 1 -.94.81zm-3.11-2h2.28l.44-2.69-1.61-1.02-1.58 1z" fill="#39426a"/><path d="m48 75.59a1 1 0 0 1 -.59-.2l-3.94-3a1 1 0 0 1 -.38-1l2-11.82a1 1 0 0 1 1-.82h3.91a1 1 0 0 1 1 .82l2 11.82a1 1 0 0 1 -.38 1l-3.94 3a1 1 0 0 1 -.68.2zm-2.87-4.37 2.87 2.15 2.87-2.15-1.73-10.41h-2.28z" fill="#39426a"/><path d="m51 27.82a.94.94 0 0 1 -.47-.12 1 1 0 0 1 -.54-.87 1 1 0 0 1 1-1 1 1 0 0 1 .73.32 1 1 0 0 1 0 1.39 1 1 0 0 1 -.72.28z" fill="#39426a"/><path d="m48 49a9.86 9.86 0 0 1 -9.85-9.86v-3.95a10.14 10.14 0 0 1 .06-1.1 1 1 0 0 1 1.1-.86 1 1 0 0 1 .86 1.09 6.35 6.35 0 0 0 -.05.87v3.94a7.88 7.88 0 1 0 15.76 0v-4.07a1 1 0 0 1 2-.23v.36 3.94a9.86 9.86 0 0 1 -9.88 9.87z" fill="#39426a"/><path d="m39.19 41.1h-.55a3.45 3.45 0 1 1 0-6.89h.49a1 1 0 1 1 0 2h-.49a1.47 1.47 0 0 0 -1 .43 1.44 1.44 0 0 0 -.43 1 1.48 1.48 0 0 0 1.48 1.48h.55a1 1 0 1 1 0 2z" fill="#39426a"/><path d="m57.36 41.1h-.55a1 1 0 1 1 0-2h.55a1.48 1.48 0 1 0 0-3h-.49a1 1 0 1 1 0-2h.49a3.45 3.45 0 1 1 0 6.89z" fill="#39426a"/><path d="m43.07 35.19h-5.91a1 1 0 0 1 -1-1v-4.91a6.91 6.91 0 0 1 6.89-6.9h5.95a3 3 0 0 1 2.95 3v1a8.88 8.88 0 0 1 -8.88 8.81zm-4.92-2h4.92a6.9 6.9 0 0 0 6.9-6.9v-1a1 1 0 0 0 -1-1h-5.9a4.93 4.93 0 0 0 -4.92 4.93z" fill="#39426a"/><path d="m58.84 36.18a8.88 8.88 0 0 1 -8.84-8.87v-2a3 3 0 0 1 3-3 6.91 6.91 0 0 1 6.89 6.9v5.91a1 1 0 0 1 -1.05 1.06zm-5.91-11.83a1 1 0 0 0 -1 1v2a6.92 6.92 0 0 0 5.91 6.83v-4.9a4.93 4.93 0 0 0 -4.91-4.93z" fill="#39426a"/><path d="m48 78.54a30.54 30.54 0 1 1 30.54-30.54 30.57 30.57 0 0 1 -30.54 30.54zm0-59.11a28.57 28.57 0 1 0 28.57 28.57 28.59 28.59 0 0 0 -28.57-28.57z" fill="#39426a"/><path d="m48 10.56a4.93 4.93 0 1 1 4.93-4.93 4.93 4.93 0 0 1 -4.93 4.93zm0-7.88a3 3 0 1 0 3 2.95 3 3 0 0 0 -3-2.95z" fill="#39426a"/><path d="m48 95.29a4.93 4.93 0 1 1 4.93-4.92 4.93 4.93 0 0 1 -4.93 4.92zm0-7.88a3 3 0 1 0 3 3 3 3 0 0 0 -3-3z" fill="#39426a"/><path d="m90.37 52.93a4.93 4.93 0 1 1 4.92-4.93 4.93 4.93 0 0 1 -4.92 4.93zm0-7.89a3 3 0 1 0 2.95 3 3 3 0 0 0 -2.95-3.04z" fill="#39426a"/><path d="m5.63 52.93a4.93 4.93 0 1 1 4.93-4.93 4.93 4.93 0 0 1 -4.93 4.93zm0-7.89a3 3 0 1 0 3 3 3 3 0 0 0 -3-3.04z" fill="#39426a"/><path d="m78 23a4.92 4.92 0 0 1 -5-5 4.93 4.93 0 1 1 8.41 3.49 4.91 4.91 0 0 1 -3.41 1.51zm0-7.88a3 3 0 1 0 2.09 5 3 3 0 0 0 -2.09-5z" fill="#39426a"/><path d="m18 82.88a4.93 4.93 0 1 1 3.49-1.44 4.91 4.91 0 0 1 -3.49 1.44zm0-7.88a3 3 0 1 0 2.09.87 2.94 2.94 0 0 0 -2.09-.87z" fill="#39426a"/><path d="m78 82.88a5 5 0 0 1 -3.49-1.44 4.94 4.94 0 1 1 3.49 1.44zm0-7.88a3 3 0 0 0 -2.09 5 3 3 0 1 0 2.09-5z" fill="#39426a"/><path d="m18 23a4.93 4.93 0 1 1 3.49-1.44 4.91 4.91 0 0 1 -3.49 1.44zm0-7.88a3 3 0 1 0 2.09.86 3 3 0 0 0 -2.09-.89z" fill="#39426a"/><circle cx="44.06" cy="37.16" fill="#39426a" r=".99"/><circle cx="51.94" cy="37.16" fill="#39426a" r=".99"/><path d="m48 46a3.92 3.92 0 0 1 -2.79-1.16 1 1 0 0 1 0-1.39 1 1 0 0 1 1.4 0 2 2 0 0 0 2.78 0 1 1 0 0 1 1.4 0 1 1 0 0 1 0 1.39 3.92 3.92 0 0 1 -2.79 1.16z" fill="#39426a"/></svg>