<svg id="Layer_1" enable-background="new 0 0 64 64" viewBox="0 0 64 64" xmlns="http://www.w3.org/2000/svg"><g><path d="m4.02 56.46h55.95v2.29h-55.95z" fill="#333232"/><g><g><path d="m6.63 33.81h12.35v22.65h-12.35z" fill="#666"/><g fill="#3ab7fc"><g><path d="m8.56 35.76h3.11v2.49h-3.11z"/><path d="m13.93 35.76h3.11v2.49h-3.11z"/></g><g><path d="m8.56 40.2h3.11v2.49h-3.11z"/><path d="m13.93 40.2h3.11v2.49h-3.11z"/></g><g><path d="m8.56 44.64h3.11v2.49h-3.11z"/><path d="m13.93 44.64h3.11v2.49h-3.11z"/></g><g><path d="m8.56 49.09h3.11v2.49h-3.11z"/><path d="m13.93 49.09h3.11v2.49h-3.11z"/></g></g></g><g><path d="m18.97 23.68h18.08v32.77h-18.08z" fill="#505050"/><g fill="#3ab7fc"><g><path d="m21.44 26.08h4.93v4.44h-4.93z"/><path d="m29.66 26.08h4.93v4.44h-4.93z"/></g><g><path d="m21.44 33.1h4.93v4.44h-4.93z"/><path d="m29.66 33.1h4.93v4.44h-4.93z"/></g><g><path d="m21.44 40.12h4.93v4.44h-4.93z"/><path d="m29.66 40.12h4.93v4.44h-4.93z"/></g><g><path d="m21.44 47.13h4.93v4.44h-4.93z"/><path d="m29.66 47.13h4.93v4.44h-4.93z"/></g></g></g><g><path d="m57.37 56.46h-20.31v-46.77c0-.45.36-.81.81-.81h18.69c.45 0 .81.36.81.81z" fill="#444"/><g fill="#3ab7fc"><g><path d="m39.31 11.76h2.15v5.66h-2.15z"/><path d="m42.71 11.76h2.15v5.66h-2.15z"/><path d="m46.12 11.76h2.15v5.66h-2.15z"/><path d="m49.52 11.76h2.15v5.66h-2.15z"/><path d="m52.92 11.76h2.15v5.66h-2.15z"/></g><g><path d="m39.31 18.89h2.15v5.66h-2.15z"/><path d="m42.71 18.89h2.15v5.66h-2.15z"/><path d="m46.12 18.89h2.15v5.66h-2.15z"/><path d="m49.52 18.89h2.15v5.66h-2.15z"/><path d="m52.92 18.89h2.15v5.66h-2.15z"/></g><g><path d="m39.31 26.02h2.15v5.66h-2.15z"/><path d="m42.71 26.02h2.15v5.66h-2.15z"/><path d="m46.12 26.02h2.15v5.66h-2.15z"/><path d="m49.52 26.02h2.15v5.66h-2.15z"/><path d="m52.92 26.02h2.15v5.66h-2.15z"/></g><g><path d="m39.36 33.14h2.15v5.66h-2.15z"/><path d="m42.76 33.14h2.15v5.66h-2.15z"/><path d="m46.16 33.14h2.15v5.66h-2.15z"/><path d="m49.57 33.14h2.15v5.66h-2.15z"/><path d="m52.97 33.14h2.15v5.66h-2.15z"/></g><g><path d="m39.36 40.27h2.15v5.66h-2.15z"/><path d="m42.76 40.27h2.15v5.66h-2.15z"/><path d="m46.16 40.27h2.15v5.66h-2.15z"/><path d="m49.57 40.27h2.15v5.66h-2.15z"/><path d="m52.97 40.27h2.15v5.66h-2.15z"/></g></g><g fill="#f4c464"><path d="m40.79 48.23h5.66v8.23h-5.66z"/><path d="m47.98 48.23h5.66v8.23h-5.66z"/></g><path d="m38.34 7.07h17.74v1.81h-17.74z" fill="#ffca6c"/><path d="m54.35 7.07h-14.27v-1c0-.45.36-.81.81-.81h12.65c.45 0 .81.36.81.81z" fill="#f9b950"/></g></g></g></svg>