<svg id="Capa_1" enable-background="new 0 0 512 512" viewBox="0 0 512 512" xmlns="http://www.w3.org/2000/svg"><g><g><path d="m363.276 73.163h-255.759c-23.657 0-42.835 19.178-42.835 42.835v353.167c0 23.657 19.178 42.835 42.835 42.835h113.781l72.298-43.553 69.447 33.702c23.657 0 43.068-9.327 43.068-32.984v-353.167c0-23.657-19.178-42.835-42.835-42.835z" fill="#cbd3d8"/></g><g><path d="m226.676.932-2.313-.932h-82.389c-23.657 0-67.223 19.178-67.223 42.835v353.167c0 23.657 43.566 42.835 67.223 42.835h159.492c23.657 0 42.835-19.178 42.835-42.835v-279.555c-22.296-52.612-64.617-94.173-117.625-115.515z" fill="#f2f6fc"/></g><g><path d="m99.139 396.002v-353.167c0-23.657 19.177-42.835 42.834-42.835h-96.267c-23.657 0-42.835 19.178-42.835 42.835v353.167c0 23.657 19.178 42.835 42.835 42.835h96.268c-23.658 0-42.835-19.178-42.835-42.835z" fill="#dce1eb"/></g><g><path d="m105.889 209.163h-41.207c-11.379 0-20.604-9.225-20.604-20.604v-41.207c0-11.379 9.225-20.604 20.604-20.604h41.207c11.379 0 20.604 9.225 20.604 20.604v41.207c0 11.38-9.225 20.604-20.604 20.604z" fill="#8dd470"/></g><g><path d="m105.889 332.785h-41.207c-11.379 0-20.604-9.225-20.604-20.604v-41.207c0-11.379 9.225-20.604 20.604-20.604h41.207c11.379 0 20.604 9.225 20.604 20.604v41.207c0 11.38-9.225 20.604-20.604 20.604z" fill="#8dd470"/></g><g><path d="m344.3 116.447c-11.04-8.349-24.572-12.99-38.637-12.99h-14.156c-30.649 0-55.495-24.846-55.495-55.495v-13.402c0-12.583-4.161-24.692-11.65-34.56 63.532 3.431 114.679 53.418 119.938 116.447z" fill="#dce1eb"/></g><g><path d="m261.886 244.153v60.401h41.207v-60.401c0-11.379 9.225-20.604 20.604-20.604h41.207c11.379 0 20.604 9.225 20.604 20.604v60.401h41.207v-60.401c0-34.137-27.674-61.811-61.811-61.811h-41.207c-34.138 0-61.811 27.674-61.811 61.811z" fill="#515181"/></g><g><path d="m303.093 202.946c0-11.379 9.225-20.604 20.604-20.604-34.137 0-61.811 27.674-61.811 61.811v60.401h41.207v-60.401c0-11.379 9.225-20.604 20.604-20.604-11.379 0-20.604-9.224-20.604-20.603z" fill="#41416b"/></g><g><path d="m313.395 315.83v156.372c0 21.98 38.422 39.798 60.401 39.798h19.887l25.755-20.239 25.754 20.239h24.139c21.98 0 39.798-17.818 39.798-39.798v-156.372z" fill="#cb5935"/></g><g><path d="m333.998 472.202v-156.372h-154.527v156.372c0 21.98 17.818 39.798 39.798 39.798h24.139l25.755-20.239 25.754 20.239h78.879c-21.98 0-39.798-17.818-39.798-39.798z" fill="#b24e2f"/></g><g><path d="m469.331 264.757h-177.95c-21.98 0-60.401 17.818-60.401 39.798v18.572c0 48.415 43.049 67.656 43.049 67.656h167.443c37.365 0 67.656-30.291 67.656-67.656v-18.572c.001-21.98-17.817-39.798-39.797-39.798z" fill="#e37858"/></g><g><path d="m274.029 373.449c-13.777-12.385-22.446-30.339-22.446-50.323v-18.572c0-21.98 17.818-39.798 39.798-39.798h-72.113c-21.98 0-39.798 17.818-39.798 39.798v18.572c0 37.365 30.291 67.656 67.656 67.656h26.902v-17.333z" fill="#cb5935"/></g><g><path d="m294.917 512h-51.509v-139.074c0-14.224 11.531-25.755 25.755-25.755 14.224 0 25.754 11.531 25.754 25.755z" fill="#41416b"/></g><g><path d="m393.683 512h51.509v-139.074c0-14.224-11.531-25.755-25.754-25.755-14.224 0-25.755 11.531-25.755 25.755z" fill="#515181"/></g><g><g><path d="m79.348 186.151c-1.919 0-3.839-.732-5.303-2.196l-9.515-9.515c-2.929-2.929-2.929-7.678 0-10.606 2.929-2.93 7.678-2.929 10.606-.001l4.212 4.212 16.087-16.088c2.929-2.928 7.678-2.928 10.606 0 2.929 2.93 2.929 7.678 0 10.607l-21.391 21.391c-1.463 1.464-3.383 2.196-5.302 2.196z" fill="#fff"/></g><g><path d="m79.348 309.773c-1.989 0-3.897-.79-5.303-2.197l-9.515-9.516c-2.929-2.929-2.929-7.678 0-10.606s7.678-2.929 10.606.001l4.212 4.212 16.087-16.088c2.929-2.928 7.678-2.928 10.606 0 2.929 2.93 2.929 7.678 0 10.607l-21.391 21.391c-1.405 1.406-3.313 2.196-5.302 2.196z" fill="#fff"/></g><g><g><path d="m279.971 317.819c-4.142 0-7.5-3.357-7.5-7.5v-12.361c0-4.143 3.358-7.5 7.5-7.5s7.5 3.357 7.5 7.5v12.361c0 4.143-3.358 7.5-7.5 7.5z" fill="#495560"/></g><g><path d="m408.629 317.819c-4.142 0-7.5-3.357-7.5-7.5v-12.361c0-4.143 3.358-7.5 7.5-7.5s7.5 3.357 7.5 7.5v12.361c0 4.143-3.358 7.5-7.5 7.5z" fill="#495560"/></g><g><path d="m344.3 325.178c-8.668 0-16.911-3.754-22.615-10.299-2.721-3.123-2.396-7.86.727-10.582 3.122-2.722 7.86-2.395 10.582.727 2.854 3.275 6.975 5.154 11.306 5.154s8.451-1.879 11.306-5.154c2.721-3.122 7.459-3.448 10.582-.727 3.123 2.722 3.448 7.459.727 10.582-5.704 6.545-13.947 10.299-22.615 10.299z" fill="#495560"/></g></g><g><g><path d="m303.093 154.853h-135.393c-4.142 0-7.5-3.357-7.5-7.5s3.358-7.5 7.5-7.5h135.393c4.142 0 7.5 3.357 7.5 7.5s-3.358 7.5-7.5 7.5z" fill="#b5babc"/></g><g><path d="m235.396 196.06h-67.696c-4.142 0-7.5-3.357-7.5-7.5s3.358-7.5 7.5-7.5h67.697c4.142 0 7.5 3.357 7.5 7.5s-3.358 7.5-7.501 7.5z" fill="#b5babc"/></g></g><g><g><path d="m158.868 48.707h-114.79c-4.142 0-7.5-3.357-7.5-7.5s3.358-7.5 7.5-7.5h114.79c4.142 0 7.5 3.357 7.5 7.5s-3.358 7.5-7.5 7.5z" fill="#b5babc"/></g><g><path d="m122.077 89.914h-77.999c-4.142 0-7.5-3.357-7.5-7.5s3.358-7.5 7.5-7.5h77.999c4.142 0 7.5 3.357 7.5 7.5s-3.358 7.5-7.5 7.5z" fill="#b5babc"/></g></g></g></g><g/><g/><g/><g/><g/><g/><g/><g/><g/><g/><g/><g/><g/><g/><g/></svg>