<svg id="Capa_1" enable-background="new 0 0 512 512" height="512" viewBox="0 0 512 512" width="512" xmlns="http://www.w3.org/2000/svg"><g><g><g><ellipse cx="199.678" cy="235.056" fill="#6c7fd8" rx="121.703" ry="121.677"/><path d="m285.735 149.018c-28.887-28.881-68.683-40.205-106.127-33.979 24.163 4.018 47.346 15.342 65.987 33.979 47.528 47.518 47.528 124.56 0 172.078-18.641 18.637-41.825 29.961-65.987 33.979 37.444 6.226 77.24-5.098 106.127-33.979 47.528-47.519 47.528-124.561 0-172.078z" fill="#4f66d0"/><ellipse cx="199.677" cy="235.056" fill="#d8ecfe" rx="91.657" ry="91.638" transform="matrix(1 -.01 .01 1 -2.214 1.899)"/><path d="m264.489 170.258c-1.589-1.589-3.237-3.081-4.911-4.529 28.882 41.557 28.882 97.097 0 138.653 1.674-1.447 3.322-2.94 4.911-4.529 35.737-35.728 35.737-93.865 0-129.595z" fill="#c4e2ff"/><path d="m438.477 450.84-22.974 22.969c-5.173 5.172-13.56 5.172-18.733 0l-86.567-86.549c-5.175-5.174-5.175-13.564 0-18.737l22.974-22.969c5.173-5.172 13.56-5.172 18.733 0l86.567 86.549c5.175 5.174 5.175 13.563 0 18.737z" fill="#918291"/><path d="m438.477 432.103-86.567-86.549c-5.173-5.172-13.56-5.172-18.734 0l-5.638 5.637 80.929 80.912c5.175 5.174 5.175 13.564 0 18.737l-17.336 17.332 5.638 5.637c5.173 5.172 13.56 5.172 18.733 0l22.974-22.969c5.176-5.174 5.176-13.563.001-18.737z" fill="#7a6d79"/></g><g><g><g><g><ellipse cx="44.442" cy="71.256" fill="#e5caf3" rx="36.942" ry="36.934"/></g></g><g><g><ellipse cx="312.615" cy="71.256" fill="#80d261" rx="36.942" ry="36.934"/></g></g></g><g><g><g><ellipse cx="199.385" cy="209.199" fill="#cb97e7" rx="36.942" ry="36.934"/></g></g><g><g><ellipse cx="467.558" cy="209.199" fill="#ffd15b" rx="36.942" ry="36.934"/></g></g></g></g><g><g><g><g><path d="m81.38 71.255c0 20.4-16.54 36.94-36.94 36.94-4.4 0-8.61-.77-12.52-2.18 14.23-5.13 24.41-18.76 24.41-34.76s-10.18-29.62-24.41-34.75c3.91-1.41 8.12-2.18 12.52-2.18 20.4 0 36.94 16.53 36.94 36.93z" fill="#d9b1ee"/></g></g><g><g><path d="m349.56 71.255c0 20.4-16.54 36.94-36.94 36.94-4.4 0-8.62-.77-12.53-2.18 14.23-5.13 24.41-18.76 24.41-34.76s-10.18-29.62-24.41-34.75c3.91-1.41 8.13-2.18 12.53-2.18 20.4 0 36.94 16.53 36.94 36.93z" fill="#68ca44"/></g></g></g><g><g><g><path d="m236.33 209.195c0 20.4-16.54 36.94-36.95 36.94-4.4 0-8.61-.77-12.52-2.18 14.23-5.13 24.41-18.76 24.41-34.76 0-15.99-10.18-29.62-24.41-34.75 3.91-1.41 8.12-2.18 12.52-2.18 20.41 0 36.95 16.54 36.95 36.93z" fill="#bd80e1"/></g></g><g><g><path d="m504.5 209.195c0 20.4-16.54 36.94-36.94 36.94-4.4 0-8.62-.77-12.53-2.18 14.23-5.13 24.41-18.76 24.41-34.76 0-15.99-10.18-29.62-24.41-34.75 3.91-1.41 8.13-2.18 12.53-2.18 20.4 0 36.94 16.54 36.94 36.93z" fill="#ffc344"/></g></g></g></g></g><g><path d="m141.292 154.925c-50.903 37.074-53.025 109.452-11.729 150.233 13.955 13.952 31.552 23.333 50.888 27.127 4.066.799 8.006-1.851 8.804-5.916.797-4.065-1.851-8.006-5.916-8.804-16.402-3.218-31.33-11.177-43.171-23.015-35.566-35.441-31.265-93.113 5.01-123.576l16.522 14.71c-4.276 6.826-6.758 14.884-6.758 23.514 0 24.501 19.937 44.434 44.442 44.434s44.442-19.933 44.442-44.434c0-11.11-4.108-21.271-10.873-29.07l12.739-15.522c22.687 14.445 38.6 42.49 38.1 70.449 0 22.501-8.738 43.63-24.605 59.494-11.923 11.92-26.963 19.9-43.493 23.077-4.067.782-6.731 4.713-5.95 8.781.69 3.59 3.832 6.086 7.357 6.086.469 0 .946-.044 1.424-.136 19.486-3.745 37.214-13.15 51.267-27.2 18.701-18.697 29-43.593 29-70.102.264-35.445-19.852-69.958-51.686-87.045-33.232-18.077-74.687-15.784-105.814 6.915zm58.093 83.708c-16.234 0-29.442-13.204-29.442-29.434s13.208-29.435 29.442-29.435 29.442 13.204 29.442 29.435c0 16.23-13.208 29.434-29.442 29.434zm21.981-68.029c-6.488-3.708-13.988-5.84-21.981-5.84-10.469 0-20.097 3.647-27.701 9.725l-13.913-12.387c22.795-13.079 50.44-14.63 74.386-4.648z"/><path d="m467.558 164.765c-7.226 0-14.049 1.744-20.086 4.817v-10.785c0-4.142-3.358-7.5-7.5-7.5s-7.5 3.358-7.5 7.5v9.123l-82.172-73.148c4.276-6.826 6.758-14.884 6.758-23.515 0-24.501-19.937-44.434-44.442-44.434s-44.442 19.933-44.442 44.434c0 11.111 4.109 21.273 10.875 29.072l-17.498 21.321c-43.543-23.721-97.95-20.569-138.601 9.467l-40.824-36.346c4.276-6.826 6.759-14.884 6.759-23.515 0-24.501-19.937-44.434-44.442-44.434s-44.443 19.933-44.443 44.434 19.937 44.435 44.442 44.435c10.469 0 20.096-3.646 27.699-9.724l39.162 34.866c-54.693 51.007-52.99 136.175-2.986 185.567 25.188 25.183 58.274 37.774 91.36 37.774 30.747 0 61.49-10.881 85.899-32.63l25.503 25.498-6.18 6.178c-3.92 3.919-6.079 9.13-6.079 14.673s2.159 10.754 6.079 14.672l86.567 86.549c4.045 4.044 9.356 6.066 14.669 6.065 5.312 0 10.625-2.022 14.669-6.065l22.974-22.969c3.92-3.919 6.079-9.13 6.079-14.673s-2.159-10.754-6.079-14.672l-13.724-13.721c-2.929-2.929-7.678-2.928-10.606.001s-2.928 7.678.001 10.606l13.724 13.721c1.086 1.085 1.684 2.529 1.684 4.064s-.598 2.979-1.684 4.065l-22.973 22.969c-2.241 2.24-5.887 2.24-8.128 0l-86.567-86.549c-1.086-1.085-1.684-2.529-1.684-4.064s.598-2.979 1.684-4.065l22.974-22.969c2.241-2.24 5.887-2.24 8.128 0l48.092 48.082c2.929 2.929 7.678 2.929 10.606-.001 2.929-2.929 2.928-7.678-.001-10.606l-48.092-48.082c-8.089-8.088-21.25-8.087-29.339 0l-6.186 6.185-25.502-25.497c21.134-23.678 32.695-53.89 32.695-85.883.147-41.292-20.197-81.211-54.498-105.399l16.254-19.805c6.487 3.708 13.986 5.839 21.979 5.839 10.469 0 20.097-3.647 27.7-9.725l79.951 71.171h-6.135c-4.142 0-7.5 3.358-7.5 7.5s3.358 7.5 7.5 7.5h12.397c-2.195 5.257-3.412 11.02-3.412 17.062 0 24.501 19.937 44.434 44.442 44.434s44.442-19.933 44.442-44.434-19.937-44.434-44.442-44.434zm-452.558-93.509c0-16.23 13.208-29.434 29.442-29.434s29.442 13.204 29.442 29.434-13.208 29.435-29.442 29.435-29.442-13.205-29.442-29.435zm298.881 163.8c0 30.498-11.879 59.17-33.449 80.735-44.529 44.519-116.98 44.518-161.508 0-43.978-42.022-44.44-118.971 0-161.47 22.264-22.259 51.509-33.389 80.754-33.389s58.49 11.13 80.754 33.389c21.569 21.566 33.449 50.238 33.449 80.735zm-30.708-163.8c0-16.23 13.208-29.434 29.442-29.434s29.442 13.204 29.442 29.434-13.208 29.435-29.442 29.435-29.442-13.205-29.442-29.435zm184.385 167.377c-16.234 0-29.442-13.204-29.442-29.434s13.208-29.435 29.442-29.435 29.442 13.205 29.442 29.435-13.208 29.434-29.442 29.434z"/><path d="m457.29 48.415c4.142 0 7.5-3.358 7.5-7.5v-6.593c0-4.142-3.358-7.5-7.5-7.5s-7.5 3.358-7.5 7.5v6.593c0 4.142 3.358 7.5 7.5 7.5z"/><path d="m457.29 91.497c4.142 0 7.5-3.358 7.5-7.5v-6.593c0-4.142-3.358-7.5-7.5-7.5s-7.5 3.358-7.5 7.5v6.593c0 4.142 3.358 7.5 7.5 7.5z"/><path d="m475.535 66.659h6.593c4.142 0 7.5-3.358 7.5-7.5s-3.358-7.5-7.5-7.5h-6.593c-4.142 0-7.5 3.358-7.5 7.5s3.358 7.5 7.5 7.5z"/><path d="m432.452 66.659h6.593c4.142 0 7.5-3.358 7.5-7.5s-3.358-7.5-7.5-7.5h-6.593c-4.142 0-7.5 3.358-7.5 7.5s3.358 7.5 7.5 7.5z"/></g></g></svg>