<svg id="Layer_1" enable-background="new 0 0 512 512" height="512" viewBox="0 0 512 512" width="512" xmlns="http://www.w3.org/2000/svg"><g><path d="m497 160.667h-417.733c-8.284 0-15 6.716-15 15v321.333c0 8.284 6.716 15 15 15h417.733c8.284 0 15-6.716 15-15v-321.333c0-8.284-6.716-15-15-15z" fill="#464e7d"/><path d="m497 160.667h-209.933v351.333h209.933c8.284 0 15-6.716 15-15v-321.333c0-8.284-6.716-15-15-15z" fill="#0d1146"/><path d="m272.067 287.066h-257.067c-8.284 0-15-6.716-15-15v-257.066c0-8.284 6.716-15 15-15h257.067c8.284 0 15 6.716 15 15v257.066c0 8.285-6.716 15-15 15z" fill="#f0f8fa"/><path d="m287.067 272.066v-257.066c0-8.284-6.716-15-15-15h-128.534v287.066h128.534c8.284 0 15-6.715 15-15z" fill="#d0e3f0"/><path d="m143.533 230.833c-23.32 0-45.243-9.081-61.731-25.569-5.857-5.858-5.857-15.355 0-21.213l51.124-51.124c2.813-2.813 6.628-4.394 10.606-4.394h72.3c8.284 0 15 6.716 15 15 .001 48.138-39.161 87.3-87.299 87.3z" fill="#ff5b62"/><path d="m230.833 143.533c0-8.284-6.716-15-15-15h-72.3v102.3c48.138 0 87.3-39.162 87.3-87.3z" fill="#f53176"/><path d="m158.533 128.533v-57.3c0-8.284-6.716-15-15-15-48.137 0-87.3 39.162-87.3 87.3 0 23.318 9.081 45.241 25.569 61.73z" fill="#13f8e7"/><path d="m143.533 143.533v-87.3c48.138 0 87.3 39.162 87.3 87.3z" fill="#5086ee"/><path d="m144.533 447.733h89.4c8.837 0 16-7.163 16-16v-62.267c0-8.837-7.163-16-16-16h-89.4c-8.837 0-16 7.163-16 16v62.267c0 8.837 7.164 16 16 16z" fill="#13f8e7"/><path d="m234.933 447.733h105.4c8.837 0 16-7.163 16-16v-94.4c0-8.837-7.163-16-16-16h-89.4c-8.837 0-16 7.163-16 16z" fill="#ff5b62"/><path d="m340.333 321.333h-53.266v126.4h53.266c8.837 0 16-7.164 16-16v-94.4c0-8.837-7.163-16-16-16z" fill="#f53176"/><path d="m341.333 447.733h90.4c8.837 0 16-7.163 16-16v-190.8c0-8.837-7.163-16-16-16h-74.4c-8.837 0-16 7.163-16 16z" fill="#5086ee"/><g fill="#0d1146"><path d="m369.533 0c-25.803 0-47.133 20.851-47.133 47.133v64.267c0 8.284 6.716 15 15 15s15-6.716 15-15v-17.133h34.267v17.133c0 8.284 6.716 15 15 15s15-6.716 15-15v-64.267c0-25.754-20.805-47.133-47.134-47.133zm17.134 64.267h-34.267v-17.134c0-9.438 7.638-17.133 17.133-17.133 9.46 0 17.133 7.658 17.133 17.133v17.134z"/><path d="m497 96.4h-9.1v-66.4h9.1c8.284 0 15-6.716 15-15s-6.716-15-15-15h-48.2c-8.284 0-15 6.716-15 15s6.716 15 15 15h9.1v66.4h-9.1c-8.284 0-15 6.716-15 15s6.716 15 15 15h48.2c8.284 0 15-6.716 15-15s-6.716-15-15-15z"/></g></g></svg>