<svg id="Capa_1" enable-background="new 0 0 512 512" height="512" viewBox="0 0 512 512" width="512" xmlns="http://www.w3.org/2000/svg"><g><circle cx="256" cy="256" fill="#6bbef6" r="256"/><path d="m327.824 501.781c-22.787 6.655-46.894 10.219-71.824 10.219-141.382 0-256-114.618-256-256 0-141.392 114.618-256 256-256 24.93 0 49.037 3.564 71.824 10.219-106.418 31.04-184.176 129.329-184.176 245.781s77.758 214.741 184.176 245.781z" fill="#528ecb"/><path d="m181.219 227.515c-12.084 72.494-76.532 103.368-51.025 161.1 25.518 57.721 25.847 74.853-4.523 87.771h-.01c-25.909-15.36-48.872-35.15-67.848-58.329 13.537-51.076-47.964-91.665-56.124-132.47 0-.021-.01-.041-.01-.062-1.102-9.684-1.679-19.543-1.679-29.525 0-61.213 21.479-117.399 57.319-161.45 63.48 17.513 135.974 60.472 123.9 132.965z" fill="#86f1a7"/><path d="m125.661 476.387h.01c30.37-12.918 30.04-30.05 4.523-87.771-14.567-32.97.206-57.183 17.808-85.388-2.855-15.307-4.354-31.092-4.354-47.227 0-34.979 7.024-68.315 19.724-98.686-24.004-31.32-66.752-51.921-106.054-62.764-35.839 44.05-57.318 100.236-57.318 161.449 0 9.982.577 19.841 1.679 29.525 0 .021.01.041.01.062 8.159 40.805 69.661 81.395 56.124 132.471 18.977 23.179 41.94 42.969 67.848 58.329z" fill="#66b49d"/><path d="m155.702 491.592-.002.004c30.803 13.131 64.701 20.404 100.3 20.404s69.496-7.273 100.299-20.403v-.005c-30.802-13.135-64.706-20.398-100.299-20.398-35.593.001-69.496 7.263-100.298 20.398z" fill="#e4f6ff"/><path d="m327.804 501.77c-23.879-6.967-46.308-17.33-66.746-30.515-1.683-.033-3.366-.064-5.057-.064-35.593 0-69.496 7.263-100.298 20.398l-.002.004c30.803 13.13 64.701 20.404 100.3 20.404 24.931-.001 49.021-3.58 71.803-10.227z" fill="#b9e4ef"/><path d="m512 256c0 67.364-26.033 128.649-68.559 174.368-24.869-19.563-45.812-62.12-45.812-100.824 0-52.354 64.448-44.298 64.448-81.889s-88.606-10.745-88.606-80.55c0-45.153 43.546-69.28 74.307-80.694 39.961 45.164 64.222 104.543 64.222 169.589z" fill="#86f1a7"/><path d="m207.629 38.225c18.419 4.605 21.48 79.207-8.055 79.207s-59.741-12.082-59.741-30.206 35.576-57.056 67.796-49.001z" fill="#e4f6ff"/><path d="m207.629 38.225c-32.22-8.055-67.796 30.877-67.796 49.001 0 15.125 21.039 26.035 45.167 29.234 10.502-16.121 22.77-30.983 36.53-44.316-.769-16.621-5.877-31.913-13.901-33.919z" fill="#b9e4ef"/><g><path d="m499.109 93.885c0 29.237-16.349 54.651-40.404 67.6-10.817 5.831-23.189 9.138-36.335 9.138-13.145 0-25.518-3.307-36.335-9.138-24.055-12.949-40.404-38.364-40.404-67.6 0-42.382 34.357-76.738 76.738-76.738s76.74 34.356 76.74 76.738z" fill="#f4dd45"/><path d="m402.509 161.485c8.53 4.595 18.018 7.623 28.103 8.695-2.709.299-5.46.443-8.241.443-13.145 0-25.517-3.307-36.334-9.138-24.055-12.949-40.404-38.364-40.404-67.6 0-42.382 34.357-76.738 76.738-76.738 2.782 0 5.532.144 8.241.433-38.508 4.11-68.507 36.705-68.507 76.306 0 29.235 16.349 54.65 40.404 67.599z" fill="#eab14d"/><path d="m458.705 161.485c-10.817 5.831-23.189 9.138-36.335 9.138-13.145 0-25.518-3.307-36.335-9.138 2.895-17.451 18.059-30.761 36.335-30.761s33.44 13.31 36.335 30.761z" fill="#da4a54"/><circle cx="422.371" cy="93.884" fill="#f1b986" r="36.842"/><path d="m422.371 57.042c-9.733 0-18.578 3.781-25.165 9.945.001 0 22.112 26.896 62.007 26.896 0-20.346-16.494-36.841-36.842-36.841z" fill="#be694f"/></g><g><path d="m432.453 359.34c0 29.237-16.349 54.651-40.404 67.6-10.817 5.831-23.189 9.138-36.335 9.138s-25.518-3.307-36.335-9.138c-24.055-12.949-40.404-38.364-40.404-67.6 0-42.382 34.357-76.738 76.738-76.738s76.74 34.356 76.74 76.738z" fill="#da4a54"/><path d="m335.853 426.94c8.53 4.595 18.018 7.623 28.103 8.695-2.709.299-5.46.443-8.241.443-13.145 0-25.517-3.307-36.334-9.138-24.055-12.949-40.404-38.364-40.404-67.6 0-42.382 34.357-76.738 76.738-76.738 2.782 0 5.532.144 8.241.433-38.508 4.11-68.507 36.705-68.507 76.306 0 29.235 16.349 54.65 40.404 67.599z" fill="#c32430"/><path d="m392.049 426.94c-10.817 5.831-23.189 9.138-36.335 9.138s-25.518-3.307-36.335-9.138c2.895-17.451 18.059-30.761 36.335-30.761s33.44 13.31 36.335 30.761z" fill="#fff"/><circle cx="355.715" cy="359.339" fill="#f1d0a5" r="36.842"/><path d="m355.715 322.497c-9.733 0-18.578 3.781-25.165 9.945 0 0 22.112 26.896 62.007 26.896 0-20.346-16.494-36.841-36.842-36.841z" fill="#404a4a"/></g><g><path d="m153.476 114.439c0 29.237-16.349 54.651-40.404 67.6-10.817 5.831-23.189 9.138-36.335 9.138s-25.518-3.307-36.335-9.138c-24.053-12.949-40.402-38.363-40.402-67.6 0-42.382 34.357-76.738 76.738-76.738s76.738 34.357 76.738 76.738z" fill="#be694f"/><path d="m56.876 182.04c8.53 4.595 18.018 7.623 28.103 8.695-2.709.299-5.46.443-8.241.443-13.145 0-25.517-3.307-36.334-9.138-24.055-12.95-40.404-38.364-40.404-67.601 0-42.382 34.357-76.738 76.738-76.738 2.782 0 5.532.144 8.241.433-38.508 4.11-68.507 36.705-68.507 76.306.001 29.236 16.35 54.65 40.404 67.6z" fill="#934d36"/><path d="m113.073 182.04c-10.817 5.831-23.189 9.138-36.335 9.138s-25.518-3.307-36.335-9.138c2.895-17.451 18.059-30.761 36.335-30.761s33.44 13.309 36.335 30.761z" fill="#6bbef6"/><circle cx="76.739" cy="114.438" fill="#f1d0a5" r="36.842"/><path d="m76.739 77.597c-9.733 0-18.578 3.781-25.165 9.945 0 0 22.112 26.896 62.007 26.896 0-20.347-16.495-36.841-36.842-36.841z" fill="#eab14d"/></g></g></svg>