<svg id="Capa_1" enable-background="new 0 0 512 512" height="512" viewBox="0 0 512 512" width="512" xmlns="http://www.w3.org/2000/svg"><g><g><g><path d="m131.709 228.652c-.371 0-.746-.027-1.125-.082l-25.925-3.782c-29.93-.312-54.18-24.757-54.18-54.759v-65.166c0-4.267 3.459-7.726 7.726-7.726s7.726 3.459 7.726 7.726v65.166c0 21.675 17.634 39.309 39.309 39.309.373 0 .746.027 1.115.081l26.459 3.86c4.223.616 7.146 4.538 6.53 8.761-.56 3.844-3.862 6.612-7.635 6.612z" fill="#e2e8f5"/></g><g><path d="m256 163.883c-4.267 0-7.726-3.459-7.726-7.726v-102.588c0-4.267 3.459-7.726 7.726-7.726s7.726 3.459 7.726 7.726v102.587c0 4.268-3.459 7.727-7.726 7.727z" fill="#e2e8f5"/></g><g><path d="m406.76 224.791h-18.12c-4.267 0-7.726-3.459-7.726-7.726s3.459-7.726 7.726-7.726h18.12c21.675 0 39.309-17.634 39.309-39.309v-69.332c0-4.267 3.459-7.726 7.726-7.726s7.726 3.459 7.726 7.726v69.332c0 30.195-24.566 54.761-54.761 54.761z" fill="#e2e8f5"/></g></g><path d="m390.954 418.769c37.685-58.097 42.458-123.972 32.111-187.595-3.527-4.342-7.598-8.378-12.082-12.192-.509-.25-1.022-.493-1.54-.728-1.632-.741-2.579-2.432-2.408-4.216 1.404-14.585-5.5-29.491-16.607-38.959-6.625 1.274-10.149 1.006-14.68-8.241.179-1.786.209-3.621.07-5.483-1.126-15.051-13.345-27.224-28.4-28.3-1.876-.134-3.715-.103-5.512.086-7.273-2.294-13.532-6.653-13.145-14.278-7.547-5.4-16.755-8.633-26.649-8.633-16.021 0-30.129 8.173-38.396 20.573-1.509 5.652-5.152 15.973-6.435 21.282-.843 3.488-1.739 3.474-2.585-.02-1.285-5.305-4.713-15.322-6.432-21.273-8.268-12.395-22.376-20.562-38.394-20.562-9.894 0-19.103 3.233-26.649 8.633.387 7.626-5.872 11.984-13.145 14.278-1.797-.189-3.636-.22-5.512-.086-15.055 1.075-27.274 13.248-28.4 28.3-.139 1.863-.11 3.698.07 5.483-4.531 9.248-8.055 9.515-14.68 8.241-11.106 9.467-18.01 24.374-16.607 38.959.172 1.784-.776 3.475-2.408 4.216-19.514 8.863-33.084 28.523-33.084 51.351 0 9.031 2.123 17.565 5.899 25.132-.97 8.892-3.588 14.565-11.145 12.789-6.37 9.706-10.128 21.32-10.128 33.72 0 10.751 3.316 21.209 8.243 30.05.685 1.229.665 2.724-.019 3.953-3.281 5.895-5.15 12.684-5.15 19.909 0 18.838 12.706 34.709 30.015 39.509 4.083 5.818 5.247 11.49 4.217 17.16 7.502 18.514 23.696 32.66 43.496 37.147l10.618-2.531 9.488 3.625c10.309 13.341 26.467 21.932 44.631 21.932 20.736 0 38.858-11.197 48.648-27.874 3.443-5.865 5.856-15.517 6.989-22.489.483-2.968.995-2.836 1.498.192 1.024 6.164 4.108 16.062 6.96 21.378 6.538 5.884 11.846 11.533 18.831 17.03 44.385-10.515 82.622-40.055 108.408-81.468z" fill="#ffdcd0"/><g><path d="m449.674 375.254c3.286 5.893 5.151 12.682 5.151 19.903 0 18.842-12.702 34.707-30.009 39.507-7.433 4.222-8.925 10.782-4.224 17.163-7.421 18.728-23.59 32.727-43.494 37.148l-10.472-3.259-9.637 4.351c-10.302 13.341-26.466 21.933-44.628 21.933-21.51 0-40.198-12.043-49.696-29.762.927.031 1.854.041 2.781.041 84.805 0 152.372-90.903 153.548-199.495 0-22.314-2.823-43.772-8.015-63.799 18.688 9.169 31.544 28.402 31.544 50.623 0 9.024-2.122 17.565-5.893 25.126 1.548 9.913 5.18 12.679 11.136 12.795 6.371 9.707 10.137 21.317 10.137 33.718 0 10.745-3.317 21.211-8.252 30.05-.677 1.227-.657 2.721.023 3.957z" fill="#ffc7b6"/></g><g><path d="m263.716 130.802v352.404c-.35-.33-.711-.649-1.061-.968-2.854-5.305-4.873-11.136-5.903-17.297-.494-3.029-1.01-3.163-1.494-.196-1.133 6.974-3.554 13.516-6.995 19.378v-353.331c2.946 4.409 5.151 9.354 6.428 14.659.855 3.492 1.741 3.513 2.586.021 1.288-5.305 3.493-10.261 6.439-14.67z" fill="#ffc7b6"/></g><g><path d="m480.357 84.892c0 17.353-9.209 27.73-26.562 27.73-14.523 0-22.592-9.503-30.342-19.452-.702-2.608-1.079-5.35-1.079-8.18 0-17.353 14.067-31.421 31.421-31.421 2.83 0 5.572.377 8.18 1.079 11.885 7.268 18.382 15.721 18.382 30.244z" fill="#e2e8f5"/><path d="m485.215 84.99c0 17.348-14.072 31.421-31.421 31.421-14.515 0-26.747-9.858-30.342-23.24 2.606.711 5.35 1.081 8.183 1.081 17.348 0 31.421-14.072 31.421-31.421 0-2.833-.37-5.576-1.081-8.183 13.382 3.595 23.24 15.827 23.24 30.342z" fill="#d4daf9"/></g><g><g><path d="m424.816 434.664c-.587 6.006-2.029 11.775-4.224 17.163-2.483.391-5.007.587-7.541.587-4.862 0-9.663-.721-14.278-2.132-4.08-1.247-6.377-5.563-5.13-9.643 1.257-4.079 5.573-6.377 9.653-5.13 5.934 1.813 12.455 1.926 18.451.309z" fill="#ffb5a5"/></g><g><path d="m385.576 457.081c0 11.363-2.905 22.242-8.478 31.894-4.337.989-8.849 1.504-13.485 1.504-2.05 0-4.626-.216-6.624-.412.062-.082 2.946-3.194 3.008-3.266 6.624-8.581 10.127-18.852 10.127-29.721 0-4.265 3.461-7.726 7.726-7.726 4.265.001 7.726 3.462 7.726 7.727z" fill="#ffb5a5"/></g><g><path d="m447.768 307.53c-4.811 8.993-11.765 16.782-20.192 22.592-1.339.917-2.864 1.36-4.378 1.36-2.452 0-4.873-1.164-6.366-3.338-2.421-3.513-1.535-8.324 1.978-10.745 6.727-4.646 12.228-10.951 15.896-18.234l1.927-4.43c4.243 3.719 8.003 8.025 11.135 12.795z" fill="#ffb5a5"/></g><g><path d="m341.907 133.141c-6.294-.01-12.805.577-18.811 5.182-1.422 1.123-3.121 1.679-4.801 1.679-2.277 0-4.533-.999-6.057-2.915-2.658-3.348-2.102-8.2 1.236-10.858 4.512-3.595 9.725-6.099 15.288-7.366 5.315 3.801 9.817 8.684 13.145 14.278z" fill="#ffc7b6"/></g><g><path d="m390.428 175.079c-.814 5.645-2.936 11.147-6.171 15.927-1.483 2.205-3.925 3.4-6.408 3.4-1.483 0-2.988-.433-4.316-1.329-3.534-2.39-4.461-7.191-2.071-10.724 2.112-3.132 3.43-6.768 3.812-10.528l.474-4.986c5.398 1.833 10.364 4.645 14.68 8.24z" fill="#ffc7b6"/></g><g><path d="m342.97 418.666c-2.211 0-4.449-.191-6.699-.588-4.202-.741-7.009-4.748-6.268-8.951s4.751-7.007 8.951-6.268c12.501 2.204 24.465-6.173 26.67-18.674.741-4.202 4.745-7.006 8.951-6.267 4.202.741 7.008 4.749 6.267 8.951-3.288 18.642-19.563 31.797-37.872 31.797z" fill="#ffc7b6"/></g><g><path d="m334.741 345.993c-6.954 0-13.854-1.348-20.337-4.004-.191-.078-.378-.164-.562-.257l-23.136-11.721c-3.806-1.929-5.329-6.577-3.4-10.384s6.576-5.327 10.384-3.4l22.847 11.575c6.62 2.654 13.845 3.397 20.914 2.151 18.772-3.31 32.404-20.143 31.71-39.155-.155-4.264 3.175-7.847 7.44-8.003 4.241-.169 7.847 3.175 8.003 7.44.974 26.677-18.144 50.295-44.47 54.937-3.119.548-6.262.821-9.393.821z" fill="#ffc7b6"/></g></g><g><g><path d="m87.165 434.664c.587 6.006 2.029 11.775 4.224 17.163 2.483.391 5.007.587 7.541.587 4.862 0 9.663-.721 14.278-2.132 4.08-1.247 6.377-5.563 5.13-9.643-1.257-4.079-5.573-6.377-9.653-5.13-5.934 1.813-12.455 1.926-18.451.309z" fill="#ffc7b6"/></g><g><path d="m126.405 457.081c0 11.363 2.905 22.242 8.478 31.894 4.337.989 8.849 1.504 13.485 1.504 2.05 0 4.626-.216 6.624-.412-.062-.082-2.946-3.194-3.008-3.266-6.624-8.581-10.127-18.852-10.127-29.721 0-4.265-3.461-7.726-7.726-7.726-4.264.001-7.726 3.462-7.726 7.727z" fill="#ffc7b6"/></g><g><path d="m64.213 307.53c4.811 8.993 11.765 16.782 20.192 22.592 1.339.917 2.864 1.36 4.378 1.36 2.452 0 4.873-1.164 6.367-3.338 2.421-3.513 1.535-8.324-1.978-10.745-6.727-4.646-12.228-10.951-15.896-18.234l-1.926-4.43c-4.245 3.719-8.005 8.025-11.137 12.795z" fill="#ffc7b6"/></g><g><path d="m170.074 133.141c6.294-.01 12.805.577 18.811 5.182 1.422 1.123 3.121 1.679 4.801 1.679 2.277 0 4.533-.999 6.057-2.915 2.658-3.348 2.102-8.2-1.236-10.858-4.512-3.595-9.725-6.099-15.288-7.366-5.315 3.801-9.817 8.684-13.145 14.278z" fill="#ffc7b6"/></g><g><path d="m121.553 175.079c.814 5.645 2.936 11.147 6.171 15.927 1.483 2.205 3.925 3.4 6.408 3.4 1.483 0 2.988-.433 4.316-1.329 3.534-2.39 4.461-7.191 2.071-10.724-2.112-3.132-3.43-6.768-3.812-10.528l-.474-4.986c-5.398 1.833-10.364 4.645-14.68 8.24z" fill="#ffc7b6"/></g><g><path d="m169.012 418.666c2.211 0 4.449-.191 6.699-.588 4.202-.741 7.009-4.748 6.268-8.951s-4.751-7.007-8.951-6.268c-12.501 2.204-24.465-6.173-26.67-18.674-.741-4.202-4.745-7.006-8.951-6.267-4.202.741-7.008 4.749-6.267 8.951 3.288 18.642 19.562 31.797 37.872 31.797z" fill="#ffc7b6"/></g><g><path d="m177.24 345.993c6.954 0 13.854-1.348 20.337-4.004.191-.078.378-.164.562-.257l23.136-11.721c3.806-1.929 5.329-6.577 3.4-10.384s-6.576-5.327-10.384-3.4l-22.847 11.575c-6.62 2.654-13.845 3.397-20.914 2.151-18.772-3.31-32.404-20.143-31.71-39.155.155-4.264-3.175-7.847-7.44-8.003-4.241-.169-7.847 3.175-8.003 7.44-.974 26.677 18.144 50.295 44.47 54.937 3.12.548 6.263.821 9.393.821z" fill="#ffc7b6"/></g></g><path d="m343.937 266.107c0-22.928-4.799-41.525-17.905-61.554-18.096-21.089-45.553-33.911-75.929-32.022-46.826 2.912-84.248 41.127-86.259 88-1.465 34.155 15.659 64.41 42.089 81.521 1.386.897 4.948 2.131 6.384 2.955 7.899 4.531 15.707 12.449 15.707 21.556v26.599h52.195v-26.532c0-8.965 4.704-17.352 12.502-21.775 27.94-15.849 51.216-44.331 51.216-78.748z" fill="#f2f2f2"/><path d="m348.242 264.592c0 34.418-18.852 64.417-46.801 80.261-7.788 4.43-12.496 12.815-12.496 21.778v26.527h-65.89v-26.599c0-9.107-4.986-17.389-12.888-21.922-1.432-.824-2.843-1.689-4.234-2.586 10.044 3.461 20.83 5.336 32.049 5.336 54.424 0 98.547-44.123 98.547-98.547 0-15.927-3.781-30.967-10.498-44.287 13.846 16.132 22.211 37.107 22.211 60.039z" fill="#e2e8f5"/><path d="m261.125 444.355h-10.249c-11.321 0-20.499-9.177-20.499-20.499v-17.257h51.246v17.257c0 11.321-9.177 20.499-20.498 20.499z" fill="#f2f2f2"/><path d="m312.523 264.33c0 33.963-22.56 56.606-56.523 56.606-24.337 0-36.837-14.041-55.331-29.838-3.943-8.112-6.164-17.216-6.164-26.842 0-33.963 27.532-61.496 61.495-61.496 9.618 0 18.718 2.212 26.826 6.149 17.332 14.735 29.697 31.076 29.697 55.421z" fill="#fbd166"/><path d="m317.492 264.252c0 33.965-27.526 61.502-61.492 61.502-24.343 0-45.369-14.144-55.331-34.655 8.108 3.946 17.204 6.15 26.826 6.15 33.965 0 61.492-27.537 61.492-61.502 0-9.622-2.215-18.729-6.161-26.836 20.521 9.961 34.666 30.998 34.666 55.341z" fill="#f5b742"/><path d="m264.562 257.174c-2.413-1.038-4.489-1.748-6.321-2.375-2.963-1.014-4.423-1.541-5.235-2.442-.807-.896-1.088-1.862-.831-2.87.282-1.113 1.125-2.017 2.255-2.418 2.975-1.057 6.356.492 7.321.992 3.791 1.961 8.451.479 10.413-3.31 1.962-3.79.479-8.452-3.31-10.413-1.114-.576-2.901-1.388-5.137-2.034v-2.82c0-4.267-3.459-7.726-7.726-7.726s-7.726 3.459-7.726 7.726v3.411c-5.502 2.302-9.603 7.014-11.069 12.794-1.535 6.052.043 12.252 4.328 17.01 3.533 3.923 7.693 5.346 11.715 6.721 1.646.563 3.349 1.146 5.218 1.95 3.633 1.562 3.663 4.323 3.359 5.83-.154.763-1.164 4.57-5.876 4.602-4.154.029-6.34-.799-9.381-2.548-3.7-2.127-8.423-.853-10.549 2.847-2.127 3.699-.852 8.422 2.847 10.549 1.478.85 2.948 1.611 4.49 2.26.708.298 3.064.707 5.575 1.102 9.738-2.423 18.675-8.021 25.934-15.479.661-2.56 1.592-5.678 2.171-8.338-1.262-6.534-5.73-12.124-12.465-15.021z" fill="#fce698"/><path d="m276.964 280.261c-1.483 7.324-6.562 13.042-13.248 15.566v3.348c0 4.265-3.461 7.726-7.726 7.726s-7.726-3.461-7.726-7.726v-2.689c-1.607-.361-3.091-.835-4.502-1.411 13.516-3.698 25.178-11.899 33.265-22.88.504 2.585.494 5.305-.063 8.066z" fill="#fbd166"/><g><path d="m282.562 31.323c0 17.353-9.209 27.73-26.562 27.73-14.523 0-22.592-9.503-30.342-19.452-.702-2.608-1.079-5.35-1.079-8.18 0-17.354 14.068-31.421 31.421-31.421 2.83 0 5.572.377 8.18 1.079 11.885 7.268 18.382 15.721 18.382 30.244z" fill="#e2e8f5"/><path d="m287.421 31.421c0 17.348-14.072 31.421-31.421 31.421-14.515 0-26.747-9.858-30.342-23.24 2.606.711 5.35 1.081 8.183 1.081 17.348 0 31.421-14.072 31.421-31.421 0-2.833-.37-5.576-1.081-8.183 13.381 3.595 23.24 15.826 23.24 30.342z" fill="#d4daf9"/></g><g><path d="m84.768 84.892c0 17.353-9.209 27.73-26.562 27.73-14.523 0-22.592-9.503-30.342-19.452-.702-2.608-1.079-5.35-1.079-8.18 0-17.353 14.067-31.421 31.421-31.421 2.83 0 5.572.377 8.18 1.079 11.885 7.268 18.382 15.721 18.382 30.244z" fill="#e2e8f5"/><path d="m89.626 84.99c0 17.348-14.072 31.421-31.421 31.421-14.515 0-26.747-9.858-30.342-23.24 2.606.711 5.35 1.081 8.183 1.081 17.348 0 31.421-14.072 31.421-31.421 0-2.833-.37-5.576-1.081-8.183 13.382 3.595 23.24 15.827 23.24 30.342z" fill="#d4daf9"/></g><path d="m295.51 413.607h-79.02c-3.651 0-6.611-2.96-6.611-6.611v-17.525c0-3.651 2.96-6.611 6.611-6.611h79.021c3.651 0 6.611 2.96 6.611 6.611v17.525c0 3.651-2.96 6.611-6.612 6.611z" fill="#d4daf9"/></g></svg>