<svg id="Capa_1" enable-background="new 0 0 512 512" viewBox="0 0 512 512" xmlns="http://www.w3.org/2000/svg"><g><g><path d="m363.496 427.171-.227 75.082c0 2.627-2.122 4.76-4.749 4.76l-30.287 4.987-7.129-2.854-7.139 2.854h-55.28l-7.149-4.78-7.129 4.78h-55.279l-7.139-1.906-7.13 1.906h-34.48c-2.627 0-4.749-2.133-4.749-4.76v-81.992c0-17.194 11.929-32.049 28.701-35.758l45.833-10.137c8.798 15.422 18.409 23.89 34.243 25.94 2.575.35 5.305.505 8.221.505 2.112 0 4.131-.072 6.057-.227 17.049-1.339 26.676-8.864 34.227-26.212l40.188 10.838c16.782 3.709 30.396 19.8 30.396 36.974z" fill="#fe93bb"/><g><path d="m258.681 384.047v127.953h-14.269v-127.953c0-3.938 3.196-7.134 7.134-7.134s7.135 3.195 7.135 7.134z" fill="#fe76a8"/></g><path d="m367.462 425.238v82.002c0 2.627-2.122 4.76-4.749 4.76h-34.48l-5.563-11.445v-34.367l5.567-13.451-.004-22.844c0-38.561-35.32-50.533-35.32-50.533l45.838 10.131c16.782 3.708 28.711 18.574 28.711 35.747z" fill="#fe76a8"/><path d="m292.913 379.359c-3.111 20.024-20.452 35.364-41.367 35.364-20.927 0-38.254-15.338-41.377-35.362l3.99-.879c8.09-1.782 13.85-8.956 13.85-17.242v-41.914h47.076v41.914c0 8.285 5.759 15.46 13.85 17.242z" fill="#ffb09e"/><path d="m343.298 271.432c5.518-14.474 3.344-24.473-2.928-38.636l-10.667-24.085c-14.951-33.756-40.097-55.281-77.016-55.281-4.615 0-15.246-1.236-15.246-1.236-31.342 4.629-58.132 24.918-71.211 54.459l-10.725 24.222c-6.273 14.167-6.693 30.24-1.169 44.715l.007.018c8.698 22.793 30.583 37.835 54.979 37.79l84.624-.159c.359-.001.718-.005 1.076-.012 23.837-5.589 39.739-19.404 48.276-41.795z" fill="#b98080"/><g><path d="m266.275 238.939c-20.639 0-37.43-16.475-37.43-36.725 0-3.94 3.194-7.134 7.134-7.134s7.134 3.194 7.134 7.134c0 12.173 10.606 22.456 23.161 22.456 3.941 0 7.134 3.194 7.134 7.134s-3.192 7.135-7.133 7.135z" fill="#ae6c6c"/></g><path d="m348.712 275.436c-8.542 22.379-29.798 37.302-53.689 37.778 11.568-6.906 20.817-17.925 25.771-31.567 5.515-15.204 5.1-32.067-1.171-46.942l-10.677-25.283c-13.056-30.969-40.23-52.323-71.505-57.228 4.625-.708 9.335-1.074 14.106-1.074 36.924 0 70.37 21.769 85.317 55.52l10.665 24.087c6.283 14.167 6.698 30.225 1.183 44.709z" fill="#ae6c6c"/><path d="m200.275 255.091 25.771-.157c18.616-.114 34.959-12.408 40.23-30.263h28.448c6.48 0 11.732 5.253 11.732 11.732v35.217c0 31.296-19.054 59.44-48.112 71.063-4.364 1.745-9.232 1.745-13.595 0-29.058-11.623-48.112-39.767-48.112-71.063v-12.868c-.001-2.014 1.625-3.649 3.638-3.661z" fill="#ffcebf"/><g><path d="m251.546 313.241c-6.244 0-12.489-1.589-18.058-4.765-3.422-1.952-4.615-6.309-2.662-9.732 1.952-3.423 6.309-4.615 9.732-2.662 6.778 3.865 15.2 3.865 21.977 0 3.423-1.952 7.779-.761 9.732 2.662s.76 7.78-2.662 9.732c-5.57 3.177-11.814 4.765-18.059 4.765z" fill="#ffb09e"/></g><g><path d="m328.236 452.737v59.263h-14.269v-59.263c0-3.938 3.187-7.134 7.134-7.134 3.939-.001 7.135 3.195 7.135 7.134z" fill="#fe5694"/></g><g><path d="m189.125 452.737v59.263h-14.269v-59.263c0-3.938 3.196-7.134 7.134-7.134 3.948-.001 7.135 3.195 7.135 7.134z" fill="#fe76a8"/></g><g fill="#f2fbff"><circle cx="223.006" cy="437.738" r="7.08"/><circle cx="223.006" cy="467.645" r="7.08"/><circle cx="223.006" cy="497.552" r="7.08"/></g></g><g><g><g><g><g><path d="m72.081 228.099-2.058-6.582c0-7.974-.766-15.583 5.249-20.818 7.619-6.63 12.435-16.396 12.435-27.289 0-20.013-10.262-35.07-30.274-34.879-3.949-.038-7.759-.71-11.335.441-14.546 4.681-25.181 18.374-25.18 34.439 0 10.892 4.816 20.659 12.435 27.289 6.015 5.234 9.432 12.844 9.432 20.818v6.582h29.296z" fill="#ffe177"/></g><path d="m57.432 137.248c-3.949-.037-7.759.573-11.335 1.724 14.546 4.681 25.184 18.374 25.184 34.438 0 10.892-4.816 20.659-12.435 27.288-6.015 5.234-9.432 12.844-9.432 20.818v6.582h22.666v-6.582c0-7.974 3.417-15.583 9.432-20.818 7.619-6.63 12.435-16.396 12.435-27.288 0-20.013-16.502-36.352-36.515-36.162z" fill="#ffd15b"/><path d="m72.081 232.937v6.783c0 8.284-6.716 15-15 15-8.284 0-15-6.716-15-15v-6.783z" fill="#7a6d79"/><g><path d="m72.478 235.825h-30.794c-4.267 0-7.726-3.459-7.726-7.726s3.459-7.726 7.726-7.726h30.794c4.267 0 7.726 3.459 7.726 7.726s-3.459 7.726-7.726 7.726z" fill="#918291"/></g></g><g fill="#d8ecfe"><path d="m162.816 40.544-26.276-13.156c-3.818-1.913-8.458-.366-10.368 3.45-1.91 3.815-.366 8.457 3.45 10.367l11.239 5.627-5.467 2.496c-26.912 12.29-49.594 31.937-65.595 56.819-2.308 3.59-1.27 8.369 2.319 10.678 1.293.831 2.741 1.228 4.172 1.228 2.541 0 5.029-1.253 6.506-3.548 14.396-22.386 34.804-40.063 59.016-51.12l4.025-1.838-4.01 10.724c-1.494 3.997.534 8.449 4.531 9.943.892.334 1.806.492 2.705.492 3.131 0 6.076-1.918 7.238-5.022l10.294-27.525c1.382-3.699-.247-7.847-3.779-9.615z"/><path d="m436.482 75.306c-4.124-1.094-8.356 1.356-9.453 5.481l-3.211 12.071c-14.983-18.626-34.095-33.519-56.015-43.529l-19.106-8.724c-3.881-1.77-8.464-.062-10.237 3.819s-.063 8.465 3.819 10.237l19.106 8.724c19.016 8.683 35.669 21.465 48.922 37.391l-11.222-1.739c-4.222-.644-8.165 2.235-8.818 6.453-.653 4.217 2.236 8.165 6.453 8.819l29.04 4.497c.399.062.796.093 1.189.093 3.448 0 6.549-2.315 7.46-5.741l7.554-28.398c1.096-4.125-1.358-8.358-5.481-9.454z"/></g></g><g><g><g><path d="m306.539 61.575c0 34.007-20.907 54.16-54.914 54.16-22.284 0-41.803-4.423-52.612-22.154-5.686-9.327-8.963-20.284-8.963-32.006 0-34.007 27.568-61.575 61.575-61.575 11.723 0 22.679 3.277 32.006 8.963 17.731 10.809 22.908 30.328 22.908 52.612z" fill="#98d5b9"/></g></g><path d="m283.631 8.963c5.686 9.327 9.533 23.598 9.533 35.321 0 34.007-23.97 59.683-57.977 59.683-11.723 0-26.847-4.7-36.174-10.386 10.809 17.73 30.328 29.569 52.612 29.569 34.007 0 61.575-27.568 61.575-61.575 0-22.284-11.838-41.803-29.569-52.612z" fill="#7acaa6"/><g><path d="m248.18 92.294c-2.068 0-4.058-.83-5.515-2.315l-21.016-21.42c-2.989-3.046-2.942-7.938.104-10.926s7.938-2.942 10.927.104l14.82 15.104 44.112-56.863c2.616-3.372 7.469-3.985 10.84-1.369 3.372 2.615 3.985 7.469 1.369 10.841l-49.535 63.854c-1.367 1.763-3.43 2.848-5.656 2.977-.151.009-.301.013-.45.013z" fill="#54ba8b"/></g></g></g><path d="m441.082 147.309 15.165 24.89c.646 1.06 1.689 1.818 2.897 2.105l2.997.712 16.698 6.771c3.389.804 4.723 4.911 2.454 7.554l-12.022 19.848c-.809.942-1.207 2.168-1.107 3.406l2.014 27.443c.282 3.471-3.211 6.01-6.426 4.669l-24.853-9.659c-1.146-.478-2.435-.478-3.581 0l-24.002 8.78c-3.214 1.341-6.708-1.197-6.426-4.669l-.74-22.538.204-2.509c.101-1.238-.298-2.464-1.107-3.406l-18.985-22.114c-2.269-2.643-.934-6.75 2.454-7.554l28.358-6.732c1.208-.287 2.251-1.045 2.897-2.105l15.165-24.89c1.816-2.976 6.134-2.976 7.946-.002z" fill="#ffe177"/><path d="m489.957 188.59c2.269-2.643.934-6.75-2.454-7.554l-25.36-6.02c-2.663 24.022-23.023 42.707-47.756 42.707-3.514 0-6.935-.387-10.234-1.103l-2.157 26.541c-.282 3.472 3.211 6.01 6.426 4.669l26.899-11.222c1.146-.478 2.435-.478 3.581 0l26.899 11.222c3.214 1.341 6.708-1.197 6.426-4.669l-2.361-29.05c-.101-1.237.298-2.464 1.107-3.406z" fill="#ffd15b"/></g></g><g/><g/><g/><g/><g/><g/><g/><g/><g/><g/><g/><g/><g/><g/><g/></svg>