<svg id="Capa_1" enable-background="new 0 0 512 512" height="512" viewBox="0 0 512 512" width="512" xmlns="http://www.w3.org/2000/svg"><g><g><g><g><path d="m144.821 163.868v-8.743c0-8.906 4.399-17.227 11.768-22.257l.437-.298v-50.939c-.014-.3-.024-.601-.057-.896l-.173-.208c-2.384-2.882-4.251-6.133-5.56-9.594-2.303-1.663-5.122-2.654-8.179-2.654-7.733 0-14.002 6.269-14.002 14.002v61.336l.454 2.091z" fill="#ffcebf"/><g><path d="m354.975 93.891v38.68l.437.298c7.368 5.03 11.768 13.352 11.768 22.257v8.743l15.313-18.16.454-2.091v-61.337c0-7.733-6.269-14.002-14.002-14.002-7.733 0-14.002 6.269-14.002 14.002v10.321c.01.429.032.856.032 1.289z" fill="#ffcebf"/><g fill="#60b7ff"><path d="m350.129 449.379c-.725-.613-.512-1.396-.429-1.622.082-.225.425-.96 1.374-.96h13.123c1.91 0 3.465-1.554 3.465-3.464v-81.336l-.58-.269c-23.504-10.89-38.691-34.646-38.691-60.523 0-17.454 6.749-33.356 17.764-45.255h-270.604l80.275-67.682c-6.668-4.907-11.005-12.805-11.005-21.7v-4.251l-15.767-18.7-115.663 97.518c-12.392 10.447-16.673 27.139-10.776 42.315 5.656 14.557 19.985 23.896 35.602 23.896h97.556v144.98c0 8.534 6.918 15.453 15.453 15.453h220.637z"/><path d="m498.61 241.135-115.663-97.519-15.768 18.7v4.251c0 8.895-4.337 16.793-11.005 21.7l58.273 49.132c27.35 8.321 47.312 33.772 47.312 63.805 0 2.063-.107 4.11-.297 6.14h12.321c15.617 0 29.946-9.339 35.602-23.896 5.897-15.174 1.616-31.866-10.775-42.313z"/></g><path d="m268.726 311.3-1.673-.999h-22.273l-1.506.999-19.513 156.478h64.478z" fill="#444"/><g><g><path d="m35.581 283.45c-5.897-15.176-1.616-31.867 10.776-42.314l96.395-81.273-13.698-16.245-115.663 97.517c-12.392 10.447-16.673 27.138-10.776 42.315 5.656 14.557 19.985 23.896 35.602 23.896h32.966c-15.617-.001-29.946-9.339-35.602-23.896z" fill="#26a6fe"/></g><path d="m458.635 246.862-68.207-57.507c-4.223-3.56-4.759-9.869-1.199-14.091l12.985-15.401-19.268-16.246-15.768 18.7v4.251c0 8.895-4.337 16.793-11.005 21.7l58.273 49.132c11.455 3.485 21.609 9.976 29.547 18.551h11.32c4.804 0 6.994-5.993 3.322-9.089z" fill="#26a6fe"/><g><path d="m168.739 452.326v-134.679c0-5.69-4.612-10.302-10.302-10.302h-22.664v144.98c0 8.534 6.918 15.453 15.453 15.453h32.966c-8.535 0-15.453-6.918-15.453-15.452z" fill="#26a6fe"/></g></g></g></g><g><g><path d="m263.562 272.201-5.775 9.964c-.374.626-1.045 1.007-1.787 1.007s-1.413-.381-1.794-1.018l-5.769-9.953-18.559 11.607 13.395 27.492h25.453l13.395-27.492z" fill="#5a5a5a"/></g><g fill="#0593fc"><path d="m233.868 247.063c-.794-1.371-1.214-2.932-1.214-4.514v-6.322c-8.916-.462-17.236-3.207-24.39-7.662v60.644c0 4.046 4.451 6.513 7.882 4.367l32.793-20.509z"/><path d="m279.346 236.227v6.322c0 1.582-.42 3.143-1.214 4.514l-15.071 26.004 32.793 20.509c3.431 2.146 7.882-.321 7.882-4.367v-60.644c-7.154 4.455-15.474 7.2-24.39 7.662z"/></g><path d="m276.663 236.305h-41.326c-1.239 0-2.464-.06-3.682-.146v6.391c0 1.761.465 3.491 1.348 5.014l20.345 35.104c1.199 2.006 4.105 2.006 5.305 0l20.345-35.104c.883-1.524 1.348-3.253 1.348-5.014v-6.391c-1.219.086-2.444.146-3.683.146z" fill="#ffb09e"/><path d="m250.155 242.549v-6.244h-14.818c-1.239 0-2.464-.06-3.682-.146v6.391c0 1.761.465 3.491 1.348 5.014l20.345 35.104c1.199 2.006 4.105 2.006 5.305 0l6.598-11.384-13.747-23.72c-.884-1.524-1.349-3.254-1.349-5.015z" fill="#f89580"/></g><g><g><path d="m301.355 58.934v35.906h6.199c11.293 0 20.48 9.188 20.48 20.48v12.873h12.211c5.868 0 11.299 1.892 15.728 5.09v-39.392c0-28.715-23.278-51.993-51.993-51.993h-7.235c2.926 5.01 4.61 10.828 4.61 17.036z" fill="#fe7701"/><path d="m182.938 92.84c-9.98 0-18.964-4.336-25.175-11.22l-1.737-.455v52.119c4.429-3.198 9.86-5.09 15.728-5.09h12.211v-12.874c0-11.164 8.983-20.254 20.098-20.461v-2.02h-21.125z" fill="#fe860a"/><path d="m204.062 94.84h98.292v-35.906c0-19.28-15.629-34.909-34.909-34.909h-84.508c-19.279 0-34.907 15.629-34.907 34.907s15.629 34.907 34.907 34.907h21.125z" fill="#fe860a"/><g><path d="m189.238 58.933c0-19.279 15.629-34.907 34.907-34.907h-41.207c-19.279 0-34.907 15.628-34.907 34.907 0 19.279 15.629 34.907 34.907 34.907h41.207c-19.279 0-34.907-15.629-34.907-34.907z" fill="#fe7701"/></g></g><g><g><path d="m182.964 184.933v-57.74h-11.211c-15.427 0-27.932 12.506-27.932 27.932v11.443c0 15.427 12.506 27.932 27.932 27.932h12.099c-.573-3.103-.888-6.298-.888-9.567z" fill="#f89580"/></g><path d="m183.965 184.933v-57.74h-12.211c-15.427 0-27.932 12.506-27.932 27.932v11.443c0 15.427 12.506 27.932 27.932 27.932h13.119c-.588-3.102-.908-6.297-.908-9.567z" fill="#f89580"/><path d="m340.247 127.193h-12.211v57.74c0 3.27-.32 6.465-.907 9.567h13.119c15.427 0 27.932-12.506 27.932-27.932v-11.443c-.001-15.426-12.507-27.932-27.933-27.932z" fill="#ffb09e"/></g><g><path d="m276.663 237.305h-41.326c-28.924 0-52.372-23.448-52.372-52.372v-69.612c0-11.864 9.617-21.481 21.481-21.481h103.109c11.864 0 21.481 9.617 21.481 21.481v69.612c0 28.924-23.448 52.372-52.373 52.372z" fill="#ffcebf"/></g><g><path d="m228.871 219.381c-8.054-9.208-12.941-21.254-12.941-34.449v-69.612c0-11.864 9.617-21.481 21.481-21.481h-32.966c-11.864 0-21.481 9.617-21.481 21.481v69.612c0 26.734 20.036 48.772 45.907 51.96z" fill="#ffb09e"/></g><path d="m283.129 208.563c0-7.066-4.038-13.516-10.396-16.597-10.538-5.106-22.928-5.106-33.465 0-6.359 3.081-10.396 9.531-10.396 16.597v28.331c2.12.261 4.275.412 6.465.412h41.326c2.191 0 4.345-.15 6.466-.412z" fill="#fe7ab6"/><path d="m239.267 191.966c-6.359 3.081-10.396 9.531-10.396 16.597v28.331c2.12.261 4.275.412 6.465.412h16.795v-28.742c0-7.066 4.037-13.516 10.396-16.597 1.656-.802 3.359-1.47 5.091-2.02-9.289-2.947-19.475-2.282-28.351 2.019z" fill="#fe5ca7"/><g><g><g><path d="m224.89 150.64c-4.143 0-7.5-3.357-7.5-7.5v-11.587c0-4.143 3.357-7.5 7.5-7.5s7.5 3.357 7.5 7.5v11.587c0 4.142-3.358 7.5-7.5 7.5z" fill="#ca6e59"/></g><g><path d="m287.11 150.64c-4.143 0-7.5-3.357-7.5-7.5v-11.587c0-4.143 3.357-7.5 7.5-7.5s7.5 3.357 7.5 7.5v11.587c0 4.142-3.357 7.5-7.5 7.5z" fill="#ca6e59"/></g></g><g><path d="m252.144 176.584c-2.26 0-4.493-1.017-5.969-2.951-2.513-3.293-1.879-8 1.414-10.512l6.086-4.643c.072-.055.29-.222.29-.585s-.218-.53-.29-.584l-6.086-4.644c-3.293-2.512-3.927-7.219-1.414-10.512 2.512-3.292 7.218-3.926 10.512-1.414l6.086 4.643c3.935 3.001 6.192 7.562 6.192 12.511s-2.258 9.51-6.192 12.512l-6.086 4.642c-1.359 1.036-2.958 1.537-4.543 1.537z" fill="#ca6e59"/></g></g></g></g><g><path d="m439.074 445.797h-13.123c-1.361 0-2.464-1.103-2.464-2.464v-81.817c-8.625 4.08-18.255 6.372-28.413 6.372s-19.787-2.292-28.412-6.372v81.816c0 1.361-1.103 2.464-2.464 2.464h-13.123c-2.295 0-3.344 2.862-1.592 4.345l44 37.25c.919.778 2.265.778 3.184 0l44-37.25c1.751-1.482.703-4.344-1.593-4.344z" fill="#fd6930"/><g><path d="m390.356 450.966v-82.259c-8.413-.584-16.405-2.694-23.694-6.071v80.697c0 1.361-1.103 2.464-2.464 2.464h-13.123c-2.295 0-3.344 2.862-1.592 4.345l44 37.25c.919.778 2.265.778 3.184 0l16.948-14.348-21.435-18.147c-1.157-.979-1.824-2.417-1.824-3.931z" fill="#fd5426"/></g><g><g><circle cx="395.074" cy="301.205" fill="#ffe177" r="67.684"/></g><g><path d="m368.597 301.205c0-30.195 19.777-55.763 47.081-64.48-6.498-2.074-13.418-3.204-20.604-3.204-37.381 0-67.684 30.303-67.684 67.684s30.303 67.684 67.684 67.684c7.186 0 14.106-1.13 20.604-3.204-27.304-8.718-47.081-34.285-47.081-64.48z" fill="#ffd15b"/></g><path d="m403.83 293.705h-17.511c-2.887 0-5.235-2.349-5.235-5.235v-3.715c0-2.887 2.349-5.234 5.235-5.234h17.511c2.887 0 5.234 2.348 5.234 5.234 0 4.143 3.357 7.5 7.5 7.5s7.5-3.357 7.5-7.5c0-11.157-9.077-20.234-20.234-20.234h-1.256v-4.174c0-4.143-3.357-7.5-7.5-7.5s-7.5 3.357-7.5 7.5v4.174h-1.255c-11.158 0-20.235 9.077-20.235 20.234v3.715c0 11.158 9.077 20.235 20.235 20.235h17.511c2.887 0 5.234 2.348 5.234 5.234v3.715c0 2.887-2.348 5.235-5.234 5.235h-17.511c-2.887 0-5.235-2.349-5.235-5.235 0-4.143-3.357-7.5-7.5-7.5s-7.5 3.357-7.5 7.5c0 11.158 9.077 20.235 20.235 20.235h1.255v4.173c0 4.143 3.357 7.5 7.5 7.5s7.5-3.357 7.5-7.5v-4.173h1.256c11.157 0 20.234-9.077 20.234-20.235v-3.715c0-11.157-9.077-20.234-20.234-20.234z" fill="#fe860a"/></g></g><g><g><g><path d="m486.507 107.405h-52.537c-4.143 0-7.5-3.357-7.5-7.5v-9.497h-18.768c-4.143 0-7.5-3.357-7.5-7.5s3.357-7.5 7.5-7.5h26.268c4.143 0 7.5 3.357 7.5 7.5v9.497h45.037c4.143 0 7.5 3.357 7.5 7.5s-3.358 7.5-7.5 7.5z" fill="#fd6930"/></g><g><path d="m398.399 61.243c-3.068 0-5.947-1.897-7.052-4.949-1.41-3.895.604-8.195 4.499-9.604l60.294-21.826c3.894-1.411 8.194.604 9.604 4.499s-.604 8.195-4.499 9.604l-60.294 21.826c-.842.306-1.704.45-2.552.45z" fill="#fd6930"/></g></g><g><g><path d="m78.03 107.405h-52.537c-4.143 0-7.5-3.357-7.5-7.5s3.357-7.5 7.5-7.5h45.037v-9.497c0-4.143 3.357-7.5 7.5-7.5h26.268c4.143 0 7.5 3.357 7.5 7.5s-3.357 7.5-7.5 7.5h-18.768v9.497c0 4.143-3.357 7.5-7.5 7.5z" fill="#fd6930"/></g><g><path d="m113.601 61.243c-.848 0-1.71-.145-2.553-.45l-60.294-21.826c-3.895-1.409-5.909-5.71-4.499-9.604 1.409-3.895 5.711-5.91 9.604-4.499l60.294 21.826c3.895 1.409 5.909 5.71 4.499 9.604-1.104 3.052-3.983 4.949-7.051 4.949z" fill="#fd6930"/></g></g></g></g></g></svg>