<svg height="512pt" viewBox="0 -21 512.00048 512" width="512pt" xmlns="http://www.w3.org/2000/svg"><path d="m255.996094 418.808594-131.847656 51.820312c-2.402344.945313-5.011719-.824218-5.011719-3.410156v-88.027344h-45.050781c-20.914063 0-37.878907-16.953125-37.878907-37.878906v-68.023438c0-1.984374-1.613281-3.597656-3.597656-3.597656h-16.320313c-11.808593 0-19.6875-12.191406-14.832031-22.949218l36.515625-81.070313c3.511719-7.785156 5.675782-16.121094 6.308594-24.636719 5.9375-78.875 71.808594-141.035156 152.203125-141.035156 21.113281 0 41.226563 4.285156 59.511719 12.039062-54.730469 23.199219 0 406.769532 0 406.769532zm0 0" fill="#83d9ff"/><path d="m495.710938 269.695312h-16.320313c-1.984375 0-3.597656 1.609376-3.597656 3.597657v68.023437c0 20.925782-16.960938 37.878906-37.886719 37.878906h-45.042969v88.023438c0 2.589844-2.609375 4.355469-5.019531 3.410156l-131.847656-51.816406s54.726562-383.582031 0-406.773438c18.285156-7.742187 38.398437-12.03515575 59.511718-12.03515575 80.402344 0 146.277344 62.16015575 152.199219 141.03515575.644531 8.511719 2.808594 16.851563 6.3125 24.636719l36.527344 81.070313c4.851563 10.757812-3.027344 22.949218-14.835937 22.949218zm0 0" fill="#ff84a7"/><path d="m349.121094 152.636719c0 28.816406-7.824219 55.644531-21.566406 78.535156-26.613282 44.332031-40.125 95.300781-40.3125 147.003906l-.09375 24.511719c-.007813 2.347656-1.445313 4.449219-3.628907 5.3125l-27.523437 10.808594-27.515625-10.808594c-2.183594-.863281-3.628907-2.964844-3.628907-5.3125l-.09375-24.511719c-.1875-51.703125-13.699218-102.671875-40.308593-147.003906-13.742188-22.890625-21.582031-49.71875-21.582031-78.535156 0-63.1875 38.398437-117.398438 93.128906-140.597657 54.726562 23.1875 93.125 77.410157 93.125 140.597657zm0 0" fill="#5186ff"/><path d="m338.039062 148.683594c0 45.3125-36.734374 82.042968-82.042968 82.042968-45.3125 0-82.042969-36.730468-82.042969-82.042968 0-45.308594 36.730469-82.042969 82.042969-82.042969 45.308594 0 82.042968 36.734375 82.042968 82.042969zm0 0" fill="#476eea"/><path d="m321.632812 148.683594c0 36.25-29.386718 65.636718-65.632812 65.636718-36.25 0-65.632812-29.386718-65.632812-65.636718 0-36.246094 29.382812-65.632813 65.632812-65.632813 36.246094 0 65.632812 29.386719 65.632812 65.632813zm0 0" fill="#fdd559"/><path d="m279.945312 164.835938c0-13.203126-10.742187-23.949219-23.945312-23.949219-4.609375 0-8.355469-3.746094-8.355469-8.351563 0-4.609375 3.746094-8.355468 8.355469-8.355468 2.777344 0 5.371094 1.378906 6.933594 3.6875 2.410156 3.566406 7.253906 4.507812 10.824218 2.09375 3.566407-2.410157 4.503907-7.253907 2.09375-10.824219-2.957031-4.371094-7.210937-7.570313-12.058593-9.238281v-2.847657c0-4.304687-3.488281-7.792969-7.792969-7.792969-4.308594 0-7.796875 3.488282-7.796875 7.792969v2.84375c-9.390625 3.242188-16.152344 12.164063-16.152344 22.640625 0 13.203125 10.742188 23.945313 23.949219 23.945313 4.605469 0 8.351562 3.75 8.351562 8.355469 0 4.609374-3.746093 8.355468-8.351562 8.355468-2.773438 0-5.359375-1.371094-6.921875-3.671875-2.421875-3.558593-7.269531-4.484375-10.832031-2.0625-3.558594 2.417969-4.484375 7.265625-2.066406 10.828125 2.953124 4.34375 7.195312 7.523438 12.023437 9.183594v2.847656c0 4.308594 3.488281 7.796875 7.796875 7.796875 4.304688 0 7.792969-3.488281 7.792969-7.796875v-2.84375c9.390625-3.242187 16.152343-12.160156 16.152343-22.636718zm0 0" fill="#fff"/></svg>