<svg id="Capa_1" enable-background="new 0 0 497 497" height="512" viewBox="0 0 497 497" width="512" xmlns="http://www.w3.org/2000/svg"><g><path d="m187.25 336.089-7.83 109.22-34.07 4.57-48.14 6.46-7.5 1.01-7.5-1.25-64.78-10.79v-224.67l73.49-5.81 88.5 5.81 6.17 90.92z" fill="#fed2a4"/><path d="m102.292 348.333c0-9.832-7.971-17.803-17.803-17.803-9.832 0-17.803 7.971-17.803 17.803v46.486c0 7.847 5.08 14.495 12.129 16.862 2.047.687 3.396 2.643 3.396 4.802v39.616l7.5 1.25 7.5-1.01v-49.078c3.14-3.21 5.082-7.598 5.082-12.443v-46.485z" fill="#ffbd86"/><path d="m179.596 442.86 7.659-106.77-7.833-115.45-13.425-.881-6.378.881v85.301c0 3.103-2.515 5.618-5.618 5.618-4.78 0-8.65 3.88-8.65 8.65v129.67l14.268-1.914v.004l15.016-2.019 4.785-.642z" fill="#ffbd86"/><path d="m5.226 186.66h174.196l4.266 16.99-4.266 16.99h-174.196c-2.886 0-5.226-2.34-5.226-5.226v-23.528c0-2.887 2.34-5.226 5.226-5.226z" fill="#fff3de"/><path d="m159.618 186.659v33.981h19.804l4.266-16.99-4.266-16.991z" fill="#ffe5c2"/><path d="m5.226 478.265h174.196v-32.953h-174.196c-2.886 0-5.226 2.34-5.226 5.226v22.5c0 2.887 2.34 5.227 5.226 5.227z" fill="#b6c4cf"/><path d="m5.226 478.265h174.196v-32.953h-174.196c-2.886 0-5.226 2.34-5.226 5.226v22.5c0 2.887 2.34 5.227 5.226 5.227z" fill="#b6c4cf"/><path d="m17.43 452.812c-4.142 0-7.5-3.358-7.5-7.5v-36.44c0-4.142 3.358-7.5 7.5-7.5s7.5 3.358 7.5 7.5v36.44c0 4.142-3.358 7.5-7.5 7.5z" fill="#eaa998"/><path d="m17.803 412.622c-9.832 0-17.803-7.971-17.803-17.803v-46.486c0-9.832 7.971-17.803 17.803-17.803 9.832 0 17.803 7.971 17.803 17.803v46.486c0 9.832-7.97 17.803-17.803 17.803z" fill="#bbec6c"/><path d="m17.803 330.529c-3.665 0-7.07 1.11-9.902 3.009 4.764 3.195 7.902 8.627 7.902 14.795v46.486c0 6.167-3.137 11.6-7.902 14.795 2.831 1.899 6.236 3.009 9.902 3.009 9.832 0 17.803-7.971 17.803-17.803v-46.486c.001-9.834-7.97-17.805-17.803-17.805z" fill="#a2e62e"/><path d="m179.42 445.309-14.27 32.96h-53.36l-7.5-2.43-7.5 2.43h-91.56c-2.89 0-5.23-2.34-5.23-5.23v-22.5c0-2.89 2.34-5.23 5.23-5.23z" fill="#b6c4cf"/><path d="m179.42 445.309-14.27 32.96h-19.8v-32.96z" fill="#9facba"/><path d="m111.79 405.119v73.15h-15v-73.15c0-4.14 3.36-7.5 7.5-7.5s7.5 3.36 7.5 7.5z" fill="#eaa998"/><g fill="#fff3de"><path d="m139.398 294.131c-4.142 0-7.5-3.358-7.5-7.5v-27.65c0-4.142 3.358-7.5 7.5-7.5s7.5 3.358 7.5 7.5v27.65c0 4.142-3.357 7.5-7.5 7.5z"/><path d="m98.424 294.131c-4.142 0-7.5-3.358-7.5-7.5v-27.65c0-4.142 3.358-7.5 7.5-7.5s7.5 3.358 7.5 7.5v27.65c0 4.142-3.358 7.5-7.5 7.5z"/><path d="m57.45 294.131c-4.142 0-7.5-3.358-7.5-7.5v-27.65c0-4.142 3.358-7.5 7.5-7.5s7.5 3.358 7.5 7.5v27.65c0 4.142-3.358 7.5-7.5 7.5z"/></g><path d="m104.292 412.622c-9.832 0-17.803-7.971-17.803-17.803v-46.486c0-9.832 7.971-17.803 17.803-17.803 9.832 0 17.803 7.971 17.803 17.803v46.486c0 9.832-7.971 17.803-17.803 17.803z" fill="#bbec6c"/><path d="m104.292 330.529c-3.665 0-7.07 1.11-9.902 3.009 4.764 3.195 7.902 8.627 7.902 14.795v46.486c0 6.167-3.137 11.6-7.902 14.795 2.831 1.899 6.236 3.009 9.902 3.009 9.832 0 17.803-7.971 17.803-17.803v-46.486c0-9.834-7.971-17.805-17.803-17.805z" fill="#a2e62e"/><path d="m479.57 220.639v224.67l-72.28 7.5-21.97-1.84-15-1.25-52.74-4.41-5.53-103.36 5.53-121.31 81-5.81z" fill="#fed2a4"/><path d="m464.144 219.534-4.374 1.106v105.577c0 2.29-1.647 4.19-3.887 4.667-7.734 1.648-14.278 8.945-14.293 17.449v46.486c-.106 8.057 6.194 15.718 14.354 17.433 2.217.466 3.826 2.384 3.826 4.65v30.466l19.803-2.055v-224.673z" fill="#ffbd86"/><path d="m372.905 330.53c-9.833 0-17.803 7.971-17.803 17.803v46.486c0 7.716 4.913 14.269 11.779 16.736 2.074.745 3.439 2.733 3.439 4.938v33.227l15 1.25v-42.11c0-.409-.042-.807-.105-1.199 3.379-3.24 5.493-7.79 5.493-12.842v-46.486c0-9.833-7.97-17.803-17.803-17.803z" fill="#ffbd86"/><path d="m491.774 186.66h-174.196l-5.527 16.99 5.527 16.99h174.196c2.886 0 5.226-2.34 5.226-5.226v-23.528c0-2.887-2.34-5.226-5.226-5.226z" fill="#fff3de"/><path d="m491.774 186.659h-19.804c2.886 0 5.226 2.34 5.226 5.226v23.528c0 2.886-2.34 5.226-5.226 5.226h19.803c2.886 0 5.226-2.34 5.226-5.226v-23.528c.001-2.886-2.339-5.226-5.225-5.226z" fill="#ffe5c2"/><path d="m479.57 452.812c-4.143 0-7.5-3.358-7.5-7.5v-37.609c0-4.142 3.357-7.5 7.5-7.5s7.5 3.358 7.5 7.5v37.609c0 4.142-3.357 7.5-7.5 7.5z" fill="#eaa998"/><path d="m479.197 412.622c9.832 0 17.803-7.971 17.803-17.803v-46.486c0-9.832-7.971-17.803-17.803-17.803-9.832 0-17.803 7.971-17.803 17.803v46.486c-.001 9.832 7.97 17.803 17.803 17.803z" fill="#bbec6c"/><path d="m479.197 330.529c-3.665 0-7.07 1.11-9.902 3.009 4.764 3.195 7.902 8.627 7.902 14.795v46.486c0 6.167-3.137 11.6-7.902 14.795 2.831 1.899 6.236 3.009 9.902 3.009 9.833 0 17.803-7.971 17.803-17.803v-46.486c0-9.834-7.971-17.805-17.803-17.805z" fill="#a2e62e"/><path d="m497 450.539v22.5c0 2.89-2.34 5.23-5.23 5.23h-91.56l-7.502-1.866-7.498 1.866h-53.36l-14.27-32.96h174.19c2.89 0 5.23 2.34 5.23 5.23z" fill="#b6c4cf"/><path d="m491.774 445.312h-19.804c2.886 0 5.226 2.34 5.226 5.226v22.5c0 2.886-2.34 5.226-5.226 5.226h19.803c2.886 0 5.226-2.34 5.226-5.226v-22.5c.001-2.886-2.339-5.226-5.225-5.226z" fill="#9facba"/><path d="m400.21 408.862v69.407h-15v-69.407c0-4.14 3.36-7.5 7.5-7.5s7.5 3.36 7.5 7.5z" fill="#eaa998"/><path d="m444.765 294.131c-4.143 0-7.5-3.358-7.5-7.5v-27.65c0-4.142 3.357-7.5 7.5-7.5s7.5 3.358 7.5 7.5v27.65c0 4.142-3.358 7.5-7.5 7.5z" fill="#fff3de"/><path d="m403.791 294.131c-4.143 0-7.5-3.358-7.5-7.5v-27.65c0-4.142 3.357-7.5 7.5-7.5s7.5 3.358 7.5 7.5v27.65c0 4.142-3.357 7.5-7.5 7.5z" fill="#fff3de"/><path d="m362.816 294.131c-4.143 0-7.5-3.358-7.5-7.5v-27.65c0-4.142 3.357-7.5 7.5-7.5s7.5 3.358 7.5 7.5v27.65c0 4.142-3.357 7.5-7.5 7.5z" fill="#fff3de"/><path d="m392.708 412.622c9.832 0 17.803-7.971 17.803-17.803v-46.486c0-9.832-7.971-17.803-17.803-17.803-9.832 0-17.803 7.971-17.803 17.803v46.486c0 9.832 7.971 17.803 17.803 17.803z" fill="#bbec6c"/><path d="m392.708 330.529c-3.665 0-7.07 1.11-9.902 3.009 4.764 3.195 7.902 8.627 7.902 14.795v46.486c0 6.167-3.137 11.6-7.902 14.795 2.832 1.899 6.236 3.009 9.902 3.009 9.833 0 17.803-7.971 17.803-17.803v-46.486c0-9.834-7.97-17.805-17.803-17.805z" fill="#a2e62e"/><path d="m248.5 86.763c-4.142 0-7.5-3.358-7.5-7.5v-53.032c0-4.142 3.358-7.5 7.5-7.5 4.143 0 7.5 3.358 7.5 7.5v53.032c0 4.142-3.357 7.5-7.5 7.5z" fill="#fff3de"/><path d="m317.58 129.849v181.71l-19.8 2.62-49.28 6.52-69.08-9.14v-181.71c0-7.27 3.49-14.11 9.37-18.38l49.81-36.15h.01l3.97-2.88c3.53-2.57 8.31-2.57 11.84 0l53.79 39.03c5.88 4.27 9.37 11.11 9.37 18.38z" fill="#eaa998"/><path d="m317.58 129.849v181.71l-19.8 2.62v-184.33c0-7.27-3.49-14.11-9.38-18.38l-49.79-36.15 3.97-2.88c3.53-2.57 8.31-2.57 11.84 0l53.79 39.03c5.88 4.27 9.37 11.11 9.37 18.38z" fill="#e49280"/><path d="m248.5 193.241c-13.364 0-24.197-10.833-24.197-24.197v-20.406c0-13.364 10.833-24.197 24.197-24.197 13.364 0 24.197 10.833 24.197 24.197v20.406c0 13.363-10.833 24.197-24.197 24.197z" fill="#f5fcff"/><path d="m248.5 124.441c-3.529 0-6.878.762-9.902 2.12 8.425 3.785 14.295 12.242 14.295 22.077v20.406c0 9.834-5.87 18.292-14.295 22.077 3.023 1.358 6.372 2.12 9.902 2.12 13.364 0 24.197-10.833 24.197-24.197v-20.406c0-13.364-10.833-24.197-24.197-24.197z" fill="#ddf4fe"/><path d="m331.851 478.265h-42.979l-40.372-9.464-40.37 9.464h-42.981v-158.055c0-4.775 3.871-8.646 8.646-8.646h149.409c4.775 0 8.646 3.871 8.646 8.646v158.055z" fill="#fff3de"/><path d="m323.205 311.563h-19.803c4.775 0 8.646 3.871 8.646 8.646v158.056h19.803v-158.055c0-4.776-3.871-8.647-8.646-8.647z" fill="#ffe5c2"/><path d="m288.87 398.319v79.95h-80.74v-79.95c0-4.16 3.37-7.54 7.53-7.54h65.68c4.16 0 7.53 3.38 7.53 7.54z" fill="#c8effe"/><path d="m281.336 390.781h-19.803c4.162 0 7.536 3.374 7.536 7.536v79.948h19.803v-79.948c0-4.162-3.374-7.536-7.536-7.536z" fill="#99e6fc"/><path d="m262.333 356.952h-27.667c-4.142 0-7.5-3.358-7.5-7.5s3.358-7.5 7.5-7.5h27.667c4.143 0 7.5 3.358 7.5 7.5s-3.357 7.5-7.5 7.5z" fill="#ffbd86"/><path d="m284.372 236.421h-71.744c-4.142 0-7.5-3.358-7.5-7.5s3.358-7.5 7.5-7.5h71.744c4.143 0 7.5 3.358 7.5 7.5s-3.357 7.5-7.5 7.5z" fill="#f5fcff"/><path d="m284.372 266.48h-71.744c-4.142 0-7.5-3.358-7.5-7.5s3.358-7.5 7.5-7.5h71.744c4.143 0 7.5 3.358 7.5 7.5s-3.357 7.5-7.5 7.5z" fill="#f5fcff"/><path d="m241 390.779h15v87.49h-15z" fill="#99e6fc"/></g></svg>