<svg id="Capa_1" enable-background="new 0 0 512 512" height="512" viewBox="0 0 512 512" width="512" xmlns="http://www.w3.org/2000/svg"><g><g><path d="m211.791 347.162 70.027 63.166c7.464 6.48 11.439 15.46 11.765 24.593 0 0-.104.732-.102 1.057.059 8.063-4.407 14.694-10.148 21.249 0 0-4.008 5.453-7.386 5.294l111.854.061c16.207 0 29.796 11.164 33.431 26.189 0 0 .393 5.274.393 8.046 0 6.302-8.168 7.747-14.498 7.747l-153.987-.294c-10.227 0-20.16-3.404-28.22-9.672l-66.451-51.69c-6.028-4.653-13.44-7.178-36.441-7.178l-48.698 1.334.94-107.12 25.681-3.729h55.927c20.572.002 40.444 7.445 55.913 20.947z" fill="#ffdcd0"/><g fill="#ffc7b6"><path d="m191.332 381.427c-2.053 3.44-1.375 7.852 1.614 10.518l76.013 67.781c2.174 1.888 4.864 2.815 7.53 2.815 3.204 0 6.374-1.328 8.64-3.914 5.974-6.821 8.751-15.329 8.453-23.707-1.087 1.888-2.388 3.691-3.876 5.396-2.266 2.586-5.436 3.914-8.64 3.914-2.667 0-5.356-.927-7.53-2.815l-69.468-61.944c-3.917-3.492-10.046-2.551-12.736 1.956z"/><path d="m422.184 496.823c0 3.146-1.281 6-3.354 8.061-2.074 2.061-4.939 3.342-8.11 3.342h-159.448c-10.22 0-20.16-3.403-28.221-9.671l-65.943-50.893c-6.025-4.659-13.44-7.183-21.062-7.183h-58.626l-.098-19.452h58.723c11.854 0 23.562 3.988 32.953 11.232l65.931 50.893c4.683 3.634 10.464 5.622 16.342 5.622h169.961c.635 2.574.952 5.269.952 8.049z"/></g></g><g><g><path d="m504.388 180.36c0 7.771-1.252 15.249-3.558 22.247 0 0-3.584 4.746-4.691 7.151-11.239 24.419-34.149 35.246-62.792 35.246-39.235 0-65.678-25.409-65.678-64.644 0-24.522 10.047-42.065 26.043-58.961 11.338-7.66 24.921-12.079 39.634-12.079 39.237 0 71.042 31.806 71.042 71.04z" fill="#ffe17c"/></g><g><path d="m500.831 202.607c-9.327 28.335-36.022 48.793-67.483 48.793-39.235 0-71.041-31.806-71.041-71.041 0-24.6 12.418-46.215 31.406-58.961-2.304 6.992-3.467 14.409-3.467 22.172 0 39.235 31.806 71.041 71.041 71.041 14.635.001 28.238-4.422 39.544-12.004z" fill="#ffc871"/></g><path d="m442.409 173.675c-1.515-.535-2.966-1.021-4.351-1.484-4.842-1.619-8.667-2.897-10.311-4.792-1.776-2.045-2.406-4.556-1.731-6.889.347-1.199 1.367-3.341 4.301-4.225 4.433-1.337 7.602.247 9.478 1.811 3.227 2.691 8.028 2.257 10.721-.971 2.692-3.228 2.257-8.028-.971-10.721-1.574-1.312-4.524-3.4-8.584-4.695v-5.067c0-4.204-3.408-7.611-7.611-7.611s-7.612 3.408-7.612 7.611v5.131c-6.983 2.171-12.339 7.578-14.343 14.506-2.107 7.28-.291 15.168 4.858 21.1 4.37 5.034 10.496 7.082 16.981 9.25 1.305.437 2.675.894 4.104 1.399 5.571 1.969 5.736 6.227 5.339 8.591-.668 3.975-4.013 8.271-9.777 8.309-6.114.046-7.848-.235-12.45-3.245-3.517-2.301-8.235-1.316-10.536 2.203-2.301 3.518-1.315 8.235 2.203 10.536 5.177 3.387 9.04 4.836 13.622 5.403v4.252c0 4.204 3.408 7.611 7.612 7.611s7.611-3.408 7.611-7.611v-5.232c9.36-3.138 15.344-11.473 16.727-19.703 1.902-11.329-4.238-21.563-15.28-25.467z" fill="#ffb757"/></g><g><g><path d="m361.8 74.814c0 7.771-1.252 15.249-3.558 22.247 0 0-3.584 4.746-4.691 7.151-11.239 24.419-34.149 35.246-62.792 35.246-39.235 0-65.678-25.409-65.678-64.644 0-24.522 10.047-42.065 26.043-58.961 11.338-7.66 24.921-12.079 39.634-12.079 39.236 0 71.042 31.805 71.042 71.04z" fill="#ffe17c"/></g><g><path d="m358.242 97.061c-9.327 28.335-36.022 48.793-67.483 48.793-39.235 0-71.041-31.806-71.041-71.041 0-24.6 12.418-46.215 31.406-58.961-2.304 6.992-3.467 14.409-3.467 22.172 0 39.235 31.806 71.041 71.041 71.041 14.635.001 28.238-4.423 39.544-12.004z" fill="#ffc871"/></g></g><g><path d="m250.165 224.329c0 7.771-1.252 15.249-3.558 22.247 0 0-3.584 4.746-4.691 7.151-11.239 24.419-34.149 35.246-62.792 35.246-39.235 0-65.678-25.409-65.678-64.644 0-24.522 10.047-42.065 26.043-58.961 11.338-7.66 24.921-12.079 39.634-12.079 39.236-.001 71.042 31.805 71.042 71.04z" fill="#ffe17c"/></g><g><path d="m246.607 246.576c-9.327 28.335-36.022 48.793-67.483 48.793-39.235 0-71.041-31.806-71.041-71.041 0-24.6 12.418-46.215 31.406-58.961-2.304 6.992-3.467 14.409-3.467 22.172 0 39.235 31.806 71.041 71.041 71.041 14.635 0 28.238-4.423 39.544-12.004z" fill="#ffc871"/></g><g><path d="m441.766 358.723c0 7.771-1.252 15.249-3.558 22.247 0 0-3.584 4.746-4.691 7.151-11.239 24.419-34.149 35.246-62.792 35.246-39.235 0-65.678-25.409-65.678-64.644 0-24.522 10.047-42.065 26.043-58.961 11.338-7.66 24.921-12.079 39.634-12.079 39.236-.001 71.042 31.805 71.042 71.04z" fill="#ffe17c"/></g><g><path d="m438.208 380.97c-9.327 28.335-36.022 48.793-67.483 48.793-39.235 0-71.041-31.806-71.041-71.041 0-24.6 12.418-46.215 31.406-58.961-2.304 6.992-3.467 14.409-3.467 22.172 0 8.383 1.452 16.426 4.118 23.893.797 2.231 4.069 3.413 5.076 5.535 1.538 3.241.947 7.344 2.938 10.292 12.766 18.897 34.386 31.321 58.908 31.321 14.636.001 28.239-4.423 39.545-12.004z" fill="#ffc871"/></g><g><g><path d="m99.577 319.737c0-5.614-4.544-10.166-10.149-10.166h-10.268l-33.763 12.992v121.115l33.763 13.445h10.268c5.605 0 10.149-4.551 10.149-10.166z" fill="#f2fbff"/></g></g><path d="m45.395 309.573h33.765v147.551h-33.765z" fill="#dfeef4"/><path d="m7.943 295.369 19.459-3.512h25.372c1.681 0 3.045 1.363 3.045 3.045v176.891c0 1.681-1.363 3.045-3.045 3.045h-25.373l-16.784-4.808c-1.681 0-3.045-1.363-3.045-3.045l-2.674-168.571c0-1.682 1.363-3.045 3.045-3.045z" fill="#7c7a79"/><path d="m27.401 291.853v182.98h-24.356c-1.685 0-3.045-1.36-3.045-3.045v-176.89c0-1.675 1.36-3.045 3.045-3.045z" fill="#6b6867"/><g fill="#ffb757"><path d="m320.689 35.941c-3.367-2.518-8.137-1.829-10.654 1.537l-19.178 25.646-19.379-25.858c-2.52-3.364-7.293-4.048-10.655-1.526-3.364 2.521-4.048 7.291-1.526 10.655l16.354 21.822h-7.726c-4.204 0-7.612 3.408-7.612 7.611 0 4.204 3.408 7.612 7.612 7.612h15.307l-.023 10.149h-15.284c-4.204 0-7.612 3.408-7.612 7.611s3.408 7.611 7.612 7.611h15.249l-.021 9.116c-.009 4.204 3.391 7.619 7.594 7.629h.018c4.195 0 7.601-3.396 7.611-7.594l.021-9.151h15.197c4.204 0 7.611-3.408 7.611-7.611s-3.408-7.611-7.611-7.611h-15.162l.023-10.149h15.139c4.204 0 7.611-3.408 7.611-7.612s-3.408-7.611-7.611-7.611h-7.536l16.169-21.622c2.517-3.367 1.829-8.137-1.538-10.654z"/><path d="m201.858 249.274h-28.963c3.914-6.281 5.163-11.375 4.724-18.599h4.527c4.204 0 7.611-3.408 7.611-7.611 0-4.204-3.408-7.611-7.611-7.611h-8.498c-2.251-3.26-5.171-8.691-4.747-12.449.439-3.903 2.224-6.572 5.456-8.158 4.069-1.996 9.893-1.825 13.549.396 2.389 1.453 4.6 4.38 5.377 7.118 1.148 4.044 5.358 6.39 9.4 5.245 4.044-1.148 6.392-5.356 5.245-9.4-1.82-6.414-6.461-12.533-12.113-15.97-8.098-4.923-19.417-5.348-28.164-1.055-7.926 3.889-12.855 11.035-13.878 20.12-.561 4.979.731 9.937 2.526 14.153h-1.985c-4.204 0-7.611 3.408-7.611 7.611 0 4.204 3.408 7.611 7.611 7.611h8.05c.517 5.507-.117 7.766-4.952 14.256l-5.647 7.294c-1.778 2.296-2.094 5.404-.816 8.011 1.279 2.607 3.93 4.26 6.834 4.26h44.075c4.204 0 7.612-3.408 7.612-7.612s-3.409-7.61-7.612-7.61z"/><path d="m405.992 377.865c-3.218-2.705-8.018-2.29-10.724.928-4.927 5.86-11.484 9.087-18.465 9.087-7.666 0-14.564-3.925-19.317-10.149h13.67c4.204 0 7.611-3.408 7.611-7.611 0-4.204-3.408-7.612-7.611-7.612h-19.93c-.237-1.651-.367-3.345-.367-5.074s.13-3.423.367-5.074h19.93c4.204 0 7.611-3.408 7.611-7.612s-3.408-7.611-7.611-7.611h-13.67c4.754-6.224 11.651-10.149 19.317-10.149 6.914 0 13.427 3.174 18.338 8.938 2.727 3.2 7.531 3.583 10.73.856 3.199-2.726 3.583-7.531.856-10.73-7.737-9.079-18.644-14.286-29.925-14.286-16.13 0-30.115 10.349-36.864 25.372h-8.596c-4.204 0-7.612 3.408-7.612 7.611 0 4.204 3.408 7.612 7.612 7.612h4.553c-.167 1.667-.26 3.359-.26 5.074 0 1.716.093 3.407.26 5.074h-4.553c-4.204 0-7.612 3.408-7.612 7.612s3.408 7.611 7.612 7.611h8.596c6.749 15.022 20.734 25.372 36.864 25.372 11.386 0 22.363-5.29 30.117-14.514 2.706-3.219 2.291-8.02-.927-10.725z"/></g><g><path d="m368.579 386.307c-1.319-.518-2.578-1.147-3.785-1.908 1.238.67 2.506 1.309 3.785 1.908z" fill="#ffb757"/></g><path d="m334.449 352.36h-3.105c-4.202 0-7.612-3.41-7.612-7.612 0-3.501 2.365-6.444 5.582-7.327 1.157 5.216 2.892 10.22 5.135 14.939z" fill="#ffb757"/><g><g><g><path d="m473.943 93.344c-4.204 0-7.611-3.408-7.611-7.611v-32.738c0-4.204 3.408-7.611 7.611-7.611 4.204 0 7.612 3.408 7.612 7.611v32.738c-.001 4.203-3.409 7.611-7.612 7.611z" fill="#dfeef4"/></g><g><path d="m504.388 111.349c-4.204 0-7.611-3.408-7.611-7.611v-32.738c0-4.204 3.408-7.611 7.611-7.611 4.204 0 7.612 3.408 7.612 7.611v32.738c0 4.203-3.408 7.611-7.612 7.611z" fill="#dfeef4"/></g></g><g><g><path d="m330.339 270.945c-4.204 0-7.612-3.408-7.612-7.612v-32.738c0-4.204 3.408-7.611 7.612-7.611s7.611 3.408 7.611 7.611v32.738c0 4.205-3.407 7.612-7.611 7.612z" fill="#dfeef4"/></g><g><path d="m299.893 288.951c-4.204 0-7.612-3.408-7.612-7.611v-32.738c0-4.204 3.408-7.611 7.612-7.611s7.611 3.408 7.611 7.611v32.738c0 4.203-3.407 7.611-7.611 7.611z" fill="#dfeef4"/></g></g><g><g><path d="m138.529 135.132c-4.204 0-7.611-3.408-7.611-7.611v-32.739c0-4.204 3.408-7.611 7.611-7.611 4.204 0 7.611 3.408 7.611 7.611v32.738c.001 4.204-3.407 7.612-7.611 7.612z" fill="#dfeef4"/></g><g><path d="m108.083 153.137c-4.204 0-7.611-3.408-7.611-7.611v-32.737c0-4.204 3.408-7.611 7.611-7.611s7.611 3.408 7.611 7.611v32.737c.001 4.203-3.407 7.611-7.611 7.611z" fill="#dfeef4"/></g></g></g></g></svg>