<svg id="Capa_1" enable-background="new 0 0 512 512" height="512" viewBox="0 0 512 512" width="512" xmlns="http://www.w3.org/2000/svg"><g><path d="m266.929 256 100.121-100.121c3.018-3.019 3.018-7.911 0-10.93-3.019-3.017-7.911-3.017-10.93 0l-100.12 100.121-100.122-100.121c-3.018-3.017-7.911-3.017-10.929 0-3.018 3.019-3.018 7.911 0 10.93l100.121 100.121-100.121 100.121c-3.018 3.019-3.018 7.911 0 10.93 1.509 1.508 3.487 2.263 5.464 2.263 1.978 0 3.956-.755 5.464-2.263l100.123-100.121 100.121 100.121c1.509 1.508 3.488 2.263 5.465 2.263s3.956-.755 5.465-2.263c3.018-3.019 3.018-7.911 0-10.93z" fill="#d8ecfe"/><path d="m176.349 423.981c0 24.662-10.142 46.954-26.484 62.934-15.87 15.519-37.585 14.78-61.535 14.78s-45.665.739-61.535-14.78c-16.341-15.98-26.484-38.273-26.484-62.934 0-48.611 39.407-88.019 88.019-88.019s88.019 39.408 88.019 88.019z" fill="#f5f8f9"/><path d="m149.865 466.729c0-6.054-3.834-11.433-9.555-13.389l-42.963-14.768h-18.034l-42.963 14.768c-5.721 1.956-9.555 7.335-9.555 13.389v20.187c15.87 15.518 37.585 25.084 61.535 25.084s45.665-9.566 61.535-25.085z" fill="#ade194"/><path d="m57.708 486.915v-20.187c0-6.054 3.834-11.433 9.555-13.389l36.524-12.554-6.439-2.213h-18.035l-42.963 14.768c-5.721 1.956-9.555 7.335-9.555 13.389v20.187c15.87 15.518 37.585 25.084 61.535 25.084 5.273 0 10.438-.464 15.456-1.353-17.772-3.148-33.703-11.63-46.078-23.732z" fill="#97da7b"/><path d="m511.688 88.019c0 24.662-10.142 46.954-26.484 62.934-15.87 15.519-37.585 14.78-61.535 14.78-23.949 0-45.665.739-61.534-14.779-16.342-15.98-26.484-38.273-26.484-62.935 0-48.612 39.407-88.019 88.019-88.019s88.018 39.407 88.018 88.019z" fill="#f5f8f9"/><path d="m485.205 130.766c0-6.054-3.834-11.433-9.555-13.389l-42.963-14.768h-18.034l-42.963 14.768c-5.721 1.956-9.555 7.335-9.555 13.389v20.186l.001.002c15.869 15.519 37.585 25.084 61.534 25.084 23.95 0 45.665-9.566 61.535-25.085z" fill="#5680a6"/><path d="m393.048 150.954-.001-.002v-20.186c0-6.054 3.834-11.433 9.555-13.389l36.524-12.554-6.439-2.213h-18.034l-42.963 14.768c-5.721 1.956-9.555 7.335-9.555 13.389v20.186l.001.002c15.869 15.519 37.585 25.084 61.534 25.084 5.273 0 10.438-.464 15.456-1.353-17.773-3.15-33.703-11.631-46.078-23.732z" fill="#497090"/><path d="m511.688 423.981c0 24.662-10.142 46.954-26.484 62.934-15.87 15.519-37.585 14.78-61.535 14.78s-45.665.739-61.535-14.78c-16.341-15.98-26.484-38.273-26.484-62.934 0-48.611 39.407-88.019 88.019-88.019s88.019 39.408 88.019 88.019z" fill="#f5f8f9"/><path d="m485.205 466.729c0-6.054-3.834-11.433-9.555-13.389l-42.963-14.768h-18.034l-42.963 14.768c-5.721 1.956-9.555 7.335-9.555 13.389v20.187c15.87 15.518 37.585 25.084 61.535 25.084s45.665-9.566 61.535-25.085z" fill="#8ac9fe"/><path d="m393.047 486.915v-20.187c0-6.054 3.834-11.433 9.555-13.389l36.524-12.554-6.439-2.213h-18.034l-42.963 14.768c-5.721 1.956-9.555 7.335-9.555 13.389v20.187c15.87 15.518 37.585 25.084 61.535 25.084 5.273 0 10.438-.464 15.456-1.353-17.773-3.148-33.703-11.63-46.079-23.732z" fill="#60b7ff"/><path d="m176.349 88.019c0 24.662-10.142 46.954-26.484 62.934-15.87 15.519-37.585 14.78-61.535 14.78s-45.665.739-61.535-14.78c-16.341-15.98-26.483-38.273-26.483-62.934 0-48.612 39.407-88.019 88.018-88.019s88.019 39.407 88.019 88.019z" fill="#f5f8f9"/><path d="m149.865 130.766c0-6.054-3.834-11.433-9.555-13.389l-42.963-14.767h-18.034l-42.963 14.768c-5.721 1.956-9.555 7.335-9.555 13.389v20.187c15.87 15.519 37.585 25.085 61.535 25.085s45.665-9.566 61.535-25.085z" fill="#f07281"/><path d="m57.708 150.953v-20.187c0-6.054 3.834-11.433 9.555-13.389l36.524-12.554-6.439-2.213h-18.035l-42.963 14.768c-5.721 1.956-9.555 7.335-9.555 13.389v20.187c15.87 15.519 37.585 25.085 61.535 25.085 5.273 0 10.438-.464 15.456-1.353-17.772-3.15-33.703-11.631-46.078-23.733z" fill="#eb5569"/><circle cx="88.33" cy="75.921" fill="#ffeee6" r="31.804"/><path d="m82.287 75.921c0-12.98 7.776-24.143 18.923-29.087-3.937-1.746-8.295-2.717-12.88-2.717-17.565 0-31.804 14.239-31.804 31.804s14.239 31.804 31.804 31.804c4.585 0 8.943-.971 12.88-2.717-11.147-4.944-18.923-16.107-18.923-29.087z" fill="#ffdfcf"/><circle cx="423.67" cy="411.884" fill="#ffeee6" r="31.804"/><path d="m417.627 411.884c0-12.98 7.776-24.143 18.923-29.087-3.937-1.746-8.295-2.717-12.88-2.717-17.565 0-31.804 14.239-31.804 31.804s14.239 31.804 31.804 31.804c4.585 0 8.943-.971 12.88-2.717-11.147-4.944-18.923-16.107-18.923-29.087z" fill="#ffdfcf"/><circle cx="423.67" cy="75.921" fill="#ffcebf" r="31.804"/><path d="m417.627 75.921c0-12.98 7.776-24.143 18.923-29.087-3.937-1.746-8.295-2.717-12.88-2.717-17.565 0-31.804 14.239-31.804 31.804s14.239 31.804 31.804 31.804c4.585 0 8.943-.971 12.88-2.717-11.147-4.944-18.923-16.107-18.923-29.087z" fill="#ffb09e"/><circle cx="88.33" cy="411.884" fill="#ffcebf" r="31.804"/><path d="m82.287 411.884c0-12.98 7.776-24.143 18.923-29.087-3.937-1.746-8.295-2.717-12.88-2.717-17.565 0-31.804 14.239-31.804 31.804s14.239 31.804 31.804 31.804c4.585 0 8.943-.971 12.88-2.717-11.147-4.944-18.923-16.107-18.923-29.087z" fill="#ffb09e"/><circle cx="256" cy="256" fill="#fee97d" r="112.181"/><circle cx="255.845" cy="256.065" fill="#fece85" r="80.017"/><path d="m175.828 256.064c0-32.018 18.806-59.644 45.974-72.435 15.272-18.07 36.154-31.246 59.959-36.839-8.272-1.944-16.896-2.972-25.76-2.972-61.956 0-112.181 50.225-112.181 112.182s50.224 112.181 112.18 112.181c8.865 0 17.489-1.029 25.76-2.972-23.71-5.571-44.521-18.665-59.776-36.624-27.266-12.753-46.156-40.431-46.156-72.521z" fill="#fee45a"/><path d="m221.802 183.63c-27.168 12.791-45.974 40.417-45.974 72.435 0 32.09 18.89 59.768 46.157 72.521-16.619-19.565-26.645-44.904-26.645-72.585-.001-27.581 9.952-52.836 26.462-72.371z" fill="#fec165"/><path d="m283.971 273.098c0-13.085-10.645-23.732-23.731-23.732h-8.791c-4.563 0-8.275-3.712-8.275-8.275s3.712-8.275 8.275-8.275h7.854c2.948 0 5.599 1.972 6.446 4.797 1.227 4.088 5.536 6.41 9.623 5.181 4.087-1.227 6.408-5.534 5.181-9.623-2.418-8.061-8.981-13.868-16.981-15.407v-9.552c0-4.269-3.461-7.728-7.729-7.728s-7.728 3.46-7.728 7.728v9.38c-11.513 1.625-20.398 11.544-20.398 23.498 0 13.085 10.646 23.732 23.731 23.732h8.791c4.562 0 8.274 3.712 8.274 8.275s-3.712 8.275-8.274 8.275h-9.915c-2.995 0-5.586-1.927-6.447-4.796-1.226-4.088-5.533-6.411-9.622-5.182-4.088 1.226-6.408 5.534-5.182 9.622 2.623 8.745 10.121 14.836 19.042 15.705v9.255c0 4.269 3.46 7.728 7.728 7.728s7.729-3.46 7.729-7.728v-9.381c11.514-1.624 20.399-11.542 20.399-23.497z" fill="#fee97d"/></g></svg>