<svg id="Capa_1" enable-background="new 0 0 512.006 512.006" height="512" viewBox="0 0 512.006 512.006" width="512" xmlns="http://www.w3.org/2000/svg"><path d="m106.003 452c-8.284 0-15-6.716-15-15v-60c0-8.284 6.716-15 15-15s15 6.716 15 15v60c0 8.284-6.716 15-15 15z" fill="#b4d2d7"/><path d="m360.233 501.74c-2.62 7.88-11.13 12.11-18.97 9.49l-85.26-28.42-85.26 28.42c-7.84 2.62-16.35-1.61-18.97-9.49-2.62-7.86 1.63-16.35 9.49-18.97l79.74-26.58v-79.19c0-8.28 6.72-15 15-15s15 6.72 15 15v79.19l79.74 26.58c7.86 2.62 12.11 11.11 9.49 18.97z" fill="#b4d2d7"/><path d="m360.233 501.74c-2.62 7.88-11.13 12.11-18.97 9.49l-85.26-28.42v-120.81c8.28 0 15 6.72 15 15v79.19l79.74 26.58c7.86 2.62 12.11 11.11 9.49 18.97z" fill="#87a0af"/><path d="m481.003 75v302c0 8.28-6.72 15-15 15h-420c-8.28 0-15-6.72-15-15v-302c0-8.28 6.72-15 15-15h420c8.28 0 15 6.72 15 15z" fill="#fff5f5"/><path d="m481.003 75v302c0 8.28-6.72 15-15 15h-210v-332h210c8.28 0 15 6.72 15 15z" fill="#efe2dd"/><path d="m497.003 0h-482c-8.28 0-15 6.72-15 15v60c0 8.28 6.72 15 15 15h482c8.28 0 15-6.72 15-15v-60c0-8.28-6.72-15-15-15z" fill="#607882"/><path d="m512.003 15v60c0 8.28-6.72 15-15 15h-241v-90h241c8.28 0 15 6.72 15 15z" fill="#3f4a4a"/><path d="m196.003 122c-.001 0-.001 0-.002 0-57.897 0-105 47.103-105 105 0 28.949 11.776 55.199 30.79 74.212l42.545-32.546 31.667-41.666 6.667-56.667z" fill="#e30000"/><path d="m301 227c0-57.897-47.102-104.999-104.997-105v105l52.499 5z" fill="#4895ff"/><path d="m196.003 227-74.212 74.212c19.012 19.012 45.262 30.788 74.21 30.788 57.896 0 104.999-47.103 104.999-105z" fill="#fdbf00"/><g fill="#607882"><path d="m406.003 182h-60c-8.284 0-15-6.716-15-15s6.716-15 15-15h60c8.284 0 15 6.716 15 15s-6.716 15-15 15z"/><path d="m406.003 242h-60c-8.284 0-15-6.716-15-15s6.716-15 15-15h60c8.284 0 15 6.716 15 15s-6.716 15-15 15z"/></g></svg>