<svg id="Capa_1" enable-background="new 0 0 512 512" height="512" viewBox="0 0 512 512" width="512" xmlns="http://www.w3.org/2000/svg"><g><path d="m151.516 45.687v128.525c25.418 12.853 42.897 39.207 42.897 69.583 0 1.935-.091 4.005-.278 6.329l-.087 1.08h86.438c5.129 0 9.302 4.173 9.302 9.302v31.756c0 5.129-4.173 9.302-9.302 9.302v2c5.129 0 9.302 4.173 9.302 9.302v31.756c0 5.129-4.173 9.302-9.302 9.302v2c5.129 0 9.302 4.173 9.302 9.302v31.756c0 5.129-4.173 9.302-9.302 9.302v2c5.129 0 9.302 4.173 9.302 9.302v31.756c0 5.129-4.173 9.302-9.302 9.302v2c5.129 0 9.302 4.173 9.302 9.302v16.548h174.372c5.69 0 10.302-4.612 10.302-10.302v-430.505z" fill="#dff6fd"/><path d="m194.413 243.794c0 1.935-.091 4.005-.278 6.329l-.087 1.08h15.159v-204.516h-57.69v127.525c25.417 12.852 42.896 39.207 42.896 69.582z" fill="#c8effe"/><path d="m290.787 292.261v-31.756c0-5.69-4.612-10.302-10.302-10.302h-86.358c-2.821 34.461-28.14 62.638-61.214 69.769v24.648c0 5.69 4.612 10.302 10.302 10.302v1h41.895c5.129 0 9.302 4.173 9.302 9.302v31.756c0 5.129-4.173 9.302-9.302 9.302v2c5.129 0 9.302 4.173 9.302 9.302v31.756c0 5.129-4.173 9.302-9.302 9.302v2c5.129 0 9.302 4.173 9.302 9.302v31.756c0 5.129-4.173 9.302-9.302 9.302v1h95.375c5.69 0 10.302-4.612 10.302-10.302v-31.756c0-5.69-4.612-10.302-10.302-10.302 5.69 0 10.302-4.612 10.302-10.302v-31.756c0-5.69-4.612-10.302-10.302-10.302 5.69 0 10.302-4.612 10.302-10.302v-31.756c0-5.69-4.612-10.302-10.302-10.302 5.69 0 10.302-4.612 10.302-10.302v-31.756c0-5.69-4.612-10.302-10.302-10.302 5.69 0 10.302-4.612 10.302-10.301z" fill="#ffe177"/><g><path d="m464.16 0h-302.342c-5.69 0-10.302 4.612-10.302 10.302v36.385h322.946v-36.385c0-5.69-4.613-10.302-10.302-10.302z" fill="#fd6930"/></g><g><path d="m219.508 0h-57.69c-5.69 0-10.302 4.612-10.302 10.302v36.385h57.69v-36.385c0-5.69 4.612-10.302 10.302-10.302z" fill="#fd5426"/></g><g><g><path d="m280.485 459.641h-95.375v1c5.129 0 9.302 4.173 9.302 9.302v31.756c0 5.129-4.173 9.302-9.302 9.302v1h95.375c5.69 0 10.302-4.612 10.302-10.302v-31.756c0-5.69-4.612-10.302-10.302-10.302z" fill="#ffd15b"/><path d="m280.485 354.922h-137.27v1h41.895c5.129 0 9.302 4.173 9.302 9.302v31.756c0 5.129-4.173 9.302-9.302 9.302v1h95.375c5.69 0 10.302-4.612 10.302-10.302v-31.756c0-5.69-4.612-10.302-10.302-10.302z" fill="#ffd15b"/><path d="m195.412 396.979v-31.756c0-5.69-4.612-10.302-10.302-10.302h-137.27c-5.69 0-10.302 4.612-10.302 10.302v31.756c0 5.69 4.612 10.302 10.302 10.302-5.69 0-10.302 4.612-10.302 10.302v31.756c0 5.69 4.612 10.302 10.302 10.302-5.69 0-10.302 4.612-10.302 10.302v31.756c0 5.69 4.612 10.302 10.302 10.302h137.27c5.69 0 10.302-4.612 10.302-10.302v-31.756c0-5.69-4.612-10.302-10.302-10.302 5.69 0 10.302-4.612 10.302-10.302v-31.756c0-5.69-4.612-10.302-10.302-10.302 5.69 0 10.302-4.612 10.302-10.302z" fill="#ffe177"/><g fill="#ffd15b"><path d="m192.664 302.562h-25.084c-9.742 8.483-21.596 14.591-34.667 17.409v24.648c0 5.69 4.612 10.302 10.302 10.302h49.449c-5.69 0-10.302-4.612-10.302-10.302v-31.756c0-5.688 4.612-10.301 10.302-10.301z"/><path d="m280.485 250.203h-86.358c-1.706 20.842-11.639 39.378-26.548 52.359h112.905c5.69 0 10.302-4.612 10.302-10.302v-31.756c.001-5.689-4.611-10.301-10.301-10.301z"/></g></g><g><g><path d="m86.987 501.698v-31.756c0-5.69 4.612-10.302 10.302-10.302h-49.449c-5.69 0-10.302 4.612-10.302 10.302v31.756c0 5.69 4.612 10.302 10.302 10.302h49.449c-5.69 0-10.302-4.612-10.302-10.302z" fill="#ffd15b"/></g><g><path d="m47.84 459.641h137.27c5.69 0 10.302-4.612 10.302-10.302v-31.756c0-5.69-4.612-10.302-10.302-10.302h-137.27c-5.69 0-10.302 4.612-10.302 10.302v31.756c0 5.689 4.613 10.302 10.302 10.302z" fill="#ffd15b"/></g><g><path d="m86.987 449.339v-31.756c0-5.69 4.612-10.302 10.302-10.302h-49.449c-5.69 0-10.302 4.612-10.302 10.302v31.756c0 5.69 4.612 10.302 10.302 10.302h49.449c-5.69 0-10.302-4.613-10.302-10.302z" fill="#ffc344"/></g><g><path d="m86.987 396.979v-31.756c0-5.69 4.612-10.302 10.302-10.302h-49.449c-5.69 0-10.302 4.612-10.302 10.302v31.756c0 5.69 4.612 10.302 10.302 10.302h49.449c-5.69 0-10.302-4.612-10.302-10.302z" fill="#ffd15b"/></g></g></g><g><g><circle cx="116.475" cy="243.794" fill="#ffe177" r="78.937"/></g><g><path d="m78.746 243.794c0-36.465 24.733-67.139 58.333-76.203-6.57-1.772-13.473-2.734-20.604-2.734-43.596 0-78.937 35.341-78.937 78.937s35.341 78.937 78.937 78.937c7.13 0 14.033-.962 20.604-2.734-33.601-9.063-58.333-39.737-58.333-76.203z" fill="#ffd15b"/></g><path d="m126.687 236.294h-20.422c-4.054 0-7.353-3.298-7.353-7.352v-4.332c0-4.054 3.298-7.353 7.353-7.353h20.422c4.054 0 7.352 3.298 7.352 7.353 0 4.142 3.358 7.5 7.5 7.5s7.5-3.358 7.5-7.5c0-12.325-10.027-22.353-22.352-22.353h-2.711v-6.114c0-4.142-3.358-7.5-7.5-7.5s-7.5 3.358-7.5 7.5v6.114h-2.711c-12.325 0-22.353 10.027-22.353 22.353v4.332c0 12.325 10.027 22.352 22.353 22.352h20.422c4.054 0 7.352 3.298 7.352 7.352v4.332c0 4.054-3.298 7.353-7.352 7.353h-20.422c-4.054 0-7.353-3.298-7.353-7.353 0-4.142-3.358-7.5-7.5-7.5s-7.5 3.358-7.5 7.5c0 12.325 10.027 22.353 22.353 22.353h2.711v6.114c0 4.142 3.358 7.5 7.5 7.5s7.5-3.358 7.5-7.5v-6.114h2.711c12.325 0 22.352-10.027 22.352-22.353v-4.332c0-12.325-10.027-22.352-22.352-22.352z" fill="#fe860a"/></g><g fill="#fd6930"><path d="m356.155 92.419c-1.262-4.507-5.413-7.654-10.094-7.654h-7.499c-4.681 0-8.832 3.147-10.093 7.651l-16.114 57.459c-1.118 3.988 1.208 8.128 5.196 9.247 3.988 1.122 8.128-1.208 9.247-5.196l3.265-11.643h24.496l3.265 11.643c.929 3.311 3.939 5.477 7.218 5.477.67 0 1.352-.091 2.029-.281 3.988-1.118 6.314-5.258 5.196-9.247zm-21.884 34.863 7.717-27.518h.649l7.717 27.518z"/><path d="m435.187 84.765c-4.143 0-7.5 3.358-7.5 7.5v37.43l-32.007-41.978c-1.951-2.559-5.313-3.588-8.364-2.558-3.048 1.029-5.1 3.888-5.1 7.105v59.636c0 4.142 3.357 7.5 7.5 7.5s7.5-3.358 7.5-7.5v-37.43l32.007 41.977c1.446 1.897 3.67 2.953 5.965 2.953.801 0 1.61-.128 2.399-.395 3.048-1.029 5.1-3.888 5.1-7.105v-59.635c0-4.142-3.358-7.5-7.5-7.5z"/><path d="m236.262 144.4h-37.97v-52.135c0-4.142-3.358-7.5-7.5-7.5s-7.5 3.358-7.5 7.5v59.635c0 4.142 3.358 7.5 7.5 7.5h45.47c4.142 0 7.5-3.358 7.5-7.5s-3.358-7.5-7.5-7.5z"/><path d="m280.255 84.765h-7.953c-14.479 0-26.258 11.779-26.258 26.258v22.118c0 14.479 11.78 26.259 26.258 26.259h7.953c14.479 0 26.259-11.78 26.259-26.259v-22.118c0-14.479-11.78-26.258-26.259-26.258zm11.259 48.376c0 6.208-5.051 11.259-11.259 11.259h-7.953c-6.208 0-11.259-5.051-11.259-11.259v-22.118c0-6.208 5.051-11.258 11.259-11.258h7.953c6.208 0 11.259 5.05 11.259 11.258z"/></g><g><path d="m435.187 216.156h-46.293c-4.143 0-7.5-3.358-7.5-7.5s3.357-7.5 7.5-7.5h46.293c4.143 0 7.5 3.358 7.5 7.5s-3.358 7.5-7.5 7.5z" fill="#8ac9fe"/></g><g><path d="m357.988 216.156h-134.54c-4.142 0-7.5-3.358-7.5-7.5s3.358-7.5 7.5-7.5h134.54c4.143 0 7.5 3.358 7.5 7.5s-3.357 7.5-7.5 7.5z" fill="#8ac9fe"/></g><g><path d="m435.187 257.703h-104.205c-4.143 0-7.5-3.358-7.5-7.5s3.357-7.5 7.5-7.5h104.204c4.143 0 7.5 3.358 7.5 7.5s-3.357 7.5-7.499 7.5z" fill="#8ac9fe"/></g><g><path d="m435.187 299.25h-19.509c-4.143 0-7.5-3.358-7.5-7.5s3.357-7.5 7.5-7.5h19.509c4.143 0 7.5 3.358 7.5 7.5s-3.358 7.5-7.5 7.5z" fill="#8ac9fe"/></g><g><path d="m385.459 299.25h-54.477c-4.143 0-7.5-3.358-7.5-7.5s3.357-7.5 7.5-7.5h54.477c4.143 0 7.5 3.358 7.5 7.5s-3.357 7.5-7.5 7.5z" fill="#8ac9fe"/></g><g><path d="m435.187 340.797h-104.205c-4.143 0-7.5-3.358-7.5-7.5s3.357-7.5 7.5-7.5h104.204c4.143 0 7.5 3.358 7.5 7.5s-3.357 7.5-7.499 7.5z" fill="#8ac9fe"/></g><g><path d="m435.187 382.344h-104.205c-4.143 0-7.5-3.358-7.5-7.5s3.357-7.5 7.5-7.5h104.204c4.143 0 7.5 3.358 7.5 7.5s-3.357 7.5-7.499 7.5z" fill="#8ac9fe"/></g><g><path d="m435.187 445.887h-65.101c-4.143 0-7.5-3.358-7.5-7.5s3.357-7.5 7.5-7.5h65.101c4.143 0 7.5 3.358 7.5 7.5s-3.358 7.5-7.5 7.5z" fill="#8ac9fe"/></g></g></svg>