<svg id="Capa_1" enable-background="new 0 0 512 512" height="512" viewBox="0 0 512 512" width="512" xmlns="http://www.w3.org/2000/svg"><g><g><g><path d="m61.134 298.92h-25.271v-283.758c0-6.978 5.657-12.636 12.636-12.636 6.978 0 12.636 5.657 12.636 12.636v283.758z" fill="#fbcc85"/><path d="m61.134 16.827-48.647 337.191 88.281-72.854c2.844-2.347 4.217-6.035 3.599-9.67z" fill="#fb4a59"/><path d="m100.771 281.163-23.589 19.468-30.813-181.509 14.763-102.297 43.238 254.668c.617 3.635-.755 7.323-3.599 9.67z" fill="#f82f40"/><path d="m84.569 294.532-24.004 19.81-23.488-130.782 12.28-85.114z" fill="#f5f7f8"/></g><g><path d="m450.868 298.92h25.271v-283.758c0-6.978-5.657-12.636-12.636-12.636-6.978 0-12.636 5.657-12.636 12.636v283.758z" fill="#fbcc85"/><path d="m450.868 16.827 48.647 337.191-88.281-72.854c-2.844-2.347-4.217-6.035-3.599-9.67z" fill="#31a7fb"/><path d="m499.516 354.015-31.699-26.156-32.049-222.108 15.103-88.926z" fill="#1c96f9"/></g></g><g><g><path d="m363.645 239.867h-20.562c-12.115 0-21.624 10.415-20.511 22.489l2.957 32.296h-139.055l2.957-32.296c1.113-12.074-8.396-22.489-20.511-22.489h-20.562l12.373-82.332-.938-10.302h192.417l-.938 10.302z" fill="#475a61"/><path d="m363.645 239.867h-20.562c-2.926 0-5.697.608-8.211 1.71l-6.47-43.072c-1.494-9.9-9.993-17.225-20.006-17.225h-151.231v-.01l3.564-23.736-.938-10.302h192.419l-.938 10.302z" fill="#394447"/><g><path d="m191.504 259.777c-.296 0-.595-.017-.896-.052-4.239-.489-7.279-4.323-6.789-8.561l6.391-55.333c.49-4.238 4.322-7.285 8.562-6.789 4.239.489 7.279 4.323 6.789 8.561l-6.391 55.333c-.455 3.937-3.795 6.841-7.666 6.841z" fill="#394447"/></g><g><path d="m320.498 259.777c-3.87 0-7.21-2.902-7.665-6.841l-6.391-55.333c-.49-4.238 2.549-8.072 6.789-8.561 4.238-.491 8.072 2.549 8.561 6.789l6.391 55.333c.49 4.238-2.549 8.072-6.789 8.561-.3.035-.6.052-.896.052z" fill="#394447"/></g><path d="m199.736 252.049-3.898 42.606h-55.712l9.776-65.087h29.316c12.12.001 21.622 10.412 20.518 22.481z" fill="#7a8d98"/><path d="m199.732 252.047-3.894 42.609h-29.844l3.894-42.609c1.092-11.888-8.118-22.18-19.986-22.468v-.01h29.319c12.115 0 21.624 10.415 20.511 22.478z" fill="#596d76"/><path d="m371.876 294.656h-55.712l-3.898-42.606c-1.104-12.07 8.398-22.481 20.518-22.481h29.316z" fill="#7a8d98"/><path d="m371.876 294.656h-29.03l-9.777-65.087h29.031z" fill="#596d76"/><path d="m351.268 157.537h-190.534l-6.19-67.691c-2.208-24.139 16.796-44.96 41.036-44.96h120.841c24.24 0 43.244 20.821 41.036 44.96z" fill="#596d76"/><path d="m357.454 89.845-6.181 67.693h-29.031l6.191-67.693c2.204-24.137-16.792-44.957-41.032-44.957h29.02c24.241-.001 43.248 20.819 41.033 44.957z" fill="#475a61"/></g><g><g><path d="m511.994 314.141h-511.994v185.028c0 5.69 4.612 10.302 10.302 10.302h491.391c5.69 0 10.302-4.612 10.302-10.302v-185.028z" fill="#ba5d4f"/><path d="m511.992 314.136v185.031c0 5.69-4.612 10.302-10.302 10.302h-491.388c-5.69.001-10.302-4.612-10.302-10.301v-185.032z" fill="#ba5d4f"/><path d="m0 314.136v44.612c4.883 2.029 10.24 3.142 15.844 3.142h429.861c14.44 0 26.145 11.706 26.145 26.145v121.435h29.842c5.69 0 10.302-4.612 10.302-10.302v-185.027z" fill="#a34f41"/><g><g><path d="m125.579 509.471h-78.216c-5.69 0-10.302-4.612-10.302-10.302v-107.692c0-5.69 4.612-10.302 10.302-10.302h78.216c5.69 0 10.302 4.612 10.302 10.302v107.692c-.001 5.69-4.613 10.302-10.302 10.302z" fill="#a34f41"/><path d="m37.061 391.477v17.226h28.694c17.777 0 32.188 14.411 32.188 32.188v68.582h27.635c5.69 0 10.302-4.612 10.302-10.302v-107.692c0-5.689-4.612-10.302-10.302-10.302l-78.216-.002c-5.689 0-10.301 4.613-10.301 10.302z" fill="#873f30"/><path d="m463.138 509.471h-78.216c-5.69 0-10.302-4.612-10.302-10.302v-107.692c0-5.69 4.612-10.302 10.302-10.302h78.216c5.69 0 10.302 4.612 10.302 10.302v107.692c0 5.69-4.612 10.302-10.302 10.302z" fill="#a34f41"/><path d="m463.138 381.175h-78.216c-5.69 0-10.302 4.612-10.302 10.302v17.226h28.704c17.777 0 32.188 14.411 32.188 32.188v68.582h37.924l.003-117.996c.001-5.689-4.611-10.302-10.301-10.302z" fill="#873f30"/></g><path d="m324.038 509.471h-137.575c-5.69 0-10.302-4.612-10.302-10.302v-107.692c0-5.69 4.612-10.302 10.302-10.302h137.575c5.69 0 10.302 4.612 10.302 10.302v107.692c0 5.69-4.612 10.302-10.302 10.302z" fill="#a34f41"/><path d="m324.038 381.175h-137.575c-5.69 0-10.302 4.612-10.302 10.302v17.226h88.061c17.777 0 32.188 14.411 32.188 32.188v68.582h27.622c5.689 0 10.302-4.612 10.302-10.301l.004-107.695c.002-5.689-4.611-10.302-10.3-10.302z" fill="#873f30"/></g></g><g><path d="m54.394 288.564h106.789v51.149h-106.789z" fill="#873f30"/><path d="m349.315 288.564h106.799v51.149h-106.799z" fill="#873f30"/><path d="m512 304.403v19.471c0 8.757-7.086 15.843-15.843 15.843h-50.348v-51.157h50.348c8.757.001 15.843 7.1 15.843 15.843z" fill="#d5887a"/><path d="m64.692 288.561v51.157h-48.847c-8.757 0-15.843-7.086-15.843-15.843v-19.471c0-8.744 7.086-15.843 15.843-15.843z" fill="#d5887a"/><path d="m150.882 288.567h208.738v51.151h-208.738z" fill="#6c3328"/><path d="m327.548 288.567h32.072v51.151h-32.072z" fill="#5e2922"/><path d="m511.994 323.879v-19.47c0-8.745-7.082-15.842-15.842-15.842h-45.295c8.745 0 15.842 7.097 15.842 15.842v19.47c0 8.745-7.097 15.842-15.842 15.842h45.295c8.761 0 15.842-7.097 15.842-15.842z" fill="#c86f5c"/></g></g><g><path d="m224.127 157.535h-26.218c-4.718-6.449-7.5-14.402-7.5-22.983 0-4.275 3.461-7.726 7.726-7.726 4.275 0 7.726 3.451 7.726 7.726.001 11.177 7.81 20.562 18.266 22.983z" fill="#2e383a"/></g><g><path d="m321.593 134.551c0 8.582-2.782 16.535-7.5 22.983h-26.218c10.456-2.421 18.265-11.806 18.265-22.983 0-4.275 3.451-7.726 7.726-7.726 4.265 0 7.727 3.451 7.727 7.726z" fill="#2e383a"/></g></g></g></svg>