<svg id="Capa_1" enable-background="new 0 0 512 512" height="512" viewBox="0 0 512 512" width="512" xmlns="http://www.w3.org/2000/svg"><g><g><g><path d="m377.599 0h-67.564c-10.319 0-19.199 7.93-19.684 18.238-.518 11.006 8.251 20.092 19.143 20.092h12.748c2.323 0 3.441 2.85 1.737 4.429l-64.545 59.844c-2.354 2.183-5.963 2.279-8.43.225l-38.72-32.228c-7.468-6.214-18.411-5.859-25.458.835l-65.623 62.331c-7.675 7.289-7.987 19.421-.697 27.094 3.768 3.968 8.828 5.967 13.898 5.967 4.74 0 9.489-1.748 13.196-5.269l49.146-46.68c2.349-2.231 5.996-2.351 8.486-.278l38.509 32.051c7.404 6.161 18.229 5.871 25.29-.676l85.111-78.912c1.635-1.516 4.293-.356 4.293 1.874v17.791c0 10.319 7.93 19.199 18.238 19.684 11.006.518 20.092-8.251 20.092-19.143v-68.104c-.001-10.585-8.581-19.165-19.166-19.165z" fill="#ff7e92"/></g></g><g><path d="m317.506 262.825v-25.754c0-11.379-9.225-20.604-20.604-20.604h-65.688c-11.379 0-25.961 9.224-25.961 20.604l5.192 30.755z" fill="#ffd05b"/></g><g><path d="m221.305 262.825c-4.771 0-8.638-3.868-8.638-8.638v-17.115c0-11.379 9.224-20.604 20.604-20.604h-18.173c-11.379 0-20.604 9.225-20.604 20.604v67.352h123.011v-41.598h-96.2z" fill="#ffaa5a"/></g><g><path d="m42.763 372.929h-7.365c-11.379 0-24.848 9.224-24.848 20.604l1.483 97.864c0 11.379 11.359 20.604 22.738 20.604h13.535c11.379 0 4.521-7.432 4.521-18.811l.371-18.914c.001-11.38.944-101.347-10.435-101.347z" fill="#ffd05b"/></g><g><path d="m102.407 372.929h-59.644v37.719c0 4.771-3.868 8.638-8.638 8.638h-8.426c-4.771 0-8.638-3.867-8.638-8.638v-17.115c0-11.379 9.225-20.604 20.604-20.604h-17.06c-11.38 0-20.605 9.224-20.605 20.603v97.864c0 11.379 9.225 20.604 20.604 20.604h17.06c-11.379 0-20.604-9.225-20.604-20.604 0-5.075 4.114-9.189 9.189-9.189h7.324c5.075 0 9.189 4.114 9.189 9.189 0 7.503 2.026 14.537 5.544 20.603h54.101c11.379 0 20.604-9.225 20.604-20.604v-97.864c0-11.378-9.225-20.602-20.604-20.602zm-68.283 92.714h-8.426c-4.771 0-8.638-3.867-8.638-8.638v-11.965c0-5.075 4.114-9.189 9.189-9.189h7.324c5.075 0 9.189 4.114 9.189 9.189v11.965c.001 4.77-3.867 8.638-8.638 8.638z" fill="#ffaa5a"/></g><g><path d="m373.929 512h-250.667c-11.379 0-7.757-9.225-7.757-20.604l-27.908-34.171-11.651-49.459 11.651-60.99 29.886-34.17c0-11.379-5.6-20.604 5.78-20.604h245.124c11.379 0 9.691 9.225 9.691 20.604v178.791c-.001 11.378 7.23 20.603-4.149 20.603z" fill="#8ceea1"/></g><g><path d="m87.596 457.226v-110.45l-12.115-7.002-12.115 12.123v100.208l12.579 11.044z" fill="#4ce1a1"/></g><g><path d="m123.262 292.002h-18.142c-11.379 0-21.139 9.225-21.139 20.604l-5.192 18.639c8.626 0 1.404 18.829 8.814 15.546 21.005-9.306 35.659-30.336 35.659-54.789z" fill="#3ac988"/></g><g><path d="m89.667 509.383 15.329 2.617h18.265c0-24.453-14.654-45.483-35.659-54.789-7.41-3.283-1.301 11.624-9.927 11.624l1.978 22.561c.001 11.379-1.365 17.987 10.014 17.987z" fill="#3ac988"/></g><g><path d="m63.366 351.897c8.627 0 16.82-1.838 24.23-5.121v-34.17c0-11.379 9.225-20.604 20.604-20.604h-24.23c-7.823 0-14.628 4.36-18.117 10.783-1.586 2.92-2.487 6.265-2.487 9.821z" fill="#2fb273"/></g><g><circle cx="256" cy="402.001" fill="#3ac988" r="54.469"/></g><g><path d="m414.051 506.169v-214.167h-45.665v199.395c0 7.503 2.026 14.537 5.544 20.603h40.121z" fill="#4ce1a1"/></g><g><path d="m491.396 141.143h-65.293c-11.379 0-22.623 9.225-22.623 20.604v329.65c0 11.379 9.389 20.604 20.768 20.604h67.147c11.379 0 20.604-9.225 20.604-20.604v-7.643l-12.419-7.948 12.42-10.163v-28.247l-14.628-8.49 14.628-9.62v-28.683l-13.021-8.859 13.021-8.815v-28.683l-15.123-7.809 15.123-9.866v-28.683l-8.88-7.377 8.88-10.297v-28.683l-8.88-6.636 8.88-11.038v-28.683l-5.82-6.081 5.82-11.593v-25.753c0-11.38-9.225-20.604-20.604-20.604z" fill="#ffd05b"/></g><g><path d="m415.241 205.174h96.759v-17.674h-96.213c-4.764 0-8.625-3.862-8.625-8.625v-17.128c0-11.379 9.224-20.604 20.604-20.604h-18.173c-11.379 0-20.604 9.225-20.604 20.604v329.65c0 11.379 9.225 20.604 20.604 20.604h18.046c-11.379 0-20.604-9.225-20.604-20.604.006-4.223 3.431-7.643 7.654-7.643h97.311v-18.11h-96.293c-4.768 0-8.632-3.869-8.625-8.637l.016-11.967c.006-4.223 3.431-7.643 7.654-7.643h97.248v-18.11h-96.23c-4.768 0-8.632-3.869-8.625-8.637l.016-11.967c0-4.462 3.617-8.08 8.079-8.08h96.76v-17.674h-96.213c-4.764 0-8.625-3.862-8.625-8.625v-11.978c0-4.462 3.617-8.08 8.08-8.08h96.758v-17.674h-96.213c-4.764 0-8.625-3.862-8.625-8.625v-11.978c0-4.462 3.617-8.08 8.08-8.08h96.758v-17.674h-104.839v-20.604c0-4.462 3.617-8.08 8.08-8.08h96.759v-17.674h-96.213c-4.764 0-8.625-3.862-8.625-8.625v-11.978c-.001-4.463 3.617-8.08 8.079-8.08z" fill="#ffaa5a"/></g><g><path d="m63.366 452.105c8.627 0 16.82 1.838 24.23 5.121v34.17c0 11.379 9.225 20.604 20.604 20.604h-24.23c-7.823 0-14.628-4.36-18.117-10.783-1.586-2.919-2.487-6.265-2.487-9.821z" fill="#2fb273"/></g></g></svg>