<svg id="Capa_1" enable-background="new 0 0 512 512" height="512" viewBox="0 0 512 512" width="512" xmlns="http://www.w3.org/2000/svg"><g><path d="m85.587 85.587 71.418 71.418c25.335-25.335 60.335-41.005 98.995-41.005v-101c-66.55 0-126.8 26.975-170.413 70.587z" fill="#ffc178"/><path d="m15 256h1 100c0-38.66 15.67-73.66 41.005-98.995l-71.418-71.418c-43.612 43.613-70.587 103.863-70.587 170.413z" fill="#b5fb4a"/><path d="m426.413 85.587-71.418 71.418c25.335 25.335 41.005 60.335 41.005 98.995h101c0-66.55-26.975-126.8-70.587-170.413z" fill="#ff5c5c"/><path d="m256 15v101c38.66 0 73.66 15.67 98.995 41.005l71.418-71.418c-43.613-43.612-103.863-70.587-170.413-70.587z" fill="#ff936b"/><g><path d="m388.791 512h-265.582c-16.269 0-30.837-8.411-38.971-22.5s-8.135-30.911 0-45l132.791-230c8.134-14.089 22.702-22.5 38.971-22.5s30.837 8.411 38.971 22.5l132.791 230c8.135 14.089 8.134 30.911 0 45s-22.702 22.5-38.971 22.5z" fill="#6b66d0"/><path d="m388.791 512c16.269 0 30.837-8.411 38.971-22.5s8.135-30.911 0-45l-132.791-230c-8.134-14.089-22.702-22.5-38.971-22.5v320z" fill="#453d81"/><path d="m256 222c-2.604 0-9.082.73-12.99 7.5l-132.791 230c-3.908 6.77-1.302 12.745 0 15s5.174 7.5 12.99 7.5h265.582c7.816 0 11.688-5.245 12.99-7.5s3.908-8.23 0-15l-132.791-230c-3.908-6.77-10.386-7.5-12.99-7.5z" fill="#fff375"/><path d="m388.791 482c7.816 0 11.688-5.245 12.99-7.5s3.908-8.23 0-15l-132.791-230c-3.908-6.77-10.387-7.5-12.99-7.5v260z" fill="#ffc178"/><path d="m256 392c-8.284 0-15-6.716-15-15v-90c0-8.284 6.716-15 15-15s15 6.716 15 15v90c0 8.284-6.716 15-15 15z" fill="#6b66d0"/><circle cx="256" cy="437" fill="#6b66d0" r="15"/><g fill="#453d81"><path d="m271 377v-90c0-8.284-6.716-15-15-15v120c8.284 0 15-6.716 15-15z"/><path d="m271 437c0-8.284-6.716-15-15-15v30c8.284 0 15-6.716 15-15z"/></g></g><path d="m437.02 74.98c-48.353-48.351-112.64-74.98-181.02-74.98s-132.667 26.629-181.02 74.98c-48.351 48.353-74.98 112.64-74.98 181.02 0 8.284 6.716 15 15 15h101c8.284 0 15-6.716 15-15 0-68.925 56.075-125 125-125s125 56.075 125 125c0 8.284 6.716 15 15 15h101c8.284 0 15-6.716 15-15 0-68.38-26.629-132.667-74.98-181.02zm-335.3 166.02h-71.228c3.363-51.044 23.757-97.508 55.529-133.765l50.339 50.338c-19.088 23.158-31.601 51.927-34.64 83.427zm55.852-104.641-50.336-50.335c36.256-31.772 82.72-52.156 133.764-55.517v71.215c-31.5 3.038-60.269 15.55-83.428 34.637zm113.428-34.638v-71.214c51.044 3.362 97.507 23.746 133.763 55.517l-50.335 50.335c-23.159-19.087-51.928-31.599-83.428-34.638zm139.28 139.279c-3.039-31.5-15.553-60.269-34.64-83.428l50.338-50.338c31.772 36.257 52.167 82.721 55.529 133.766z" fill="#f9f9f9"/><path d="m256 0v131c68.925 0 125 56.075 125 125 0 8.284 6.716 15 15 15h101c8.284 0 15-6.716 15-15 0-68.38-26.629-132.667-74.98-181.02-48.353-48.351-112.64-74.98-181.02-74.98zm15 101.721v-71.214c51.044 3.362 97.507 23.746 133.763 55.517l-50.335 50.335c-23.159-19.087-51.928-31.599-83.428-34.638zm139.28 139.279c-3.039-31.5-15.553-60.269-34.64-83.428l50.338-50.338c31.772 36.257 52.167 82.721 55.529 133.766z" fill="#e2e2ea"/></g></svg>