<svg id="Capa_1" enable-background="new 0 0 512 512" height="512" viewBox="0 0 512 512" width="512" xmlns="http://www.w3.org/2000/svg"><g><path d="m336.846 45 9.642-24.102c1.408-3.52 1.615-7.461.307-11.019-2.229-6.063-7.916-9.879-14.104-9.879h-61.81l-18.38 43.486 18.381 46.514h61.456c3.792 0 7.53-1.272 10.349-3.81 4.8-4.322 6.229-11.017 3.931-16.762z" fill="#ec385f"/><path d="m255.882 0c-8.284 0-15 6.716-15 15v114.001c0 8.284 6.716 15 15 15s15-6.716 15-15v-129.001s-14.96 0-15 0z" fill="#4acdf5"/><path d="m256 0v143.995c8.229-.064 14.882-6.75 14.882-14.994v-129.001s-13.528 0-14.882 0z" fill="#00abf0"/><g><path d="m15.121 512c-4.635 0-9.01-2.142-11.852-5.803-2.841-3.662-3.831-8.431-2.68-12.92l38.647-150.807c.973-3.799 3.396-7.065 6.748-9.1l60.755-36.873 49.573-102.693c1.464-3.034 3.907-5.486 6.936-6.962l48.277-23.534 28.399-40.653 30.386-1.384 80.454 99.749c.97 1.203 1.749 2.549 2.308 3.989l25.72 66.265 64.891 45.692c2.309 1.625 4.111 3.869 5.201 6.473l61.835 147.729c1.937 4.63 1.432 9.922-1.349 14.102-2.781 4.179-7.468 6.689-12.487 6.69l-352.999.03-43.479-8.223-58.628 8.232z" fill="#00607f"/></g><path d="m510.718 491.168-61.835-147.729c-1.09-2.604-2.893-4.848-5.201-6.473l-64.891-45.692-25.72-66.265c-.559-1.44-1.338-2.786-2.308-3.989l-80.454-99.75-14.309.653v390.057l240.882-.02c5.02 0 9.706-2.511 12.487-6.69 2.78-4.18 3.286-9.472 1.349-14.102z" fill="#002c3c"/><path d="m303.585 370.108-79.24-31.968c-5.609-2.263-8.93-6.832-9.352-12.866-.421-6.034 2.233-11.02 7.474-14.04.108-.062.214-.125.32-.19l25.324-15.443c28.55-16.544 42.828-48.05 36.456-80.409l-14.517-94.242-2.968-3.68c-2.962-3.672-7.482-5.725-12.193-5.574-4.714.163-9.078 2.534-11.78 6.401l-3.185 4.559s15.116 97.869 15.163 98.101c3.973 19.701-4.711 38.915-22.124 48.95-.108.062-.214.125-.32.19l-25.329 15.446c-15.155 8.817-23.469 24.51-22.248 42.02 1.226 17.578 11.714 32.007 28.054 38.6l79.24 31.968c8.226 3.318 13.009 10.88 12.482 19.734-.526 8.854-6.172 15.796-14.732 18.117-.154.042-.309.086-.463.133l-248.763 76.085h102.57l154.762-47.335c20.939-5.787 35.283-23.509 36.574-45.221 1.295-21.8-10.954-41.166-31.205-49.336z" fill="#bee75e"/><g fill="#00cb75"><path d="m256 228.469c.043 1.171.044 2.337 0 3.494v58.416c23.231-17.44 34.322-45.964 28.567-75.187l-14.517-94.242-2.968-3.68c-2.727-3.381-6.78-5.366-11.082-5.545z"/><path d="m303.585 370.108-47.585-19.197v32.35l36.36 14.669c8.226 3.318 13.009 10.88 12.482 19.734-.526 8.854-6.172 15.796-14.732 18.117-.154.042-.309.086-.463.133l-33.647 10.291v31.372l42.216-12.912c20.939-5.787 35.283-23.509 36.574-45.221 1.295-21.8-10.954-41.166-31.205-49.336z"/></g></g></svg>