<svg height="512pt" viewBox="-22 0 512 512" width="512pt" xmlns="http://www.w3.org/2000/svg"><path d="m427.933594 67.253906c0 37.140625-30.109375 67.25-67.25 67.25-37.144532 0-67.253906-30.109375-67.253906-67.25 0-37.144531 30.109374-67.253906 67.253906-67.253906 37.140625 0 67.25 30.109375 67.25 67.253906zm0 0" fill="#ffb133"/><path d="m360.683594 0c-3.984375 0-7.878906.367188-11.671875 1.03125 31.574219 5.527344 55.582031 33.0625 55.582031 66.222656 0 33.15625-24.007812 60.691406-55.582031 66.21875 3.792969.664063 7.6875 1.03125 11.671875 1.03125 37.140625 0 67.25-30.109375 67.25-67.25 0-37.144531-30.109375-67.253906-67.25-67.253906zm0 0" fill="#f28730"/><path d="m136.027344 403.507812h-88.703125c-3.363281 0-6.089844 2.726563-6.089844 6.089844v88.699219c0 3.363281 2.726563 6.085937 6.089844 6.085937h88.699219c3.363281 0 6.089843-2.722656 6.089843-6.085937v-88.699219c0-3.363281-2.726562-6.089844-6.085937-6.089844zm0 0" fill="#3bcd92"/><path d="m405.03125 201.753906h-88.699219c-3.363281 0-6.089843 2.726563-6.089843 6.089844v290.453125c0 3.363281 2.726562 6.085937 6.089843 6.085937h88.699219c3.363281 0 6.089844-2.722656 6.089844-6.085937v-290.453125c0-3.363281-2.726563-6.089844-6.089844-6.089844zm0 0" fill="#3bcd92"/><path d="m270.53125 302.632812h-88.703125c-3.363281 0-6.089844 2.726563-6.089844 6.089844v189.574219c0 3.363281 2.726563 6.089844 6.089844 6.089844h88.703125c3.363281 0 6.085938-2.726563 6.085938-6.089844v-189.574219c0-3.363281-2.722657-6.089844-6.085938-6.089844zm0 0" fill="#3bcd92"/><path d="m371.40625 269.003906h-21.445312c-3.363282 0-6.089844-2.722656-6.089844-6.085937v-21.445313c0-3.363281 2.726562-6.089844 6.089844-6.089844h21.445312c3.363281 0 6.089844 2.726563 6.089844 6.089844v21.445313c0 3.363281-2.726563 6.085937-6.089844 6.085937zm0 0" fill="#c0e3f0"/><path d="m236.902344 369.882812h-21.445313c-3.363281 0-6.089843-2.726562-6.089843-6.089843v-21.445313c0-3.363281 2.726562-6.089844 6.089843-6.089844h21.445313c3.363281 0 6.089844 2.726563 6.089844 6.089844v21.445313c0 3.363281-2.726563 6.089843-6.089844 6.089843zm0 0" fill="#c0e3f0"/><path d="m102.398438 470.757812h-21.445313c-3.363281 0-6.089844-2.726562-6.089844-6.089843v-21.445313c0-3.363281 2.726563-6.089844 6.089844-6.089844h21.445313c3.363281 0 6.085937 2.726563 6.085937 6.089844v21.445313c0 3.363281-2.722656 6.089843-6.085937 6.089843zm0 0" fill="#c0e3f0"/><path d="m405.03125 201.753906h-23.339844c3.363282 0 6.089844 2.726563 6.089844 6.089844v290.453125c0 3.363281-2.726562 6.085937-6.089844 6.085937h23.339844c3.363281 0 6.089844-2.722656 6.089844-6.085937v-290.453125c0-3.363281-2.726563-6.089844-6.089844-6.089844zm0 0" fill="#1cbd85"/><path d="m270.53125 302.632812h-23.34375c3.363281 0 6.089844 2.726563 6.089844 6.089844v189.578125c0 3.363281-2.726563 6.085938-6.089844 6.085938h23.34375c3.363281 0 6.085938-2.722657 6.085938-6.085938v-189.578125c0-3.363281-2.722657-6.089844-6.085938-6.089844zm0 0" fill="#1cbd85"/><path d="m136.027344 403.507812h-23.34375c3.363281 0 6.089844 2.726563 6.089844 6.089844v88.703125c0 3.363281-2.726563 6.085938-6.089844 6.085938h23.34375c3.363281 0 6.085937-2.722657 6.085937-6.085938v-88.703125c0-3.363281-2.726562-6.089844-6.085937-6.089844zm0 0" fill="#1cbd85"/><path d="m444.75 496.777344h-437.136719c-4.207031 0-7.613281 3.40625-7.613281 7.609375 0 4.207031 3.40625 7.613281 7.613281 7.613281h437.136719c4.203125 0 7.609375-3.40625 7.609375-7.613281 0-4.203125-3.40625-7.609375-7.609375-7.609375zm0 0" fill="#57555c"/><path d="m360.742188 59.640625c-.019532 0-.039063-.003906-.058594-.003906-5.074219 0-9.203125-4.125-9.203125-9.199219s4.128906-9.203125 9.203125-9.203125c5.070312 0 9.199218 4.128906 9.199218 9.203125 0 4.203125 3.410157 7.613281 7.613282 7.613281s7.609375-3.410156 7.609375-7.613281c0-10.808594-7.0625-19.996094-16.8125-23.203125v-2.015625c0-4.203125-3.40625-7.613281-7.609375-7.613281s-7.613282 3.410156-7.613282 7.613281v2.015625c-9.75 3.207031-16.8125 12.394531-16.8125 23.203125 0 13.449219 10.925782 24.390625 24.367188 24.421875.019531 0 .039062.003906.058594.003906 5.070312 0 9.199218 4.128907 9.199218 9.199219 0 5.078125-4.128906 9.203125-9.199218 9.203125-5.074219 0-9.203125-4.125-9.203125-9.203125 0-4.203125-3.40625-7.609375-7.609375-7.609375s-7.613282 3.40625-7.613282 7.609375c0 10.8125 7.0625 20 16.8125 23.207031v2.015625c0 4.203125 3.410157 7.609375 7.613282 7.609375s7.609375-3.40625 7.609375-7.609375v-2.015625c9.75-3.207031 16.8125-12.394531 16.8125-23.207031 0-13.445312-10.925781-24.390625-24.363281-24.421875zm0 0" fill="#f28730"/><path d="m41.242188 327.058594c-2.25 0-4.476563-.992188-5.980469-2.894532-2.605469-3.300781-2.042969-8.085937 1.257812-10.691406l189.191407-149.359375c3.300781-2.605469 8.085937-2.042969 10.691406 1.257813 2.601562 3.296875 2.039062 8.082031-1.257813 10.6875l-189.191406 149.363281c-1.398437 1.101563-3.0625 1.636719-4.710937 1.636719zm0 0" fill="#4dbbeb"/><path d="m216.09375 151.925781 28.667969 36.316407c2.894531 3.667968 8.675781 2.839843 10.425781-1.496094l17.441406-43.242188c1.761719-4.367187-1.894531-9-6.550781-8.300781l-46.109375 6.929687c-4.625.695313-6.773438 6.125-3.875 9.792969zm0 0" fill="#4dbbeb"/><g fill="#c0e3f0"><path d="m280.023438 26.816406-16.8125-8.40625c-3.757813-1.875-8.332032-.355468-10.214844 3.40625-1.878906 3.757813-.355469 8.332032 3.40625 10.210938l16.8125 8.40625c1.09375.546875 2.253906.804687 3.398437.804687 2.789063 0 5.480469-1.542969 6.8125-4.207031 1.878907-3.761719.355469-8.332031-3.402343-10.214844zm0 0"/><path d="m273.214844 94.070312-16.816406 8.40625c-3.757813 1.882813-5.28125 6.453126-3.402344 10.214844 1.332031 2.667969 4.023437 4.207032 6.8125 4.207032 1.144531 0 2.304687-.257813 3.398437-.804688l16.816407-8.40625c3.757812-1.878906 5.28125-6.453125 3.402343-10.210938-1.878906-3.761718-6.449219-5.285156-10.210937-3.40625zm0 0"/><path d="m444.753906 41.238281c1.144532 0 2.304688-.257812 3.398438-.804687l16.8125-8.40625c3.757812-1.878906 5.285156-6.449219 3.402344-10.210938-1.878907-3.761718-6.449219-5.285156-10.210938-3.402344l-16.8125 8.40625c-3.761719 1.878907-5.285156 6.449219-3.402344 10.210938 1.332032 2.667969 4.019532 4.207031 6.8125 4.207031zm0 0"/><path d="m464.964844 102.480469-16.8125-8.410157c-3.757813-1.878906-8.332032-.355468-10.210938 3.40625-1.878906 3.757813-.355468 8.332032 3.402344 10.210938l16.8125 8.40625c1.09375.546875 2.253906.808594 3.398438.808594 2.792968 0 5.480468-1.542969 6.816406-4.210938 1.878906-3.761718.355468-8.332031-3.40625-10.210937zm0 0"/></g></svg>