<svg id="Capa_1" enable-background="new 0 0 512 512" viewBox="0 0 512 512" xmlns="http://www.w3.org/2000/svg"><g><path d="m364.169 7.5h-30.905l15.453 77.264h30.905v-61.811c0-8.535-6.919-15.453-15.453-15.453z" fill="#fe5e49"/><path d="m333.264 7.5h-77.264v61.811h61.811l30.905 15.453v-61.811c0-8.535-6.918-15.453-15.452-15.453z" fill="#fe8566"/><path d="m364.169 69.311h-15.453l-15.453 30.905h30.905c8.534 0 15.453-6.918 15.453-15.453s-6.918-15.452-15.452-15.452z" fill="#f7332d"/><path d="m348.716 84.764v-15.453h-30.905v23.405c0 4.142 3.358 7.5 7.5 7.5h7.953c8.534.001 15.452-6.918 15.452-15.452z" fill="#fe5e49"/><path d="m256 0c-4.143 0-7.5 3.358-7.5 7.5v107.717h15v-107.717c0-4.142-3.357-7.5-7.5-7.5z" fill="#dedee0"/><path d="m458.142 141.135-23.405 108.169h61.811v-100.669c0-4.142-3.358-7.5-7.5-7.5z" fill="#6d7cd6"/><path d="m325.33 141.135-49.554-41.262c-11.458-9.541-28.094-9.541-39.552 0l-49.554 41.262h-163.717c-4.142 0-7.5 3.358-7.5 7.5v100.669h450.189v-100.669c0-4.142-3.358-7.5-7.5-7.5z" fill="#7d99e8"/><path d="m419.284 249.304 38.858 216.338h30.905c4.142 0 7.5-3.358 7.5-7.5v-208.838z" fill="#fe8566"/><path d="m15.453 249.304v208.838c0 4.142 3.358 7.5 7.5 7.5h100.669l132.378-15.453 132.378 15.453h69.764c4.142 0 7.5-3.358 7.5-7.5v-61.811l-15.453-46.585 15.453-46.585v-53.858h-450.189z" fill="#fda265"/><path d="m496.547 233.851h-30.905v30.905h30.905c8.534 0 15.453-6.918 15.453-15.453 0-8.534-6.919-15.452-15.453-15.452z" fill="#dedee0"/><path d="m481.095 249.304c0-8.534-6.919-15.453-15.453-15.453h-450.189c-8.535 0-15.453 6.918-15.453 15.453 0 8.534 6.918 15.453 15.453 15.453h450.189c8.534 0 15.453-6.919 15.453-15.453z" fill="#f2f2f2"/><path d="m46.358 303.162v93.169c0 4.142 3.358 7.5 7.5 7.5h31.359c4.142 0 7.5-3.358 7.5-7.5v-93.169c0-4.142-3.358-7.5-7.5-7.5h-31.359c-4.142 0-7.5 3.358-7.5 7.5z" fill="#fff"/><path d="m419.283 303.162v93.169c0 4.142 3.358 7.5 7.5 7.5h31.359c4.142 0 7.5-3.358 7.5-7.5v-93.169c0-4.142-3.358-7.5-7.5-7.5h-31.359c-4.142 0-7.5 3.358-7.5 7.5z" fill="#fff"/><path d="m357.473 208.117h-46.358l46.358 257.525h30.905v-231.791z" fill="#c2c4c6"/><path d="m251.201 127.618-127.579 106.233v231.791h61.811l70.567-120.178 70.567 120.178h30.905v-257.525l-96.674-80.499c-2.779-2.315-6.817-2.315-9.597 0z" fill="#dedee0"/><path d="m185.433 272.257v193.385h141.135v-193.385c0-4.142-3.358-7.5-7.5-7.5h-126.135c-4.143 0-7.5 3.357-7.5 7.5z" fill="#c2c4c6"/><circle cx="256" cy="202.946" fill="#fff" r="30.905"/><path d="m216.338 334.067v23.405l39.662 15.454 39.662-15.453v-23.405c0-4.142-3.358-7.5-7.5-7.5h-64.324c-4.142-.001-7.5 3.357-7.5 7.499z" fill="#fff"/><path d="m216.338 357.473h79.324v123.622h-79.324z" fill="#656a73"/><path d="m295.662 465.642h-79.324l-33.555 33.555c-4.725 4.725-1.378 12.803 5.303 12.803h135.827c6.682 0 10.028-8.079 5.303-12.803z" fill="#a5a8ab"/></g><g/><g/><g/><g/><g/><g/><g/><g/><g/><g/><g/><g/><g/><g/><g/></svg>