<svg id="Capa_1" enable-background="new 0 0 512 512" viewBox="0 0 512 512" xmlns="http://www.w3.org/2000/svg"><g><g><path d="m37.553 278.835c.925-25.176 6.095-49.72 15.405-72.987l.343-.856c-4.778-1.568-9.307-3.819-13.476-6.698l-.792 1.981c-10.247 25.605-15.817 52.652-16.558 80.389l-.163 6.117c4.567-3.426 9.707-6.124 15.241-7.946z" fill="#c4e2ff"/></g><g fill="#c4e2ff"><path d="m202.868 60.335c0-.291.017-.577.022-.866l-2.333.568c-35.801 8.716-69.501 26.124-97.456 50.343l-1.646 1.426c4.051 3.009 7.657 6.572 10.704 10.573l.763-.661c26.159-22.663 57.689-38.952 91.183-47.106l.679-.165c-1.239-4.498-1.916-9.226-1.916-14.112z"/><path d="m399.9 122.431c3.063-3.996 6.68-7.552 10.72-10.559l-1.676-1.452c-27.965-24.24-61.681-41.662-97.502-50.383l-2.333-.568c.005.289.022.576.022.866 0 4.886-.677 9.614-1.917 14.111l.679.165c33.513 8.159 65.058 24.461 91.227 47.144z"/><path d="m472.954 200.24-.77-1.924c-4.111 2.826-8.643 5.084-13.487 6.671l.331.828c9.319 23.279 14.494 47.835 15.419 73.02 5.534 1.823 10.674 4.52 15.241 7.947l-.163-6.117c-.74-27.747-6.315-54.806-16.571-80.425z"/></g><g><g><g><g><path d="m148.863 351.295c0 15.64 7.156 29.606 18.37 38.81h60.474v-23.839l-.607-.273c-22.005-9.913-37.368-30.013-41.096-53.766l-.137-.87h-17.2c-12.031 9.168-19.804 23.642-19.804 39.938z" fill="#554e56"/></g><g fill="#fe5694"><path d="m193.987 392.782-1-3.707h-27.207c-31.142 0-56.388 25.246-56.388 56.388v50.033c0 5.689 4.612 10.302 10.302 10.302h73.293l1-4.626z"/><path d="m346.22 389.075h-27.207l-1 3.85v108.389l1 4.484h73.293c5.689 0 10.302-4.612 10.302-10.302v-50.033c0-31.142-25.246-56.388-56.388-56.388z"/></g><g fill="#fd3581"><path d="m192.987 475.429h-83.595v20.067c0 5.69 4.612 10.302 10.302 10.302h73.293z"/><path d="m364.169 392.01v73.117c0 5.69-4.612 10.302-10.302 10.302h-34.854v30.369h73.293c5.69 0 10.302-4.612 10.302-10.302v-50.033c0-24.865-16.1-45.955-38.439-53.453z"/></g><g><path d="m192.987 389.075h126.026v116.722h-126.026z" fill="#fff"/></g><g><g><path d="m192.987 475.429h126.026v30.369h-126.026z" fill="#f9f7f8"/></g></g><path d="m256.288 421.662-7.506 5.531v78.604h15v-78.51z" fill="#f9f7f8"/><g><g><path d="m192.987 389.075 29.685 51.486c1.535 2.662 5.044 3.397 7.518 1.574l26.092-19.227 25.517 19.155c2.472 1.856 6.011 1.131 7.555-1.547l29.659-51.441z" fill="#efedef"/></g></g><g><path d="m256.282 372.256c-10.297 0-20.384-2.248-29.603-6.467v23.286l29.604 33.832 29.04-33.833v-23.032c-9.068 4.054-18.953 6.214-29.041 6.214z" fill="#bb5d4c"/></g><g><g><path d="m157.288 250.264h27.848v-12.308c0-30.524 24.833-55.357 55.357-55.357h31.577c30.524 0 55.357 24.833 55.357 55.357v12.308h27.285c1.731 0 3.417.197 5.041.559v-12.866c0-48.504-39.461-87.965-87.965-87.965h-31.577c-48.504 0-87.965 39.461-87.965 87.965v12.866c1.625-.362 3.31-.559 5.042-.559z" fill="#cdbfba"/></g><g><path d="m359.753 249.233v-11.277c0-45.416-34.598-82.9-78.82-87.489 10.233 9.843 16.761 23.509 17.272 38.704 17.379 9.348 29.223 27.707 29.223 48.784v11.278z" fill="#b9acac"/></g><path d="m354.712 249.233h-27.285v51.877c0 3.838-.315 7.603-.903 11.277h24.602l1.027 1h2.559c3.591 0 7.159-.774 10.414-2.249l1-1.608c7.617-4.079 12.799-12.111 12.799-21.356v-14.728c0-13.372-10.841-24.213-24.213-24.213z" fill="#9e9797"/><g><g><path d="m185.136 301.11v-51.877h-27.848c-13.372 0-24.213 10.841-24.213 24.213v14.728c0 13.372 10.841 24.213 24.213 24.213h28.751c-.588-3.674-.903-7.439-.903-11.277z" fill="#b9acac"/></g></g><g><path d="m290.658 248.203c-.838 0-1.619-.451-2.037-1.176l-10.419-18.044c-.798-1.382-2.226-2.207-3.822-2.207s-3.024.825-3.822 2.207l-10.419 18.044c-.419.726-1.199 1.177-2.037 1.177h-70.692l-3.305 1.03v51.877c0 39.862 32.314 72.176 72.176 72.176s72.176-32.314 72.176-72.176v-51.877l-1.935-1.03h-35.864z" fill="#d78878"/></g><g><path d="m326.523 248.203h-28.286v44.924c0 39.862-32.314 72.176-72.176 72.176-.974 0-1.939-.035-2.904-.073 9.923 5.137 21.18 8.056 33.125 8.056 39.862 0 72.176-32.314 72.176-72.176v-51.877z" fill="#c96e59"/></g><g><path d="m272.07 181.568h-31.577c-31.142 0-56.388 25.246-56.388 56.388v11.277h73.997c1.209 0 2.326-.645 2.93-1.692l10.418-18.044c1.302-2.256 4.558-2.256 5.86 0l10.418 18.044c.604 1.047 1.721 1.692 2.93 1.692h37.8v-11.277c0-31.142-25.245-56.388-56.388-56.388z" fill="#554e56"/></g><g><path d="m298.144 187.962c.057 1.039.093 2.083.093 3.136v58.135h30.221v-11.277c0-21.732-12.301-40.58-30.314-49.994z" fill="#433f43"/></g></g></g><g><g><circle cx="256" cy="60.335" fill="#efedef" r="54.132"/></g><g><path d="m269.857 8c6.191 8.801 9.838 19.521 9.838 31.099 0 29.897-24.236 54.132-54.132 54.132-4.791 0-9.433-.629-13.857-1.797 9.795 13.925 25.976 23.033 44.295 23.033 29.896 0 54.132-24.236 54.132-54.132-.001-25.106-17.095-46.213-40.276-52.335z" fill="#e5e1e5"/></g></g><g><g><g><circle cx="54.132" cy="329.304" fill="#00f2a6" r="54.132"/></g><g><path d="m61.752 275.716c9.895 9.809 16.027 23.408 16.027 38.441 0 29.896-24.236 54.132-54.132 54.132-2.587 0-5.129-.193-7.619-.544 9.782 9.697 23.242 15.691 38.105 15.691 29.896 0 54.132-24.236 54.132-54.132-.001-27.309-20.227-49.883-46.513-53.588z" fill="#05e39c"/></g></g><g><path d="m457.868 275.172c-29.896 0-54.132 24.236-54.132 54.132 0 12.243 4.069 23.534 10.923 32.602l2.341-.927 17.89-17.891-.373-.661c-2.255-3.997-3.447-8.535-3.447-13.124 0-14.777 12.021-26.799 26.798-26.799 3.584 0 6.5 2.916 6.5 6.5s-2.916 6.5-6.5 6.5c-7.608 0-13.798 6.19-13.798 13.799s6.189 13.8 13.798 13.8 13.8-6.19 13.8-13.8c0-3.584 2.916-6.5 6.5-6.5s6.5 2.916 6.5 6.5c0 14.777-12.022 26.8-26.8 26.8-4.59 0-9.128-1.192-13.124-3.448l-.661-.374-17.924 17.924-.893 2.307c9.069 6.854 20.359 10.923 32.603 10.923 29.896 0 54.132-24.236 54.132-54.132s-24.237-54.131-54.133-54.131z" fill="#26a6fe"/><g><path d="m465.597 275.73c9.887 9.808 16.012 23.401 16.012 38.427 0 2.788-.212 5.526-.618 8.201 2.741 1.116 4.676 3.803 4.676 6.945 0 14.411-11.023 26.293-25.08 27.665-8.646 6.697-19.37 10.831-31.046 11.269l-4.271 4.271c9.068 6.854 20.354 10.928 32.598 10.928 29.896 0 54.132-24.236 54.132-54.132 0-27.271-20.169-49.822-46.403-53.574z" fill="#0593fc"/></g></g></g><g><g><g><g><path d="m112.283 120.822-26.909 26.908 32.291 32.29c4.072-7.604 6.388-16.289 6.388-25.518 0-12.736-4.41-24.435-11.77-33.68z" fill="#fff0ad"/></g><g><path d="m54.467 147.73-26.908-26.909c-7.361 9.245-11.77 20.945-11.77 33.681 0 9.229 2.315 17.915 6.388 25.518z" fill="#fff0ad"/></g></g><g><path d="m77.429 100.9c9.764 9.792 15.802 23.301 15.802 38.222 0 29.896-24.236 54.132-54.132 54.132-2.549 0-5.053-.189-7.509-.53 9.8 9.828 23.354 15.91 38.33 15.91 29.896 0 54.132-24.236 54.132-54.132.001-27.347-20.282-49.945-46.623-53.602z" fill="#ffe177"/></g><g><path d="m86.103 147.002-12.924 12.924c-.87.87-2.027 1.35-3.259 1.35-1.23 0-2.388-.479-3.259-1.35l-12.924-12.924-32.055 32.055c8.952 17.551 27.185 29.577 48.238 29.577s39.285-12.027 48.238-29.577z" fill="#ffe177"/></g><g><path d="m91.569 152.468c-5.944 23.442-27.18 40.786-52.47 40.786-2.54 0-5.035-.188-7.482-.527 9.795 9.823 23.335 15.907 38.304 15.907 21.053 0 39.285-12.027 48.238-29.577z" fill="#ffd15b"/></g><g><path d="m73.908 160.654 39.016-39.016c-9.893-12.925-25.47-21.267-43.003-21.267s-33.111 8.343-43.003 21.267l39.016 39.016c2.202 2.202 5.772 2.202 7.974 0z" fill="#ffd15b"/></g><g><path d="m93.231 139.122c0 .76-.026 1.513-.057 2.265l19.75-19.75c-8.452-11.042-21.06-18.72-35.486-20.728 9.759 9.791 15.793 23.297 15.793 38.213z" fill="#ffc344"/></g></g><g><g><path d="m439.244 100.442c-27.415 1.398-49.7 23.595-51.212 51.004-.62 11.239 2.205 21.773 7.497 30.671.509.856.64 1.882.325 2.826l-6.051 18.133c-.824 2.471 1.335 4.907 3.886 4.386l22.494-4.595c.736-.15 1.496-.042 2.171.288 8.182 4 17.513 6.011 27.376 5.36 27.21-1.796 49.09-24.067 50.417-51.304 1.561-32.078-24.811-58.405-56.903-56.769z" fill="#ffe177"/></g><g><path d="m457.622 102.653c5.846 9.122 9.042 20.105 8.469 31.87-1.327 27.237-23.207 49.508-50.417 51.304-6.888.455-13.515-.393-19.674-2.306.053.474.008.958-.147 1.422l-6.051 18.133c-.824 2.471 1.335 4.907 3.887 4.386l22.494-4.595c.736-.15 1.496-.042 2.171.288 8.182 4 17.513 6.011 27.376 5.36 27.21-1.796 49.09-24.067 50.417-51.304 1.248-25.665-15.39-47.632-38.525-54.558z" fill="#ffd15b"/></g></g></g></g></g><g><g><g><path d="m227.807 284.927c-4.143 0-7.5-3.358-7.5-7.5v-5.639c0-4.142 3.357-7.5 7.5-7.5s7.5 3.358 7.5 7.5v5.639c0 4.142-3.358 7.5-7.5 7.5z" fill="#bb5d4c"/></g><g><path d="m284.193 284.927c-4.143 0-7.5-3.358-7.5-7.5v-5.639c0-4.142 3.357-7.5 7.5-7.5s7.5 3.358 7.5 7.5v5.639c0 4.142-3.357 7.5-7.5 7.5z" fill="#bb5d4c"/></g></g><path d="m354.712 312.388h-3.586v13.58c0 5.192-4.225 9.417-9.417 9.417h-66.974v13.06l1 1.94h65.973c13.464 0 24.417-10.953 24.417-24.417v-16.437c-3.4 1.821-7.285 2.857-11.413 2.857z" fill="#b9acac"/><g><path d="m279.683 67.835h-23.683c-4.143 0-7.5-3.358-7.5-7.5v-28.194c0-4.142 3.357-7.5 7.5-7.5s7.5 3.358 7.5 7.5v20.694h16.183c4.143 0 7.5 3.358 7.5 7.5s-3.358 7.5-7.5 7.5z" fill="#b9acac"/></g><g><path d="m64.707 354.325c-5.448 0-10.57-2.122-14.423-5.974l-15.199-15.199c-3.853-3.852-5.974-8.975-5.974-14.423s2.121-10.571 5.975-14.423c2.929-2.928 7.678-2.928 10.606.001s2.929 7.678-.001 10.606c-1.02 1.019-1.58 2.374-1.58 3.815s.561 2.797 1.58 3.816l15.2 15.2c1.019 1.02 2.374 1.581 3.815 1.581s2.798-.562 3.817-1.581c2.929-2.929 7.678-2.927 10.606 0 2.929 2.929 2.929 7.678-.001 10.607-3.851 3.852-8.973 5.974-14.421 5.974z" fill="#fff"/></g><path d="m478.167 321.804c-4.143 0-7.5 3.358-7.5 7.5 0 7.058-5.742 12.8-12.8 12.8-7.057 0-12.798-5.742-12.798-12.8s5.741-12.799 12.798-12.799c4.143 0 7.5-3.358 7.5-7.5s-3.357-7.5-7.5-7.5c-15.328 0-27.798 12.471-27.798 27.799 0 4.945 1.303 9.588 3.576 13.615l-18.987 18.987c3.028 4.007 6.6 7.579 10.607 10.607l18.987-18.987c4.027 2.273 8.671 3.577 13.615 3.577 15.329 0 27.8-12.471 27.8-27.8 0-4.141-3.357-7.499-7.5-7.499z" fill="#ffd15b"/><g><g><path d="m416.141 162.002h-1.127c-4.143 0-7.5-3.358-7.5-7.5s3.357-7.5 7.5-7.5h1.127c4.143 0 7.5 3.358 7.5 7.5s-3.358 7.5-7.5 7.5z" fill="#fff"/></g><g><path d="m442.644 162.002h-1.128c-4.143 0-7.5-3.358-7.5-7.5s3.357-7.5 7.5-7.5h1.128c4.143 0 7.5 3.358 7.5 7.5s-3.358 7.5-7.5 7.5z" fill="#fff"/></g><g><path d="m469.146 162.002h-1.128c-4.143 0-7.5-3.358-7.5-7.5s3.357-7.5 7.5-7.5h1.128c4.143 0 7.5 3.358 7.5 7.5s-3.358 7.5-7.5 7.5z" fill="#fff"/></g></g></g><g><path d="m275.736 350.384h-30.524c-4.942 0-8.947-4.006-8.947-8.947v-10.299c0-4.942 4.006-8.947 8.947-8.947h21.576c4.942 0 8.947 4.006 8.947 8.947v19.246z" fill="#cdbfba"/></g><path d="m248.782 475.429h15v30.369h-15z" fill="#efedef"/></g><g/><g/><g/><g/><g/><g/><g/><g/><g/><g/><g/><g/><g/><g/><g/></svg>