<svg id="Capa_1" enable-background="new 0 0 512 512" height="512" viewBox="0 0 512 512" width="512" xmlns="http://www.w3.org/2000/svg"><g><g><path d="m378.797 512h-245.594c-18.392 0-33.301-14.909-33.301-33.301v-445.398c0-18.392 14.91-33.301 33.301-33.301h245.594c18.392 0 33.301 14.909 33.301 33.301v445.398c0 18.392-14.91 33.301-33.301 33.301z" fill="#62a4fb"/></g><g><path d="m378.797 0h-33.301c18.392 0 33.301 14.909 33.301 33.301v445.398c0 18.392-14.909 33.301-33.301 33.301h33.301c18.392 0 33.301-14.909 33.301-33.301v-445.398c0-18.392-14.91-33.301-33.301-33.301z" fill="#5392f9"/></g><g><path d="m303.669 40.603-5.842 18.696c-1.358 4.344-5.381 7.303-9.933 7.303h-63.788c-4.552 0-8.575-2.958-9.933-7.303l-5.842-18.696c-1.358-4.344-5.381-7.303-9.933-7.303h-54.788c-5.747 0-10.407 4.659-10.407 10.407v424.585c0 5.747 4.659 10.406 10.407 10.406h224.78c5.747 0 10.406-4.659 10.406-10.406v-424.585c0-5.747-4.659-10.407-10.406-10.407h-54.788c-4.552.001-8.575 2.959-9.933 7.303z" fill="#91dafa"/></g><g><path d="m368.39 33.301h-29.138c5.747 0 10.406 4.659 10.406 10.407v424.585c0 5.747-4.659 10.406-10.406 10.406h29.138c5.747 0 10.406-4.659 10.406-10.406v-424.586c.001-5.747-4.658-10.406-10.406-10.406z" fill="#75cff9"/></g><g><g><circle cx="256" cy="375.311" fill="#e175a5" r="70.087"/></g><g><g><path d="m232.113 402.924v-54.949c0-4.217 4.531-6.883 8.217-4.835l49.454 27.475c3.793 2.107 3.793 7.563 0 9.67l-49.454 27.475c-3.686 2.047-8.217-.619-8.217-4.836z" fill="#f5fcff"/></g></g></g><g><g><path d="m253.919 33.301h-166.504c-11.495 0-20.813 9.318-20.813 20.813v116.553c0 11.495 9.318 20.813 20.813 20.813h61.282c1.352 0 2.664.457 3.724 1.296l38.59 30.551c3.933 3.114 9.724.313 9.724-4.704v-21.143c0-3.314 2.686-6 6-6h47.183c11.495 0 20.813-9.318 20.813-20.813v-116.553c.001-11.495-9.318-20.813-20.812-20.813z" fill="#e6f7fe"/></g><g><path d="m253.919 33.301h-4.163v49.952c0 .941-.04 1.873-.071 2.807-20.096 3.927-35.311 21.661-35.311 42.889v22.397c-13.543 9.539-30.045 15.159-47.87 15.159h-99.902v4.162c0 11.495 9.318 20.813 20.813 20.813h61.282c1.352 0 2.664.457 3.724 1.296l38.59 30.551c3.933 3.114 9.724.313 9.724-4.704v-21.143c0-3.314 2.686-6 6-6h47.183c11.495 0 20.813-9.318 20.813-20.813v-116.553c.001-11.495-9.318-20.813-20.812-20.813z" fill="#d3effd"/></g><g><path d="m258.081 108.136h166.504c11.495 0 20.813 9.318 20.813 20.813v116.553c0 11.495-9.318 20.813-20.813 20.813h-44.632c-1.352 0-2.664.457-3.724 1.296l-38.59 30.551c-3.933 3.114-9.724.313-9.724-4.704v-21.142c0-3.314-2.686-6-6-6h-63.833c-11.495 0-20.813-9.318-20.813-20.813v-116.554c-.001-11.495 9.318-20.813 20.812-20.813z" fill="#e9a761"/></g><g><path d="m258.081 108.136h166.504c11.495 0 20.813 9.318 20.813 20.813v116.553c0 11.495-9.318 20.813-20.813 20.813h-44.632c-1.352 0-2.664.457-3.724 1.296l-38.59 30.551c-3.933 3.114-9.724.313-9.724-4.704v-21.142c0-3.314-2.686-6-6-6h-63.833c-11.495 0-20.813-9.318-20.813-20.813v-116.554c-.001-11.495 9.318-20.813 20.812-20.813z" fill="#e9a761"/></g><g><path d="m424.585 108.136h-4.163v49.951c0 45.979-37.273 83.252-83.252 83.252h-99.902v4.163c0 11.495 9.318 20.813 20.813 20.813h63.833c3.314 0 6 2.686 6 6v21.142c0 5.017 5.791 7.818 9.724 4.704l38.59-30.551c1.06-.839 2.372-1.296 3.724-1.296h44.632c11.495 0 20.813-9.318 20.813-20.813v-116.552c.001-11.495-9.317-20.813-20.812-20.813z" fill="#e69642"/></g></g><path d="m212.292 91.793c4.142 0 7.5-3.357 7.5-7.5s-3.358-7.5-7.5-7.5h-34.126v-11.231c0-4.143-3.358-7.5-7.5-7.5s-7.5 3.357-7.5 7.5v11.231h-34.126c-4.142 0-7.5 3.357-7.5 7.5s3.358 7.5 7.5 7.5h58.173c-3.086 12.667-9.333 22.254-16.488 29.454-3.004-2.987-5.845-6.375-8.351-10.22-2.261-3.471-6.908-4.452-10.378-2.188-3.47 2.262-4.45 6.908-2.188 10.378 2.803 4.3 5.92 8.115 9.195 11.515-12.21 7.957-23.683 10.536-24.651 10.743-4.045.854-6.637 4.821-5.792 8.87.738 3.538 3.857 5.97 7.334 5.97.508 0 1.023-.053 1.54-.16.608-.127 15.066-3.224 30.364-13.37.972-.645 1.908-1.316 2.843-1.989 16.189 11.657 32.289 15.156 33.263 15.359.516.107 1.031.159 1.538.159 3.469 0 6.577-2.423 7.322-5.952.855-4.046-1.735-8.022-5.778-8.887-.184-.039-11.996-2.673-24.579-10.854 10.346-10.789 17.169-23.921 20.134-38.829h9.751z" fill="#62a4fb"/><path d="m381.215 220.999-30.977-82.083c-.026-.069-.054-.139-.082-.207-1.454-3.532-4.86-5.813-8.68-5.813-.003 0-.007 0-.01 0-3.824.005-7.23 2.293-8.678 5.832-.023.057-.046.114-.068.172l-31.261 82.079c-1.474 3.87.468 8.203 4.339 9.678 3.874 1.477 8.204-.468 9.678-4.34l5.945-15.61h39.875l5.883 15.59c1.134 3.003 3.987 4.854 7.019 4.854.879 0 1.775-.156 2.646-.485 3.878-1.464 5.834-5.791 4.371-9.667zm-54.079-25.293 14.316-37.588 14.185 37.588z" fill="#e6f7fe"/></g></svg>