<?xml version="1.0" standalone="no"?>
<!DOCTYPE svg PUBLIC "-//W3C//DTD SVG 20010904//EN"
 "http://www.w3.org/TR/2001/REC-SVG-20010904/DTD/svg10.dtd">
<svg version="1.0" xmlns="http://www.w3.org/2000/svg"
 width="700.000000pt" height="700.000000pt" viewBox="0 0 700.000000 700.000000"
 preserveAspectRatio="xMidYMid meet">
<metadata>
Created by potrace 1.14, written by Peter Selinger 2001-2017
</metadata>
<g transform="translate(0.000000,700.000000) scale(0.100000,-0.100000)"
fill="#000000" stroke="none">
<path d="M4833 6835 c-27 -16 -58 -51 -88 -95 -52 -78 -69 -85 -110 -44 l-25
25 -37 -30 c-47 -38 -57 -39 -73 -2 -18 45 -40 48 -75 9 -28 -31 -33 -33 -103
-35 -41 -1 -76 -4 -78 -6 -2 -1 -10 -19 -18 -39 l-15 -36 82 -27 c45 -15 87
-28 92 -29 65 -15 185 -54 185 -61 0 -12 -28 -68 -64 -127 -41 -68 -53 -77
-131 -97 -52 -14 -85 -37 -85 -62 0 -10 3 -19 8 -20 4 0 16 -2 27 -5 11 -2 45
-7 75 -10 66 -8 69 -10 111 -79 61 -100 109 -89 93 24 -7 55 -8 62 -5 99 1 19
117 182 129 181 4 0 27 -24 51 -52 97 -115 193 -217 205 -217 15 0 40 27 49
51 3 9 -6 41 -20 70 -24 53 -26 84 -8 146 6 19 2 22 -37 30 -46 10 -46 9 -36
87 3 26 -1 31 -32 41 -19 6 -36 19 -38 28 -2 9 16 48 39 87 49 84 62 154 35
195 -21 32 -49 32 -103 0z"/>
<path d="M3245 5909 c-131 -10 -186 -17 -320 -44 -354 -71 -684 -222 -985
-448 -99 -75 -318 -286 -386 -372 -21 -27 -41 -52 -44 -55 -15 -14 -132 -184
-172 -251 -259 -429 -378 -944 -335 -1449 19 -220 89 -522 157 -675 5 -11 19
-45 31 -75 79 -195 237 -447 391 -623 l24 -27 57 147 c31 82 59 159 62 173 4
20 -11 50 -69 138 -136 208 -251 473 -290 672 -3 14 -12 59 -20 100 -23 119
-31 214 -31 385 1 211 13 314 61 511 l27 111 156 -156 c86 -86 206 -194 267
-241 l110 -84 -1 -113 c-3 -143 8 -201 52 -285 34 -65 116 -171 140 -182 8 -3
37 38 76 107 146 255 350 595 468 777 58 89 137 215 135 217 -2 2 -197 42
-236 48 -128 19 -250 62 -323 112 -64 44 -40 49 199 42 98 -3 149 13 247 80
96 65 110 72 185 82 126 17 137 20 179 40 31 15 59 43 103 102 72 98 90 148
90 247 1 136 -5 159 -110 430 -87 225 -86 220 -63 221 10 0 27 2 38 5 137 29
530 23 688 -10 12 -3 40 24 95 92 104 131 135 173 130 177 -13 13 -234 54
-381 70 -82 10 -296 12 -402 4z"/>
<path d="M4288 5847 c-57 -57 -163 -184 -233 -278 -11 -15 -88 -114 -171 -220
-405 -520 -756 -1017 -1129 -1599 -33 -52 -185 -300 -205 -335 -10 -16 -62
-109 -117 -205 -162 -282 -358 -659 -437 -840 -16 -36 -39 -88 -52 -117 -123
-275 -237 -607 -302 -883 -31 -130 -40 -182 -57 -335 -8 -67 -8 -316 0 -390
54 -525 356 -648 822 -335 95 65 120 86 238 205 152 153 254 298 275 391 8 34
8 35 -13 21 -95 -62 -344 -206 -403 -233 -78 -35 -206 -78 -269 -89 -87 -16
-150 0 -193 50 -47 53 -55 92 -48 234 8 168 14 206 72 451 68 294 235 765 395
1117 10 24 19 45 19 47 0 2 20 48 45 103 26 54 63 134 83 178 102 222 387 782
503 987 27 49 49 90 49 93 0 3 10 22 23 43 13 20 41 69 62 107 53 97 250 440
319 554 31 51 56 95 56 97 0 2 13 22 29 46 15 24 39 62 52 85 22 39 118 196
421 684 112 180 182 309 206 377 6 17 9 32 7 32 -3 0 -24 -19 -47 -43z"/>
<path d="M4384 5571 c-36 -64 -81 -138 -99 -166 -17 -27 -56 -90 -86 -138 -30
-48 -65 -105 -79 -127 -14 -22 -52 -83 -84 -137 -33 -54 -66 -108 -73 -119
-13 -20 -9 -26 46 -82 99 -99 208 -136 324 -110 23 5 83 27 132 49 50 21 101
39 115 39 14 0 60 -11 103 -25 130 -42 257 -29 346 34 l30 22 75 -108 c66 -94
225 -391 240 -448 6 -22 8 -22 -130 -25 -81 -2 -107 4 -294 68 -206 69 -315
69 -459 -1 -208 -101 -382 -411 -377 -670 1 -68 7 -93 28 -137 42 -85 118
-156 243 -226 11 -6 47 -27 80 -46 33 -19 101 -51 150 -72 160 -66 187 -80
202 -102 19 -30 18 -135 -2 -216 -16 -62 -19 -67 -49 -72 -84 -16 -253 -119
-329 -201 -78 -83 -149 -220 -173 -335 -19 -89 -14 -242 11 -335 18 -65 80
-201 101 -223 8 -7 14 -17 14 -21 0 -12 -183 -95 -286 -129 -85 -28 -190 -58
-239 -68 -11 -2 -31 -6 -45 -9 -24 -5 -48 -9 -115 -20 -55 -9 -199 -18 -290
-18 -233 -1 -461 37 -690 115 -68 22 -289 123 -366 165 -10 6 -99 -263 -99
-297 0 -18 233 -125 381 -175 114 -38 224 -66 356 -91 104 -20 234 -29 423
-29 215 0 272 5 436 35 236 42 465 122 685 237 l128 67 68 -21 c37 -12 88 -25
113 -28 49 -8 183 -8 215 -1 85 18 131 34 203 68 71 35 85 38 99 27 9 -8 107
-104 217 -214 111 -111 213 -207 228 -214 17 -9 44 -12 73 -9 92 11 145 100
105 177 -10 20 -115 132 -234 250 l-215 214 29 56 c79 155 106 294 85 446 -7
51 -37 149 -60 195 -16 32 -12 53 23 131 16 35 37 84 46 109 10 25 22 54 27
65 14 35 58 182 74 252 50 210 60 306 59 578 0 211 -4 270 -22 375 -29 166
-31 176 -41 202 -5 13 -9 25 -9 28 -1 32 -63 218 -110 330 -213 505 -603 930
-1099 1198 l-92 50 -67 -117z m668 -3066 c74 -17 177 -80 234 -143 68 -76 105
-173 105 -281 0 -97 -6 -122 -40 -197 -34 -72 -126 -168 -192 -201 -108 -52
-242 -64 -344 -28 -183 64 -307 245 -299 436 12 271 272 472 536 414z"/>
<path d="M3287 3723 c-235 -430 -486 -933 -635 -1273 -136 -309 -164 -384
-163 -437 0 -29 4 -60 9 -70 5 -10 19 -39 31 -65 53 -109 176 -192 286 -191
167 1 294 140 321 352 3 25 7 57 9 70 2 13 7 44 11 68 4 28 13 47 23 50 43 14
159 75 182 95 69 61 95 152 74 253 -17 84 -16 140 3 171 11 17 98 98 194 180
240 206 260 228 288 332 12 46 14 147 5 197 -24 120 -162 282 -297 348 -79 39
-151 57 -223 57 l-43 0 -75 -137z"/>
</g>
</svg>
