<?xml version="1.0" encoding="UTF-8"?>
<svg id="Layer_1" data-name="Layer 1" xmlns="http://www.w3.org/2000/svg" xmlns:xlink="http://www.w3.org/1999/xlink" viewBox="0 0 32.5 32.5">
  <defs>
    <style>
      .cls-1 {
        clip-path: url(#clippath);
      }

      .cls-2 {
        fill: none;
      }

      .cls-3 {
        fill: #9bc329;
      }
    </style>
    <clipPath id="clippath">
      <rect class="cls-2" x=".25" y=".04" width="37.49" height="28.92"/>
    </clipPath>
  </defs>
  <g class="cls-1">
    <g id="Group_6789-2" data-name="Group 6789-2">
      <path id="Path_13329" data-name="Path 13329" class="cls-3" d="m16.62,17.12c1,.1,1.97.4,2.85.9,2.15,1.13,3.63,3.23,3.95,5.65.11.69.11,1.4,0,2.09-.15,1.33-1.1,2.44-2.4,2.79-.77.25-1.57.38-2.38.38-4.12.02-8.24.03-12.36.02-.9-.02-1.8-.08-2.69-.2-.56-.07-1.09-.24-1.58-.52-1.01-.54-1.67-1.57-1.73-2.72-.26-2.37.62-4.72,2.37-6.33,1.2-1.15,2.74-1.86,4.39-2.04.05,0,.16.05.17.09.18.84.79,1.52,1.6,1.8,1.21.54,2.55.74,3.87.59.76-.06,1.5-.25,2.19-.54.55-.21,1.01-.58,1.34-1.07.15-.28.29-.57.4-.87"/>
      <path id="Path_13330" data-name="Path 13330" class="cls-3" d="m4.42,4.42c-.07.13-.03.29.1.36.31.22.31.47.05.73-.06.07-.1.16-.1.25.05.85.12,1.7.18,2.54.04.53.06,1.07.12,1.6.04.66-.1,1.32-.39,1.91,0,.02-.03.03-.07.06-.04-.06-.08-.13-.11-.19-.29-.69-.4-1.44-.31-2.18.12-1.13.17-2.27.26-3.4,0-.07,0-.14.01-.21.06-.16,0-.33-.14-.43-.17-.14-.2-.39-.07-.56.03-.03.06-.06.09-.09.04-.04.09-.06.14-.1.21-.18.2-.34-.05-.46-.2-.08-.39-.18-.57-.29-.14-.07-.21-.24-.14-.38.03-.06.08-.11.14-.14.11-.07.23-.14.36-.19,2.11-.91,4.22-1.82,6.33-2.74.21-.09.42-.19.63-.28.66-.29,1.42-.28,2.07.03,1.37.61,2.75,1.19,4.13,1.78.96.41,1.91.84,2.86,1.26.19.08.42.17.41.41s-.23.31-.41.39c-.74.32-1.48.65-2.22.96-.15.04-.24.19-.22.34,0,.58-.01,1.16,0,1.74.02.34.07.68.14,1.01.09.59.11,1.18.05,1.77-.08,1.34-.39,2.65-.91,3.88-.45,1.1-1.16,2.08-2.08,2.85-1.18,1.08-2.88,1.39-4.37.78-1.1-.46-2.03-1.25-2.65-2.26-.82-1.26-1.35-2.69-1.54-4.19-.15-.79-.19-1.59-.13-2.39,0-.11.02-.23.05-.34.19-.98.24-1.97.16-2.96,0-.07-.03-.13-.09-.17-.55-.26-1.1-.5-1.66-.75-.02,0-.04,0-.07,0m2.42,5.96l-.06.04c.08.47.14.94.25,1.4.28,1.38.94,2.65,1.9,3.69,1.39,1.63,3.85,1.82,5.48.43.19-.16.37-.34.52-.54,1.04-1.19,1.7-2.65,1.92-4.21.04-.26.07-.51.11-.83l-.76.37c.03-.85.06-1.69.09-2.59-.15.05-.23.07-.31.11-1.01.44-2.03.88-3.04,1.32-.63.3-1.36.31-1.99.03-1.06-.46-2.12-.91-3.19-1.36-.07-.03-.15-.05-.28-.09.03.89.06,1.74.08,2.58l-.71-.34"/>
      <path id="Path_13331" data-name="Path 13331" class="cls-3" d="m24.75,25.76c.3-2.93-.81-5.82-3-7.79.8-.67,1.75-1.14,2.77-1.35.01,0,.03,0,.04,0,.15-.03.32-.11.43-.06.09.04.11.25.16.38.21.46.59.82,1.05,1.02.92.44,1.94.63,2.96.53.63-.04,1.25-.18,1.83-.42.41-.15.77-.42,1.04-.76.12-.18.21-.39.26-.6.04-.14.09-.16.22-.15,2.94.39,5.15,2.86,5.23,5.82.02.5-.05,1-.21,1.48-.26.72-.84,1.28-1.56,1.51-.6.22-1.23.33-1.87.34-1.76.03-3.52.04-5.28.05-1.32,0-2.63,0-3.95,0-.04,0-.07,0-.14,0"/>
      <path id="Path_13332" data-name="Path 13332" class="cls-3" d="m24.1,10.47c.05-.41.11-.73.13-1.05.04-.68.07-1.37.09-2.05,0-.06-.08-.15-.14-.17-.54-.25-1.08-.48-1.62-.72-.1-.04-.19-.09-.28-.15-.21-.14-.21-.32.01-.45.16-.09.33-.17.5-.24,1.45-.62,2.9-1.24,4.35-1.86.26-.11.51-.22.76-.34.55-.25,1.18-.24,1.72.02,1.53.67,3.07,1.35,4.61,2.02.26.11.54.2.79.33.12.06.29.21.28.3-.05.14-.15.26-.29.32-.55.25-1.11.49-1.67.72-.16.05-.27.21-.26.38-.03.9.16,1.78.17,2.66.17,2.19-.62,4.34-2.18,5.89-1.31,1.3-3.41,1.3-4.72,0-1.03-.98-1.72-2.27-1.97-3.68-.14-.66-.19-1.34-.27-1.93m.67.81c0,.09,0,.18,0,.26.05.29.09.58.15.86.23,1.14.79,2.19,1.62,3.01.66.69,1.61,1.03,2.55.9.83-.14,1.57-.58,2.09-1.25.78-.97,1.27-2.13,1.41-3.37.02-.12.02-.24.04-.42l-.6.28c.1-.66.11-1.34.03-2-.11.04-.21.08-.31.12-.76.33-1.51.67-2.27,1-.44.21-.95.23-1.4.05-.81-.33-1.62-.68-2.43-1.02l-.34-.14c-.08.66-.06,1.33.04,1.99l-.59-.27"/>
      <path id="Path_13333" data-name="Path 13333" class="cls-3" d="m22.78,12.43c-.2-.38-.3-.8-.31-1.22.04-.75.1-1.5.15-2.24.03-.43.07-.85.1-1.28,0-.05-.02-.11-.05-.15-.24-.28-.23-.37.03-.62l.12-.11c.1.09.2.18.28.28.09.09.09.23,0,.32,0,0-.02.02-.03.02-.11.09-.15.23-.13.36.06.89.12,1.78.2,2.67.1.61.03,1.23-.2,1.8-.03.06-.06.12-.09.17h-.07"/>
    </g>
  </g>
</svg>