<?xml version="1.0" encoding="UTF-8"?>
<svg id="Layer_1" data-name="Layer 1" xmlns="http://www.w3.org/2000/svg" xmlns:xlink="http://www.w3.org/1999/xlink" viewBox="0 0 49.88 57.06">
  <defs>
    <style>
      .cls-1 {
        fill: url(#linear-gradient-2);
      }

      .cls-2 {
        fill: #fff;
      }

      .cls-3 {
        filter: url(#drop-shadow-8);
      }

      .cls-4 {
        fill: url(#linear-gradient-3);
      }

      .cls-5 {
        fill: url(#linear-gradient);
      }
    </style>
    <filter id="drop-shadow-8" filterUnits="userSpaceOnUse">
      <feOffset dx="2" dy="2"/>
      <feGaussianBlur result="blur" stdDeviation="5"/>
      <feFlood flood-color="#000" flood-opacity=".5"/>
      <feComposite in2="blur" operator="in"/>
      <feComposite in="SourceGraphic"/>
    </filter>
    <linearGradient id="linear-gradient" x1="-2886.54" y1="3243.31" x2="-2886.54" y2="3242.31" gradientTransform="translate(78641.24 114708.05) scale(27.24 -35.36)" gradientUnits="userSpaceOnUse">
      <stop offset="0" stop-color="#f6d166"/>
      <stop offset="1" stop-color="#fe9f84"/>
    </linearGradient>
    <linearGradient id="linear-gradient-2" x1="-2848.25" y1="3407.92" x2="-2848.25" y2="3406.92" gradientTransform="translate(55620.12 33974.36) scale(19.52 -9.97)" gradientUnits="userSpaceOnUse">
      <stop offset="0" stop-color="#598cdf"/>
      <stop offset="1" stop-color="#badef2"/>
    </linearGradient>
    <linearGradient id="linear-gradient-3" x1="-2848.25" y1="3407.91" x2="-2848.25" y2="3406.91" gradientTransform="translate(55633.14 34006.66) scale(19.52 -9.97)" xlink:href="#linear-gradient-2"/>
  </defs>
  <g id="Group_6518" data-name="Group 6518" class="cls-3">
    <path id="Path_13145-2" data-name="Path 13145-2" class="cls-2" d="m21.55,47.98c-1.44,0-2.73-.88-3.25-2.22v-.03c-.48-1.19-.25-2.54.57-3.51l-1.19-3.06c-1.44-3.7-.57-7.9,2.21-10.74.03-.03.05-.06.07-.09.24-.54.1-1.17-.35-1.56-.03-.01-.07-.02-.1-.02-4.07-.09-7.69-2.63-9.16-6.42l-1.27-3.27c-1.26-.16-2.34-1-2.8-2.19v-.03c-.71-1.79.17-3.82,1.97-4.52,0,0,0,0,0,0l15.68-6.11c1.79-.7,3.82.19,4.52,1.98,0,0,0,0,0,0v.03c.47,1.19.25,2.53-.57,3.51l1.27,3.27c1.48,3.79.54,8.11-2.4,10.93-.03.02-.05.05-.06.09-.06.59.26,1.14.8,1.38.04.01.07.02.11.02,3.96.21,7.44,2.72,8.89,6.41l1.19,3.06c1.26.16,2.34,1,2.8,2.19v.03c.71,1.79-.18,3.82-1.97,4.52,0,0,0,0,0,0l-15.68,6.11c-.4.16-.83.24-1.27.24"/>
    <path id="Path_13146-2" data-name="Path 13146-2" class="cls-5" d="m9.79,14.59l2.02,5.18c1.25,3.2,4.3,5.34,7.73,5.42.4,0,.79.15,1.1.41.96.84,1.27,2.21.75,3.38-.09.21-.23.4-.39.56-2.35,2.39-3.08,5.94-1.86,9.06l2.02,5.18,15.86-6.18-2.02-5.18c-1.22-3.12-4.15-5.24-7.5-5.41-.23,0-.45-.06-.66-.15-1.17-.51-1.87-1.73-1.73-3,.05-.4.24-.77.53-1.04,2.47-2.38,3.27-6.02,2.03-9.22l-2.02-5.17-15.86,6.17Z"/>
    <path id="Path_13147" data-name="Path 13147" class="cls-1" d="m25.9,9.28l-15.68,6.11c-.98.38-2.09-.1-2.48-1.09h0s-.01-.03-.01-.03c-.38-.98.1-2.09,1.09-2.48h0s15.68-6.11,15.68-6.11c.98-.38,2.09.1,2.48,1.09v.03c.39.98-.09,2.09-1.08,2.48"/>
    <path id="Path_13148" data-name="Path 13148" class="cls-4" d="m37.93,40.17l-15.68,6.11c-.98.38-2.09-.1-2.48-1.09h0s-.01-.03-.01-.03c-.38-.98.1-2.09,1.09-2.48h0l15.68-6.11c.98-.38,2.09.1,2.48,1.09h0s.01.03.01.03c.38.98-.1,2.09-1.09,2.48h0"/>
  </g>
</svg>