<svg id="Capa_1" enable-background="new 0 0 512 512" viewBox="0 0 512 512" xmlns="http://www.w3.org/2000/svg"><g><path d="m456.504 508.231-20.7 3.769h-386.984c-11.379 0-20.604-9.225-20.604-20.604v-470.792c.001-11.379 9.225-20.604 20.604-20.604h386.984l19.537 4.243c11.379 0 20.604 9.225 20.604 20.604l1.163 462.781c0 11.379-9.225 20.603-20.604 20.603z" fill="#73737f"/><path d="m483.783 20.604v470.793c0 11.384-9.22 20.604-20.604 20.604h-34.398c11.384 0 20.604-9.22 20.604-20.604v-40.225l-8.734-17.065 8.734-10.859v-112.364l-29.871-4.374 29.871-45.376v-240.53c.001-11.384-9.219-20.604-20.603-20.604h34.398c11.383 0 20.603 9.22 20.603 20.604z" fill="#626272"/><g><path d="m373.451 96.58v48.748c0 4.646-3.771 8.417-8.427 8.417h-41.516l-16.464-32.793 16.464-32.798h41.516c4.657-.001 8.427 3.769 8.427 8.426z" fill="#dff8ff"/><path d="m323.508 88.153v65.592h-116.648c-4.656 0-8.427-3.771-8.427-8.417v-48.748c0-4.656 3.77-8.427 8.427-8.427z" fill="#89efb7"/><path d="m159.256 143.154v8.923c0 1.141-.928 2.065-2.069 2.06l-88.699-.384c-1.134-.005-2.051-.926-2.051-2.06v-8.139c0-3.913.948-7.808 2.997-11.141 2.793-4.543 7.145-7.801 12.167-9.182l11.971-3.307c8.283 15.308 30.267 15.308 38.549 0l11.971 3.307c3.41.937 6.511 2.74 9.024 5.223 1.968 1.937 3.503 4.234 4.543 6.737 1.051 2.493 1.597 5.202 1.597 7.963z" fill="#f8feff"/><path d="m132.121 119.923c-8.283 15.308-30.267 15.308-38.549 0l3.348-.927c1.793-.494 3.039-2.122 3.039-3.976v-23.756h25.785v23.756c0 1.854 1.236 3.482 3.029 3.976z" fill="#e89d6b"/><path d="m100.23 101.087 3.529 2.003c5.636 3.199 12.539 3.199 18.175 0l3.529-2.003c9.682-5.497 15.665-15.772 15.665-26.905v-10.15c0-11.116-6.521-21.197-16.659-25.755-7.391-3.323-15.852-3.323-23.243 0-10.138 4.558-16.659 14.64-16.659 25.755v10.15c-.002 11.133 5.981 21.408 15.663 26.905z" fill="#f2ac7c"/></g><g><path d="m373.451 253.719v48.748c0 4.646-3.771 8.417-8.427 8.417h-73.233l-16.464-32.793 16.464-32.798h73.233c4.657-.001 8.427 3.77 8.427 8.426z" fill="#dff8ff"/><path d="m291.791 245.292v65.592h-84.93c-4.656 0-8.427-3.771-8.427-8.417v-48.748c0-4.656 3.77-8.427 8.427-8.427z" fill="#fee45a"/><path d="m159.256 300.294v8.923c0 1.141-.928 2.065-2.069 2.06l-88.699-.384c-1.134-.005-2.051-.926-2.051-2.06v-8.139c0-3.913.948-7.808 2.997-11.141 2.793-4.543 7.145-7.801 12.167-9.182l11.971-3.307c8.283 15.308 30.267 15.308 38.549 0l11.971 3.307c3.41.937 6.511 2.74 9.024 5.223 1.968 1.937 3.503 4.234 4.543 6.737 1.051 2.492 1.597 5.202 1.597 7.963z" fill="#f8feff"/><path d="m132.121 277.063c-8.283 15.308-30.267 15.308-38.549 0l3.348-.927c1.793-.494 3.039-2.122 3.039-3.977v-23.756h25.785v23.756c0 1.854 1.236 3.482 3.029 3.977z" fill="#ffcdab"/><path d="m100.23 258.227 3.529 2.003c5.636 3.199 12.539 3.199 18.175 0l3.529-2.003c9.682-5.497 15.665-15.772 15.665-26.905v-10.15c0-11.116-6.521-21.197-16.659-25.755-7.391-3.323-15.852-3.323-23.243 0-10.138 4.558-16.659 14.64-16.659 25.755v10.15c-.002 11.133 5.981 21.408 15.663 26.905z" fill="#ffdec5"/></g><g><path d="m373.451 411.256v48.748c0 4.646-3.771 8.417-8.427 8.417h-103.448l-16.464-32.793 16.464-32.798h103.448c4.657-.001 8.427 3.77 8.427 8.426z" fill="#dff8ff"/><path d="m261.576 402.829v65.592h-54.716c-4.656 0-8.427-3.771-8.427-8.417v-48.748c0-4.656 3.77-8.427 8.427-8.427z" fill="#fd8087"/><path d="m159.256 457.831v8.923c0 1.141-.928 2.065-2.069 2.06l-88.699-.384c-1.134-.005-2.051-.926-2.051-2.06v-8.139c0-3.913.948-7.808 2.997-11.141 2.793-4.543 7.145-7.801 12.167-9.182l11.971-3.307c8.283 15.308 30.267 15.308 38.549 0l11.971 3.307c3.41.937 6.511 2.74 9.024 5.223 1.968 1.937 3.503 4.234 4.543 6.737 1.051 2.492 1.597 5.202 1.597 7.963z" fill="#f8feff"/><path d="m132.121 434.6c-8.283 15.308-30.267 15.308-38.549 0l3.348-.927c1.793-.494 3.039-2.122 3.039-3.977v-23.756h25.785v23.756c0 1.854 1.236 3.482 3.029 3.977z" fill="#cc795c"/><path d="m100.23 415.764 3.529 2.003c5.636 3.199 12.539 3.199 18.175 0l3.529-2.003c9.682-5.497 15.665-15.772 15.665-26.905v-10.15c0-11.116-6.521-21.197-16.659-25.755-7.391-3.323-15.852-3.323-23.243 0-10.138 4.558-16.659 14.64-16.659 25.755v10.15c-.002 11.133 5.981 21.408 15.663 26.905z" fill="#db8d65"/></g><g fill="#626272"><path d="m373.448 61.487h-80.55c-4.268 0-7.726-3.459-7.726-7.726s3.459-7.726 7.726-7.726h80.55c4.268 0 7.726 3.459 7.726 7.726s-3.459 7.726-7.726 7.726z"/><path d="m258.617 61.487h-60.179c-4.267 0-7.726-3.459-7.726-7.726s3.459-7.726 7.726-7.726h60.179c4.268 0 7.726 3.459 7.726 7.726s-3.459 7.726-7.726 7.726z"/><path d="m373.448 218.627h-39.668c-4.268 0-7.726-3.459-7.726-7.726s3.459-7.726 7.726-7.726h39.668c4.268 0 7.726 3.459 7.726 7.726s-3.459 7.726-7.726 7.726z"/><path d="m299.499 218.627h-101.061c-4.267 0-7.726-3.459-7.726-7.726s3.459-7.726 7.726-7.726h101.061c4.268 0 7.726 3.459 7.726 7.726s-3.458 7.726-7.726 7.726z"/><path d="m373.448 376.163h-39.668c-4.268 0-7.726-3.459-7.726-7.726s3.459-7.726 7.726-7.726h39.668c4.268 0 7.726 3.459 7.726 7.726s-3.459 7.726-7.726 7.726z"/><path d="m299.499 376.163h-101.061c-4.267 0-7.726-3.459-7.726-7.726s3.459-7.726 7.726-7.726h101.061c4.268 0 7.726 3.459 7.726 7.726s-3.458 7.726-7.726 7.726z"/></g><g fill="#f8feff"><path d="m410.246 95.883h6.293v57.862c0 4.267 3.459 7.726 7.726 7.726s7.726-3.459 7.726-7.726v-65.588c0-4.267-3.459-7.726-7.726-7.726h-14.019c-4.268 0-7.726 3.459-7.726 7.726s3.458 7.726 7.726 7.726z"/><path d="m407.459 266.387c4.196.825 8.249-1.906 9.07-6.093.805-4.099 4.43-7.073 8.62-7.073 4.447 0 8.06 2.891 8.593 6.875.522 3.908-1.023 7.09-5.639 14.051l-22.904 32.484c-1.663 2.358-1.872 5.447-.544 8.009s3.974 4.17 6.859 4.17h32.881c4.268 0 7.726-3.459 7.726-7.726s-3.459-7.726-7.726-7.726h-17.98l14.381-20.395c.041-.059.082-.12.123-.18 5.398-8.134 9.425-15.121 8.139-24.733-1.544-11.562-11.822-20.281-23.908-20.281-11.556 0-21.558 8.221-23.783 19.548-.823 4.187 1.905 8.248 6.092 9.07z"/><path d="m427.163 395.107c-11.739 0-21.014 7.56-23.63 19.26-.931 4.164 1.69 8.295 5.854 9.226 4.168.93 8.296-1.691 9.226-5.855 1.02-4.562 4.136-7.178 8.549-7.178 4.782 0 8.671 3.889 8.671 8.671s-3.889 8.671-8.671 8.671c-4.268 0-7.726 3.459-7.726 7.726s3.459 7.726 7.726 7.726c4.782 0 8.671 3.89 8.671 8.671s-3.889 8.671-8.71 8.671c-.014 0-.029 0-.043 0-2.257 0-4.399-.902-6.039-2.545-1.659-1.662-2.564-3.819-2.549-6.074.028-4.267-3.407-7.75-7.675-7.778-.017 0-.035 0-.052 0-4.242 0-7.697 3.426-7.725 7.675-.042 6.324 2.533 12.556 7.066 17.096 4.561 4.568 10.585 7.08 16.935 7.08.04 0 .082-.001.123-.001 13.302 0 24.124-10.822 24.124-24.124 0-6.327-2.452-12.09-6.451-16.397 3.999-4.307 6.451-10.07 6.451-16.397-.001-13.303-10.823-24.124-24.125-24.124z"/></g></g><g/><g/><g/><g/><g/><g/><g/><g/><g/><g/><g/><g/><g/><g/><g/></svg>