<svg id="Capa_1" enable-background="new 0 0 512 512" height="512" viewBox="0 0 512 512" width="512" xmlns="http://www.w3.org/2000/svg"><g><circle cx="256" cy="108.236" fill="#eb5569" r="108.236"/><circle cx="256" cy="108.236" fill="#fdd1d5" r="80.647"/><path d="m76.165 416.9h24.906v82.647h-24.906z" fill="#5a5a5a"/><path d="m34.655 499.547c0-6.878 5.575-12.453 12.453-12.453h83.021c6.878 0 12.453 5.575 12.453 12.453 0 6.878-5.575 12.453-12.453 12.453h-83.021c-6.878 0-12.453-5.575-12.453-12.453z" fill="#838383"/><path d="m243.547 416.9h24.906v82.647h-24.906z" fill="#5a5a5a"/><path d="m202.037 499.547c0-6.878 5.575-12.453 12.453-12.453h83.021c6.878 0 12.453 5.575 12.453 12.453 0 6.878-5.575 12.453-12.453 12.453h-83.021c-6.878 0-12.453-5.575-12.453-12.453z" fill="#838383"/><path d="m410.929 416.9h24.906v82.647h-24.906z" fill="#5a5a5a"/><path d="m369.418 499.547c0-6.878 5.575-12.453 12.453-12.453h83.021c6.878 0 12.453 5.575 12.453 12.453 0 6.878-5.575 12.453-12.453 12.453h-83.021c-6.877 0-12.453-5.575-12.453-12.453z" fill="#838383"/><path d="m76.165 423.908h24.906v38.548h-24.906z" fill="#444"/><path d="m243.547 423.908h24.906v38.548h-24.906z" fill="#444"/><path d="m410.929 423.908h24.906v38.548h-24.906z" fill="#444"/><path d="m158.868 397.626h-140.499v-89.524c0-28.153 22.822-50.975 50.975-50.975h38.548c28.153 0 50.975 22.822 50.975 50.975v89.524z" fill="#08a9f1"/><path d="m4.928 428.566v-23.332c0-4.202 3.406-7.608 7.608-7.608h152.165c4.202 0 7.608 3.406 7.608 7.608v23.332c0 4.202-3.406 7.608-7.608 7.608h-152.165c-4.202.001-7.608-3.406-7.608-7.608z" fill="#01c0fa"/><path d="m326.25 397.626h-140.5v-89.524c0-28.153 22.822-50.975 50.975-50.975h38.549c28.153 0 50.975 22.822 50.975 50.975v89.524z" fill="#08a9f1"/><path d="m172.309 428.566v-23.332c0-4.202 3.406-7.608 7.608-7.608h152.165c4.202 0 7.608 3.406 7.608 7.608v23.332c0 4.202-3.406 7.608-7.608 7.608h-152.165c-4.201.001-7.608-3.406-7.608-7.608z" fill="#01c0fa"/><path d="m493.631 397.626h-140.499v-89.524c0-28.153 22.822-50.975 50.975-50.975h38.548c28.153 0 50.975 22.822 50.975 50.975v89.524z" fill="#08a9f1"/><path d="m339.691 428.566v-23.332c0-4.202 3.406-7.608 7.608-7.608h152.165c4.202 0 7.608 3.406 7.608 7.608v23.332c0 4.202-3.406 7.608-7.608 7.608h-152.165c-4.202.001-7.608-3.406-7.608-7.608z" fill="#01c0fa"/><path d="m256 0c-4.672 0-9.277.298-13.795.875 53.192 6.796 94.442 52.352 94.442 107.361s-41.25 100.565-94.442 107.361c4.518.577 9.122.875 13.795.875 59.682 0 108.236-48.554 108.236-108.236s-48.554-108.236-108.236-108.236z" fill="#e53950"/><path d="m107.893 257.127h-32.123c28.153 0 50.975 22.822 50.975 50.975v89.524h32.122v-89.524c.001-28.153-22.821-50.975-50.974-50.975z" fill="#0290cf"/><path d="m275.274 257.127h-32.122c28.153 0 50.975 22.822 50.975 50.975v89.524h32.122v-89.524c.001-28.153-22.822-50.975-50.975-50.975z" fill="#0290cf"/><path d="m442.656 257.127h-32.122c28.153 0 50.975 22.822 50.975 50.975v89.524h32.122v-89.524c0-28.153-22.822-50.975-50.975-50.975z" fill="#0290cf"/><path d="m164.701 397.626h-32.122c4.202 0 7.608 3.406 7.608 7.608v23.332c0 4.202-3.406 7.608-7.608 7.608h32.122c4.202 0 7.608-3.406 7.608-7.608v-23.332c0-4.202-3.406-7.608-7.608-7.608z" fill="#08a9f1"/><path d="m332.082 397.626h-32.122c4.202 0 7.608 3.406 7.608 7.608v23.332c0 4.202-3.406 7.608-7.608 7.608h32.122c4.202 0 7.608-3.406 7.608-7.608v-23.332c.001-4.202-3.406-7.608-7.608-7.608z" fill="#08a9f1"/><path d="m499.464 397.626h-32.122c4.202 0 7.608 3.406 7.608 7.608v23.332c0 4.202-3.406 7.608-7.608 7.608h32.122c4.202 0 7.608-3.406 7.608-7.608v-23.332c0-4.202-3.406-7.608-7.608-7.608z" fill="#08a9f1"/><g><path d="m287.869 115.963h-31.869c-4.268 0-7.726-3.459-7.726-7.726v-41.336c0-4.268 3.459-7.726 7.726-7.726s7.726 3.459 7.726 7.726v33.609h24.143c4.268 0 7.726 3.459 7.726 7.726.001 4.268-3.458 7.727-7.726 7.727z" fill="#384949"/></g><g fill="#eef5f6"><path d="m175.702 115.597c.005 0 .01.001.015.001h14.56c4.268 0 7.726-3.459 7.726-7.726 0-4.268-3.459-7.726-7.726-7.726h-14.52c-.265 2.661-.405 5.36-.405 8.091.001 2.482.13 4.934.35 7.36z"/><path d="m256 165.867c-4.268 0-7.726 3.459-7.726 7.726v14.56c0 .119.013.236.018.354 2.538.241 5.107.376 7.708.376s5.17-.135 7.708-.376c.005-.118.018-.234.018-.354v-14.56c0-4.267-3.458-7.726-7.726-7.726z"/><path d="m321.722 100.145c-4.268 0-7.726 3.459-7.726 7.726 0 4.268 3.459 7.726 7.726 7.726h14.56c.005 0 .01-.001.015-.001.22-2.426.349-4.878.349-7.361 0-2.731-.14-5.43-.405-8.091h-14.519z"/><path d="m256 27.589c-2.628 0-5.224.136-7.788.382v14.266c0 4.268 3.459 7.726 7.726 7.726s7.726-3.459 7.726-7.726v-14.276c-2.523-.238-5.078-.372-7.664-.372z"/></g></g></svg>