<svg id="Layer_1" data-name="Layer 1" xmlns="http://www.w3.org/2000/svg" viewBox="0 0 500 250"><defs><style>.cls-1{fill:none;stroke:#ee7922;stroke-miterlimit:10;stroke-width:2.86px;}.cls-2{fill:#ee7922;}.cls-3,.cls-4{fill:#fff;}.cls-4{font-size:18.74px;font-family:Poppins-SemiBold, Poppins;font-weight:600;letter-spacing:0.05em;}</style></defs><line class="cls-1" x1="143.65" y1="143.66" x2="435.14" y2="143.66"/><path class="cls-2" d="M105.74,59.5c1.05-1.57,2-3.65,4.18-3.65,1.56,2.08,0,4.17-1,5.74a.52.52,0,0,0,.48.52h.05c.52,0,1,0,1,.53a3.11,3.11,0,0,1-.52,2.08,1.88,1.88,0,0,1,1.56.53c0,1-.52,1.57,0,2.61s1,1.57.53,2.61c0,.53-1,.53-1,0-1.57-1.57-2.61-3.13-4.17-4.7-1,1-1.57,2.09-2.62,3.13-.52,1,.53,2.61,0,3.66-1.56,0-1.56-2.09-2.61-2.61a10.39,10.39,0,0,1-3.65-.53c.53-1.57,2.61-1,3.65-2a8.11,8.11,0,0,0,2.09-3.65c-2.61-1.57-5.21-1.57-7.25-2.62,0-.52.52-1,.52-1.56h2.61c.53-.53.53-1,1-1h.53a1.66,1.66,0,0,0,.53,1c.52,0,1-.53,1.57-1h.52c0,.53.53.53.53,1l1.52,0Z"/><path class="cls-2" d="M94.31,79.27c1.57-1.57,3.13-3.66,4.7-5.22-1.05,3.13-3.13,6.21-4.7,8.83-8.82,14-17.16,28.58-24.94,43.1-5.22,10.38-9.87,20.77-13,31.68a52.2,52.2,0,0,0-2,13,3.32,3.32,0,0,0,3.44,3.22,3.56,3.56,0,0,0,.73-.09c5.17-.52,9.34-3.61,13.48-6.25,0,1.56-1,2.61-1.57,3.65a26.82,26.82,0,0,1-12.47,10.38c-2.61,1-5.74,1.57-8.29-1-2-2.09-2.62-5.21-3.13-8.3a33.6,33.6,0,0,1,1-12.46c2-9.31,5.74-17.6,9.87-25.95,9.86-19.2,22.85-37.41,36.89-54.53Z"/><path class="cls-3" d="M58.46,79.79a45.28,45.28,0,0,1,34.85-4.65,33.67,33.67,0,0,1-4.17,5.21,34.32,34.32,0,0,0-14.55,0c1,4.18,4.17,8.3,3.65,13,0,2.08-1.57,3.65-2.61,5.21-1.57,1.57-4.17,1-6.21,1.57-1.57.53-2.61,2.09-4.17,2.61-2.08,1-4.7-.52-6.74.53,3.13,2.61,7.78,2.61,11.43,3.65-4.17,6.74-8.82,14-12.47,20.77A27.09,27.09,0,0,1,53.82,123a24.81,24.81,0,0,1-.53-6.21,43.15,43.15,0,0,1-9.86-9.34,40,40,0,0,0,5.21,34.28c.53.53,1,1.57.53,2.09-.53,2-1.57,3.65-2,5.69A43.77,43.77,0,0,1,35.7,114.18C37.18,100.06,46,86.55,58.47,79.81Z"/><path class="cls-3" d="M91.18,93.3c3.13-5.21,6.74-10.38,9.34-15.59a44.62,44.62,0,0,1,20.77,19.77,46.93,46.93,0,0,1,1,41.58,2.36,2.36,0,0,0,.52,2.62c1.57,4.17.53,8.29-1.57,11.95l7.26,7.25c.52.53,1,1,1,1.57.53,1.57-1,3.13-2.61,3.13-1,0-1.57-.53-2.61-1.57l-6.74-6.74c-.52-.52-.52-1-1-.52-3.66,2-7.78,2.61-11.43,1-1-.53-1.56,0-2.61.52a44.67,44.67,0,0,1-44.15,0c.53-2,1.05-4.17,1.57-5.69a40.5,40.5,0,0,0,38.46,1c-1.57-3.13-2.61-8.82,0-13.51a11.69,11.69,0,0,1,8.82-6.78,8.59,8.59,0,0,0,.53-5.21c-.53-1-1.57-1-2.62-1.57a28.51,28.51,0,0,1-7.25-3.66,8.29,8.29,0,0,1-3.65-4.69,13.15,13.15,0,0,1,2.08-8.83,10.6,10.6,0,0,1,8.82-5.73c3.13,0,5.7,1.56,8.83,2.08,1.56.53,3.12,0,4.17,0a46,46,0,0,0-6.26-10.91,5.51,5.51,0,0,1-6.21,1.05c-1,0-2.61-1.05-3.65-.53-2.09,1-3.66,2.09-6.22,1.57-1.52-.56-3.08-2.09-4.65-3.66ZM108.35,138a8.28,8.28,0,0,0-6.26,7.78c0,3.12,1.57,6.21,4.7,7.25,3.13,1.57,7.25,1,9.34-1.57a9.92,9.92,0,0,0,2.61-6.74c-.53-4.12-5.7-7.78-10.38-6.73Z"/><path class="cls-3" d="M80.27,112.51c3.66-.53,7.26,1.57,9.34,4.69a8,8,0,0,1-.52,9.87c-2,2-4.7,4.17-6.74,6.25-1.57,1.57.53,4.18-.52,6.22-.53,2.61-3.13,3.65-5.22,4.17-.52,2.61-.52,5.21-1.57,7.25a5.13,5.13,0,0,1-6.73,2.61,6.3,6.3,0,0,1-4.17-6.78,209,209,0,0,1,16.12-34.28Z"/><path class="cls-3" d="M158.23,82.88v31.68a10.17,10.17,0,0,0,2.62,7.25,10,10,0,0,0,13.47,0,10.26,10.26,0,0,0,2.61-7.25V82.88h13v31.68a21.51,21.51,0,0,1-3.12,12,19.08,19.08,0,0,1-8.3,7.25,26.31,26.31,0,0,1-22.85,0,20.74,20.74,0,0,1-7.78-7.25,21.75,21.75,0,0,1-3.13-12V82.88h13.49Z"/><path class="cls-3" d="M247.09,136.41h-13l-21.82-32.73v32.73h-13V82.88h13l21.82,33.24V82.88h13v53.53Z"/><path class="cls-3" d="M269.43,82.88v53.53h-13V82.88Z"/><path class="cls-2" d="M317.23,108.34a16.19,16.19,0,0,1-6.74,6.25,24.38,24.38,0,0,1-10.91,2.61h-8.3v19.21h-13V82.88h21.29a24.62,24.62,0,0,1,10.91,2,15.36,15.36,0,0,1,6.74,6.25,17,17,0,0,1,2,8.82,15.25,15.25,0,0,1-2,8.35Zm-13-3.09a7,7,0,0,0,2.09-5.21,6,6,0,0,0-2.09-5.21c-1-1-3.13-1.57-5.74-1.57h-7.25v13.51h7.25c2.61,0,4.7-.53,5.74-1.53Z"/><path class="cls-2" d="M353.6,136.41l-10.9-20.25h-3.13v20.25h-13V82.88h21.82a24.62,24.62,0,0,1,10.91,2,15.47,15.47,0,0,1,8.77,14.55,14.44,14.44,0,0,1-3.12,9.34,17.66,17.66,0,0,1-8.83,5.74l12.47,21.29-15,.56h0ZM339,106.81h8.3c2.61,0,4.17-.52,5.21-1.57s1.57-2.61,1.57-5.21a6.41,6.41,0,0,0-1.57-4.7c-1-1-3.13-1.56-5.21-1.56H339v13Z"/><path class="cls-2" d="M388.93,93.3v10.91h17.64v9.87H388.93v12H408.7v10.38H375.94V82.88h32.72V93.26l-19.73,0Z"/><path class="cls-2" d="M455.41,108.34a16.13,16.13,0,0,1-6.74,6.25,24.38,24.38,0,0,1-10.91,2.61h-8.29v19.21h-13V82.88h21.29a24.62,24.62,0,0,1,10.91,2,15.36,15.36,0,0,1,6.74,6.25,16.92,16.92,0,0,1,2,8.82,14.91,14.91,0,0,1-2,8.35Zm-13-3.09a6.82,6.82,0,0,0,2-5.21,6.15,6.15,0,0,0-2-5.21c-1-1-3.13-1.57-5.74-1.57h-7.25v13.51h7.25c2.61,0,4.7-.53,5.74-1.53h0Z"/><text class="cls-4" transform="translate(174.04 167.25)">INSTITUTION CONNECT</text></svg>