<svg id="Layer_1" data-name="Layer 1" xmlns="http://www.w3.org/2000/svg" viewBox="0 0 500 250"><defs><style>.cls-1{fill:none;stroke:#ee7922;stroke-miterlimit:10;stroke-width:2.86px;}.cls-2{fill:#ee7922;}.cls-3,.cls-4{fill:#fff;}.cls-4{font-size:22.44px;font-family:Poppins-SemiBold, Poppins;font-weight:600;letter-spacing:0.06em;}</style></defs><line class="cls-1" x1="138.55" y1="148.39" x2="460.03" y2="148.39"/><path class="cls-2" d="M96.74,55.57c1.15-1.73,2.25-4,4.6-4,1.73,2.3,0,4.6-1.15,6.33a.58.58,0,0,0,.53.58h0c.58,0,1.15,0,1.15.58a3.42,3.42,0,0,1-.58,2.3,2.1,2.1,0,0,1,1.73.58c0,1.15-.58,1.73,0,2.88s1.15,1.73.58,2.88c0,.58-1.15.58-1.15,0-1.73-1.73-2.88-3.45-4.6-5.18-1.15,1.15-1.73,2.3-2.88,3.45-.58,1.15.58,2.88,0,4-1.73,0-1.73-2.3-2.88-2.88a11.35,11.35,0,0,1-4-.58c.58-1.73,2.88-1.15,4-2.25a8.93,8.93,0,0,0,2.3-4c-2.88-1.73-5.75-1.73-8-2.88,0-.58.58-1.15.58-1.73H89.9c.58-.58.58-1.15,1.15-1.15h.58a1.78,1.78,0,0,0,.58,1.15c.58,0,1.15-.58,1.73-1.15h.58c0,.58.58.58.58,1.15l1.68,0Z"/><path class="cls-2" d="M84.13,77.37c1.73-1.73,3.45-4,5.18-5.75-1.15,3.45-3.45,6.85-5.18,9.73C74.4,96.83,65.2,112.88,56.62,128.89c-5.75,11.45-10.88,22.91-14.33,34.94A57.41,57.41,0,0,0,40,178.16a3.66,3.66,0,0,0,3.79,3.55,4.38,4.38,0,0,0,.81-.1c5.7-.58,10.3-4,14.86-6.9,0,1.73-1.15,2.88-1.73,4A29.65,29.65,0,0,1,44,190.19c-2.88,1.15-6.33,1.73-9.15-1.15-2.25-2.3-2.88-5.75-3.45-9.15a37.13,37.13,0,0,1,1.15-13.75c2.25-10.26,6.33-19.41,10.88-28.61,10.88-21.18,25.21-41.26,40.69-60.15Z"/><path class="cls-3" d="M44.59,78A50,50,0,0,1,83,72.82a37.91,37.91,0,0,1-4.6,5.75,37.76,37.76,0,0,0-16.05,0c1.15,4.6,4.6,9.15,4,14.33,0,2.3-1.73,4-2.88,5.75-1.73,1.73-4.6,1.15-6.85,1.73-1.73.58-2.88,2.3-4.6,2.88-2.3,1.15-5.18-.58-7.43.58,3.45,2.88,8.58,2.88,12.6,4-4.6,7.43-9.73,15.48-13.75,22.91a30.13,30.13,0,0,1-4-5.18,27.56,27.56,0,0,1-.58-6.85A47.59,47.59,0,0,1,28,108.45a44.1,44.1,0,0,0,5.75,37.81c.58.58,1.15,1.73.58,2.3-.58,2.25-1.73,4-2.25,6.28a48.3,48.3,0,0,1-12.6-39C21.12,100.3,30.85,85.4,44.6,78Z"/><path class="cls-3" d="M80.68,92.85C84.13,87.1,88.11,81.4,91,75.65a49.27,49.27,0,0,1,22.91,21.81A51.77,51.77,0,0,1,115,143.32a2.6,2.6,0,0,0,.58,2.88c1.73,4.6.58,9.15-1.73,13.18l8,8c.58.58,1.15,1.15,1.15,1.73.58,1.73-1.15,3.45-2.88,3.45-1.15,0-1.73-.58-2.88-1.73l-7.43-7.43c-.58-.58-.58-1.15-1.15-.58-4,2.25-8.58,2.88-12.6,1.15-1.15-.58-1.73,0-2.88.58a49.27,49.27,0,0,1-48.69,0c.58-2.25,1.15-4.6,1.73-6.28a44.66,44.66,0,0,0,42.41,1.15c-1.73-3.45-2.88-9.73,0-14.9A12.92,12.92,0,0,1,98.4,137a9.46,9.46,0,0,0,.58-5.75c-.58-1.15-1.73-1.15-2.88-1.73-2.88-1.15-5.75-2.25-8-4a9.19,9.19,0,0,1-4-5.18,14.51,14.51,0,0,1,2.3-9.73c1.73-3.45,5.75-6.33,9.73-6.33,3.45,0,6.28,1.73,9.73,2.3,1.73.58,3.45,0,4.6,0a50.42,50.42,0,0,0-6.9-12,6.07,6.07,0,0,1-6.85,1.15c-1.15,0-2.88-1.15-4-.58-2.3,1.15-4,2.3-6.85,1.73-1.68-.62-3.4-2.3-5.13-4Zm18.93,49.27a9.14,9.14,0,0,0-6.9,8.58c0,3.45,1.73,6.85,5.18,8,3.45,1.73,8,1.15,10.3-1.73a10.89,10.89,0,0,0,2.88-7.43c-.58-4.55-6.28-8.58-11.45-7.43Z"/><path class="cls-3" d="M68.65,114c4-.58,8,1.73,10.3,5.18a8.75,8.75,0,0,1-.58,10.88c-2.25,2.25-5.18,4.6-7.43,6.9-1.73,1.73.58,4.6-.58,6.85-.58,2.88-3.45,4-5.75,4.6-.58,2.88-.58,5.75-1.73,8a5.67,5.67,0,0,1-7.43,2.88,7,7,0,0,1-4.6-7.48c4.6-13.18,10.93-25.78,17.78-37.81Z"/><path class="cls-3" d="M154.63,81.35v34.94a11.22,11.22,0,0,0,2.88,8,9.94,9.94,0,0,0,7.43,2.88,9.82,9.82,0,0,0,7.43-2.88,11.32,11.32,0,0,0,2.88-8V81.35h14.33v34.94c0,5.18-1.15,9.73-3.45,13.18a21,21,0,0,1-9.15,8,29,29,0,0,1-25.2,0,22.87,22.87,0,0,1-8.58-8,24,24,0,0,1-3.45-13.18V81.35h14.88Z"/><path class="cls-3" d="M252.63,140.39H238.3L214.24,104.3v36.09H199.91v-59h14.33L238.3,118V81.35h14.33v59Z"/><path class="cls-3" d="M277.27,81.35v59H262.94v-59Z"/><path class="cls-2" d="M330,109.43a17.79,17.79,0,0,1-7.43,6.9,26.94,26.94,0,0,1-12,2.88h-9.15v21.18H287v-59h23.48c4.6,0,8.58.58,12,2.25A17,17,0,0,1,330,90.5a18.66,18.66,0,0,1,2.25,9.73,16.78,16.78,0,0,1-2.25,9.2ZM315.65,106a7.77,7.77,0,0,0,2.3-5.75c0-2.88-.58-4-2.3-5.75-1.15-1.15-3.45-1.73-6.33-1.73h-8v14.9h8c2.88,0,5.18-.58,6.33-1.68Z"/><path class="cls-2" d="M370.1,140.39l-12-22.33h-3.45v22.33H340.29v-59h24.06c4.6,0,8.58.58,12,2.25a17,17,0,0,1,7.43,6.9,16.74,16.74,0,0,1,2.25,9.15,15.9,15.9,0,0,1-3.45,10.3,19.42,19.42,0,0,1-9.73,6.33l13.75,23.48-16.53.62h0ZM354,107.75h9.15c2.88,0,4.6-.58,5.75-1.73s1.73-2.88,1.73-5.75a7,7,0,0,0-1.73-5.18c-1.15-1.15-3.45-1.73-5.75-1.73H354v14.38Z"/><path class="cls-2" d="M409.06,92.85v12h19.46v10.88H409.06v13.18h21.81v11.45H394.73v-59h36.09V92.8l-21.76,0Z"/><path class="cls-2" d="M482.38,109.43a17.79,17.79,0,0,1-7.43,6.9,26.94,26.94,0,0,1-12,2.88h-9.15v21.18H439.44v-59h23.48c4.6,0,8.58.58,12,2.25a17,17,0,0,1,7.43,6.9,18.66,18.66,0,0,1,2.25,9.73,16.37,16.37,0,0,1-2.25,9.2ZM468.1,106a7.54,7.54,0,0,0,2.25-5.75c0-2.88-.58-4-2.25-5.75-1.15-1.15-3.45-1.73-6.33-1.73h-8v14.9h8c2.88,0,5.18-.58,6.33-1.68h0Z"/><text class="cls-4" transform="translate(184.42 174.63)">PARTNER CONNECT</text></svg>