<?xml version="1.0" encoding="utf-8"?>
<!-- Generator: Adobe Illustrator 26.1.0, SVG Export Plug-In . SVG Version: 6.00 Build 0)  -->
<svg version="1.1" id="Layer_1" xmlns="http://www.w3.org/2000/svg" xmlns:xlink="http://www.w3.org/1999/xlink" x="0px" y="0px"
	 viewBox="0 0 100 100" style="enable-background:new 0 0 100 100;" xml:space="preserve">
<style type="text/css">
	.st0{fill-rule:evenodd;clip-rule:evenodd;}
</style>
<g>
	<g>
		<g>
			<path d="M59.05,52.54l-5.12,5.14c-2.08,2.08-5.73,2.13-7.85,0l-5.12-5.14L22.56,70.99c0.68,0.32,1.44,0.51,2.24,0.51h50.39
				c0.8,0,1.56-0.19,2.24-0.51L59.05,52.54z"/>
		</g>
	</g>
	<g>
		<g>
			<path d="M75.19,28.51H24.81c-0.8,0-1.56,0.19-2.24,0.51l19.65,19.72c0,0,0,0,0,0c0,0,0,0,0,0l6.39,6.41
				c0.68,0.68,2.1,0.68,2.78,0l6.39-6.41c0,0,0,0,0,0c0,0,0,0,0,0l19.65-19.72C76.75,28.7,76,28.51,75.19,28.51z"/>
		</g>
	</g>
	<g>
		<g>
			<path d="M20,31.52c-0.35,0.72-0.57,1.51-0.57,2.36v32.24c0,0.85,0.22,1.65,0.57,2.36L38.43,50L20,31.52z"/>
		</g>
	</g>
	<g>
		<g>
			<path d="M80,31.52L61.57,50L80,68.48c0.35-0.72,0.57-1.51,0.57-2.36V33.88C80.57,33.03,80.35,32.23,80,31.52z"/>
		</g>
	</g>
</g>
</svg>
