<?xml version="1.0" encoding="utf-8"?>
<!-- Generator: Adobe Illustrator 26.1.0, SVG Export Plug-In . SVG Version: 6.00 Build 0)  -->
<svg version="1.1" id="Layer_1" xmlns="http://www.w3.org/2000/svg" xmlns:xlink="http://www.w3.org/1999/xlink" x="0px" y="0px"
	 viewBox="0 0 100 100" style="enable-background:new 0 0 100 100;" xml:space="preserve">
<style type="text/css">
	.st0{fill-rule:evenodd;clip-rule:evenodd;}
</style>
<g>
	<g>
		<path d="M52.38,45.64c2.36-3.26,5.64-4.13,9.26-4.07c1.18,0.02,2.38,0.18,3.52,0.48c3.9,1.06,5.97,3.94,6.78,7.79
			c0.44,2.08,0.66,4.25,0.7,6.38c0.1,5.12,0.04,10.25,0.05,15.37c0,1.31-0.5,1.82-1.77,1.83c-2.14,0-4.28,0.01-6.42,0
			c-1.19,0-1.7-0.52-1.7-1.74c0-4.51,0.05-9.03-0.02-13.54c-0.02-1.59-0.19-3.22-0.55-4.76c-0.43-1.83-1.69-2.97-3.56-3.23
			c-2.05-0.29-3.78,0.28-4.96,2.12c-0.97,1.51-1.35,3.22-1.35,5c-0.01,4.69,0,9.37,0,14.06c0,1.7-0.4,2.1-2.07,2.1
			c-1.95,0-3.9,0-5.85,0c-1.18,0-1.71-0.53-1.71-1.73c0-9.32,0-18.64,0-27.97c0-1.17,0.51-1.69,1.66-1.7c2.12-0.01,4.23-0.01,6.35,0
			c1.13,0.01,1.63,0.53,1.65,1.72C52.39,44.39,52.38,45.01,52.38,45.64z"/>
		<path d="M28.72,57.77c0-4.56,0-9.13,0-13.69c0-1.51,0.5-2.05,1.95-2.05c1.93-0.01,3.85-0.01,5.78,0c1.38,0.01,1.92,0.55,1.92,1.94
			c0.01,9.18,0.01,18.35,0,27.53c0,1.38-0.57,1.94-1.92,1.94c-1.95,0-3.9,0-5.85,0c-1.32,0-1.88-0.57-1.88-1.91
			C28.71,66.94,28.72,62.35,28.72,57.77z"/>
		<path d="M39.75,32.98c-0.03,3.59-2.8,6.37-6.3,6.34c-3.42-0.03-6.18-2.93-6.14-6.45c0.03-3.53,2.88-6.37,6.35-6.32
			C37.04,26.61,39.78,29.5,39.75,32.98z"/>
	</g>
</g>
</svg>
