<?xml version="1.0" encoding="utf-8"?>
<!-- Generator: Adobe Illustrator 26.1.0, SVG Export Plug-In . SVG Version: 6.00 Build 0)  -->
<svg version="1.1" id="Layer_1" xmlns="http://www.w3.org/2000/svg" xmlns:xlink="http://www.w3.org/1999/xlink" x="0px" y="0px"
	 viewBox="0 0 100 100" style="enable-background:new 0 0 100 100;" xml:space="preserve">
<style type="text/css">
	.st0{fill-rule:evenodd;clip-rule:evenodd;}
</style>
<path class="st0" d="M74.21,64l-10.45-6.65H63.7C63.34,57.12,62.85,57,62.23,57c-0.87,0-1.63,0.31-2.28,0.93l-3.09,3.38
	c-0.07,0.08-0.19,0.15-0.35,0.2c-0.16,0.06-0.28,0.09-0.35,0.09l-0.68-0.15c-0.45-0.1-1.1-0.38-1.95-0.85
	c-0.85-0.47-1.91-1.2-3.17-2.19c-1.26-0.99-2.71-2.38-4.33-4.17c-1.66-1.75-2.94-3.29-3.85-4.64c-0.9-1.34-1.57-2.48-2-3.41
	c-0.51-1.05-0.83-1.98-0.97-2.8c0-0.12,0.03-0.26,0.08-0.44c0.05-0.18,0.12-0.3,0.19-0.38l2.65-2.86c0.47-0.51,0.78-1.13,0.92-1.87
	c0.14-0.74,0.05-1.42-0.27-2.04l-5.8-11.84c-0.25-0.43-0.56-0.79-0.92-1.08c-0.36-0.29-0.78-0.44-1.25-0.44
	c-0.65,0-1.23,0.27-1.73,0.82l-7.2,7.76c-0.36,0.35-0.67,0.81-0.92,1.37c-0.25,0.56-0.41,1.12-0.49,1.66c0,0.08-0.02,0.47-0.05,1.17
	c-0.04,0.7,0.04,1.66,0.22,2.89c0.18,1.23,0.52,2.68,1.03,4.37c0.51,1.69,1.26,3.58,2.27,5.66c1.01,2.08,2.35,4.34,4.01,6.79
	c1.66,2.45,3.76,5.01,6.28,7.7c3.18,3.46,6.18,6.18,8.99,8.16c2.82,1.98,5.34,3.47,7.56,4.46c2.22,0.99,4.1,1.61,5.63,1.87
	c1.54,0.25,2.65,0.38,3.33,0.38c0.29,0,0.52-0.01,0.7-0.03c0.18-0.02,0.29-0.03,0.33-0.03c0.51-0.08,1.02-0.25,1.54-0.53
	c0.52-0.27,0.95-0.6,1.27-0.99l7.2-7.7c0.61-0.66,0.87-1.44,0.76-2.33C75.42,65.14,74.96,64.5,74.21,64z"/>
</svg>
