<?xml version="1.0" encoding="utf-8"?>
<!-- Generator: Adobe Illustrator 26.1.0, SVG Export Plug-In . SVG Version: 6.00 Build 0)  -->
<svg version="1.1" id="Layer_1" xmlns="http://www.w3.org/2000/svg" xmlns:xlink="http://www.w3.org/1999/xlink" x="0px" y="0px"
	 viewBox="0 0 100 100" style="enable-background:new 0 0 100 100;" xml:space="preserve">
<style type="text/css">
	.st0{fill:#3B3A3C;}
</style>
<g>
	<g>
		<g>
			<path class="st0" d="M73.47,86.11c-0.31-0.18-0.54-0.32-0.76-0.45c-7.35-4.43-14.7-8.85-22.04-13.3c-0.49-0.3-0.82-0.3-1.32,0
				c-7.34,4.45-14.69,8.87-22.04,13.3c-0.23,0.14-0.46,0.27-0.79,0.47c0.58-2.53,1.13-4.93,1.69-7.34
				c1.45-6.23,2.9-12.47,4.37-18.69c0.12-0.5,0.02-0.8-0.38-1.14c-6.5-5.61-12.99-11.24-19.48-16.86c-0.2-0.17-0.39-0.34-0.71-0.63
				c1.49-0.14,2.78-0.26,4.08-0.37c7.59-0.65,15.18-1.29,22.77-1.97c0.26-0.02,0.6-0.38,0.72-0.66c2.89-6.8,5.76-13.6,8.64-20.41
				c0.57-1.34,1.13-2.67,1.77-4.18c0.19,0.42,0.33,0.69,0.44,0.97c3.32,7.85,6.64,15.7,9.94,23.56c0.22,0.53,0.48,0.73,1.06,0.77
				c6.63,0.55,13.26,1.14,19.89,1.71c1.97,0.17,3.94,0.33,5.92,0.49c0.19,0.02,0.38,0.05,0.73,0.1c-0.31,0.27-0.5,0.44-0.69,0.61
				C80.82,47.7,74.35,53.31,67.87,58.9c-0.44,0.38-0.54,0.71-0.41,1.27c1.99,8.49,3.96,16.99,5.93,25.48
				C73.42,85.77,73.43,85.89,73.47,86.11z"/>
		</g>
	</g>
</g>
</svg>
