<?xml version="1.0" encoding="utf-8"?>
<!-- Generator: Adobe Illustrator 26.1.0, SVG Export Plug-In . SVG Version: 6.00 Build 0)  -->
<svg version="1.1" id="Layer_1" xmlns="http://www.w3.org/2000/svg" xmlns:xlink="http://www.w3.org/1999/xlink" x="0px" y="0px"
	 viewBox="0 0 83.62 16.48" style="enable-background:new 0 0 83.62 16.48;" xml:space="preserve">
<g>
	<g>
		<g>
			<g>
				<path d="M15.29,15.29c-0.06-0.03-0.1-0.06-0.14-0.09c-1.39-0.84-2.79-1.68-4.18-2.52c-0.09-0.06-0.16-0.06-0.25,0
					c-1.39,0.84-2.78,1.68-4.18,2.52c-0.04,0.03-0.09,0.05-0.15,0.09c0.11-0.48,0.21-0.93,0.32-1.39c0.27-1.18,0.55-2.36,0.83-3.54
					c0.02-0.09,0-0.15-0.07-0.22C6.24,9.08,5,8.01,3.77,6.95C3.74,6.91,3.7,6.88,3.64,6.83C3.92,6.8,4.17,6.78,4.41,6.76
					c1.44-0.12,2.88-0.24,4.32-0.37c0.05,0,0.11-0.07,0.14-0.13c0.55-1.29,1.09-2.58,1.64-3.87c0.11-0.25,0.21-0.51,0.34-0.79
					c0.04,0.08,0.06,0.13,0.08,0.18c0.63,1.49,1.26,2.98,1.88,4.47c0.04,0.1,0.09,0.14,0.2,0.15c1.26,0.1,2.51,0.22,3.77,0.32
					c0.37,0.03,0.75,0.06,1.12,0.09c0.04,0,0.07,0.01,0.14,0.02c-0.06,0.05-0.09,0.08-0.13,0.12c-1.22,1.06-2.45,2.13-3.68,3.19
					c-0.08,0.07-0.1,0.13-0.08,0.24c0.38,1.61,0.75,3.22,1.12,4.83C15.28,15.23,15.28,15.25,15.29,15.29z"/>
			</g>
		</g>
	</g>
</g>
<g>
	<g>
		<g>
			<g>
				<path d="M30.95,15.29c-0.06-0.03-0.1-0.06-0.14-0.09c-1.39-0.84-2.79-1.68-4.18-2.52c-0.09-0.06-0.16-0.06-0.25,0
					c-1.39,0.84-2.78,1.68-4.18,2.52c-0.04,0.03-0.09,0.05-0.15,0.09c0.11-0.48,0.21-0.93,0.32-1.39c0.27-1.18,0.55-2.36,0.83-3.54
					c0.02-0.09,0-0.15-0.07-0.22c-1.23-1.06-2.46-2.13-3.69-3.2c-0.04-0.03-0.07-0.06-0.13-0.12c0.28-0.03,0.53-0.05,0.77-0.07
					c1.44-0.12,2.88-0.24,4.32-0.37c0.05,0,0.11-0.07,0.14-0.13c0.55-1.29,1.09-2.58,1.64-3.87c0.11-0.25,0.21-0.51,0.34-0.79
					c0.04,0.08,0.06,0.13,0.08,0.18c0.63,1.49,1.26,2.98,1.88,4.47c0.04,0.1,0.09,0.14,0.2,0.15c1.26,0.1,2.51,0.22,3.77,0.32
					c0.37,0.03,0.75,0.06,1.12,0.09c0.04,0,0.07,0.01,0.14,0.02c-0.06,0.05-0.09,0.08-0.13,0.12C32.36,8,31.13,9.07,29.9,10.13
					c-0.08,0.07-0.1,0.13-0.08,0.24c0.38,1.61,0.75,3.22,1.12,4.83C30.94,15.23,30.94,15.25,30.95,15.29z"/>
			</g>
		</g>
	</g>
</g>
<g>
	<g>
		<g>
			<g>
				<path d="M46.61,15.29c-0.06-0.03-0.1-0.06-0.14-0.09c-1.39-0.84-2.79-1.68-4.18-2.52c-0.09-0.06-0.16-0.06-0.25,0
					c-1.39,0.84-2.78,1.68-4.18,2.52c-0.04,0.03-0.09,0.05-0.15,0.09c0.11-0.48,0.21-0.93,0.32-1.39c0.27-1.18,0.55-2.36,0.83-3.54
					c0.02-0.09,0-0.15-0.07-0.22c-1.23-1.06-2.46-2.13-3.69-3.2c-0.04-0.03-0.07-0.06-0.13-0.12c0.28-0.03,0.53-0.05,0.77-0.07
					c1.44-0.12,2.88-0.24,4.32-0.37c0.05,0,0.11-0.07,0.14-0.13c0.55-1.29,1.09-2.58,1.64-3.87c0.11-0.25,0.21-0.51,0.34-0.79
					c0.04,0.08,0.06,0.13,0.08,0.18c0.63,1.49,1.26,2.98,1.88,4.47c0.04,0.1,0.09,0.14,0.2,0.15c1.26,0.1,2.51,0.22,3.77,0.32
					c0.37,0.03,0.75,0.06,1.12,0.09c0.04,0,0.07,0.01,0.14,0.02c-0.06,0.05-0.09,0.08-0.13,0.12c-1.22,1.06-2.45,2.13-3.68,3.19
					c-0.08,0.07-0.1,0.13-0.08,0.24c0.38,1.61,0.75,3.22,1.12,4.83C46.6,15.23,46.6,15.25,46.61,15.29z"/>
			</g>
		</g>
	</g>
</g>
<g>
	<g>
		<g>
			<g>
				<path d="M62.27,15.29c-0.06-0.03-0.1-0.06-0.14-0.09c-1.39-0.84-2.79-1.68-4.18-2.52c-0.09-0.06-0.16-0.06-0.25,0
					c-1.39,0.84-2.78,1.68-4.18,2.52c-0.04,0.03-0.09,0.05-0.15,0.09c0.11-0.48,0.21-0.93,0.32-1.39c0.27-1.18,0.55-2.36,0.83-3.54
					c0.02-0.09,0-0.15-0.07-0.22c-1.23-1.06-2.46-2.13-3.69-3.2c-0.04-0.03-0.07-0.06-0.13-0.12c0.28-0.03,0.53-0.05,0.77-0.07
					c1.44-0.12,2.88-0.24,4.32-0.37c0.05,0,0.11-0.07,0.14-0.13c0.55-1.29,1.09-2.58,1.64-3.87c0.11-0.25,0.21-0.51,0.34-0.79
					c0.04,0.08,0.06,0.13,0.08,0.18c0.63,1.49,1.26,2.98,1.88,4.47c0.04,0.1,0.09,0.14,0.2,0.15c1.26,0.1,2.51,0.22,3.77,0.32
					c0.37,0.03,0.75,0.06,1.12,0.09c0.04,0,0.07,0.01,0.14,0.02c-0.06,0.05-0.09,0.08-0.13,0.12c-1.22,1.06-2.45,2.13-3.68,3.19
					c-0.08,0.07-0.1,0.13-0.08,0.24c0.38,1.61,0.75,3.22,1.12,4.83C62.26,15.23,62.26,15.25,62.27,15.29z"/>
			</g>
		</g>
	</g>
</g>
<g>
	<g>
		<g>
			<g>
				<path d="M77.93,15.29c-0.06-0.03-0.1-0.06-0.14-0.09c-1.39-0.84-2.79-1.68-4.18-2.52c-0.09-0.06-0.16-0.06-0.25,0
					c-1.39,0.84-2.78,1.68-4.18,2.52c-0.04,0.03-0.09,0.05-0.15,0.09c0.11-0.48,0.21-0.93,0.32-1.39c0.27-1.18,0.55-2.36,0.83-3.54
					c0.02-0.09,0-0.15-0.07-0.22c-1.23-1.06-2.46-2.13-3.69-3.2c-0.04-0.03-0.07-0.06-0.13-0.12c0.28-0.03,0.53-0.05,0.77-0.07
					c1.44-0.12,2.88-0.24,4.32-0.37c0.05,0,0.11-0.07,0.14-0.13c0.55-1.29,1.09-2.58,1.64-3.87c0.11-0.25,0.21-0.51,0.34-0.79
					c0.04,0.08,0.06,0.13,0.08,0.18c0.63,1.49,1.26,2.98,1.88,4.47c0.04,0.1,0.09,0.14,0.2,0.15c1.26,0.1,2.51,0.22,3.77,0.32
					c0.37,0.03,0.75,0.06,1.12,0.09c0.04,0,0.07,0.01,0.14,0.02c-0.06,0.05-0.09,0.08-0.13,0.12c-1.22,1.06-2.45,2.13-3.68,3.19
					c-0.08,0.07-0.1,0.13-0.08,0.24c0.38,1.61,0.75,3.22,1.12,4.83C77.92,15.23,77.92,15.25,77.93,15.29z"/>
			</g>
		</g>
	</g>
</g>
</svg>
