<?xml version="1.0" encoding="utf-8"?>
<!-- Generator: Adobe Illustrator 26.1.0, SVG Export Plug-In . SVG Version: 6.00 Build 0)  -->
<svg version="1.1" id="Layer_1" xmlns="http://www.w3.org/2000/svg" xmlns:xlink="http://www.w3.org/1999/xlink" x="0px" y="0px"
	 viewBox="0 0 100 100" style="enable-background:new 0 0 100 100;" xml:space="preserve">
<style type="text/css">
	.st0{fill-rule:evenodd;clip-rule:evenodd;}
</style>
<path class="st0" d="M77.46,48.16c-0.9-13.74-11.89-24.73-25.63-25.63v-0.06H50h-1.83v0.06c-13.74,0.9-24.73,11.89-25.63,25.63
	h-0.06V50v1.83h0.06c0.9,13.74,11.89,24.72,25.63,25.63v0.07H50h1.84v-0.07c13.74-0.9,24.72-11.89,25.63-25.63h0.06V50v-1.84H77.46z
	 M39.7,28.47c-1.77,2.36-3.24,5.31-4.32,8.68h-5.5C32.28,33.42,35.68,30.4,39.7,28.47z M27.97,40.82h6.45
	c-0.49,2.32-0.8,4.78-0.9,7.34h-7.31C26.41,45.58,27.02,43.11,27.97,40.82z M26.21,51.83h7.31c0.1,2.56,0.41,5.02,0.9,7.34h-6.45
	C27.02,56.89,26.41,54.42,26.21,51.83z M29.89,62.85h5.49c1.07,3.37,2.54,6.32,4.32,8.68C35.68,69.6,32.28,66.58,29.89,62.85z
	 M48.16,73.62c-3.77-1.01-7.02-5.06-8.99-10.77h8.99V73.62z M48.16,59.18H38.14c-0.52-2.29-0.84-4.76-0.95-7.34h10.98V59.18z
	 M48.16,48.16H37.19c0.11-2.58,0.43-5.05,0.95-7.34h10.02V48.16z M48.16,37.15h-8.99c1.97-5.72,5.22-9.77,8.99-10.77V37.15z
	 M70.11,37.15h-5.49c-1.08-3.37-2.54-6.32-4.32-8.68C64.32,30.4,67.72,33.42,70.11,37.15z M51.84,26.38
	c3.77,1.01,7.02,5.06,8.99,10.77h-8.99V26.38z M51.84,40.82h10.02c0.52,2.29,0.84,4.76,0.95,7.34H51.84V40.82z M51.84,51.83h10.97
	c-0.11,2.58-0.43,5.05-0.95,7.34H51.84V51.83z M51.84,73.62V62.85h8.99C58.86,68.56,55.61,72.61,51.84,73.62z M60.29,71.53
	c1.77-2.36,3.25-5.31,4.32-8.68h5.49C67.72,66.58,64.32,69.6,60.29,71.53z M72.03,59.18h-6.45c0.49-2.32,0.8-4.78,0.9-7.34h7.3
	C73.59,54.42,72.98,56.89,72.03,59.18z M66.48,48.16c-0.1-2.56-0.41-5.02-0.9-7.34h6.45c0.95,2.29,1.56,4.76,1.76,7.34H66.48z"/>
</svg>
