<svg id="Layer_1" height="512" viewBox="0 0 256 256" width="512" xmlns="http://www.w3.org/2000/svg"><g><g><g><g><g><g><g><path d="m174.367 169.78h-150.918c-3.035 0-5.495-2.46-5.495-5.495v-107.269c0-3.035 2.46-5.495 5.495-5.495h150.918c3.035 0 5.495 2.46 5.495 5.495v107.269c0 3.034-2.46 5.495-5.495 5.495z" fill="#58595b"/></g></g><g><g><path d="m81.357 169.78h35.101v25.037h-35.101z" fill="#808285"/></g></g><g><path d="m106.458 169.78v15.036h-25.101v10h35.101v-25.036z" fill="#58595b"/></g><g><path d="m111.458 169.78v20.036h-30.101v5h35.101v-25.036z" fill="#414042"/></g><g><g><path d="m173.484 164.98h-149.152c-.899 0-1.627-.729-1.627-1.627v-105.808c0-.899.729-1.627 1.627-1.627h149.152c.899 0 1.627.729 1.627 1.627v105.807c0 .899-.728 1.628-1.627 1.628z" fill="#478cf7"/></g></g><g><path d="m173.484 55.918h-8.373v97.434c0 .899-.729 1.627-1.627 1.627h-140.779v8.373c0 .899.729 1.627 1.627 1.627h149.152c.899 0 1.627-.729 1.627-1.627v-105.807c0-.899-.728-1.627-1.627-1.627z" fill="#377de2"/></g><g><path d="m28.71 130.06c-1.11 0-2.01-.89-2.01-2 0-1.1.9-2 2.01-2 1.1 0 2 .9 2 2 0 1.11-.9 2-2 2zm0-8c-1.11 0-2.01-.89-2.01-2v-58.14c0-.53.22-1.05.59-1.42s.89-.58 1.42-.58h99.85c1.1 0 2 .89 2 2 0 1.1-.899 2-2 2h-97.85v56.14c0 1.11-.9 2-2 2z" fill="#5e9cf7"/></g><g><g><path d="m128.091 205.017h-58.366c-1.105 0-2-.895-2-2v-6.201c0-1.105.895-2 2-2h58.366c1.105 0 2 .895 2 2v6.201c0 1.105-.896 2-2 2z" fill="#58595b"/></g></g></g></g></g><g><g><path d="m231.603 50.983h-61.525c-3.537 0-6.404 2.867-6.404 6.404v141.226c0 3.537 2.867 6.404 6.404 6.404h61.525c3.537 0 6.404-2.867 6.404-6.404v-141.226c0-3.537-2.867-6.404-6.404-6.404z" fill="#58595b"/></g><g><path d="m232.879 51.111c.083.412.128.839.128 1.276v141.226c0 3.537-2.867 6.404-6.404 6.404h-61.525c-.437 0-.864-.045-1.276-.128.592 2.925 3.176 5.128 6.276 5.128h61.525c3.537 0 6.404-2.867 6.404-6.404v-141.226c0-3.1-2.203-5.685-5.128-6.276z" fill="#414042"/></g><g><path d="m224.063 92.632h-46.445c-1.105 0-2-.895-2-2v-6.383c0-1.105.895-2 2-2h46.445c1.105 0 2 .895 2 2v6.383c0 1.104-.895 2-2 2z" fill="#414042"/></g><g><path d="m231.603 50.983h-61.525c-3.537 0-6.404 2.867-6.404 6.404v14.267h74.333v-14.267c0-3.537-2.867-6.404-6.404-6.404z" fill="#808285"/></g><g><path d="m237.64 55.267c-.715-2.102-2.589-3.717-4.761-4.156.083.412.128.839.128 1.276v19.268h5c-.133-1.484.354-15.362-.367-16.388z" fill="#58595b"/></g><g><circle cx="179.809" cy="61.319" fill="#58595b" r="4.02"/></g><g><path d="m223.456 65.339h-13.29c-1.44 0-2.608-1.168-2.608-2.608v-2.825c0-1.44 1.168-2.608 2.608-2.608h13.29c1.44 0 2.608 1.168 2.608 2.608v2.825c-.001 1.44-1.168 2.608-2.608 2.608z" fill="#58595b"/></g></g><g><g><path d="m69.706 181.863h-14.375c-10.586 0-19.167 8.582-19.167 19.167 0 2.202 1.785 3.987 3.987 3.987h44.736c2.202 0 3.987-1.785 3.987-3.987-.001-10.586-8.582-19.167-19.168-19.167z" fill="#58595b"/></g><g><path d="m77.302 183.434c1.007 2.33 1.571 4.896 1.571 7.596 0 2.202-1.785 3.987-3.987 3.987h-37.747c-.626 1.893-.976 3.911-.976 6.013 0 2.202 1.785 3.987 3.987 3.987h44.736c2.202 0 3.987-1.785 3.987-3.987.001-7.886-4.765-14.654-11.571-17.596z" fill="#414042"/></g><g><path d="m62.518 188.031c-2.316 0-4.193-1.877-4.193-4.193v-3.951c0-2.316 1.877-4.193 4.193-4.193 2.316 0 4.193 1.877 4.193 4.193v3.951c0 2.316-1.877 4.193-4.193 4.193z" fill="#ffa91a"/></g><g><path d="m64.3 176.105c.256.542.411 1.142.411 1.782v3.951c0 2.316-1.877 4.193-4.193 4.193-.64 0-1.24-.155-1.782-.411.671 1.421 2.106 2.411 3.782 2.411 2.316 0 4.193-1.877 4.193-4.193v-3.951c0-1.676-.99-3.111-2.411-3.782z" fill="#f79219"/></g></g></g><g><g><g><path d="m90.668 141.866h-44.842c-1.874 0-3.393-1.519-3.393-3.393v-29.651c0-1.874 1.519-3.393 3.393-3.393h44.841c1.874 0 3.393 1.519 3.393 3.393v29.651c.001 1.874-1.518 3.393-3.392 3.393z" fill="#377de2"/></g><g><path d="m90.668 105.429h-44.842c-1.874 0-3.393 1.519-3.393 3.393v4.561h51.628v-4.561c0-1.874-1.519-3.393-3.393-3.393z" fill="#5e9cf7"/></g></g><g><g><path d="m149.869 114.715h-44.841c-1.874 0-3.393-1.519-3.393-3.393v-29.651c0-1.874 1.519-3.393 3.393-3.393h44.841c1.874 0 3.393 1.519 3.393 3.393v29.651c.001 1.874-1.519 3.393-3.393 3.393z" fill="#377de2"/></g><g><path d="m149.869 78.278h-44.841c-1.874 0-3.393 1.519-3.393 3.393v4.561h51.628v-4.561c0-1.874-1.52-3.393-3.394-3.393z" fill="#5e9cf7"/></g></g></g><g><g><path d="m216.241 194.226h7.887c1.105 0 2-.895 2-2v-60.49c0-1.105-.895-2-2-2h-7.887c-1.105 0-2 .895-2 2v60.49c0 1.104.895 2 2 2z" fill="#f79219"/></g><g><path d="m196.961 194.226h7.887c1.105 0 2-.895 2-2v-60.49c0-1.105-.895-2-2-2h-7.887c-1.105 0-2 .895-2 2v60.49c0 1.104.896 2 2 2z" fill="#808285"/></g><g><path d="m177.682 194.226h7.887c1.105 0 2-.895 2-2v-60.49c0-1.105-.895-2-2-2h-7.887c-1.105 0-2 .895-2 2v60.49c0 1.104.895 2 2 2z" fill="#808285"/></g></g><g><g><path d="m183.232 102.396h-5.444c-1.105 0-2-.895-2-2v-.262c0-1.105.895-2 2-2h5.444c1.105 0 2 .895 2 2v.262c0 1.104-.895 2-2 2z" fill="#414042"/></g><g><path d="m196.843 102.396h-5.444c-1.105 0-2-.895-2-2v-.262c0-1.105.895-2 2-2h5.444c1.105 0 2 .895 2 2v.262c0 1.104-.896 2-2 2z" fill="#414042"/></g><g><path d="m210.453 102.396h-5.444c-1.105 0-2-.895-2-2v-.262c0-1.105.895-2 2-2h5.444c1.105 0 2 .895 2 2v.262c0 1.104-.895 2-2 2z" fill="#414042"/></g><g><path d="m224.063 102.396h-5.444c-1.105 0-2-.895-2-2v-.262c0-1.105.895-2 2-2h5.444c1.105 0 2 .895 2 2v.262c0 1.104-.895 2-2 2z" fill="#414042"/></g></g></g></svg>