<svg xmlns="http://www.w3.org/2000/svg" id="Layer_1" data-name="Layer 1" viewBox="19.13 51.54 465.5 139.59">
  <defs>
    <style>
      .cls-1 {
        fill: #fff;
      }

      .cls-1, .cls-2 {
        stroke-width: 0px;
      }

      .cls-2 {
        fill: #ee7922;
      }

      .cls-3 {
        fill: none;
        stroke: #ee7922;
        stroke-miterlimit: 10;
        stroke-width: 2.86px;
      }
    </style>
  </defs>
  <line class="cls-3" x1="143.54" y1="147.67" x2="465.02" y2="147.67"/>
  <g>
    <path class="cls-1" d="M161.63,171.31h10.41v2.9h-13.84v-18.45h13.47v2.9h-10.04v12.65ZM161.37,163.43h9.17v2.82h-9.17v-2.82Z"/>
    <path class="cls-1" d="M175.86,174.21v-18.45h2.82l8.07,13.47h-1.48l7.93-13.47h2.82l.05,18.45h-3.29v-13.36h.66l-6.69,11.28h-1.56l-6.85-11.28h.79v13.36h-3.27Z"/>
    <path class="cls-1" d="M201.03,174.21v-18.45h7.59c1.63,0,3.04.26,4.2.78,1.17.52,2.07,1.27,2.7,2.25.63.98.95,2.16.95,3.53s-.32,2.52-.95,3.49-1.53,1.73-2.7,2.27c-1.17.54-2.57.8-4.2.8h-5.67l1.5-1.58v6.91h-3.43ZM204.46,167.68l-1.5-1.69h5.51c1.51,0,2.65-.32,3.41-.96.76-.64,1.15-1.54,1.15-2.7s-.38-2.06-1.15-2.7c-.76-.64-1.9-.96-3.41-.96h-5.51l1.5-1.69v10.7Z"/>
    <path class="cls-1" d="M220.17,174.21v-18.45h3.43v15.55h9.65v2.9h-13.07Z"/>
    <path class="cls-1" d="M244.6,174.48c-1.42,0-2.75-.24-3.97-.71-1.22-.47-2.28-1.14-3.18-2-.9-.86-1.59-1.87-2.08-3.02-.49-1.15-.74-2.4-.74-3.76s.25-2.63.74-3.78c.49-1.15,1.19-2.15,2.08-3,.9-.85,1.95-1.52,3.16-1.99,1.21-.47,2.54-.71,3.98-.71s2.74.23,3.95.7c1.21.47,2.26,1.12,3.15,1.98.89.85,1.58,1.86,2.07,3.02.49,1.16.74,2.42.74,3.8s-.25,2.63-.74,3.78c-.49,1.15-1.18,2.16-2.07,3.02-.89.86-1.94,1.52-3.15,1.99-1.21.46-2.53.7-3.95.7ZM244.6,171.47c.93,0,1.79-.16,2.57-.47.78-.32,1.46-.76,2.04-1.34.58-.58,1.03-1.27,1.36-2.06.33-.79.49-1.66.49-2.61s-.16-1.82-.47-2.61-.77-1.48-1.36-2.06c-.59-.58-1.27-1.03-2.06-1.34-.78-.32-1.64-.47-2.57-.47s-1.8.16-2.6.47-1.49.77-2.07,1.36c-.58.59-1.04,1.27-1.37,2.06-.33.78-.5,1.65-.5,2.6s.17,1.79.5,2.58c.33.79.79,1.48,1.37,2.07.58.59,1.27,1.04,2.07,1.36s1.67.47,2.6.47Z"/>
    <path class="cls-1" d="M262.68,174.21v-7.3l.79,2.08-8.04-13.23h3.64l6.48,10.67h-2.06l6.46-10.67h3.37l-8.01,13.23.76-2.08v7.3h-3.4Z"/>
    <path class="cls-1" d="M278.99,171.31h10.41v2.9h-13.84v-18.45h13.47v2.9h-10.04v12.65ZM278.73,163.43h9.17v2.82h-9.17v-2.82Z"/>
    <path class="cls-1" d="M293.23,174.21v-18.45h7.59c1.63,0,3.04.26,4.2.78,1.17.52,2.07,1.27,2.7,2.25.63.98.95,2.16.95,3.53s-.32,2.51-.95,3.48c-.63.97-1.53,1.71-2.7,2.24-1.17.53-2.57.79-4.2.79h-5.67l1.5-1.53v6.91h-3.43ZM296.65,167.68l-1.5-1.66h5.51c1.51,0,2.65-.32,3.41-.97s1.15-1.56,1.15-2.71-.38-2.06-1.15-2.7c-.76-.64-1.9-.96-3.41-.96h-5.51l1.5-1.69v10.7ZM305.3,174.21l-4.67-6.69h3.66l4.69,6.69h-3.69Z"/>
    <path class="cls-1" d="M328.31,174.48c-1.42,0-2.73-.23-3.93-.7-1.2-.47-2.24-1.13-3.12-1.99-.89-.86-1.58-1.86-2.07-3-.49-1.14-.74-2.41-.74-3.79s.25-2.65.74-3.8c.49-1.14,1.19-2.14,2.08-3,.9-.86,1.94-1.52,3.14-1.99,1.19-.47,2.5-.7,3.93-.7,1.51,0,2.89.26,4.14.78,1.25.52,2.3,1.29,3.16,2.31l-2.21,2.08c-.68-.72-1.44-1.26-2.27-1.62s-1.71-.54-2.66-.54-1.85.16-2.65.47-1.49.76-2.08,1.34c-.59.58-1.05,1.26-1.38,2.06-.33.79-.5,1.66-.5,2.61s.17,1.82.5,2.61c.33.79.79,1.48,1.38,2.06.59.58,1.28,1.03,2.08,1.34s1.68.47,2.65.47,1.84-.18,2.66-.54,1.58-.91,2.27-1.65l2.21,2.08c-.86,1.02-1.92,1.79-3.16,2.32-1.25.53-2.64.79-4.17.79Z"/>
    <path class="cls-1" d="M347.57,174.48c-1.42,0-2.75-.24-3.97-.71-1.22-.47-2.28-1.14-3.18-2-.9-.86-1.59-1.87-2.08-3.02-.49-1.15-.74-2.4-.74-3.76s.25-2.63.74-3.78c.49-1.15,1.19-2.15,2.08-3,.9-.85,1.95-1.52,3.16-1.99,1.21-.47,2.54-.71,3.98-.71s2.74.23,3.95.7c1.21.47,2.26,1.12,3.15,1.98.89.85,1.58,1.86,2.07,3.02.49,1.16.74,2.42.74,3.8s-.25,2.63-.74,3.78c-.49,1.15-1.18,2.16-2.07,3.02-.89.86-1.94,1.52-3.15,1.99-1.21.46-2.53.7-3.95.7ZM347.57,171.47c.93,0,1.79-.16,2.57-.47.78-.32,1.46-.76,2.04-1.34.58-.58,1.03-1.27,1.36-2.06.33-.79.49-1.66.49-2.61s-.16-1.82-.47-2.61-.77-1.48-1.36-2.06c-.59-.58-1.27-1.03-2.06-1.34-.78-.32-1.64-.47-2.57-.47s-1.8.16-2.6.47-1.49.77-2.07,1.36c-.58.59-1.04,1.27-1.37,2.06-.33.78-.5,1.65-.5,2.6s.17,1.79.5,2.58c.33.79.79,1.48,1.37,2.07.58.59,1.27,1.04,2.07,1.36s1.67.47,2.6.47Z"/>
    <path class="cls-1" d="M361.12,174.21v-18.45h2.82l11.57,14.23h-1.4v-14.23h3.37v18.45h-2.82l-11.54-14.23h1.4v14.23h-3.4Z"/>
    <path class="cls-1" d="M382.47,174.21v-18.45h2.82l11.57,14.23h-1.4v-14.23h3.37v18.45h-2.82l-11.54-14.23h1.4v14.23h-3.4Z"/>
    <path class="cls-1" d="M407.24,171.31h10.41v2.9h-13.84v-18.45h13.47v2.9h-10.04v12.65ZM406.98,163.43h9.17v2.82h-9.17v-2.82Z"/>
    <path class="cls-1" d="M430.02,174.48c-1.42,0-2.73-.23-3.93-.7-1.2-.47-2.24-1.13-3.12-1.99-.89-.86-1.58-1.86-2.07-3-.49-1.14-.74-2.41-.74-3.79s.25-2.65.74-3.8c.49-1.14,1.19-2.14,2.08-3,.9-.86,1.94-1.52,3.14-1.99,1.19-.47,2.5-.7,3.93-.7,1.51,0,2.89.26,4.14.78,1.25.52,2.3,1.29,3.16,2.31l-2.21,2.08c-.68-.72-1.44-1.26-2.27-1.62s-1.71-.54-2.66-.54-1.85.16-2.65.47-1.49.76-2.08,1.34c-.59.58-1.05,1.26-1.38,2.06-.33.79-.5,1.66-.5,2.61s.17,1.82.5,2.61c.33.79.79,1.48,1.38,2.06.59.58,1.28,1.03,2.08,1.34s1.68.47,2.65.47,1.84-.18,2.66-.54,1.58-.91,2.27-1.65l2.21,2.08c-.86,1.02-1.92,1.79-3.16,2.32-1.25.53-2.64.79-4.17.79Z"/>
    <path class="cls-1" d="M444.38,174.21v-15.55h-6.11v-2.9h15.66v2.9h-6.12v15.55h-3.43Z"/>
  </g>
  <path class="cls-2" d="M96.74,55.57c1.15-1.73,2.25-4.03,4.6-4.03,1.73,2.3,0,4.6-1.15,6.33,0,.29.24.58.53.58h.05c.58,0,1.15,0,1.15.58s0,1.73-.58,2.3c.62-.1,1.25.14,1.73.58,0,1.15-.58,1.73,0,2.88s1.15,1.73.58,2.88c0,.58-1.15.58-1.15,0-1.73-1.73-2.88-3.45-4.6-5.18-1.15,1.15-1.73,2.3-2.88,3.45-.58,1.15.58,2.88,0,4.03-1.73,0-1.73-2.3-2.88-2.88-1.34.05-2.73-.14-4.03-.58.58-1.73,2.88-1.15,4.03-2.25,1.15-1.1,1.73-2.3,2.3-4.03-2.88-1.73-5.75-1.73-8-2.88,0-.58.58-1.15.58-1.73h2.88c.58-.58.58-1.15,1.15-1.15h.58c.05.43.24.86.58,1.15.58,0,1.15-.58,1.73-1.15h.58c0,.58.58.58.58,1.15l1.68-.05Z"/>
  <path class="cls-2" d="M84.13,77.37c1.73-1.73,3.45-4.03,5.18-5.75-1.15,3.45-3.45,6.85-5.18,9.73-9.73,15.48-18.93,31.53-27.51,47.54-5.75,11.45-10.88,22.91-14.33,34.94-1.15,4.6-2.25,9.15-2.25,14.33.05,2.01,1.77,3.64,3.79,3.55.29,0,.53-.05.81-.1,5.7-.58,10.3-3.98,14.86-6.9,0,1.73-1.15,2.88-1.73,4.03-3.45,5.18-8,9.15-13.75,11.45-2.88,1.15-6.33,1.73-9.15-1.15-2.25-2.3-2.88-5.75-3.45-9.15-.58-4.6,0-9.15,1.15-13.75,2.25-10.26,6.33-19.41,10.88-28.61,10.88-21.18,25.21-41.26,40.69-60.15Z"/>
  <path class="cls-1" d="M44.59,77.95c11.45-6.85,25.21-8.58,38.44-5.13-1.34,2.06-2.88,3.98-4.6,5.75-5.27-1.15-10.74-1.15-16.05,0,1.15,4.6,4.6,9.15,4.03,14.33,0,2.3-1.73,4.03-2.88,5.75-1.73,1.73-4.6,1.15-6.85,1.73-1.73.58-2.88,2.3-4.6,2.88-2.3,1.15-5.18-.58-7.43.58,3.45,2.88,8.58,2.88,12.6,4.03-4.6,7.43-9.73,15.48-13.75,22.91-1.53-1.58-2.88-3.31-4.03-5.18-.58-2.3-.58-4.6-.58-6.85-4.03-2.88-8-6.33-10.88-10.3-4.03,12.6-1.73,26.89,5.75,37.81.58.58,1.15,1.73.58,2.3-.58,2.25-1.73,4.03-2.25,6.28-9.73-10.3-14.33-24.63-12.6-38.96,1.63-15.58,11.36-30.48,25.11-37.91Z"/>
  <path class="cls-1" d="M80.68,92.85c3.45-5.75,7.43-11.45,10.3-17.2,9.82,4.55,17.88,12.22,22.91,21.81,7.43,13.75,8,31.53,1.15,45.86-.43.96-.19,2.11.58,2.88,1.73,4.6.58,9.15-1.73,13.18l8,8c.58.58,1.15,1.15,1.15,1.73.58,1.73-1.15,3.45-2.88,3.45-1.15,0-1.73-.58-2.88-1.73l-7.43-7.43c-.58-.58-.58-1.15-1.15-.58-4.03,2.25-8.58,2.88-12.6,1.15-1.15-.58-1.73,0-2.88.58-15.1,8.58-33.6,8.58-48.69,0,.58-2.25,1.15-4.6,1.73-6.28,12.6,7.43,29.23,8,42.41,1.15-1.73-3.45-2.88-9.73,0-14.9,1.77-3.98,5.42-6.76,9.73-7.48.58-1.73,1.15-3.45.58-5.75-.58-1.15-1.73-1.15-2.88-1.73-2.88-1.15-5.75-2.25-8-4.03-1.73-1.15-3.45-2.88-4.03-5.18-.58-3.45.58-6.85,2.3-9.73,1.73-3.45,5.75-6.33,9.73-6.33,3.45,0,6.28,1.73,9.73,2.3,1.73.58,3.45,0,4.6,0-1.73-4.03-4.03-8.58-6.9-12.03-1.82,1.77-4.55,2.25-6.85,1.15-1.15,0-2.88-1.15-4.03-.58-2.3,1.15-4.03,2.3-6.85,1.73-1.68-.62-3.4-2.3-5.13-4.03ZM99.61,142.12c-4.03,1.15-6.9,4.6-6.9,8.58,0,3.45,1.73,6.85,5.18,8,3.45,1.73,8,1.15,10.3-1.73,1.73-1.73,2.88-4.6,2.88-7.43-.58-4.55-6.28-8.58-11.45-7.43Z"/>
  <path class="cls-1" d="M68.65,114.03c4.03-.58,8,1.73,10.3,5.18,2.25,2.88,2.25,8-.58,10.88-2.25,2.25-5.18,4.6-7.43,6.9-1.73,1.73.58,4.6-.58,6.85-.58,2.88-3.45,4.03-5.75,4.6-.58,2.88-.58,5.75-1.73,8-1.15,2.88-4.6,4.03-7.43,2.88-2.88-1.15-5.18-4.03-4.6-7.48,4.6-13.18,10.93-25.78,17.78-37.81Z"/>
  <g>
    <path class="cls-1" d="M154.63,81.35v34.94c0,3.45,1.15,6.28,2.88,8s4.03,2.88,7.43,2.88,5.75-1.15,7.43-2.88c1.73-1.73,2.88-4.6,2.88-8v-34.94h14.33v34.94c0,5.18-1.15,9.73-3.45,13.18s-5.18,6.28-9.15,8-8,2.88-12.6,2.88-8.58-1.15-12.6-2.88c-3.45-1.73-6.33-4.6-8.58-8-2.25-3.4-3.45-8-3.45-13.18v-34.94h14.9Z"/>
    <path class="cls-1" d="M252.63,140.39h-14.33l-24.06-36.09v36.09h-14.33v-59.04h14.33l24.06,36.66v-36.66h14.33v59.04Z"/>
    <path class="cls-1" d="M277.27,81.35v59.04h-14.33v-59.04h14.33Z"/>
  </g>
  <g>
    <path class="cls-2" d="M329.98,109.43c-1.73,2.97-4.36,5.37-7.43,6.9-3.74,1.87-7.86,2.88-12.03,2.88h-9.15v21.18h-14.33v-59.04h23.48c4.6,0,8.58.58,12.03,2.25,3.12,1.49,5.7,3.88,7.43,6.9,1.73,2.88,2.25,6.28,2.25,9.73,0,3.45-.53,6.37-2.25,9.2ZM315.65,106.03c1.53-1.49,2.35-3.59,2.3-5.75,0-2.88-.58-4.03-2.3-5.75-1.15-1.15-3.45-1.73-6.33-1.73h-8v14.9h8c2.88.05,5.18-.58,6.33-1.68Z"/>
    <path class="cls-2" d="M370.1,140.39l-12.03-22.33h-3.45v22.33h-14.33v-59.04h24.06c4.6,0,8.58.58,12.03,2.25,3.12,1.49,5.7,3.88,7.43,6.9,1.73,2.88,2.25,5.75,2.25,9.15,0,4.03-1.15,7.43-3.45,10.3-2.54,3.07-5.94,5.27-9.73,6.33l13.75,23.48-16.53.62h0ZM354.04,107.75h9.15c2.88,0,4.6-.58,5.75-1.73s1.73-2.88,1.73-5.75c0-2.3-.58-4.03-1.73-5.18-1.15-1.15-3.45-1.73-5.75-1.73h-9.15v14.38Z"/>
    <path class="cls-2" d="M409.06,92.85v12.03h19.46v10.88h-19.46v13.18h21.81v11.45h-36.14v-59.04h36.09v11.45l-21.76.05Z"/>
    <path class="cls-2" d="M482.38,109.43c-1.73,2.97-4.36,5.37-7.43,6.9-3.74,1.87-7.86,2.88-12.03,2.88h-9.15v21.18h-14.33v-59.04h23.48c4.6,0,8.58.58,12.03,2.25,3.12,1.49,5.7,3.88,7.43,6.9,1.73,2.88,2.25,6.28,2.25,9.73.05,3.45-.53,6.37-2.25,9.2ZM468.1,106.03c1.53-1.49,2.35-3.59,2.25-5.75,0-2.88-.58-4.03-2.25-5.75-1.15-1.15-3.45-1.73-6.33-1.73h-8v14.9h8c2.88.05,5.18-.58,6.33-1.68h0Z"/>
  </g>
</svg>