<?xml version="1.0" encoding="utf-8"?>
<!-- Generator: Adobe Illustrator 28.0.0, SVG Export Plug-In . SVG Version: 6.00 Build 0)  -->
<svg version="1.1" id="Layer_1" xmlns="http://www.w3.org/2000/svg" xmlns:xlink="http://www.w3.org/1999/xlink" x="0px" y="0px"
	 viewBox="0 0 500 500" style="enable-background:new 0 0 500 500;" xml:space="preserve">
<style type="text/css">
	.st0{fill:#EE7922;}
	.st1{fill:#FFFFFF;}
</style>
<g>
	<g>
		<path class="st0" d="M335.81,23.47c3.6-5.98,7.41-13.46,15.47-13.59c6.29,6.98-0.91,15.03-4.63,21.26
			c0.32,0.57,0.94,1.7,1.26,2.27c1.59,0.35,3.18,0.73,4.77,1.11c-0.4,2.76-0.96,5.48-1.32,8.25c2.23,0.21,4.7-0.12,6.64,1.27
			c-0.57,3-2.94,6.14-0.98,9.13c1.04,3.11,4.42,6.76,1.31,9.7c-0.91,2.06-3.38,1.65-4.53,0.07c-5.59-5.98-10.75-12.35-16.28-18.39
			c-2.97,4.24-6.5,8.12-8.95,12.7c-1.65,4.73,2.54,10.12-0.29,14.64c-5.04,0.07-6.29-7.1-9.6-10.2c-4.3-0.35-8.58-0.97-12.78-2.02
			c1.06-6.62,9.27-4.58,13.25-8.03c2.96-4.26,5.72-8.78,7.54-13.65c-8.49-3.33-17.65-4.69-26.02-8.42c0.85-1.83,1.74-3.64,2.65-5.44
			c3.52-0.05,7.04-0.06,10.56-0.02c1.3-1.55,2.62-3.08,3.94-4.62c0.8,0.07,1.61,0.13,2.42,0.2c0.67,1.53,1.3,3.07,2.11,4.53
			c2.55,0.02,4.18-2.1,5.88-3.67c0.5-0.07,1.5-0.19,1.99-0.25c0.8,1.09,1.59,2.18,2.4,3.28C333.69,23.54,334.75,23.5,335.81,23.47z"
			/>
		<path class="st0" d="M292.53,98.51c5.71-6.84,10.83-14.31,17.73-20.05c-4.12,12.11-11.41,22.88-18.04,33.74
			c-33.66,53.24-65.73,107.58-93.94,163.92c-19.19,38.87-37.12,78.64-48.85,120.48c-4.04,15.98-8.23,32.41-7.08,49.01
			c0.3,7.55,7.67,12.86,14.96,11.51c19.34-2.61,35.57-14.46,51.81-24.35c-0.68,5.38-3.26,10.19-6.43,14.49
			c-12.19,16.89-28.2,31.78-47.63,39.83c-9.7,4.09-22.57,4.93-30.49-3.18c-8.04-8.07-10.43-19.93-11.42-30.86
			c-1.27-15.83-0.3-31.85,3.29-47.34c7.49-34.5,21.68-67.12,37.44-98.55C192.15,232.73,240.67,164.02,292.53,98.51z"/>
	</g>
	<g>
		<path class="st1" d="M157.58,100.4c39.01-22.74,87.12-28.87,130.69-17.23c-4.86,6.68-10.26,12.94-15.24,19.53
			c-18-3.01-36.45-3.8-54.46-0.45c4.5,16.25,15.11,31.27,13.73,48.75c0.01,7.84-5.58,13.88-10.02,19.76
			c-5.89,6.42-15.44,4.3-22.94,6.84c-5.4,2.89-9.73,7.71-15.81,9.37c-8.46,3.36-17.51-1.56-25.96,1.63
			c11.91,10.71,28.53,9.68,42.97,13.79c-16.5,26.14-33.06,52.27-47.91,79.41c-5.34-5.16-10.34-10.99-12.79-18.1
			c-2.86-7.79-1.37-16.19-1.53-24.28c-13.99-9.83-26.66-21.46-37.71-34.49c-13.98,43.46-6.67,93.21,19.76,130.51
			c1.49,2.36,4.1,4.97,2.73,7.98c-2.87,7.16-5.66,14.34-8.39,21.56c-32.72-35.97-48.28-86.43-42.53-134.61
			C77.8,176.67,110.8,127.11,157.58,100.4z"/>
		<g>
			<path class="st1" d="M282.32,152.33c11.63-19.64,24.6-38.46,35.56-58.5c32.8,15.87,60.67,41.96,77.97,74.09
				c26.2,47.71,27.7,108.01,3.85,156.94c-2.27,3.54,0.84,7.13,1.83,10.53c5.76,14.82,2.7,31.87-5.84,45
				c9.49,9.45,18.91,18.96,28.44,28.37c1.83,1.88,3.8,3.85,4.61,6.42c1.57,5.75-3.96,11.83-9.74,11.45
				c-3.81-0.01-6.79-2.78-9.32-5.3c-8.14-8.31-16.46-16.43-24.58-24.78c-1.28-1.11-2.87-3.32-4.63-1.67
				c-12.98,7.91-29.52,9.98-43.79,4.4c-3.31-1.84-6.49,0.59-9.32,2.16c-50.42,28.52-115.48,28.59-166.11,0.55
				c1.92-7.52,4.1-14.98,6.81-22.26c43.68,26.23,100.8,27.41,145.67,3.36c-11.09-15.6-13.9-36.95-4.81-54.14
				c6.52-13.28,19.31-22.78,33.54-26.37c2.45-6.05,3.57-12.76,2.25-19.21c-1.88-3.34-5.99-4.26-9.26-5.7
				c-10.07-3.46-19.35-8.79-28.26-14.53c-6.24-4.12-12-10.07-13.1-17.76c-1.82-11.84,2.64-23.56,8.08-33.87
				c6.46-12.18,18.87-21.83,32.99-22.38c11.61-0.29,21.83,6.11,32.92,8.45c5.42,1.32,10.93-0.19,16.41-0.21
				c-5.7-14.71-13.6-28.52-23.33-40.93c-6.47,5.74-15.59,7.19-23.77,4.79c-4.58-0.85-9.29-4.33-13.93-1.93
				c-7.12,3.2-14.59,7.59-22.73,5.99C292.93,164.04,286.8,158.48,282.32,152.33z M346.61,321.23c-13.6,3.16-24.26,16.29-24.14,30.32
				c-0.35,11.68,6.71,22.95,16.95,28.36c11.58,6.19,27.2,4.17,36.31-5.47c6.82-6.22,10.29-15.62,9.41-24.8
				C384.69,331.01,364.6,316.26,346.61,321.23z"/>
		</g>
		<path class="st1" d="M240.06,224.37c13.89-1.48,27.14,6.81,35.12,17.69c7.9,10.61,8.07,27.16-1.67,36.69
			c-8.55,7.94-17.93,14.94-26.38,23c-6.86,6.29,1.27,15.77-1.79,23.45c-1.72,9.51-11.23,13.24-19.25,15.98
			c-2.44,8.94-1.29,18.95-6.51,27.1c-4.74,8.86-16.09,14.01-25.65,10.04c-9.66-3.99-16.95-14.64-16.34-25.09
			C195.12,308.75,217.06,266.19,240.06,224.37z"/>
	</g>
</g>
</svg>
