<svg id="Layer_1" data-name="Layer 1" xmlns="http://www.w3.org/2000/svg" viewBox="0 0 1080 333.2"><defs><style>.cls-1{fill:#ee7922;}.cls-2{fill:#fff;}.cls-3{isolation:isolate;}</style></defs><path class="cls-1" d="M205.37,24.66C207.84,21,210.32,16,215.26,16c3.71,4.94,0,9.89-2.47,13.6A1.21,1.21,0,0,0,214,30.84c1.23,0,2.47,0,2.47,1.24s0,3.71-1.24,4.94A4.54,4.54,0,0,1,219,38.26c0,2.47-1.24,3.71,0,6.18s2.47,3.71,1.24,6.18c0,1.24-2.48,1.24-2.48,0-3.7-3.71-6.18-7.42-9.89-11.13-2.47,2.48-3.7,4.95-6.18,7.42-1.23,2.47,1.24,6.18,0,8.66-3.71,0-3.71-5-6.18-6.19a24.24,24.24,0,0,1-8.65-1.23c1.24-3.71,6.18-2.47,8.65-4.95s3.71-4.94,5-8.65c-6.18-3.71-12.36-3.71-17.31-6.18,0-1.24,1.24-2.47,1.24-3.71h6.18c1.23-1.24,1.23-2.47,2.47-2.47h1.24a4.34,4.34,0,0,0,1.23,2.47c1.24,0,2.47-1.24,3.71-2.47h1.24c0,1.23,1.23,1.23,1.23,2.47Z"/><path class="cls-1" d="M178.18,71.64c3.7-3.71,7.41-8.66,11.12-12.37-2.47,7.42-7.42,14.84-11.12,21-21,33.38-40.8,68-59.34,102.6-12.36,24.73-23.49,49.45-30.91,75.41C85.46,268.19,83,278.08,83,289.21a7.92,7.92,0,0,0,9.89,7.41c12.36-1.23,22.25-8.65,32.14-14.83,0,3.71-2.47,6.18-3.71,8.65-7.42,11.13-17.31,19.78-29.67,24.73-6.18,2.47-13.6,3.71-19.78-2.47-4.94-4.95-6.18-12.37-7.41-19.78-1.24-9.89,0-19.78,2.47-29.67,4.94-22.25,13.6-42,23.49-61.81C113.89,155.7,144.8,112.43,178.18,71.64Z"/><path class="cls-2" d="M92.88,72.87C117.6,58,147.27,54.33,175.7,61.75a86.89,86.89,0,0,1-9.89,12.36,81.75,81.75,0,0,0-34.61,0c2.47,9.89,9.89,19.78,8.65,30.9,0,4.95-3.71,8.66-6.18,12.37-3.71,3.7-9.89,2.47-14.83,3.7-3.71,1.24-6.18,5-9.89,6.18-5,2.48-11.13-1.23-16.07,1.24,7.42,6.18,18.54,6.18,27.19,8.65-9.89,16.08-21,33.38-29.66,49.45a67.76,67.76,0,0,1-8.66-11.12c-1.23-4.95-1.23-9.89-1.23-14.84C71.86,154.46,63.21,147,57,138.39c-8.66,27.2-3.71,58.1,12.36,81.59,1.24,1.24,2.47,3.71,1.24,4.94-1.24,5-3.71,8.66-4.95,13.6-21-22.25-30.9-53.15-27.2-84.06C42.19,121.08,63.21,88.94,92.88,72.87Z"/><path class="cls-2" d="M170.76,105c7.42-12.36,16.07-24.72,22.25-37.08a107,107,0,0,1,49.45,47c16.07,29.67,17.3,68,2.47,98.9a5.43,5.43,0,0,0,1.24,6.18c3.71,9.89,1.23,19.78-3.71,28.43l17.3,17.31c1.24,1.24,2.48,2.47,2.48,3.71,1.23,3.71-2.48,7.42-6.18,7.42-2.48,0-3.71-1.24-6.18-3.71L233.8,257.07c-1.23-1.24-1.23-2.48-2.47-1.24-8.65,4.94-18.54,6.18-27.19,2.47-2.48-1.23-3.71,0-6.19,1.24a106.19,106.19,0,0,1-105.07,0c1.23-5,2.47-9.89,3.71-13.6,27.19,16.07,63,17.31,91.48,2.47-3.71-7.41-6.19-21,0-32.14a27.89,27.89,0,0,1,21-16.07c1.24-3.71,2.47-7.42,1.24-12.36-1.24-2.47-3.71-2.47-6.18-3.71-6.19-2.47-12.37-4.94-17.31-8.65-3.71-2.48-7.42-6.18-8.65-11.13-1.24-7.42,1.23-14.83,4.94-21,3.71-7.42,12.36-13.6,21-13.6,7.41,0,13.59,3.71,21,4.94,3.71,1.24,7.42,0,9.89,0-3.71-8.65-8.65-18.54-14.83-26a13.14,13.14,0,0,1-14.84,2.47c-2.47,0-6.18-2.47-8.65-1.23-4.95,2.47-8.65,4.94-14.84,3.71C178.18,112.43,174.47,108.72,170.76,105Zm40.79,106.32c-8.65,2.47-14.83,9.89-14.83,18.54,0,7.42,3.71,14.83,11.12,17.31,7.42,3.71,17.31,2.47,22.26-3.71,3.7-3.71,6.18-9.89,6.18-16.07C235,217.51,222.68,208.85,211.55,211.33Z"/><path class="cls-2" d="M144.8,150.75c8.65-1.23,17.31,3.71,22.25,11.13,4.94,6.18,4.94,17.31-1.24,23.49-4.94,4.94-11.12,9.89-16.07,14.83-3.71,3.71,1.24,9.89-1.23,14.84-1.24,6.18-7.42,8.65-12.37,9.88-1.23,6.19-1.23,12.37-3.7,17.31-2.48,6.18-9.89,8.66-16.07,6.18s-11.13-8.65-9.89-16.07C116.37,203.91,130,176.71,144.8,150.75Z"/><path class="cls-2" d="M330.23,80.29V155.7c0,7.41,2.47,13.6,6.18,17.3s8.65,6.19,16.07,6.19,12.36-2.48,16.07-6.19,6.18-9.89,6.18-17.3V80.29h30.91V155.7c0,11.12-2.48,21-7.42,28.43s-11.13,13.6-19.78,17.31-17.31,6.18-27.2,6.18-18.54-2.47-27.19-6.18c-7.42-3.71-13.6-9.89-18.55-17.31s-7.41-17.31-7.41-28.43V80.29Z"/><path class="cls-2" d="M541.62,207.62H510.71l-51.92-77.88v77.88h-30.9V80.29h30.9l51.92,79.12V80.29h30.91Z"/><path class="cls-2" d="M594.78,80.29V207.62H563.87V80.29Z"/><g class="cls-3"><path class="cls-1" d="M708.51,140.86a37.64,37.64,0,0,1-16.07,14.84,57.49,57.49,0,0,1-26,6.18H646.7v45.74H615.79V80.29h50.68c9.89,0,18.55,1.24,26,4.94a37.64,37.64,0,0,1,16.07,14.84c3.7,6.18,4.94,13.6,4.94,21S712.21,134.68,708.51,140.86Zm-30.91-7.41a16.52,16.52,0,0,0,4.95-12.37c0-6.18-1.24-8.65-4.95-12.36-2.47-2.47-7.42-3.71-13.6-3.71H646.7v32.14H664C670.18,137.15,675.13,135.92,677.6,133.45Z"/><path class="cls-1" d="M795,207.62l-26-48.21h-7.42v48.21h-30.9V80.29h51.92c9.89,0,18.54,1.24,26,4.94a37.59,37.59,0,0,1,16.07,14.84c3.71,6.18,4.94,12.36,4.94,19.78q0,13-7.41,22.25a41.69,41.69,0,0,1-21,13.6l29.67,50.68L795,207.62Zm-34.61-70.47h19.78c6.18,0,9.89-1.23,12.36-3.7s3.71-6.19,3.71-12.37q0-7.41-3.71-11.12c-2.47-2.47-7.42-3.71-12.36-3.71H760.43v30.9Z"/><path class="cls-1" d="M879.1,105v26h42v23.49h-42v28.43h47v24.73H848.2V80.29h77.88V105Z"/><path class="cls-1" d="M1037.34,140.86a37.61,37.61,0,0,1-16.08,14.84,57.42,57.42,0,0,1-26,6.18H975.53v45.74H944.62V80.29H995.3c9.89,0,18.55,1.24,26,4.94a37.61,37.61,0,0,1,16.08,14.84c3.7,6.18,4.94,13.6,4.94,21S1041,134.68,1037.34,140.86Zm-30.91-7.41a16.52,16.52,0,0,0,4.94-12.37c0-6.18-1.23-8.65-4.94-12.36C1004,106.25,999,105,992.83,105h-17.3v32.14h17.3C999,137.15,1004,135.92,1006.43,133.45Z"/></g><rect class="cls-1" x="299.32" y="222.48" width="693.51" height="4.9"/><path class="cls-2" d="M318.13,270.67a18.46,18.46,0,0,1-6.72-1.19,16,16,0,0,1-5.34-3.35,15.06,15.06,0,0,1-3.53-5.11,17.19,17.19,0,0,1,0-12.87,15,15,0,0,1,3.55-5.12,16.39,16.39,0,0,1,5.39-3.35,18.61,18.61,0,0,1,6.74-1.18,19,19,0,0,1,7.17,1.29,14.13,14.13,0,0,1,5.39,3.8l-3.67,3.58a11.52,11.52,0,0,0-8.62-3.58,12.56,12.56,0,0,0-4.56.81,10.54,10.54,0,0,0-3.62,2.27,10.31,10.31,0,0,0-2.34,3.49,12.08,12.08,0,0,0,0,8.8,10.36,10.36,0,0,0,5.92,5.81,12.34,12.34,0,0,0,4.56.8,13.94,13.94,0,0,0,4.49-.73,12.17,12.17,0,0,0,4.13-2.48l3.31,4.33a17.19,17.19,0,0,1-5.7,3A22,22,0,0,1,318.13,270.67Zm6.75-4.74v-11.7h5.5v12.46Z"/><path class="cls-2" d="M340.07,270.22V238.94h5.81v26.37h16.35v4.91Z"/><path class="cls-2" d="M383,270.67a18.2,18.2,0,0,1-6.74-1.21,16.27,16.27,0,0,1-5.36-3.37,15.11,15.11,0,0,1-3.53-5.1,17.06,17.06,0,0,1,0-12.82,15.07,15.07,0,0,1,3.53-5.09,16.29,16.29,0,0,1,5.36-3.38,19.36,19.36,0,0,1,13.42,0,16.41,16.41,0,0,1,5.34,3.38,15.07,15.07,0,0,1,3.53,5.09,16,16,0,0,1,1.25,6.41,16.22,16.22,0,0,1-1.25,6.44,14.88,14.88,0,0,1-3.53,5.09,16.5,16.5,0,0,1-5.34,3.35A17.92,17.92,0,0,1,383,270.67Zm0-5.1a11.61,11.61,0,0,0,4.38-.8,10.07,10.07,0,0,0,3.48-2.3,10.71,10.71,0,0,0,2.3-3.49,12.08,12.08,0,0,0,0-8.8,10.67,10.67,0,0,0-2.3-3.48,9.93,9.93,0,0,0-3.48-2.3,11.61,11.61,0,0,0-4.38-.81,11.47,11.47,0,0,0-4.36.81,10.31,10.31,0,0,0-3.48,2.3,10.75,10.75,0,0,0-2.33,3.48,12.16,12.16,0,0,0,0,8.78,10.88,10.88,0,0,0,2.31,3.51,10.07,10.07,0,0,0,3.48,2.3A11.61,11.61,0,0,0,382.92,265.57Z"/><path class="cls-2" d="M408,270.22V238.94h14.65q5.63,0,8.58,2.22a7,7,0,0,1,2.95,5.92,7.58,7.58,0,0,1-1.16,4.26,7.76,7.76,0,0,1-3.11,2.73,9.37,9.37,0,0,1-4.22,1l.8-1.61a11.28,11.28,0,0,1,4.74,1,7.85,7.85,0,0,1,3.33,2.79,8,8,0,0,1,1.23,4.56,7.29,7.29,0,0,1-3.09,6.26c-2.05,1.49-5.11,2.23-9.16,2.23Zm5.8-4.56h9.39a9.55,9.55,0,0,0,5-1.07,4.25,4.25,0,0,0,0-6.86,9.44,9.44,0,0,0-5-1.09h-9.83v-4.51H422a8.42,8.42,0,0,0,4.67-1.08,3.57,3.57,0,0,0,1.63-3.21,3.65,3.65,0,0,0-1.63-3.27A8.51,8.51,0,0,0,422,243.5h-8.22Z"/><path class="cls-2" d="M439.62,270.22l14.07-31.28h5.72l14.12,31.28h-6.08L455.35,242h2.32l-12.06,28.19ZM446.1,263l1.56-4.55h16.89l1.56,4.55Z"/><path class="cls-2" d="M479.56,270.22V238.94h5.81v26.37h16.35v4.91Z"/><path class="cls-2" d="M528.58,270.22h-5.81V238.94h5.81Zm16.62-13.4H528.08v-5H545.2Zm-.45-17.88h5.81v31.28h-5.81Z"/><path class="cls-2" d="M561,270.22V238.94h5.81v31.28Z"/><path class="cls-2" d="M577.32,270.22V238.94h12.87a17.1,17.1,0,0,1,7.12,1.35,10.23,10.23,0,0,1,4.58,3.84,10.69,10.69,0,0,1,1.61,5.94,10.58,10.58,0,0,1-1.61,5.92,10.22,10.22,0,0,1-4.58,3.8,17.44,17.44,0,0,1-7.12,1.32h-9.65l2.59-2.64v11.75Zm5.81-11.12-2.59-2.77h9.38a8.77,8.77,0,0,0,5.79-1.66,5.72,5.72,0,0,0,1.94-4.6,5.64,5.64,0,0,0-1.94-4.6,8.94,8.94,0,0,0-5.79-1.61h-9.38l2.59-2.86Zm14.65,11.12-7.9-11.35h6.21L604,270.22Z"/><path class="cls-2" d="M612,270.22V238.94h5.81v31.28Z"/><path class="cls-2" d="M628.35,270.22V238.94h4.78L652.74,263h-2.37V238.94h5.77v31.28h-4.78l-19.62-24.08h2.37v24.08Z"/><path class="cls-2" d="M681.2,270.67a18.46,18.46,0,0,1-6.72-1.19,16,16,0,0,1-5.34-3.35,15.06,15.06,0,0,1-3.53-5.11,17.19,17.19,0,0,1,0-12.87,15,15,0,0,1,3.55-5.12,16.35,16.35,0,0,1,5.38-3.35,18.7,18.7,0,0,1,6.75-1.18,19,19,0,0,1,7.17,1.29,14.13,14.13,0,0,1,5.39,3.8l-3.67,3.58a11.52,11.52,0,0,0-8.62-3.58,12.56,12.56,0,0,0-4.56.81,10.45,10.45,0,0,0-3.62,2.27,10.31,10.31,0,0,0-2.34,3.49,12.08,12.08,0,0,0,0,8.8,10.36,10.36,0,0,0,5.92,5.81,12.32,12.32,0,0,0,4.55.8,13.85,13.85,0,0,0,4.49-.73,12.11,12.11,0,0,0,4.14-2.48l3.3,4.33a17,17,0,0,1-5.69,3A22,22,0,0,1,681.2,270.67Zm6.75-4.74v-11.7h5.49v12.46Z"/><path class="cls-2" d="M717.53,270.22V238.94h12.86a17.15,17.15,0,0,1,7.13,1.35,10.29,10.29,0,0,1,4.58,3.84,11.76,11.76,0,0,1,0,11.88,10.37,10.37,0,0,1-4.58,3.85,17.31,17.31,0,0,1-7.13,1.34h-9.65l2.59-2.73v11.75Zm5.8-11.12-2.59-2.82h9.39q3.84,0,5.78-1.63a6.38,6.38,0,0,0,0-9.18q-1.93-1.6-5.78-1.61h-9.39l2.59-2.86Z"/><path class="cls-2" d="M751.57,270.22V238.94h5.81v26.37h16.35v4.91Z"/><path class="cls-2" d="M776,270.22l14.08-31.28h5.71l14.12,31.28h-6.07L791.74,242h2.32L782,270.22Zm6.48-7.24,1.56-4.55h16.89l1.57,4.55Z"/><path class="cls-2" d="M820.74,270.22V243.86H810.37v-4.92h26.54v4.92H826.54v26.36Z"/><path class="cls-2" d="M849.15,270.22h-5.81V238.94h22.84v4.88h-17Zm-.49-16.89h15.59v4.92H848.66Z"/><path class="cls-2" d="M888.16,270.67a18.25,18.25,0,0,1-6.75-1.21,16.37,16.37,0,0,1-5.36-3.37,15.11,15.11,0,0,1-3.53-5.1,17.06,17.06,0,0,1,0-12.82,15.07,15.07,0,0,1,3.53-5.09,16.39,16.39,0,0,1,5.36-3.38,19.39,19.39,0,0,1,13.43,0,16.41,16.41,0,0,1,5.34,3.38,15.22,15.22,0,0,1,3.53,5.09,16.21,16.21,0,0,1,1.25,6.41,16.4,16.4,0,0,1-1.25,6.44,15,15,0,0,1-3.53,5.09,16.5,16.5,0,0,1-5.34,3.35A18,18,0,0,1,888.16,270.67Zm0-5.1a11.61,11.61,0,0,0,4.38-.8,10.21,10.21,0,0,0,3.49-2.3,10.87,10.87,0,0,0,2.3-3.49,12.21,12.21,0,0,0,0-8.8,10.83,10.83,0,0,0-2.3-3.48,10.06,10.06,0,0,0-3.49-2.3,11.61,11.61,0,0,0-4.38-.81,11.38,11.38,0,0,0-4.35.81,10.25,10.25,0,0,0-3.49,2.3,10.56,10.56,0,0,0-2.32,3.48,12,12,0,0,0,0,8.78,10.85,10.85,0,0,0,2.3,3.51,10.07,10.07,0,0,0,3.48,2.3A11.61,11.61,0,0,0,888.11,265.57Z"/><path class="cls-2" d="M913.18,270.22V238.94h12.87a17.1,17.1,0,0,1,7.12,1.35,10.29,10.29,0,0,1,4.58,3.84,10.69,10.69,0,0,1,1.61,5.94,10.58,10.58,0,0,1-1.61,5.92,10.27,10.27,0,0,1-4.58,3.8,17.44,17.44,0,0,1-7.12,1.32H916.4l2.59-2.64v11.75ZM919,259.1l-2.59-2.77h9.38a8.77,8.77,0,0,0,5.79-1.66,5.72,5.72,0,0,0,1.94-4.6,5.64,5.64,0,0,0-1.94-4.6,8.94,8.94,0,0,0-5.79-1.61H916.4L919,241Zm14.65,11.12-7.91-11.35h6.21l8,11.35Z"/><path class="cls-2" d="M947.89,270.22V238.94h4.79l13.67,22.84h-2.5l13.44-22.84h4.79l0,31.28h-5.5l0-22.65h1.16L966.3,266.65h-2.59l-11.62-19.08h1.35v22.65Z"/></svg>