<?xml version="1.0" encoding="UTF-8"?>
<svg id="Layer_1" data-name="Layer 1" xmlns="http://www.w3.org/2000/svg" viewBox="0 0 500 250">
  <defs>
    <style>
      .cls-1 {
        fill: #ee7922;
      }

      .cls-1, .cls-2 {
        stroke-width: 0px;
      }

      .cls-2 {
        fill: #3f4c82;
      }
    </style>
  </defs>
  <g>
    <path class="cls-1" d="M89.18,70.53c.85-1.27,1.67-2.96,3.4-2.96,1.26,1.69,0,3.39-.86,4.65,0,.22.17.41.39.43h0c.42,0,.85,0,.85.42.06.59-.09,1.19-.42,1.69.46-.05.93.11,1.26.43,0,.85-.43,1.27,0,2.12s.85,1.27.42,2.12c0,.42-.85.42-.85,0-1.26-1.28-2.11-2.55-3.37-3.83-.85.85-1.27,1.69-2.13,2.54-.42.84.42,2.12,0,2.96-1.27,0-1.26-1.69-2.11-2.12-1,.03-2-.12-2.96-.43.42-1.27,2.12-.85,2.96-1.65.82-.82,1.4-1.84,1.7-2.96-2.11-1.27-4.23-1.28-5.88-2.13,0-.42.42-.85.42-1.26h2.12c.42-.42.42-.85.85-.84h.42c.03.33.18.63.42.85.42,0,.85-.42,1.27-.85h.42c0,.42.42.42.42.85l1.25-.02Z"/>
    <path class="cls-1" d="M79.81,86.58c1.28-1.26,2.55-2.95,3.83-4.22-.85,2.54-2.56,5.04-3.84,7.15-7.19,11.37-14.02,23.17-20.35,34.94-4.25,8.42-8.07,16.83-10.62,25.68-1.01,3.43-1.58,6.98-1.69,10.55.04,1.48,1.28,2.66,2.76,2.62h0c.2,0,.4-.03.6-.07,4.19-.42,7.59-2.91,10.98-5.05,0,1.27-.85,2.12-1.28,2.96-2.44,3.77-5.97,6.71-10.13,8.4-2.13.84-4.66,1.26-6.74-.87-1.66-1.69-2.1-4.24-2.53-6.75-.34-3.4-.04-6.82.88-10.11,1.69-7.55,4.71-14.28,8.09-21.04,8.04-15.54,18.61-30.33,30.05-44.2Z"/>
    <path class="cls-2" d="M50.74,86.93c8.53-4.98,18.71-6.31,28.24-3.69-.99,1.51-2.13,2.92-3.4,4.22-3.89-.85-7.93-.85-11.82,0,.84,3.39,3.37,6.75,2.93,10.56,0,1.69-1.28,2.96-2.13,4.23-1.27,1.24-3.36.81-5.01,1.24-1.28.42-2.13,1.69-3.4,2.1-1.69.85-3.8-.43-5.49.41,2.53,2.13,6.28,2.13,9.27,2.99-3.4,5.49-7.2,11.38-10.2,16.83-1.11-1.16-2.09-2.44-2.92-3.82-.34-1.66-.48-3.35-.41-5.04-3.05-2.1-5.75-4.67-8-7.62-2.91,9.44-1.37,19.7,4.17,27.88.42.42.85,1.27.42,1.69-.43,1.66-1.29,2.96-1.68,4.62-7.17-7.73-10.54-18.25-9.19-28.71,1.24-11.49,8.41-22.44,18.61-27.88Z"/>
    <path class="cls-2" d="M77.24,97.98c2.56-4.22,5.49-8.42,7.62-12.64,7.22,3.37,13.13,9.03,16.82,16.1,5.49,10.53,5.77,23.01.75,33.77-.31.72-.15,1.57.42,2.12,1.26,3.39.41,6.74-1.3,9.7l5.88,5.91c.42.42.85.85.85,1.27.42,1.27-.85,2.54-2.13,2.54-.85,0-1.27-.43-2.12-1.28l-5.45-5.49c-.42-.42-.42-.84-.84-.42-2.97,1.65-6.32,2.1-9.28.78-.85-.43-1.27,0-2.13.42-11.13,6.28-24.75,6.24-35.84-.11.43-1.66.85-3.38,1.28-4.61,9.59,5.55,21.32,5.9,31.23.93-1.26-2.54-2.1-7.17,0-10.98,1.31-2.92,4.01-4.99,7.18-5.49.58-1.33.73-2.81.44-4.24-.42-.85-1.27-.85-2.12-1.27-2.09-.72-4.07-1.72-5.88-2.99-1.42-.86-2.47-2.22-2.95-3.82-.29-2.51.31-5.05,1.71-7.15,1.41-2.7,4.13-4.47,7.18-4.64,2.54,0,4.62,1.29,7.16,1.72,1.26.42,2.53,0,3.38,0-1.26-3.18-2.96-6.16-5.05-8.87-1.34,1.32-3.35,1.66-5.05.86-.84,0-2.11-.85-2.96-.43-1.69.84-2.97,1.69-5.05,1.26-1.21-.42-2.46-1.66-3.73-2.93ZM91.08,134.3c-2.92.72-5.01,3.28-5.12,6.28,0,2.54,1.26,5.05,3.79,5.91,2.54,1.27,5.89.86,7.59-1.25,1.38-1.5,2.14-3.46,2.13-5.49-.41-3.36-4.6-6.33-8.41-5.49l.02.05Z"/>
    <path class="cls-2" d="M68.33,113.54c2.96-.42,5.89,1.29,7.58,3.84,1.73,2.45,1.54,5.77-.45,8.02-1.66,1.66-3.82,3.37-5.49,5.07-1.28,1.26.42,3.39-.44,5.04-.43,2.11-2.55,2.96-4.24,3.37-.43,2.11-.44,4.23-1.29,5.89-.95,2.09-3.4,3.02-5.49,2.09-2.27-.82-3.67-3.1-3.37-5.49,3.55-9.66,7.96-18.97,13.19-27.83Z"/>
  </g>
  <g>
    <path class="cls-2" d="M132.37,89.11l-.1,37.22c-.15,3.14.94,6.21,3.03,8.55,2.1,2.1,4.98,3.22,7.95,3.09,2.96.16,5.85-.95,7.95-3.04,2.08-2.35,3.18-5.4,3.09-8.53l.11-37.22,15.25.06-.11,37.22c.16,4.94-1.13,9.82-3.71,14.03-2.35,3.73-5.75,6.69-9.77,8.5-8.5,4.05-18.38,4.03-26.86-.08-3.72-2.01-6.86-4.96-9.08-8.56-2.55-4.23-3.81-9.12-3.63-14.06l.11-37.22,15.79.03Z"/>
    <path class="cls-2" d="M236.63,152.33h-15.27l-25.53-38.57-.11,38.45h-15.27l.18-62.98h15.27l25.52,39.15.11-39.08h15.27l-.17,63.02Z"/>
    <path class="cls-2" d="M263.04,89.5l-.18,62.91h-15.26l.18-62.91h15.26Z"/>
    <path class="cls-1" d="M319.12,119.59c-1.88,3.17-4.64,5.72-7.95,7.33-3.98,1.99-8.37,3.03-12.82,3.03h-9.75l-.07,22.57h-15.27l.18-62.91,24.98.07c4.9,0,9.08.65,12.81,2.44,3.34,1.59,6.11,4.17,7.95,7.38,1.71,3.18,2.53,6.77,2.36,10.38.14,3.4-.7,6.77-2.42,9.71ZM303.86,115.92c1.64-1.61,2.53-3.82,2.47-6.12,0-3.07-.6-4.29-2.44-6.13-1.21-1.24-3.67-1.85-6.73-1.86h-8.53v15.89h8.53c3.04.05,5.47-.62,6.7-1.78Z"/>
    <path class="cls-1" d="M361.76,152.7l-12.75-23.84h-3.68l-.07,23.84h-15.26l.18-62.91,25.64.07c4.9,0,9.14.65,12.81,2.44,6.52,3.16,10.53,9.89,10.22,17.13.08,3.98-1.23,7.87-3.71,10.98-2.69,3.24-6.32,5.58-10.38,6.7l14.57,25.07-17.62.61.06-.09ZM344.73,117.88h9.77c3.07,0,4.9-.6,6.13-1.82s1.85-3.05,1.86-6.12c.16-2.01-.5-4.01-1.83-5.53-1.24-1.23-3.68-1.84-6.12-1.85h-9.77l-.05,15.32Z"/>
    <path class="cls-1" d="M403.43,102.17v12.82l20.73.07v11.6h-20.73v14.04l23.22.07v12.2l-38.49-.11.18-62.93,38.45.11v12.2l-23.36-.08Z"/>
    <path class="cls-1" d="M481.5,120.07c-1.89,3.16-4.65,5.71-7.95,7.33-3.98,1.99-8.38,3.02-12.83,3.02h-9.75l-.07,22.57h-15.27l.19-62.92,24.98.08c4.9,0,9.14.64,12.82,2.43,3.32,1.6,6.07,4.18,7.89,7.38,1.72,3.18,2.54,6.77,2.37,10.38.15,3.4-.68,6.78-2.38,9.73ZM466.29,116.41c1.64-1.6,2.52-3.83,2.42-6.12.24-2.31-.64-4.59-2.37-6.14-1.23-1.23-3.68-1.85-6.74-1.85h-8.53v15.89h8.53c3.07.07,5.52-.59,6.74-1.76l-.05-.02Z"/>
  </g>
</svg>