<?xml version="1.0" encoding="utf-8"?>
<!-- Generator: Adobe Illustrator 28.0.0, SVG Export Plug-In . SVG Version: 6.00 Build 0)  -->
<svg version="1.1" id="Layer_1" xmlns="http://www.w3.org/2000/svg" xmlns:xlink="http://www.w3.org/1999/xlink" x="0px" y="0px"
	 viewBox="0 0 704.68 234.38" style="enable-background:new 0 0 704.68 234.38;" xml:space="preserve">
<style type="text/css">
	.st0{fill:#F1780F;}
	.st1{fill:#FFFFFF;}
	.st2{enable-background:new    ;}
	.st3{fill:#F0780C;}
	.st4{fill:none;stroke:#F0780C;stroke-width:2;stroke-miterlimit:10;}
</style>
<g>
	<g>
		<path class="st0" d="M128.39,21.17c1.53-2.54,3.14-5.71,6.56-5.76c2.67,2.96-0.39,6.38-1.96,9.02c0.13,0.24,0.4,0.72,0.53,0.96
			c0.68,0.15,1.35,0.31,2.02,0.47c-0.17,1.17-0.41,2.33-0.56,3.5c0.94,0.09,2-0.05,2.82,0.54c-0.24,1.27-1.25,2.6-0.41,3.87
			c0.44,1.32,1.88,2.87,0.56,4.12c-0.39,0.87-1.43,0.7-1.92,0.03c-2.37-2.54-4.56-5.24-6.91-7.8c-1.26,1.8-2.76,3.44-3.8,5.39
			c-0.7,2.01,1.08,4.29-0.12,6.21c-2.14,0.03-2.67-3.01-4.07-4.33c-1.83-0.15-3.64-0.41-5.42-0.86c0.45-2.81,3.93-1.94,5.62-3.41
			c1.26-1.81,2.43-3.73,3.2-5.79c-3.6-1.41-7.49-1.99-11.04-3.57c0.36-0.77,0.74-1.54,1.13-2.31c1.49-0.02,2.99-0.02,4.48-0.01
			c0.55-0.66,1.11-1.31,1.67-1.96c0.34,0.03,0.68,0.06,1.03,0.09c0.28,0.65,0.55,1.3,0.9,1.92c1.08,0.01,1.77-0.89,2.5-1.56
			c0.21-0.03,0.64-0.08,0.85-0.11c0.34,0.46,0.68,0.92,1.02,1.39C127.49,21.2,127.94,21.18,128.39,21.17z"/>
		<path class="st0" d="M110.02,53c2.42-2.9,4.59-6.07,7.52-8.51c-1.75,5.14-4.84,9.71-7.65,14.32C95.61,81.4,82,104.45,70.03,128.36
			c-8.14,16.49-15.75,33.37-20.72,51.12c-1.71,6.78-3.49,13.75-3,20.79c0.13,3.2,3.26,5.46,6.35,4.88
			c8.21-1.11,15.09-6.14,21.98-10.33c-0.29,2.28-1.38,4.32-2.73,6.15c-5.17,7.17-11.97,13.48-20.21,16.9
			c-4.12,1.73-9.58,2.09-12.94-1.35c-3.41-3.43-4.42-8.45-4.84-13.09c-0.54-6.72-0.13-13.51,1.39-20.08
			c3.18-14.64,9.2-28.48,15.89-41.81C67.43,109.95,88.02,80.8,110.02,53z"/>
	</g>
	<g>
		<path class="st1" d="M52.77,53.81c16.55-9.65,36.96-12.25,55.45-7.31c-2.06,2.83-4.35,5.49-6.47,8.28
			c-7.64-1.28-15.47-1.61-23.11-0.19c1.91,6.89,6.41,13.27,5.83,20.69c0,3.33-2.37,5.89-4.25,8.38c-2.5,2.73-6.55,1.83-9.73,2.9
			c-2.29,1.22-4.13,3.27-6.71,3.97c-3.59,1.43-7.43-0.66-11.01,0.69c5.05,4.54,12.1,4.11,18.23,5.85
			c-7,11.09-14.03,22.18-20.33,33.69c-2.26-2.19-4.39-4.66-5.43-7.68c-1.21-3.31-0.58-6.87-0.65-10.3
			c-5.93-4.17-11.31-9.11-16-14.63c-5.93,18.44-2.83,39.55,8.38,55.37c0.63,1,1.74,2.11,1.16,3.39c-1.22,3.04-2.4,6.08-3.56,9.15
			c-13.88-15.26-20.48-36.67-18.05-57.11C18.92,86.17,32.92,65.14,52.77,53.81z"/>
		<g>
			<path class="st1" d="M105.69,75.84c4.93-8.33,10.44-16.32,15.09-24.82c13.92,6.73,25.74,17.8,33.08,31.43
				c11.12,20.24,11.75,45.83,1.63,66.59c-0.96,1.5,0.36,3.03,0.77,4.47c2.45,6.29,1.15,13.52-2.48,19.09
				c4.03,4.01,8.02,8.04,12.07,12.04c0.78,0.8,1.61,1.63,1.96,2.73c0.67,2.44-1.68,5.02-4.13,4.86c-1.62,0-2.88-1.18-3.95-2.25
				c-3.45-3.53-6.98-6.97-10.43-10.51c-0.54-0.47-1.22-1.41-1.96-0.71c-5.51,3.35-12.52,4.23-18.58,1.87
				c-1.41-0.78-2.75,0.25-3.95,0.92c-21.39,12.1-48.99,12.13-70.48,0.23c0.81-3.19,1.74-6.36,2.89-9.45
				c18.53,11.13,42.77,11.63,61.81,1.43c-4.71-6.62-5.9-15.68-2.04-22.97c2.77-5.63,8.19-9.67,14.23-11.19
				c1.04-2.57,1.51-5.41,0.96-8.15c-0.8-1.42-2.54-1.81-3.93-2.42c-4.27-1.47-8.21-3.73-11.99-6.17c-2.65-1.75-5.09-4.27-5.56-7.53
				c-0.77-5.03,1.12-9.99,3.43-14.37c2.74-5.17,8.01-9.26,14-9.5c4.93-0.12,9.26,2.59,13.97,3.58c2.3,0.56,4.64-0.08,6.96-0.09
				c-2.42-6.24-5.77-12.1-9.9-17.37c-2.75,2.43-6.61,3.05-10.09,2.03c-1.94-0.36-3.94-1.84-5.91-0.82
				c-3.02,1.36-6.19,3.22-9.64,2.54C110.19,80.81,107.59,78.45,105.69,75.84z M132.97,147.5c-5.77,1.34-10.29,6.91-10.24,12.86
				c-0.15,4.95,2.85,9.74,7.19,12.03c4.91,2.63,11.54,1.77,15.41-2.32c2.89-2.64,4.37-6.63,3.99-10.52
				C149.12,151.65,140.6,145.39,132.97,147.5z"/>
		</g>
		<path class="st1" d="M87.76,106.4c5.89-0.63,11.52,2.89,14.9,7.51c3.35,4.5,3.43,11.52-0.71,15.57
			c-3.63,3.37-7.61,6.34-11.19,9.76c-2.91,2.67,0.54,6.69-0.76,9.95c-0.73,4.03-4.76,5.62-8.17,6.78c-1.04,3.79-0.55,8.04-2.76,11.5
			c-2.01,3.76-6.83,5.95-10.88,4.26c-4.1-1.69-7.19-6.21-6.93-10.65C68.69,142.21,78.01,124.15,87.76,106.4z"/>
	</g>
</g>
<g class="st2">
	<path class="st1" d="M213,58.89v51.24c0,5.12,1.26,9.07,3.78,11.83c2.52,2.77,6.22,4.15,11.1,4.15s8.62-1.38,11.22-4.15
		c2.6-2.76,3.9-6.71,3.9-11.83V58.89h20.86V110c0,7.65-1.63,14.11-4.88,19.4s-7.62,9.27-13.12,11.96
		c-5.49,2.68-11.61,4.03-18.36,4.03s-12.79-1.32-18.12-3.96s-9.54-6.63-12.63-11.96c-3.09-5.33-4.64-11.81-4.64-19.46V58.89H213z"/>
	<path class="st1" d="M355.13,144.53h-20.86L299.38,91.7v52.83h-20.86V58.89h20.86l34.89,53.07V58.89h20.86V144.53z"/>
	<path class="st1" d="M391.12,58.89v85.64h-20.86V58.89H391.12z"/>
</g>
<g class="st2">
	<path class="st3" d="M468.1,100.06c-2.28,4.11-5.78,7.42-10.49,9.94c-4.72,2.52-10.57,3.78-17.57,3.78h-12.93v30.74h-20.86V58.89
		h33.79c6.83,0,12.61,1.18,17.32,3.54c4.72,2.36,8.25,5.61,10.61,9.76s3.54,8.91,3.54,14.27C471.52,91.42,470.38,95.96,468.1,100.06
		z M447.36,94.39c1.95-1.87,2.93-4.51,2.93-7.93s-0.98-6.06-2.93-7.93c-1.95-1.87-4.92-2.81-8.91-2.81H427.1V97.2h11.35
		C442.44,97.2,445.41,96.26,447.36,94.39z"/>
	<path class="st3" d="M526.05,144.53l-17.81-32.33h-5v32.33h-20.86V58.89h35.01c6.75,0,12.5,1.18,17.26,3.54s8.32,5.59,10.67,9.7
		c2.36,4.11,3.54,8.68,3.54,13.73c0,5.69-1.61,10.78-4.82,15.25s-7.95,7.65-14.21,9.52l19.76,33.92h-23.54V144.53z M503.23,97.44
		h12.93c3.82,0,6.69-0.93,8.6-2.81c1.91-1.87,2.87-4.51,2.87-7.93c0-3.25-0.96-5.81-2.87-7.69c-1.91-1.87-4.78-2.81-8.6-2.81h-12.93
		L503.23,97.44L503.23,97.44z"/>
	<path class="st3" d="M582.78,75.6v17.32h27.94v16.1h-27.94v18.79h31.6v16.71h-52.46V58.89h52.46V75.6H582.78z"/>
	<path class="st3" d="M689.77,100.06c-2.28,4.11-5.78,7.42-10.49,9.94c-4.72,2.52-10.57,3.78-17.57,3.78h-12.93v30.74h-20.86V58.89
		h33.79c6.83,0,12.61,1.18,17.32,3.54c4.72,2.36,8.25,5.61,10.61,9.76s3.54,8.91,3.54,14.27
		C693.19,91.42,692.05,95.96,689.77,100.06z M669.03,94.39c1.95-1.87,2.93-4.51,2.93-7.93s-0.98-6.06-2.93-7.93
		s-4.92-2.81-8.91-2.81h-11.35V97.2h11.35C664.11,97.2,667.08,96.26,669.03,94.39z"/>
</g>
<g class="st2">
	<path class="st1" d="M202.76,182.51v7.02h-2.87v-7.08l-8.06-13.22h3.1l6.5,10.7l6.52-10.7h2.87L202.76,182.51z"/>
	<path class="st1" d="M221.49,188.41c-1.64-0.9-2.93-2.14-3.87-3.73c-0.94-1.58-1.41-3.35-1.41-5.31c0-1.95,0.47-3.72,1.41-5.31
		c0.94-1.58,2.23-2.83,3.87-3.73s3.49-1.35,5.54-1.35c2.03,0,3.87,0.45,5.51,1.35c1.64,0.9,2.93,2.14,3.86,3.71
		c0.93,1.58,1.39,3.35,1.39,5.32s-0.46,3.75-1.39,5.32c-0.93,1.58-2.21,2.81-3.86,3.71c-1.64,0.9-3.48,1.35-5.51,1.35
		C224.98,189.76,223.14,189.31,221.49,188.41z M231.05,186.17c1.19-0.68,2.13-1.61,2.81-2.8c0.69-1.19,1.03-2.52,1.03-3.99
		s-0.34-2.8-1.03-3.99s-1.62-2.12-2.81-2.8s-2.53-1.02-4.02-1.02s-2.84,0.34-4.05,1.02c-1.21,0.68-2.16,1.61-2.84,2.8
		c-0.69,1.19-1.03,2.52-1.03,3.99s0.34,2.8,1.03,3.99s1.63,2.12,2.84,2.8c1.21,0.68,2.56,1.02,4.05,1.02
		S229.86,186.84,231.05,186.17z"/>
	<path class="st1" d="M249.3,187.44c-1.51-1.55-2.26-3.77-2.26-6.67v-11.54h2.9v11.43c0,4.35,1.9,6.53,5.71,6.53
		c1.86,0,3.28-0.54,4.26-1.61c0.99-1.07,1.48-2.71,1.48-4.92v-11.43h2.81v11.54c0,2.92-0.75,5.15-2.26,6.68
		c-1.51,1.54-3.62,2.31-6.32,2.31C252.92,189.76,250.81,188.99,249.3,187.44z"/>
	<path class="st1" d="M288.71,189.53l-4.38-6.24c-0.54,0.04-0.97,0.06-1.28,0.06h-5.02v6.18h-2.9v-20.3h7.92
		c2.63,0,4.7,0.63,6.21,1.88s2.26,2.99,2.26,5.19c0,1.57-0.39,2.9-1.16,4s-1.88,1.9-3.31,2.41l4.81,6.82H288.71z M287.18,179.7
		c0.97-0.79,1.45-1.92,1.45-3.39s-0.48-2.6-1.45-3.38s-2.37-1.17-4.21-1.17h-4.93v9.14h4.93
		C284.81,180.89,286.21,180.49,287.18,179.7z"/>
	<path class="st1" d="M328.07,179.26h2.78v7.92c-1.01,0.83-2.17,1.47-3.51,1.91c-1.33,0.44-2.73,0.67-4.18,0.67
		c-2.05,0-3.9-0.45-5.54-1.35c-1.64-0.9-2.93-2.14-3.87-3.71c-0.94-1.58-1.41-3.35-1.41-5.32s0.47-3.75,1.41-5.34
		c0.94-1.58,2.23-2.82,3.89-3.71c1.65-0.89,3.51-1.33,5.58-1.33c1.62,0,3.1,0.27,4.42,0.8s2.45,1.31,3.38,2.33l-1.8,1.8
		c-1.62-1.57-3.59-2.35-5.89-2.35c-1.55,0-2.93,0.33-4.16,1s-2.19,1.59-2.89,2.78s-1.04,2.53-1.04,4.02c0,1.47,0.35,2.8,1.04,3.99
		c0.7,1.19,1.66,2.12,2.89,2.8c1.23,0.68,2.6,1.02,4.13,1.02c1.82,0,3.4-0.44,4.76-1.31L328.07,179.26L328.07,179.26z"/>
	<path class="st1" d="M341.38,169.23h2.9v17.78h10.99v2.52h-13.89L341.38,169.23L341.38,169.23z"/>
	<path class="st1" d="M366.84,188.41c-1.64-0.9-2.93-2.14-3.87-3.73s-1.41-3.35-1.41-5.31c0-1.95,0.47-3.72,1.41-5.31
		c0.94-1.58,2.23-2.83,3.87-3.73c1.64-0.9,3.49-1.35,5.54-1.35c2.03,0,3.87,0.45,5.51,1.35c1.64,0.9,2.93,2.14,3.86,3.71
		c0.93,1.58,1.39,3.35,1.39,5.32s-0.46,3.75-1.39,5.32c-0.93,1.58-2.21,2.81-3.86,3.71c-1.64,0.9-3.48,1.35-5.51,1.35
		C370.33,189.76,368.48,189.31,366.84,188.41z M376.39,186.17c1.19-0.68,2.13-1.61,2.81-2.8c0.69-1.19,1.03-2.52,1.03-3.99
		s-0.34-2.8-1.03-3.99s-1.62-2.12-2.81-2.8c-1.19-0.68-2.53-1.02-4.02-1.02s-2.84,0.34-4.05,1.02s-2.16,1.61-2.84,2.8
		c-0.69,1.19-1.03,2.52-1.03,3.99s0.34,2.8,1.03,3.99s1.63,2.12,2.84,2.8c1.21,0.68,2.56,1.02,4.05,1.02
		C373.87,187.18,375.21,186.84,376.39,186.17z"/>
	<path class="st1" d="M409.01,180.79c0.68,0.86,1.01,1.95,1.01,3.26c0,1.76-0.66,3.11-1.99,4.06s-3.25,1.42-5.79,1.42h-9.69v-20.3
		h9.11c2.32,0,4.11,0.46,5.38,1.39c1.27,0.93,1.9,2.21,1.9,3.86c0,1.06-0.25,1.98-0.74,2.75s-1.16,1.36-1.99,1.77
		C407.4,179.33,408.33,179.93,409.01,180.79z M395.46,171.58v6.5h5.95c1.49,0,2.63-0.28,3.44-0.83c0.8-0.55,1.2-1.36,1.2-2.42
		s-0.4-1.87-1.2-2.42c-0.8-0.55-1.95-0.83-3.44-0.83H395.46z M405.84,186.37c0.83-0.54,1.25-1.39,1.25-2.55
		c0-2.26-1.65-3.39-4.96-3.39h-6.67v6.76h6.67C403.77,187.18,405.01,186.91,405.84,186.37z"/>
	<path class="st1" d="M432.44,184.46h-10.79l-2.23,5.08h-2.99l9.19-20.3h2.87l9.22,20.3h-3.04L432.44,184.46z M431.42,182.14
		l-4.38-9.95l-4.38,9.95H431.42z"/>
	<path class="st1" d="M445.72,169.23h2.9v17.78h10.99v2.52h-13.89L445.72,169.23L445.72,169.23z"/>
	<path class="st1" d="M493.66,184.46h-10.79l-2.23,5.08h-2.99l9.19-20.3h2.87l9.22,20.3h-3.04L493.66,184.46z M492.64,182.14
		l-4.38-9.95l-4.38,9.95H492.64z"/>
	<path class="st1" d="M506.94,169.23h8.56c2.15,0,4.05,0.42,5.71,1.28c1.66,0.85,2.95,2.04,3.87,3.58s1.38,3.3,1.38,5.29
		c0,1.99-0.46,3.76-1.38,5.29s-2.21,2.73-3.87,3.58s-3.57,1.28-5.71,1.28h-8.56V169.23z M515.32,187.01c1.64,0,3.09-0.32,4.34-0.96
		s2.21-1.53,2.89-2.68s1.01-2.48,1.01-3.99c0-1.51-0.34-2.84-1.01-3.99c-0.68-1.15-1.64-2.04-2.89-2.68s-2.69-0.96-4.34-0.96h-5.48
		V187h5.48V187.01z"/>
	<path class="st1" d="M552.87,169.23l-8.9,20.3h-2.87l-8.93-20.3h3.13l7.31,16.67l7.37-16.67H552.87z"/>
	<path class="st1" d="M560.44,169.23h2.9v20.3h-2.9V169.23z"/>
	<path class="st1" d="M575.91,189.05c-1.42-0.47-2.54-1.09-3.35-1.84l1.07-2.26c0.77,0.7,1.76,1.26,2.97,1.7
		c1.21,0.44,2.45,0.65,3.73,0.65c1.68,0,2.94-0.28,3.77-0.86c0.83-0.57,1.25-1.33,1.25-2.28c0-0.7-0.23-1.26-0.68-1.7
		s-1.01-0.77-1.68-1s-1.61-0.49-2.83-0.78c-1.53-0.37-2.76-0.73-3.7-1.1c-0.94-0.37-1.74-0.93-2.41-1.7s-1-1.79-1-3.09
		c0-1.08,0.29-2.06,0.86-2.93s1.44-1.57,2.6-2.09s2.6-0.78,4.32-0.78c1.2,0,2.38,0.16,3.54,0.46c1.16,0.31,2.16,0.75,2.99,1.33
		l-0.96,2.32c-0.85-0.54-1.76-0.95-2.73-1.23s-1.91-0.42-2.84-0.42c-1.64,0-2.88,0.3-3.7,0.9c-0.82,0.6-1.23,1.37-1.23,2.32
		c0,0.7,0.23,1.26,0.7,1.7c0.46,0.43,1.04,0.77,1.73,1.01c0.69,0.24,1.62,0.5,2.8,0.77c1.53,0.37,2.75,0.74,3.68,1.1
		s1.73,0.93,2.39,1.68s1,1.77,1,3.04c0,1.06-0.29,2.04-0.87,2.92s-1.46,1.58-2.64,2.09s-2.63,0.77-4.35,0.77
		C578.81,189.76,577.33,189.53,575.91,189.05z"/>
	<path class="st1" d="M601.04,188.41c-1.64-0.9-2.93-2.14-3.87-3.73c-0.94-1.58-1.41-3.35-1.41-5.31c0-1.95,0.47-3.72,1.41-5.31
		c0.94-1.58,2.23-2.83,3.87-3.73s3.49-1.35,5.54-1.35c2.03,0,3.87,0.45,5.51,1.35c1.64,0.9,2.93,2.14,3.86,3.71
		c0.93,1.58,1.39,3.35,1.39,5.32s-0.46,3.75-1.39,5.32c-0.93,1.58-2.21,2.81-3.86,3.71c-1.64,0.9-3.48,1.35-5.51,1.35
		C604.53,189.76,602.68,189.31,601.04,188.41z M610.6,186.17c1.19-0.68,2.13-1.61,2.81-2.8c0.69-1.19,1.03-2.52,1.03-3.99
		s-0.34-2.8-1.03-3.99s-1.62-2.12-2.81-2.8c-1.19-0.68-2.53-1.02-4.02-1.02s-2.84,0.34-4.04,1.02c-1.21,0.68-2.16,1.61-2.84,2.8
		c-0.69,1.19-1.03,2.52-1.03,3.99s0.34,2.8,1.03,3.99s1.63,2.12,2.84,2.8c1.21,0.68,2.56,1.02,4.04,1.02
		C608.07,187.18,609.41,186.84,610.6,186.17z"/>
	<path class="st1" d="M640.34,189.53l-4.38-6.24c-0.54,0.04-0.97,0.06-1.28,0.06h-5.02v6.18h-2.9v-20.3h7.92
		c2.63,0,4.7,0.63,6.21,1.88s2.26,2.99,2.26,5.19c0,1.57-0.39,2.9-1.16,4c-0.77,1.1-1.88,1.9-3.31,2.41l4.81,6.82H640.34z
		 M638.8,179.7c0.97-0.79,1.45-1.92,1.45-3.39s-0.48-2.6-1.45-3.38s-2.37-1.17-4.21-1.17h-4.93v9.14h4.93
		C636.43,180.89,637.83,180.49,638.8,179.7z"/>
</g>
<line class="st4" x1="191.93" y1="156.73" x2="659.93" y2="156.73"/>
</svg>
