<?xml version="1.0" encoding="UTF-8"?>
<svg id="Layer_1" data-name="Layer 1" xmlns="http://www.w3.org/2000/svg" viewBox="0 0 24 22">
  <defs>
    <style>
      .cls-1 {
        fill: #9cc32a;
      }

      .cls-2 {
        isolation: isolate;
      }
    </style>
  </defs>
  <g id="Layer_2" data-name="Layer 2" class="cls-2">
    <g id="InterfaceIcon">
      <path id="_01.Home" data-name=" 01.Home" class="cls-1" d="m22.76,8.26L14.46,1.3C13.04.11,10.96.11,9.53,1.3L1.23,8.26c-1.01.84-1.14,2.34-.3,3.35.42.5,1.02.8,1.67.85v6.76c0,1.31,1.06,2.37,2.37,2.37h5.1v-5.85c0-1.06.86-1.91,1.92-1.91,1.06,0,1.91.86,1.91,1.91v5.86h5.11c1.31,0,2.37-1.06,2.37-2.37v-6.76c1.31-.08,2.31-1.22,2.22-2.53-.04-.65-.35-1.25-.85-1.67h0Zm-1.53,3.3h-.75v7.67c0,.81-.65,1.47-1.46,1.47h-4.2v-4.95c0-1.56-1.26-2.82-2.82-2.82-1.56,0-2.82,1.26-2.82,2.82h0v4.95h-4.19c-.81,0-1.46-.65-1.47-1.46v-7.67h-.75c-.81,0-1.47-.66-1.47-1.47,0-.43.19-.85.53-1.13L10.12,2c1.09-.91,2.67-.91,3.76,0l8.3,6.96c.62.52.7,1.45.18,2.07-.28.33-.69.52-1.13.52Z"/>
    </g>
  </g>
</svg>