<?xml version="1.0" encoding="UTF-8"?>
<svg id="Layer_1" data-name="Layer 1" xmlns="http://www.w3.org/2000/svg" viewBox="0 0 20.25 21">
  <defs>
    <style>
      .cls-1 {
        fill: #273341;
        stroke: #273341;
        stroke-width: .3px;
      }
    </style>
  </defs>
  <g id="Admission">
    <path id="Path_8516" data-name="Path 8516" class="cls-1" d="m18.35,15.07c-.17-.09-.36-.15-.56-.16v-4.03c0-.15-.12-.27-.27-.27s-.27.12-.27.27v4.1h-.04s-3.67,1.33-3.67,1.33c.22-.74-.2-1.51-.94-1.73-.13-.04-.26-.06-.39-.06h-2.04c-.47,0-.93-.17-1.3-.47-.99-.83-2.31-1.16-3.57-.9V4.81h3.22c.15,0,.27-.12.27-.27,0,0,0,0,0,0V1.31h8.47v3.23c0,.15.12.27.27.27s.27-.12.27-.27V1.05c0-.15-.12-.27-.27-.27h-9.01c-.07,0-.14.03-.19.08l-3.49,3.5c-.05.05-.08.12-.08.19v8.76c-.32.11-.63.25-.93.41v-.43c0-.34-.27-.61-.61-.61h-1.97c-.34,0-.61.27-.61.61v5.87c0,.34.27.61.61.61h1.98c.34,0,.61-.27.61-.61v-.26c1.1.03,2.18.27,3.18.7,1.03.41,2.12.62,3.22.62.61,0,1.21-.06,1.8-.19,2.26-.48,4.42-1.32,6.4-2.51.66-.41.86-1.28.45-1.94-.13-.21-.32-.39-.54-.5ZM8.25,4.27h-2.58l2.58-2.58v2.58Zm-4.96,14.89s-.03.08-.07.08c0,0,0,0,0,0h-1.97s-.08-.03-.08-.07c0,0,0,0,0,0v-5.88s.03-.08.07-.08c0,0,0,0,0,0h1.98s.08.03.08.07c0,0,0,0,0,0v5.88h0Zm15.25-2.65c-.05.23-.19.42-.39.55-1.93,1.15-4.04,1.98-6.23,2.44-1.58.33-3.22.2-4.71-.4-1.06-.45-2.19-.7-3.34-.74h-.04v-4.04c1.42-1.03,3.35-.97,4.7.14.46.38,1.04.58,1.64.59h2.04c.47,0,.86.39.86.86,0,.05,0,.09-.01.14-.04.24-.19.45-.4.57-.02,0-.03.01-.05.02-.14.08-.3.11-.46.11h-2.32c-.15,0-.27.12-.27.27s.12.27.27.27h2.32c.25,0,.5-.06.73-.19l4.52-1.62c.23-.08.49-.06.71.05.35.18.53.58.44.96h0Z"/>
    <path id="Path_8517" data-name="Path 8517" class="cls-1" d="m16.57,4.54v-2.27c0-.15-.12-.27-.27-.27h-6.55c-.15,0-.27.12-.27.27v2.27c0,.15.12.27.27.27h6.55c.15,0,.27-.12.27-.27Zm-.54-.27h-6.02v-1.73h6.02v1.73Z"/>
    <path id="Path_8518" data-name="Path 8518" class="cls-1" d="m19.2,5.83c-.56-.56-1.46-.56-2.02,0,0,0,0,0,0,0l-5.65,5.64h0s-.04.05-.05.08c0,0,0,.01,0,.02,0,.01,0,.02-.01.03l-.47,2.11c-.03.15.06.29.21.32.02,0,.03,0,.05,0,.02,0,.04,0,.06,0l2.11-.47h.03s.02-.02.02-.02c.03-.01.05-.03.08-.05h0l5.64-5.64c.56-.56.56-1.47,0-2.03,0,0,0,0,0,0Zm-5.83,7.1l-1.26-1.26,4.59-4.59,1.26,1.26-4.59,4.59Zm-1.49-.73l.96.95-1.22.27.27-1.22Zm6.94-4.72l-.49.49-1.27-1.27.49-.49c.35-.34.91-.34,1.26,0,.35.35.35.91,0,1.26h0Z"/>
    <path id="Path_8519" data-name="Path 8519" class="cls-1" d="m16.8,8.23c-.11-.1-.27-.1-.38,0l-3.16,3.16c-.1.11-.1.28,0,.38.05.05.12.08.19.08.07,0,.14-.03.19-.08l3.16-3.16c.1-.1.11-.27,0-.37,0,0,0,0,0,0h0Z"/>
    <path id="Path_8520" data-name="Path 8520" class="cls-1" d="m15.54,6.38c0-.15-.12-.27-.27-.27H6.25c-.15,0-.27.12-.27.27s.12.27.27.27h9.03c.15,0,.27-.12.27-.27,0,0,0,0,0,0Z"/>
    <path id="Path_8521" data-name="Path 8521" class="cls-1" d="m13.7,8.22c0-.15-.12-.27-.27-.27h-7.19c-.15,0-.27.12-.27.27s.12.27.27.27h7.19c.15,0,.27-.12.27-.27Z"/>
    <path id="Path_8522" data-name="Path 8522" class="cls-1" d="m11.89,10.05c0-.15-.12-.27-.27-.27h-5.37c-.15,0-.27.12-.27.27s.12.27.27.27h5.37c.15,0,.27-.12.27-.27h0s0,0,0,0Z"/>
    <path id="Path_8523" data-name="Path 8523" class="cls-1" d="m6.25,11.62c-.15,0-.27.12-.27.27s.12.27.27.27h3.98c.15,0,.27-.12.27-.27s-.12-.27-.27-.27h-3.98Z"/>
  </g>
</svg>