<?xml version="1.0" encoding="UTF-8"?>
<svg id="Layer_1" data-name="Layer 1" xmlns="http://www.w3.org/2000/svg" viewBox="0 0 24 23">
  <defs>
    <style>
      .cls-1 {
        fill: #273341;
      }
    </style>
  </defs>
  <g id="customer-support">
    <g id="Path_8116" data-name="Path 8116">
      <path class="cls-1" d="m1.34,2.76l1.43,2.5c.05.08.13.15.22.17l1.33.33,4.56,4.56.5-.5-4.63-4.64s-.1-.08-.16-.09l-1.28-.32-1.22-2.13,1.04-1.04,2.13,1.22.32,1.28c.02.06.05.12.09.17l4.64,4.64.5-.5L6.26,3.83l-.33-1.33c-.02-.09-.08-.17-.17-.22L3.26.85c-.14-.08-.31-.06-.43.06l-1.43,1.43c-.11.11-.14.29-.06.43h0Z"/>
      <path class="cls-1" d="m8.88,10.6l-4.66-4.66-1.28-.32c-.15-.04-.27-.13-.35-.26l-1.43-2.5c-.12-.22-.08-.49.1-.67l1.42-1.43c.18-.18.45-.21.67-.09l2.5,1.43c.13.07.23.2.26.35l.32,1.28,4.66,4.67-.78.78-4.78-4.78c-.07-.07-.12-.16-.15-.26l-.3-1.2-1.92-1.1-.83.83,1.1,1.92,1.2.3c.1.02.19.08.26.15l4.77,4.78-.78.78ZM1.52,2.66l1.43,2.5s.06.06.1.07l1.38.35,4.46,4.46.22-.22-4.49-4.5s-.04-.03-.07-.04l-1.36-.34-1.33-2.33,1.26-1.26,2.33,1.33.34,1.36s.02.05.04.07l4.5,4.49.22-.22L6.08,3.93l-.35-1.38s-.04-.08-.07-.1l-2.5-1.43c-.06-.03-.14-.02-.19.03l-1.42,1.43c-.05.05-.06.13-.03.19h0Z"/>
    </g>
    <g id="Path_8117" data-name="Path 8117">
      <path class="cls-1" d="m16.17,7.83l-7.85,7.85-.5-.5,7.85-7.85.5.5Z"/>
      <path class="cls-1" d="m8.32,15.95l-.78-.78L15.67,7.04l.78.78-8.13,8.13Zm-.22-.78l.22.22,7.56-7.56-.22-.22-7.56,7.56Z"/>
    </g>
    <g id="Path_8118" data-name="Path 8118">
      <path class="cls-1" d="m6.95,15.95c-.06-.11-.18-.17-.31-.17h-2.14c-.13,0-.24.07-.31.17l-1.07,1.78c-.07.11-.07.25,0,.37l1.07,1.78c.06.11.18.17.31.17h2.14c.13,0,.24-.07.31-.17l1.07-1.78c.07-.11.07-.25,0-.37l-1.07-1.78Zm-.51,3.39h-1.74l-.86-1.43.86-1.43h1.74l.86,1.43-.86,1.43Z"/>
      <path class="cls-1" d="m6.65,20.25h-2.14c-.19,0-.38-.1-.48-.27l-1.07-1.78c-.11-.18-.11-.4,0-.57l1.07-1.78c.1-.17.28-.27.48-.27h2.14c.19,0,.38.1.48.27l1.07,1.78c.11.18.11.4,0,.57l-1.07,1.78c-.1.17-.28.27-.48.27Zm-2.14-4.28c-.05,0-.11.03-.13.08l-1.07,1.78s-.03.11,0,.16l1.07,1.78s.08.08.13.08h2.14c.05,0,.11-.03.13-.08l1.07-1.78s.03-.11,0-.16l-1.07-1.78s-.08-.08-.13-.08h-2.14Zm2.05,3.57h-1.96l-.98-1.63.98-1.63h1.96l.98,1.63-.98,1.63Zm-1.74-.4h1.51l.74-1.23-.74-1.23h-1.51l-.74,1.23.74,1.23Z"/>
    </g>
    <g id="Path_8119" data-name="Path 8119">
      <path class="cls-1" d="m18.41,9.36c2.36,0,4.27-1.89,4.28-4.25,0-.36-.04-.72-.13-1.06-.05-.19-.24-.31-.43-.26-.06.02-.12.05-.17.1l-2.22,2.22-1.76-.59-.59-1.76,2.22-2.22c.14-.14.14-.37,0-.5-.05-.05-.1-.08-.17-.1-2.28-.58-4.6.8-5.18,3.09-.09.35-.13.7-.13,1.06,0,.28.03.56.09.84l-7.81,7.81c-.27-.06-.55-.09-.84-.09-2.36,0-4.28,1.92-4.28,4.28s1.92,4.28,4.28,4.28,4.28-1.92,4.28-4.28c0-.28-.03-.56-.09-.84l1.87-1.87.82.82c.14.14.36.14.5,0l.18-.18c.16-.15.41-.15.57.01.15.15.15.4,0,.55h0l-.18.18c-.14.14-.14.36,0,.5l4.25,4.25c1.12,1.13,2.94,1.14,4.07.02s1.14-2.94.02-4.07l-.02-.02-4.25-4.25c-.14-.14-.36-.14-.5,0l-.18.18c-.16.15-.41.15-.57-.01-.15-.15-.15-.4,0-.55h0l.18-.18c.14-.14.14-.36,0-.5l-.82-.82,1.87-1.87c.27.06.55.09.83.09h0Zm1.4,12.13c-.26,0-.52-.05-.76-.14l2.78-2.78c.42,1.12-.15,2.37-1.26,2.79-.24.09-.5.14-.76.14h0Zm-4.04-9.27c-.39.47-.33,1.17.14,1.57.41.35,1.02.35,1.43,0l4,4.01s.08.09.12.14l-3.04,3.05s-.09-.08-.14-.12l-4.01-4c.39-.47.33-1.17-.14-1.57-.41-.35-1.02-.35-1.43,0l-.57-.57,3.07-3.06.57.57Zm1.44-3.59l-8.09,8.09c-.09.09-.12.22-.09.34.49,1.92-.67,3.88-2.59,4.36-1.92.49-3.88-.67-4.36-2.59-.49-1.92.67-3.88,2.59-4.36.58-.15,1.19-.15,1.77,0,.12.03.25,0,.34-.09L14.86,6.28c.09-.09.12-.22.09-.34-.49-1.9.66-3.83,2.56-4.32.36-.09.73-.13,1.1-.1l-1.88,1.88c-.1.1-.13.24-.09.37l.71,2.14c.04.11.12.19.23.22l2.14.71c.13.04.27,0,.36-.09l1.88-1.88c0,.07,0,.14,0,.2,0,1.96-1.57,3.56-3.53,3.57-.3,0-.6-.04-.9-.11-.12-.03-.25,0-.34.09h0Z"/>
      <path class="cls-1" d="m19.82,22.4h-.01c-.82,0-1.59-.33-2.17-.91l-4.25-4.25c-.21-.22-.21-.57,0-.78l.18-.18c.07-.08.07-.2,0-.27-.08-.08-.2-.08-.28,0l-.17.17c-.22.21-.57.21-.78,0l-.68-.68-1.65,1.65c.05.25.07.51.07.77,0,2.47-2.01,4.48-4.48,4.48s-4.48-2.01-4.48-4.48,2.01-4.48,4.48-4.48c.26,0,.51.02.77.07l7.66-7.66c-.05-.25-.07-.51-.07-.77,0-.38.04-.75.14-1.11.61-2.39,3.04-3.83,5.43-3.23.1.02.19.08.26.15.22.22.21.57,0,.79l-2.13,2.13.52,1.55,1.55.52,2.13-2.13c.07-.07.16-.13.27-.15.29-.07.6.11.67.41.09.36.14.74.14,1.11,0,2.31-1.77,4.2-4.02,4.43l.03.03h-.49c-.26,0-.51-.03-.77-.07l-1.65,1.65.68.68c.21.22.21.57,0,.78l-.18.18c-.07.07-.07.19,0,.27.07.08.2.08.28,0l.18-.17c.22-.22.56-.22.78,0l4.26,4.25c.6.6.91,1.38.91,2.2s-.33,1.59-.91,2.17c-.58.58-1.35.89-2.17.89Zm-6.41-6.86h.02c.16,0,.31.07.42.19.22.23.22.59,0,.83l-.18.18c-.06.06-.06.16,0,.22l4.25,4.25c.5.51,1.18.79,1.89.79h.01c.71,0,1.38-.28,1.89-.78.51-.5.79-1.18.79-1.89,0-.72-.27-1.39-.78-1.9l-4.27-4.27c-.06-.06-.16-.06-.22,0l-.18.18c-.24.23-.62.22-.85-.02-.22-.23-.22-.59,0-.83l.18-.18c.06-.06.06-.16,0-.22l-.96-.96,2.09-2.09.11.02c.21.04.43.07.65.08h.14s0,0,.01,0c2.23,0,4.06-1.81,4.06-4.05,0-.34-.04-.68-.12-1.01-.02-.08-.1-.14-.19-.12-.03,0-.05.02-.08.04l-2.31,2.31-1.97-.66-.66-1.97,2.31-2.31c.06-.06.06-.16,0-.22-.02-.02-.05-.04-.08-.04-2.17-.55-4.39.77-4.94,2.94-.08.33-.13.67-.12,1.01,0,.27.03.54.08.8l.02.11-.08.08-7.89,7.89-.11-.02c-.26-.05-.53-.08-.8-.08-2.25,0-4.08,1.83-4.08,4.08s1.83,4.08,4.08,4.08,4.08-1.83,4.08-4.08c0-.27-.03-.53-.08-.8l-.02-.11,2.09-2.09.96.96c.06.06.16.06.22,0l.18-.18c.12-.11.26-.17.42-.17Zm-7.87,6.19c-.67,0-1.33-.18-1.93-.53-.87-.52-1.49-1.34-1.74-2.32-.52-2.02.71-4.09,2.74-4.61.61-.16,1.26-.16,1.87,0,.05.01.11,0,.15-.04L14.72,6.14s.05-.1.04-.15c-.51-2,.7-4.05,2.7-4.56.38-.1.77-.14,1.16-.11l.44.03-2.19,2.19s-.06.1-.04.16l.71,2.14s.05.08.1.1l2.14.71c.05.02.12,0,.16-.04l2.22-2.22v.68c.02,2.07-1.66,3.76-3.72,3.77h-.02c-.31,0-.63-.04-.93-.12-.05-.01-.09,0-.13.03l-.02.02-8.09,8.09s-.05.1-.04.15c.51,2.02-.71,4.09-2.74,4.61-.31.08-.63.12-.94.12Zm0-7.18c-.28,0-.56.03-.84.1-1.81.46-2.91,2.31-2.45,4.12.22.88.78,1.62,1.55,2.08.78.46,1.69.59,2.57.37,1.81-.46,2.91-2.31,2.45-4.12-.05-.19,0-.39.15-.53l8.09-8.09c.14-.14.34-.19.53-.15.28.07.56.11.85.1,1.75,0,3.18-1.36,3.32-3.08l-1.54,1.54c-.15.15-.37.2-.57.13l-2.14-.71c-.17-.06-.29-.18-.35-.35l-.71-2.14c-.07-.2-.01-.42.13-.57l1.54-1.54c-.19.02-.38.05-.57.09-1.79.46-2.87,2.29-2.42,4.08.05.19,0,.39-.15.53L6.92,14.51c-.14.14-.34.19-.53.15-.27-.07-.56-.1-.84-.1Zm14.26,7.13h0c-.28,0-.56-.05-.83-.15l-.29-.11,3.22-3.22.11.29c.22.59.2,1.23-.06,1.81-.26.57-.73,1.01-1.32,1.24-.27.1-.55.15-.83.15Zm-.38-.44c.12.02.25.04.38.04h0c.23,0,.46-.04.68-.12.49-.18.88-.55,1.1-1.03.17-.38.22-.79.14-1.19l-2.3,2.31Zm-1,0l-.14-.12c-.05-.04-.1-.09-.15-.14l-4.13-4.13.12-.14c.16-.19.23-.42.21-.67-.02-.24-.14-.46-.32-.62-.34-.28-.83-.28-1.17,0l-.14.12-.84-.84,3.35-3.34.84.84-.12.14c-.32.39-.27.96.11,1.29.34.29.83.29,1.17,0l.14-.12,4.13,4.14s.09.1.13.15l.12.14-3.3,3.31Zm-3.89-4.42l3.87,3.87,2.77-2.78-3.87-3.87c-.48.3-1.1.26-1.54-.11-.51-.42-.61-1.15-.27-1.7l-.31-.31-2.78,2.78.31.31c.48-.3,1.1-.26,1.54.11.27.23.43.54.47.89.03.29-.04.57-.19.81Z"/>
    </g>
    <g id="Path_8120" data-name="Path 8120">
      <path class="cls-1" d="m19.74,18.73l-.5.5-3.57-3.57.5-.5,3.57,3.57Z"/>
      <path class="cls-1" d="m19.24,19.52l-3.85-3.85.78-.78,3.85,3.85-.78.78Zm-3.28-3.85l3.28,3.28.22-.22-3.28-3.28-.22.22Z"/>
    </g>
  </g>
</svg>