<?xml version="1.0" encoding="UTF-8"?>
<svg id="Layer_1" data-name="Layer 1" xmlns="http://www.w3.org/2000/svg" viewBox="0 0 21 24">
  <defs>
    <style>
      .cls-1 {
        fill: #9cc32a;
      }

      .cls-2 {
        isolation: isolate;
      }
    </style>
  </defs>
  <g id="big-ben" class="cls-2">
    <path id="Path_8528" data-name="Path 8528" class="cls-1" d="m10.14,11.64c-1.77,0-3.21,1.44-3.21,3.21s1.44,3.21,3.21,3.21,3.21-1.44,3.21-3.21h0c0-1.77-1.44-3.21-3.21-3.21Zm0,5.71c-1.38,0-2.5-1.12-2.5-2.5s1.12-2.5,2.5-2.5,2.5,1.12,2.5,2.5-1.12,2.5-2.5,2.5Z"/>
    <path id="Path_8529" data-name="Path 8529" class="cls-1" d="m11.21,14.5h-.71v-1.43c0-.2-.16-.36-.36-.36s-.36.16-.36.36v1.79c0,.2.16.36.36.36h1.07c.2,0,.36-.16.36-.36s-.16-.36-.36-.36h0,0Z"/>
    <path id="Path_8530" data-name="Path 8530" class="cls-1" d="m10.14,20.92c-.2,0-.36.16-.36.36v1.43c0,.2.16.36.36.36s.36-.16.36-.36h0v-1.43c0-.2-.16-.36-.36-.36h0Z"/>
    <path id="Path_8531" data-name="Path 8531" class="cls-1" d="m8.71,20.92c-.2,0-.36.16-.36.36v1.43c0,.2.16.36.36.36s.36-.16.36-.36h0v-1.43c0-.2-.16-.36-.36-.36h0Z"/>
    <path id="Path_8532" data-name="Path 8532" class="cls-1" d="m11.57,20.92c-.2,0-.36.16-.36.36v1.43c0,.2.16.36.36.36s.36-.16.36-.36h0v-1.43c0-.2-.16-.36-.36-.36Z"/>
    <path id="Path_8533" data-name="Path 8533" class="cls-1" d="m20.44,5.08c-.18-.71-.79-1.24-1.52-1.33-.49-1.4-2.01-2.13-3.41-1.65-.51.18-.95.5-1.27.93-.06,0-.12,0-.17,0-1.18,0-2.14.96-2.14,2.14s.96,2.14,2.14,2.14h4.64c.99,0,1.79-.8,1.79-1.79,0-.15-.02-.3-.06-.44Zm-1.73,1.52h-4.64c-.79,0-1.43-.64-1.43-1.43s.64-1.43,1.43-1.43c.09,0,.19,0,.28.03.15.03.29-.04.37-.16.57-.92,1.78-1.21,2.7-.64.44.27.76.71.88,1.22.04.17.19.28.36.28h.05c.49,0,.91.33,1.04.8.02.09.03.18.03.27,0,.59-.48,1.07-1.07,1.07Z"/>
    <path id="Path_8534" data-name="Path 8534" class="cls-1" d="m17.7,15.4c-.16-.61-.67-1.07-1.3-1.16-.31-.85-1.08-1.44-1.97-1.52v-1.79c0-.2-.16-.36-.36-.36v-1.79c0-.2-.16-.36-.36-.36s-.36.16-.36.36h0v.36h-.23l-1.55-1.86v-1.35c0-.2-.16-.36-.36-.36h-.03l-.33-3.25c-.02-.18-.17-.32-.35-.32v-.71c0-.2-.16-.36-.36-.36s-.36.16-.36.36v.71c-.18,0-.34.14-.35.32l-.33,3.25h-.03c-.2,0-.36.16-.36.36v1.35l-1.55,1.86h-.23v-.36c0-.2-.16-.36-.36-.36s-.36.16-.36.36h0v1.78c-.2,0-.36.16-.36.36v5.5c-1.11-.39-2.34-.02-3.04.92-.06,0-.12,0-.17,0-1.18,0-2.14.96-2.14,2.14s.96,2.14,2.14,2.14h3.93v1.07c0,.2.16.36.36.36s.36-.16.36-.36v-2.5h5.72v2.5c0,.2.16.36.36.36s.36-.16.36-.36v-3.57h.36c.2,0,.36-.16.36-.36v-1.42h1.76c.87,0,1.57-.7,1.56-1.57,0-.13-.02-.26-.05-.39ZM10.11,2.72h.07l.29,2.86h-.64l.28-2.86Zm-.68,3.57h1.43v.71h-1.43v-.71Zm-.15,1.43h1.72l1.19,1.43h-4.1l1.19-1.43Zm-2.35,2.14h6.43v.71h-6.43v-.71Zm-.36,11.07h-3.93c-.79,0-1.43-.64-1.43-1.43s.64-1.43,1.43-1.43c.09,0,.19,0,.28.03.15.03.29-.04.37-.16.54-.87,1.65-1.19,2.56-.72v1.57c0,.2.16.36.36.36h.36v1.78Zm6.43-1.43h-5.72v-.36h5.72v.36Zm.71-1.07h-7.14v-7.14h7.14v7.14Zm2.47-1.78h-1.76v-3.2c.66.08,1.21.57,1.36,1.22.04.17.19.28.36.27h.04c.47-.02.87.34.89.81s-.34.87-.81.89c-.03,0-.05,0-.08,0h0Z"/>
  </g>
</svg>