<?xml version="1.0" encoding="UTF-8"?>
<svg id="Layer_1" data-name="Layer 1" xmlns="http://www.w3.org/2000/svg" viewBox="0 0 21 21">
  <defs>
    <style>
      .cls-1 {
        fill: #9cc32a;
        stroke: #9cc32a;
        stroke-miterlimit: 10;
        stroke-width: .25px;
      }
    </style>
  </defs>
  <g id="career">
    <g id="Group_2331" data-name="Group 2331">
      <g id="Group_2330" data-name="Group 2330">
        <rect id="Rectangle_9844" data-name="Rectangle 9844" class="cls-1" x="2.48" y="16.14" width=".59" height=".59"/>
      </g>
    </g>
    <g id="Group_2333" data-name="Group 2333">
      <g id="Group_2332" data-name="Group 2332">
        <path id="Path_8524" data-name="Path 8524" class="cls-1" d="m14.34,15.41l-.3-.59c-.03-.06-.08-.11-.15-.14l-1.97-.85-.16-.49c.56-.49.86-1.21.82-1.95v-2.38c0-.08-.03-.15-.09-.21-1.17-.91-2.81-.91-3.98,0-.05.05-.09.13-.09.21v2.38c-.04.74.27,1.46.82,1.95l-.16.49-1.97.85c-.06.03-.12.08-.15.14l-.3.59s-.03.09-.03.13v4.45h.59v-4.39l.22-.43,1.79-.77.96.97v1.66h.59v-1.66l.96-.96,1.79.77.22.43v4.39h.59v-4.45s0-.09-.02-.13Zm-5.32-6.26c.9-.58,2.07-.58,2.97,0v1.3c-.15-.04-.3-.11-.3-.25,0-.16-.13-.3-.3-.3h-1.78c-.16,0-.3.13-.3.3h0c0,.14-.15.21-.3.25v-1.3Zm1.48,5.68l-.84-.84.11-.35c.47.17.99.17,1.46,0l.11.35-.84.84Zm0-1.66c-1.1,0-1.48-.96-1.48-1.78v-.32c.36-.03.67-.25.84-.57h1.3c.16.32.48.53.84.57v.32c0,.82-.39,1.78-1.49,1.78h0Z"/>
      </g>
    </g>
    <g id="Group_2335" data-name="Group 2335">
      <g id="Group_2334" data-name="Group 2334">
        <rect id="Rectangle_9845" data-name="Rectangle 9845" class="cls-1" x="8.13" y="18.22" width=".59" height="1.78"/>
      </g>
    </g>
    <g id="Group_2337" data-name="Group 2337">
      <g id="Group_2336" data-name="Group 2336">
        <rect id="Rectangle_9846" data-name="Rectangle 9846" class="cls-1" x="12.28" y="18.22" width=".59" height="1.78"/>
      </g>
    </g>
    <g id="Group_2339" data-name="Group 2339">
      <g id="Group_2338" data-name="Group 2338">
        <path id="Path_8525" data-name="Path 8525" class="cls-1" d="m14.01,5.57l-3.27-4.45c-.11-.13-.3-.15-.43-.05-.02.01-.03.03-.05.05l-3.27,4.45c-.1.13-.07.32.06.41.05.04.11.06.18.06h1.19v1.19h.59v-1.48c0-.16-.13-.3-.3-.3h-.9l2.68-3.66,2.68,3.66h-.9c-.16,0-.3.13-.3.3h0v1.48h.59v-1.19h1.19c.16,0,.3-.13.3-.3,0-.06-.02-.12-.06-.18h0Z"/>
      </g>
    </g>
    <g id="Group_2341" data-name="Group 2341">
      <g id="Group_2340" data-name="Group 2340">
        <path id="Path_8526" data-name="Path 8526" class="cls-1" d="m19.95,9.73l-3.27-4.45c-.11-.13-.3-.15-.43-.05-.02.01-.03.03-.05.05l-3.27,4.45c-.1.13-.07.32.06.41.05.04.11.06.18.06h1.19v2.08h.59v-2.38c0-.16-.13-.3-.3-.3h-.9l2.68-3.66,2.68,3.66h-2.68v.59h1.48v5.35h.59v-5.35h1.19c.16,0,.3-.13.3-.3,0-.06-.02-.12-.06-.18h0Z"/>
      </g>
    </g>
    <g id="Group_2343" data-name="Group 2343">
      <g id="Group_2342" data-name="Group 2342">
        <path id="Path_8527" data-name="Path 8527" class="cls-1" d="m8.07,9.73l-3.27-4.45c-.11-.13-.3-.15-.43-.05-.02.01-.03.03-.05.05l-3.26,4.45c-.1.13-.07.32.06.41.05.04.11.06.18.06h1.19v5.35h.59v-5.35h1.49v-.59H1.88l2.68-3.66,2.68,3.66h-.9c-.16,0-.3.13-.3.3h0v2.38h.59v-2.08h1.19c.16,0,.3-.13.3-.3,0-.06-.02-.12-.06-.18h0Z"/>
      </g>
    </g>
    <g id="Group_2345" data-name="Group 2345">
      <g id="Group_2344" data-name="Group 2344">
        <rect id="Rectangle_9847" data-name="Rectangle 9847" class="cls-1" x="6.05" y="12.87" width=".59" height=".59"/>
      </g>
    </g>
    <g id="Group_2347" data-name="Group 2347">
      <g id="Group_2346" data-name="Group 2346">
        <rect id="Rectangle_9848" data-name="Rectangle 9848" class="cls-1" x="14.36" y="12.87" width=".59" height=".59"/>
      </g>
    </g>
    <g id="Group_2349" data-name="Group 2349">
      <g id="Group_2348" data-name="Group 2348">
        <rect id="Rectangle_9849" data-name="Rectangle 9849" class="cls-1" x="17.93" y="16.14" width=".59" height=".59"/>
      </g>
    </g>
  </g>
</svg>