<?xml version="1.0" encoding="UTF-8"?>
<svg id="Layer_1" data-name="Layer 1" xmlns="http://www.w3.org/2000/svg" viewBox="0 0 25 24">
  <defs>
    <style>
      .cls-1 {
        fill: #273341;
      }
    </style>
  </defs>
  <g id="FAQ-2">
    <g id="Group_1693" data-name="Group 1693">
      <g id="Group_1692" data-name="Group 1692">
        <path id="Path_8121" data-name="Path 8121" class="cls-1" d="m16.58,14.86c-.25,0-.45.2-.45.45v3.13c0,1.25-1.02,2.27-2.27,2.27h-4.9c-.25,0-.45.2-.45.45v.9l-1.08-1.08c-.07-.17-.24-.27-.42-.27h-2.95c-1.25,0-2.27-1.02-2.27-2.27v-6.99c0-1.25,1.02-2.27,2.27-2.27h4.58c.25.01.46-.18.47-.43s-.18-.46-.43-.47c-.01,0-.03,0-.04,0h-4.58c-1.75,0-3.18,1.42-3.18,3.18v6.99c0,1.75,1.42,3.17,3.18,3.18h2.72l1.86,1.86c.18.18.46.18.64,0,.09-.09.13-.2.13-.32v-1.54h4.45c1.75,0,3.17-1.42,3.18-3.18v-3.13c0-.25-.2-.45-.45-.45Z"/>
      </g>
    </g>
    <g id="Group_1695" data-name="Group 1695">
      <g id="Group_1694" data-name="Group 1694">
        <path id="Path_8122" data-name="Path 8122" class="cls-1" d="m17.52.39h-1.15c-3.64,0-6.6,2.95-6.6,6.59,0,3.64,2.95,6.6,6.59,6.6h1.15c.56,0,1.13-.07,1.67-.22l1.7,1.7c.18.18.47.18.64,0,.08-.08.13-.2.13-.32v-2.63c.72-.58,1.31-1.31,1.73-2.14.47-.93.72-1.95.72-2.99,0-3.64-2.96-6.6-6.6-6.6Zm3.42,11.14c-.11.09-.18.22-.18.36v1.75l-1.11-1.11c-.12-.12-.29-.16-.45-.11-.54.17-1.11.25-1.67.25h-1.15c-3.14,0-5.69-2.55-5.69-5.69s2.55-5.69,5.69-5.69h1.15c3.14,0,5.69,2.55,5.69,5.69,0,1.79-.84,3.47-2.27,4.54h0Z"/>
      </g>
    </g>
    <g id="Group_1697" data-name="Group 1697">
      <g id="Group_1696" data-name="Group 1696">
        <path id="Path_8123" data-name="Path 8123" class="cls-1" d="m18.99,5.35c-.08-1.06-1-1.85-2.05-1.78-1,.07-1.78.91-1.78,1.91-.01.25.18.46.43.47s.46-.18.47-.43c0-.01,0-.03,0-.04,0-.56.45-1.01,1.01-1.01.02,0,.05,0,.07,0,.56.04.98.53.94,1.09-.03.44-.35.82-.79.91-.4.09-.68.44-.68.84v1.09c-.01.25.18.46.43.47s.46-.18.47-.43c0-.01,0-.03,0-.04v-1.05c.91-.22,1.53-1.07,1.46-2Z"/>
      </g>
    </g>
    <g id="Group_1699" data-name="Group 1699">
      <g id="Group_1698" data-name="Group 1698">
        <path id="Path_8124" data-name="Path 8124" class="cls-1" d="m17.39,9.88c-.18-.18-.46-.18-.64,0-.18.18-.18.46,0,.64.18.18.46.18.64,0,.09-.09.13-.2.13-.32,0-.12-.05-.24-.13-.32Z"/>
      </g>
    </g>
    <g id="Group_1701" data-name="Group 1701">
      <g id="Group_1700" data-name="Group 1700">
        <path id="Path_8125" data-name="Path 8125" class="cls-1" d="m13.36,14.45H3.79c-.25-.01-.46.18-.47.43s.18.46.43.47c.01,0,.03,0,.04,0h9.57c.25-.01.44-.22.43-.47-.01-.23-.2-.42-.43-.43Z"/>
      </g>
    </g>
    <g id="Group_1703" data-name="Group 1703">
      <g id="Group_1702" data-name="Group 1702">
        <path id="Path_8126" data-name="Path 8126" class="cls-1" d="m13.68,17.13c-.18-.18-.46-.18-.64,0-.18.18-.18.46,0,.64.18.18.46.18.64,0,.08-.08.13-.2.13-.32,0-.12-.05-.24-.13-.32Z"/>
      </g>
    </g>
    <g id="Group_1705" data-name="Group 1705">
      <g id="Group_1704" data-name="Group 1704">
        <path id="Path_8127" data-name="Path 8127" class="cls-1" d="m11.58,16.99H3.79c-.25-.01-.46.18-.47.43s.18.46.43.47c.01,0,.03,0,.04,0h7.79c.25.01.46-.18.47-.43s-.18-.46-.43-.47c-.01,0-.03,0-.04,0Z"/>
      </g>
    </g>
    <g id="Group_1707" data-name="Group 1707">
      <g id="Group_1706" data-name="Group 1706">
        <path id="Path_8128" data-name="Path 8128" class="cls-1" d="m10.41,11.91H3.79c-.25,0-.45.2-.45.45s.2.45.45.45h6.62c.25,0,.45-.2.45-.45s-.2-.45-.45-.45h0Z"/>
      </g>
    </g>
  </g>
</svg>