<?xml version="1.0" encoding="UTF-8"?>
<svg id="Layer_1" data-name="Layer 1" xmlns="http://www.w3.org/2000/svg" viewBox="0 0 29 19">
  <defs>
    <style>
      .cls-1 {
        fill: none;
        stroke: #9cc32a;
        stroke-miterlimit: 10;
      }
    </style>
  </defs>
  <path id="Subscription" class="cls-1" d="m25.9,6.41c0,.07,0,.14-.02.21l-1.53,6.1c-.08.31-.35.52-.67.53l-9.15.05H5.37c-.32,0-.6-.22-.67-.53l-1.53-6.12c-.02-.07-.02-.14-.02-.21-.77-.24-1.2-1.06-.95-1.83.24-.77,1.06-1.2,1.83-.95s1.2,1.06.95,1.83c-.08.27-.25.51-.46.69l1.91,1.92c1.01,1.02,2.65,1.02,3.67.02.09-.09.17-.18.24-.28l3.14-4.16c-.57-.57-.57-1.49,0-2.06.57-.57,1.49-.57,2.06,0,.56.56.57,1.47.02,2.04h0l3.12,4.17c.49.65,1.26,1.04,2.07,1.04.69,0,1.35-.27,1.83-.76l1.92-1.92c-.63-.5-.72-1.42-.22-2.05.5-.63,1.42-.72,2.05-.22s.72,1.42.22,2.05c-.17.21-.39.37-.65.46h0Zm-1.69,9.05c0-.38-.31-.69-.69-.69H5.57c-.38,0-.69.31-.69.69h0v1.66c0,.38.31.69.69.69h17.94c.38,0,.69-.31.69-.69v-1.66Z"/>
</svg>