<?xml version="1.0" encoding="UTF-8"?>
<svg id="Layer_1" data-name="Layer 1" xmlns="http://www.w3.org/2000/svg" viewBox="0 0 25 26">
  <defs>
    <style>
      .cls-1 {
        fill: #273341;
      }
    </style>
  </defs>
  <path id="Path_12237" data-name="Path 12237" class="cls-1" d="m17.84,19.9v-2.5c-.02-.1-.07-.05-.1-.01-.92.4-1.88.71-2.86.92-2.18.46-4.44.32-6.54-.41-.05-.02-.1-.03-.19-.05.06.5.12.98.17,1.46.18,1.48.36,2.97.54,4.45.04.37-.17.73-.51.88-.44.22-.91.36-1.4.4-1.09.15-2.19.08-3.25-.21-.12-.04-.24-.08-.35-.14-.5-.14-.8-.66-.66-1.16,0-.01,0-.03.01-.04.31-2.16.62-4.32.92-6.48.13-.94.27-1.87.4-2.8.01-.09.07-.18-.08-.24-.55-.22-.81-.85-.59-1.4.07-.17.18-.32.33-.44.02-.02.04-.04.06-.07-.9-.34-1.79-.68-2.69-1.01-.31-.09-.54-.34-.61-.66v-.39c.05-.31.27-.56.58-.65.76-.29,1.53-.58,2.29-.86.19-.07.28-.14.24-.38-.08-.39-.1-.8-.13-1.2-.05-.18.06-.36.24-.4.02,0,.03,0,.05,0,.17-.05.35.06.4.23,0,.03.01.06.01.08.05.37.09.73.13,1.1.14,1.3.29,2.6.43,3.89.01.12.06.14.16.14.21,0,.43,0,.64,0,.03,0,.06,0,.05-.04s.01-.09.01-.14V3.61c0-.08-.03-.12-.11-.12-.59-.02-1.17-.15-1.72-.37.01.13.02.23.03.33.05.46.11.92.16,1.38.04.18-.07.36-.26.4-.01,0-.03,0-.04,0-.17.05-.35-.06-.39-.23,0-.02,0-.03,0-.05-.11-.83-.27-1.66-.32-2.5-.06-.5.23-.98.71-1.16.48-.21.98-.34,1.5-.38h.32c.08,0,.17.03.24-.04h.52c.07.08.16.04.24.04h.33c.58.04,1.15.19,1.69.43.51.16.8.7.64,1.21-.17,1.22-.34,2.45-.51,3.67-.01.08-.02.17-.03.28.87-.33,1.74-.59,2.55-.97.91-.43,1.96-.43,2.87,0,3.3,1.3,6.64,2.52,9.96,3.77.48.11.79.59.68,1.08,0,.02,0,.04-.01.05-.08.29-.31.53-.6.61-1.32.5-2.65,1-3.97,1.49-.16.03-.27.18-.25.35.01,1.02,0,2.03.01,3.05.02.22-.09.42-.29.52-.26.13-.5.29-.76.43-.1.04-.17.14-.16.25,0,.88,0,1.76,0,2.65-.01.1.05.2.15.22.55.2.91.73.9,1.32.01.65,0,1.31,0,1.96,0,.32-.13.44-.44.44h-1.92c-.32,0-.44-.12-.44-.45,0-.59.02-1.18,0-1.77-.08-.69.34-1.34,1-1.56.03,0,.05-.01.04-.05m-.27,3.11h1.28s.05,0,.04-.04c0-.56.01-1.12,0-1.68,0-.38-.31-.68-.69-.68,0,0,0,0-.01,0-.37,0-.67.31-.67.68,0,.56,0,1.12,0,1.68,0,.04.01.05.04.04M3.89,11.29c-.07-.67-.15-1.35-.22-2.02-.01-.12-.04-.15-.15-.11-.75.29-1.5.57-2.25.85-.09.03-.16.08-.16.18s.08.15.16.18l2.58.96c.05.02.05-.02.04-.05m3.13.66s.05,0,.04-.04c.05-.34.1-.67.14-1,.21-1.6.43-3.2.64-4.8.12-.92.24-1.84.36-2.76.02-.13,0-.17-.14-.12-.5.17-1.02.26-1.55.27-.22,0-.3.06-.3.31.01,2.46,0,4.93,0,7.4,0,.24-.08.58.04.7.16.16.49.04.74.05m-.76,2.1s-.05,0-.04.04c0,1.62,0,3.23,0,4.85,0,1.81,0,3.61,0,5.42,0,.04,0,.05.04.04.17-.01.35-.02.52-.04.4-.04.79-.15,1.15-.33.16-.06.25-.23.2-.4-.06-.28-.07-.56-.11-.84-.33-2.82-.67-5.64-1.01-8.46-.03-.22-.09-.32-.33-.28-.14.01-.28.01-.42,0m1.43.06c.11.9.22,1.8.32,2.7,0,.14.09.27.23.31,1.23.47,2.53.73,3.85.74,2.41,0,4.77-.64,6.83-1.89.1-.05.15-.16.13-.27v-2.44q0-.35-.32-.22l-1.48.55c-.16.08-.35.01-.43-.15,0,0,0-.01,0-.02-.1-.14-.06-.34.08-.44,0,0,0,0,0,0,.08-.05.17-.09.26-.12l6.52-2.46c.1-.04.22-.07.22-.21s-.12-.17-.22-.21c-1.67-.63-3.33-1.26-5-1.89-.11-.04-.23-.04-.33.01-.59.26-1.19.5-1.78.75-1.29.54-2.58,1.08-3.87,1.63-.19.08-.37.1-.5-.1-.15-.22-.07-.44.22-.56.95-.4,1.9-.8,2.85-1.19.75-.32,1.5-.63,2.27-.96-.04-.02-.06-.03-.08-.04l-4.52-1.7c-.29-.11-.61-.1-.9.02-1.15.44-2.31.88-3.46,1.31-.11.02-.19.12-.19.23-.19,1.46-.38,2.92-.58,4.38-.01.11.01.15.11.19.34.14.57.48.58.85,0,.13.08.24.2.27,1.07.4,2.14.79,3.2,1.2.41.17.87.17,1.28,0,.6-.24,1.2-.46,1.81-.69.2-.07.37-.07.49.13.1.16.06.37-.1.47-.04.02-.08.04-.12.05-.64.25-1.29.48-1.94.73-.52.2-1.09.2-1.61-.01-1.1-.42-2.2-.84-3.31-1.25-.07-.03-.15-.09-.23,0-.12.1-.26.18-.41.22-.05,0-.05.03-.03.06m-2.2,5.13v-4.63c0-.57,0-.57-.58-.56-.13,0-.16.04-.18.17-.15,1.07-.31,2.13-.46,3.2-.29,2.05-.58,4.1-.88,6.15-.06.18.04.37.22.43,0,0,0,0,.01,0,.53.21,1.08.35,1.64.39.2.02.23-.03.23-.21,0-1.65,0-3.29,0-4.94m.75-16.4c.33-.03.61-.05.89-.09.38-.02.75-.13,1.08-.31.21-.14.21-.25,0-.38-.12-.07-.24-.12-.37-.16-.5-.15-1.01-.24-1.53-.26-.79-.06-1.59.04-2.35.28-.17.05-.39.12-.38.33,0,.18.23.22.38.27.74.21,1.51.32,2.28.32m-.38,10.52h1.53c.26,0,.36-.09.36-.32s-.09-.32-.34-.32c-1.04,0-2.08,0-3.12,0-.25,0-.35.12-.34.35s.11.3.36.3h1.53"/>
  <path id="Path_12238" data-name="Path 12238" class="cls-1" d="m.4,10.02s.03-.01.04,0v.39h-.02s-.02,0-.02,0v-.37Z"/>
  <path id="Path_12239" data-name="Path 12239" class="cls-1" d="m5.65.89c-.07.08-.16.04-.24.04,0-.01,0-.03,0-.04h.24Z"/>
  <path id="Path_12240" data-name="Path 12240" class="cls-1" d="m6.41.93c-.08,0-.17.03-.24-.04h.24s0,.03,0,.04"/>
  <path id="Path_12241" data-name="Path 12241" class="cls-1" d="m5.41.89s0,.03,0,.04h-.18s0-.03,0-.04h.19Z"/>
  <path id="Path_12242" data-name="Path 12242" class="cls-1" d="m6.41.93s0-.03,0-.04h.19s0,.03,0,.04h-.19"/>
  <path id="Path_12243" data-name="Path 12243" class="cls-1" d="m5.22.89s0,.03,0,.04h-.14s0-.03,0-.04h.14Z"/>
  <path id="Path_12244" data-name="Path 12244" class="cls-1" d="m6.6.93s0-.03,0-.04h.14s0,.03,0,.04h-.14"/>
  <path id="Path_12245" data-name="Path 12245" class="cls-1" d="m17.74,17.39s.08-.09.11.01h-.11"/>
  <path id="Path_12246" data-name="Path 12246" class="cls-1" d="m17.84,19.9s0,.05-.04.05l.04-.05"/>
  <path id="Path_12247" data-name="Path 12247" class="cls-1" d="m3.85,11.34l.04-.05s.02.07-.04.05"/>
  <path id="Path_12248" data-name="Path 12248" class="cls-1" d="m5.46,11.95l.05-.04s-.02.04-.05.04"/>
  <path id="Path_12249" data-name="Path 12249" class="cls-1" d="m7.02,11.95l.04-.04s-.01.05-.04.04"/>
  <path id="Path_12250" data-name="Path 12250" class="cls-1" d="m6.26,14.05l-.04.04s0-.05.04-.04"/>
  <path id="Path_12251" data-name="Path 12251" class="cls-1" d="m7.73,14.04l-.03.07s-.02-.07.03-.07"/>
  <path id="Path_12252" data-name="Path 12252" class="cls-1" d="m17.53,22.98l.04.04s-.05,0-.04-.04"/>
  <path id="Path_12253" data-name="Path 12253" class="cls-1" d="m18.85,23.02l.04-.04s0,.05-.04.04"/>
  <path id="Path_12254" data-name="Path 12254" class="cls-1" d="m6.22,24.35l.04.04s-.05,0-.04-.04"/>
</svg>