<?xml version="1.0" encoding="UTF-8"?>
<svg id="Layer_1" data-name="Layer 1" xmlns="http://www.w3.org/2000/svg" viewBox="0 0 23 22">
  <defs>
    <style>
      .cls-1 {
        isolation: isolate;
      }

      .cls-2 {
        fill: #9cc32a;
        fill-rule: evenodd;
      }
    </style>
  </defs>
  <g id="document" class="cls-1">
    <path id="Path_8512" data-name="Path 8512" class="cls-2" d="m9.77,8.2c0-.22.18-.41.41-.41h8.86c.23,0,.41.18.41.41s-.18.41-.41.41h-8.86c-.22,0-.41-.18-.41-.41h0Zm0,2.04c0-.22.18-.41.41-.41h8.86c.23,0,.41.18.41.41s-.18.41-.41.41h-8.86c-.22,0-.41-.18-.41-.41h0Zm2.04,2.04c0-.22.18-.41.41-.41h6.82c.23,0,.41.18.41.41s-.18.41-.41.41h-6.82c-.22,0-.41-.18-.41-.41,0,0,0,0,0,0h0Zm2.04,2.04c0-.22.18-.41.41-.41h4.79c.23,0,.41.18.41.41s-.18.41-.41.41h-4.79c-.22,0-.41-.18-.41-.41,0,0,0,0,0,0h0Zm2.04,4.07c0-.22.18-.41.41-.41h2.75c.23,0,.41.18.41.41s-.18.41-.41.41h-2.75c-.22,0-.41-.18-.41-.41h0Z"/>
    <path id="Path_8513" data-name="Path 8513" class="cls-2" d="m7.43,1.38c-.22,0-.41.18-.41.41h0v7.33c0,.23-.18.41-.41.41s-.41-.18-.41-.41V1.78c0-.67.55-1.22,1.22-1.22h10.79c.11,0,.21.04.29.12l3.87,3.87c.08.08.12.18.12.29v15.38c0,.67-.55,1.22-1.22,1.22H7.43c-.67,0-1.22-.55-1.22-1.22h0v-7.64c0-.23.18-.41.41-.41s.41.18.41.41v7.64c0,.22.18.41.41.41h13.85c.22,0,.41-.18.41-.41h0V5.01l-3.63-3.63H7.43Z"/>
    <path id="Path_8514" data-name="Path 8514" class="cls-2" d="m18.07.59c.15-.06.33-.03.44.09l3.87,3.87c.16.16.17.41.01.58-.08.08-.19.13-.3.12h-3.87c-.22,0-.41-.18-.41-.41,0,0,0,0,0,0V.97c0-.16.1-.31.25-.38Zm.56,1.36v2.48h2.48l-2.48-2.48Z"/>
    <path id="Path_8515" data-name="Path 8515" class="cls-2" d="m3.24,5.57c-.28-.26-.72-.24-.98.04l-.24-.22h0c-.33-.3-.85-.28-1.15.05l-.15.17c-.3.33-.28.85.05,1.15l.24.22c-.26.28-.24.72.04.98l10.68,9.84c.1.09.22.16.35.19l2.71.71c.14.02.27-.07.29-.21,0-.03,0-.07,0-.1l-.93-2.64c-.04-.13-.12-.24-.22-.33L3.24,5.57Zm10.69,12.06l-.56-1.62-.58-.53-1.12,1.16.6.56,1.66.43Zm-2.86-1.54L1.89,7.64l1.1-1.19,9.2,8.48-1.12,1.16ZM1.91,6.41l-.45-.42-.15.17.45.42.15-.17Z"/>
  </g>
</svg>